<?xml version="1.0" encoding="UTF-8"?><svg id="Layer_1" xmlns="http://www.w3.org/2000/svg" viewBox="0 0 150 26.99"><defs><style>.cls-1{fill:#fff;}</style></defs><g><path class="cls-1" d="m54.16,20.51v2.59h-13.93v-2.59l9.8-14.04h-9.55v-2.59h13.4v2.59l-9.8,14.04h10.08Z"/><path class="cls-1" d="m57.84,23.1l6.35-19.22h5.99l6.32,19.22h-3.2l-1.78-5.4h-8.66l-1.78,5.4h-3.23Zm5.85-8.02h6.96l-3.48-10.58-3.48,10.58Z"/><path class="cls-1" d="m80.82,23.1V3.88h11.45v2.59h-8.3v5.46h8.05v2.59h-8.05v5.99h8.52v2.59h-11.67Z"/><path class="cls-1" d="m98.12,23.1V3.88h3.15v16.63h8.36v2.59h-11.5Z"/><path class="cls-1" d="m112.81,23.1l6.35-19.22h5.99l6.32,19.22h-3.2l-1.78-5.4h-8.66l-1.78,5.4h-3.23Zm5.85-8.02h6.96l-3.48-10.58-3.48,10.58Z"/><path class="cls-1" d="m135.79,23.1V3.88h6.21c4.82,0,7.07,1.73,7.07,5.18,0,2.28-1.75,3.62-3.73,4.01v.08c3.12.25,4.65,1.89,4.65,4.43,0,3.48-2.42,5.52-7.16,5.52h-7.05Zm3.15-16.63v5.38h3.12c2.59,0,3.73-.97,3.73-2.7s-.95-2.67-3.54-2.67h-3.31Zm0,7.97v6.07h3.96c2.79,0,3.82-1.14,3.82-3.04s-1.28-3.04-4.07-3.04h-3.7Z"/></g><g><polygon class="cls-1" points="26.99 10.88 21.75 16.91 21.75 5.82 .03 5.82 5.11 0 26.99 0 26.99 10.88"/><polygon class="cls-1" points="0 18.36 5.23 12.34 5.23 21.17 18.05 21.17 12.99 26.99 0 26.99 0 18.36"/></g></svg>