<svg width="212" height="40" viewBox="0 0 212 40" fill="none" xmlns="http://www.w3.org/2000/svg">
<g id="Group 13">
<g id="Group">
<path id="Vector" d="M19.3387 0.672363C8.65921 0.672363 0 9.3291 0 20.0086C0 30.6881 8.65674 39.3449 19.3363 39.3449C30.0158 39.3449 38.6725 30.6881 38.6725 20.0086C38.6725 9.3291 30.0183 0.672363 19.3387 0.672363ZM10.1115 7.8151C10.1115 7.8151 12.7122 8.81785 13.5248 10.9617C14.3373 13.1055 13.0555 15.5802 13.0555 15.5802C13.0555 15.5802 10.4548 14.5775 9.6422 12.4337C8.82962 10.2874 10.1115 7.8151 10.1115 7.8151ZM9.22727 27.5638C6.98219 27.0945 5.58674 24.684 5.58674 24.684C5.58674 24.684 7.82934 23.0317 10.0744 23.501C12.3195 23.9702 13.7149 26.3808 13.7149 26.3808C13.7149 26.3808 11.4723 28.0306 9.22727 27.5638ZM23.4238 25.909H20.4995V23.0786H23.4238C26.9334 23.0786 29.7861 20.2235 29.7861 16.7163C29.7861 13.2067 26.931 10.3541 23.4238 10.3541H18.5138V27.9936C18.5187 31.1673 19.6475 33.6099 19.6475 33.6099H18.5138H15.6859H14.5522C14.5522 33.6099 15.6834 31.1698 15.6859 27.9985V25.3286L7.612 16.1582L8.69625 15.0739L15.6834 21.2262V7.52613H23.4213C28.4894 7.52613 32.614 11.6507 32.614 16.7188C32.6165 21.7869 28.4919 25.909 23.4238 25.909ZM21.6851 15.5111C23.1842 13.7773 25.9702 13.7279 25.9702 13.7279C25.9702 13.7279 26.3259 16.4916 24.8267 18.2254C23.3275 19.9592 20.5415 20.0086 20.5415 20.0086C20.5415 20.0086 20.1834 17.2449 21.6851 15.5111Z" fill="#A3C7D2"/>
</g>
<g id="Group_2">
<path id="Vector_2" d="M50.7448 28.6158H48.2346V12.1436H51.7592C51.9439 12.1436 52.1044 12.1436 52.2891 12.1436C53.9696 12.1436 55.308 12.189 56.4132 12.9974C57.4276 13.7332 58.0725 15.0928 58.0725 16.6825C58.0725 18.2722 57.4276 19.6529 56.4132 20.3918C55.308 21.176 53.9726 21.2214 52.2891 21.2214C52.1286 21.2214 51.9439 21.2214 51.7592 21.2214H50.7448V28.6158ZM51.5987 19.0322C54.0635 19.0322 55.308 18.7567 55.308 16.843C55.308 14.8627 54.0877 14.4478 51.5987 14.4478H50.9083V19.0322H51.5987Z" fill="#A3C7D2"/>
<path id="Vector_3" d="M60.3079 23.6404C60.4229 25.645 61.5524 26.8198 63.3268 26.8198C64.8922 26.8198 65.8824 26.1991 66.6666 24.7245L68.7166 25.8751C67.5175 28.0189 65.7673 29.0545 63.3722 29.0545C59.9627 29.0545 57.7734 26.7956 57.7734 23.3195C57.7734 20.0008 60.0535 17.5845 63.3722 17.5845C66.8059 17.5845 68.8316 19.6344 68.8316 23.1832C68.8316 23.3225 68.8316 23.483 68.8316 23.6435H60.3079V23.6404ZM63.4176 19.6556C61.8279 19.6556 60.862 20.4156 60.4683 22.0053H66.2972C66.1125 20.4611 65.0981 19.6556 63.4176 19.6556Z" fill="#A3C7D2"/>
<path id="Vector_4" d="M78.6189 28.6155V27.2347C77.7438 28.455 76.5901 29.0546 75.0943 29.0546C72.1238 29.0546 70.2344 26.9108 70.2344 23.2711C70.2344 19.8374 72.2147 17.5815 75.0246 17.5815C76.7748 17.5815 78.0435 18.3416 78.6189 19.7011V17.951H81.0594V28.6185H78.6189V28.6155ZM75.7635 19.7466C73.9194 19.7466 72.793 21.0819 72.793 23.3408C72.793 25.6208 73.877 26.8896 75.7181 26.8896C77.3986 26.8896 78.6885 25.5088 78.6885 23.2499C78.6885 21.0153 77.5833 19.7466 75.7635 19.7466Z" fill="#A3C7D2"/>
<path id="Vector_5" d="M88.5506 19.7223C86.5703 19.7223 85.2562 21.1061 85.2562 23.2469C85.2562 25.4815 86.5461 26.8169 88.6657 26.8169C89.8406 26.8169 90.7611 26.3778 91.4757 25.4815V28.2915C90.5764 28.7972 89.565 29.0515 88.3871 29.0515C85.0473 29.0515 82.7188 26.7018 82.7188 23.3165C82.7188 19.8828 85.1139 17.5815 88.6385 17.5815C89.7225 17.5815 90.643 17.7905 91.4726 18.2507V20.9911C90.7399 20.1856 89.7255 19.7223 88.5506 19.7223Z" fill="#A3C7D2"/>
<path id="Vector_6" d="M93.3906 12.1436H95.6949V19.6984C96.6851 18.2025 97.9538 17.5788 99.819 17.5788C101.409 17.5788 102.538 18.0845 103.159 19.0776C103.689 19.8831 103.689 20.852 103.689 22.1419V28.6158H101.224V23.1321C101.224 20.7582 100.924 19.6529 98.8985 19.6529C97.7479 19.6529 96.8244 20.089 96.3187 20.852C95.8796 21.497 95.8342 22.4175 95.8342 23.7559V28.6158H93.3936V12.1436H93.3906Z" fill="#A3C7D2"/>
<path id="Vector_7" d="M107.053 20.092H105.188V17.9482H107.053V13.918H109.493V17.9482H111.359V20.092H109.493V28.6158H107.053V20.092Z" fill="#A3C7D2"/>
<path id="Vector_8" d="M118.309 17.5815C118.999 17.5815 119.668 17.742 120.313 18.066L119.438 20.1402C118.978 19.8192 118.493 19.7011 117.939 19.7011C116.21 19.7011 115.659 21.0607 115.659 23.9403V28.6155H113.219V17.9267H115.659V19.6557C116.189 18.2507 117.019 17.5815 118.309 17.5815Z" fill="#A3C7D2"/>
<path id="Vector_9" d="M122.988 23.6404C123.103 25.645 124.232 26.8198 126.006 26.8198C127.572 26.8198 128.562 26.1991 129.346 24.7245L131.396 25.8751C130.197 28.0189 128.447 29.0545 126.052 29.0545C122.642 29.0545 120.453 26.7956 120.453 23.3195C120.453 20.0008 122.733 17.5845 126.052 17.5845C129.486 17.5845 131.511 19.6344 131.511 23.1832C131.511 23.3225 131.511 23.483 131.511 23.6435H122.988V23.6404ZM126.097 19.6556C124.508 19.6556 123.542 20.4156 123.148 22.0053H128.977C128.792 20.4611 127.778 19.6556 126.097 19.6556Z" fill="#A3C7D2"/>
<path id="Vector_10" d="M135.456 23.6404C135.571 25.645 136.701 26.8198 138.475 26.8198C140.041 26.8198 141.031 26.1991 141.815 24.7245L143.865 25.8751C142.666 28.0189 140.916 29.0545 138.521 29.0545C135.111 29.0545 132.922 26.7956 132.922 23.3195C132.922 20.0008 135.202 17.5845 138.521 17.5845C141.954 17.5845 143.98 19.6344 143.98 23.1832C143.98 23.3225 143.98 23.483 143.98 23.6435H135.456V23.6404ZM138.566 19.6556C136.976 19.6556 136.01 20.4156 135.617 22.0053H141.446C141.261 20.4611 140.247 19.6556 138.566 19.6556Z" fill="#A3C7D2"/>
<path id="Vector_11" d="M166.873 20.4878C166.897 21.157 166.918 21.6627 166.918 22.0321C166.918 26.7073 164.108 29.3568 159.315 29.3568C156.62 29.3568 154.525 28.5725 152.935 26.9616C151.37 25.3719 150.516 23.1615 150.516 20.7179C150.516 18.2289 151.366 16.1093 153.026 14.4985C154.64 12.933 156.85 12.0791 159.315 12.0791C161.919 12.0791 163.945 13.0238 165.534 14.9587L163.575 16.4333C162.47 15.1434 161.086 14.5227 159.36 14.5227C155.836 14.5227 153.301 16.9875 153.301 20.6967C153.301 24.4514 155.812 26.9616 159.382 26.9616C162.47 26.9616 164.311 25.4174 164.311 22.9768C164.311 22.9072 164.311 22.8163 164.311 22.7467H160.347V20.4878H166.873Z" fill="#A3C7D2"/>
<path id="Vector_12" d="M173.692 17.8838C174.382 17.8838 175.051 18.0443 175.696 18.3683L174.821 20.4424C174.361 20.1215 173.876 20.0034 173.322 20.0034C171.593 20.0034 171.042 21.3629 171.042 24.2425V28.9178H168.602V18.229H171.042V19.958C171.572 18.5499 172.402 17.8838 173.692 17.8838Z" fill="#A3C7D2"/>
<path id="Vector_13" d="M177.331 19.5431C178.436 18.4591 179.91 17.8838 181.455 17.8838C183.044 17.8838 184.495 18.4591 185.624 19.5643C186.729 20.6483 187.353 22.0533 187.353 23.5946C187.353 25.1843 186.754 26.5892 185.648 27.649C184.498 28.7542 183.044 29.3538 181.455 29.3538C179.91 29.3538 178.436 28.7542 177.331 27.6733C176.201 26.568 175.602 25.1631 175.602 23.5946C175.602 22.0533 176.201 20.6241 177.331 19.5431ZM181.476 20.073C179.656 20.073 178.181 21.6173 178.181 23.6218C178.181 25.6263 179.656 27.1706 181.476 27.1706C183.271 27.1706 184.77 25.6263 184.77 23.6218C184.77 21.6143 183.296 20.073 181.476 20.073Z" fill="#A3C7D2"/>
<path id="Vector_14" d="M191.381 24.2636C191.381 26.2681 192.117 27.1674 194.1 27.1674C196.081 27.1674 196.819 26.2681 196.819 24.2636V18.25H199.26V23.5247C199.26 27.5096 197.785 29.3536 194.121 29.3536C190.388 29.3536 188.938 27.5338 188.938 23.5247V18.25H191.378V24.2636H191.381Z" fill="#A3C7D2"/>
<path id="Vector_15" d="M201.172 18.2532H203.612V20.0034C204.188 18.6438 205.478 17.8838 207.228 17.8838C210.038 17.8838 211.997 20.1427 211.997 23.5734C211.997 27.213 210.107 29.3568 207.137 29.3568C205.641 29.3568 204.488 28.7573 203.612 27.537V33.9412H201.172V18.2532ZM206.54 27.1918C208.385 27.1918 209.444 25.9231 209.444 23.643C209.444 21.3841 208.315 20.0488 206.474 20.0488C204.654 20.0488 203.549 21.3175 203.549 23.5491C203.546 25.8322 204.812 27.1918 206.54 27.1918Z" fill="#A3C7D2"/>
</g>
</g>
</svg>
