<svg width="299" height="80" viewBox="0 0 299 80" fill="none" xmlns="http://www.w3.org/2000/svg">
<g clip-path="url(#clip0_407_1261)">
<path d="M72.9412 30.1266V44.3038C72.9412 45.9494 73.5689 47.4684 74.8244 47.4684V48.4811C74.0711 48.4811 72.439 48.2279 70.6814 48.2279C69.1749 48.2279 67.5428 48.4811 66.7895 48.4811V47.4684C68.045 47.4684 68.7982 45.9494 68.7982 44.3038V24.8102C68.7982 12.6583 68.4216 12.0254 66.2874 12.1519V11.2659C67.5428 11.2659 69.1749 11.519 70.6814 11.519C72.439 11.519 74.0711 11.2659 75.3265 11.2659V12.2785C73.5689 12.2785 72.9412 13.7975 72.9412 15.4431L72.8157 27.9747H96.6691L96.5435 15.4431C96.5435 13.7975 95.9158 12.2785 94.1582 12.2785V11.2659C95.4136 11.2659 97.0457 11.519 98.8033 11.519C100.31 11.519 101.942 11.2659 103.197 11.2659V12.2785C101.063 12.0254 100.686 12.6583 100.686 24.9368V44.557C100.686 46.2026 101.44 47.7216 102.695 47.7216V48.7342C101.942 48.7342 100.31 48.4811 98.8033 48.4811C97.0457 48.4811 95.4136 48.7342 94.6603 48.7342V47.7216C95.9158 47.7216 96.5435 46.2026 96.5435 44.557V30.1266H72.9412Z" fill="#0F4067"/>
<path d="M116.254 37.8481L114.622 42.5317C114.245 43.6709 114.245 44.9367 114.245 45.4431C114.245 46.4557 115.124 47.0886 116.505 47.595V48.6076C115.25 48.6076 113.869 48.3544 112.613 48.3544C111.232 48.3544 109.851 48.6076 108.345 48.6076V47.595C110.981 46.7089 111.358 45.4431 112.236 43.038L124.791 10.5063H125.67L136.969 43.038C137.847 45.5696 138.601 46.5823 141.112 47.595V48.6076C139.605 48.6076 137.973 48.3544 136.466 48.3544C134.96 48.3544 133.328 48.6076 131.821 48.6076V47.595C132.449 47.0886 133.705 46.4557 133.705 45.8228C133.705 44.9367 133.453 44.3038 133.077 43.5443L131.068 37.9747H116.254V37.8481ZM117.007 35.6962H130.064L123.912 18.2279L117.007 35.6962Z" fill="#0F4067"/>
<path d="M165.844 46.2026C173.377 46.2026 174.883 44.557 175.887 41.6456H176.892L176.013 48.8608C175.511 48.7342 174.758 48.481 173.879 48.481C173 48.3545 171.745 48.3545 170.489 48.3545H144.878V47.595C146.636 45.3165 148.519 43.038 150.151 40.8861L170.238 13.6709H151.909C149.147 13.6709 147.138 14.8101 146.133 17.595H145.129L145.38 10.6329H146.008C146.761 11.0127 148.142 11.1393 150.402 11.2658C152.787 11.3924 156.051 11.519 160.697 11.519C170.991 11.519 174.13 11.2658 175.762 10.8861H177.143V11.6456C167.225 22.6582 159.19 35.5696 151.532 46.2026H165.844Z" fill="#0F4067"/>
<path d="M200.871 10.6329C211.667 10.6329 219.702 18.9874 219.702 30C219.702 41.0127 211.793 49.3671 200.871 49.3671C189.948 49.3671 182.039 41.0127 182.039 30C182.039 18.9874 190.074 10.6329 200.871 10.6329ZM200.871 47.4684C210.663 47.4684 214.681 39.6203 214.681 29.8734C214.681 20.1266 210.538 12.2785 200.871 12.2785C191.204 12.2785 187.061 20.1266 187.061 29.8734C187.061 39.6203 191.204 47.4684 200.871 47.4684Z" fill="#0F4067"/>
<path d="M243.681 10.6329C254.478 10.6329 262.513 18.9874 262.513 30C262.513 41.0127 254.604 49.3671 243.681 49.3671C232.759 49.3671 224.85 41.0127 224.85 30C224.85 18.9874 232.884 10.6329 243.681 10.6329ZM243.681 47.4684C253.474 47.4684 257.491 39.6203 257.491 29.8734C257.491 20.1266 253.348 12.2785 243.681 12.2785C234.014 12.2785 229.871 20.1266 229.871 29.8734C229.871 39.6203 234.014 47.4684 243.681 47.4684Z" fill="#0F4067"/>
<path d="M272.18 29.8734C272.18 25.0633 271.929 20.1266 271.929 16.3291C271.929 13.5443 271.301 12.1519 269.041 12.1519V11.2659C271.552 11.2659 276.072 10.8861 278.834 10.8861C285.99 10.8861 292.769 13.6709 292.769 21.8988C292.769 26.8355 288.501 30.3798 283.981 31.6456L295.531 45.4431C296.661 46.8355 297.54 47.2152 298.795 47.595V48.6076C297.414 48.6076 296.033 48.3545 294.778 48.3545C293.522 48.3545 292.016 48.6076 290.76 48.6076V47.595C290.886 47.4684 291.137 47.3418 291.137 47.2152C291.137 47.0886 290.886 46.5823 290.76 46.3291L281.847 35.1899C280.591 33.6709 278.959 32.4051 276.448 32.1519V44.3038C276.448 45.9494 277.076 47.4684 278.834 47.4684V48.481C277.578 48.481 275.946 48.2279 274.189 48.2279C272.682 48.2279 271.05 48.481 269.795 48.481V47.4684C271.552 47.4684 272.18 45.9494 272.18 44.3038V29.8734ZM276.323 30.5064C276.951 30.6329 277.829 30.8861 278.708 30.8861C284.483 30.8861 288.124 27.3418 288.124 21.8988C288.124 16.4557 284.86 12.5317 278.959 12.5317C276.825 12.5317 276.448 12.6583 276.448 14.3038C276.448 16.7089 276.197 19.6203 276.197 21.8988V30.5064H276.323Z" fill="#0F4067"/>
<path d="M67.5427 70V61.0127H68.5471V70H67.5427Z" fill="#0F4067"/>
<path d="M78.9673 61.0127H79.9716V70H79.0928L73.6944 62.7848V70H72.6901V61.0127H73.4433L78.8417 68.2279V61.0127H78.9673Z" fill="#0F4067"/>
<path d="M90.6429 61.0127H91.7728L87.8809 70H87.0021L83.1102 61.0127H84.1146L87.3787 68.7342L90.6429 61.0127Z" fill="#0F4067"/>
<path d="M94.9114 70V61.0127H100.561V61.8988H95.9157V65.0633H100.31V65.8228H95.9157V69.114H100.561V70H94.9114Z" fill="#0F4067"/>
<path d="M103.574 68.9874L103.951 68.2279C104.453 68.6076 104.829 68.8608 105.332 68.9874C105.834 69.114 106.336 69.2405 106.964 69.2405C107.717 69.2405 108.219 69.114 108.596 68.8608C108.972 68.6076 109.223 68.2279 109.223 67.7216C109.223 67.4684 109.098 67.2152 108.972 66.9621C108.721 66.8355 108.596 66.5823 108.219 66.4557C107.968 66.3291 107.466 66.2026 106.964 66.076C106.336 65.9494 105.708 65.8228 105.332 65.5697C104.955 65.3165 104.578 65.1899 104.202 64.8102C103.951 64.4304 103.825 64.0507 103.825 63.5443C103.825 63.038 103.951 62.5317 104.202 62.1519C104.453 61.7722 104.829 61.3924 105.332 61.2659C105.834 61.0127 106.336 60.8861 107.089 60.8861C107.717 60.8861 108.345 61.0127 108.847 61.1393C109.349 61.3924 109.851 61.6456 110.228 62.0254L109.851 62.7848C109.475 62.4051 108.972 62.1519 108.596 62.0254C108.219 61.8988 107.717 61.7722 107.215 61.7722C106.461 61.7722 105.959 61.8988 105.583 62.2785C105.206 62.5317 104.955 63.038 104.955 63.5443C104.955 64.0507 105.081 64.3038 105.457 64.557C105.834 64.8102 106.336 64.9367 107.089 65.1899C107.842 65.3165 108.47 65.5697 108.847 65.6962C109.223 65.8228 109.6 66.076 109.977 66.4557C110.353 66.8355 110.353 67.2152 110.353 67.7216C110.353 68.2279 110.228 68.7342 109.977 69.114C109.726 69.4937 109.349 69.7469 108.847 70C108.345 70.2532 107.717 70.2532 107.089 70.2532C105.583 70.1266 104.453 69.7469 103.574 68.9874Z" fill="#0F4067"/>
<path d="M115.877 70V61.8988H112.739V61.0127H120.02V61.8988H116.882V70H115.877Z" fill="#0F4067"/>
<path d="M130.943 61.0127H131.821V70H130.817V63.2912L127.93 70H127.176L124.289 63.4178V70H123.284V61.0127H124.163L127.553 68.7342L130.943 61.0127Z" fill="#0F4067"/>
<path d="M135.964 70V61.0127H141.614V61.8988H136.969V65.0633H141.363V65.8228H136.969V69.114H141.614V70H135.964Z" fill="#0F4067"/>
<path d="M151.657 61.0127H152.662V70H151.908L146.51 62.7848V70H145.506V61.0127H146.259L151.657 68.2279V61.0127Z" fill="#0F4067"/>
<path d="M158.939 70V61.8988H155.8V61.0127H163.082V61.8988H159.943V70H158.939Z" fill="#0F4067"/>
<path d="M179.277 61.0127H180.156V70H179.152V63.2912L176.264 70H175.511L172.623 63.4178V70H171.619V61.0127H172.498L175.887 68.7342L179.277 61.0127Z" fill="#0F4067"/>
<path d="M191.204 70L190.2 67.7216H185.554L184.55 70H183.546L187.438 61.0127H188.316L192.208 70H191.204ZM185.805 66.8355H189.697L187.689 62.1519L185.805 66.8355Z" fill="#0F4067"/>
<path d="M201.75 61.0127H202.754V70H202.001L196.602 62.7848V70H195.598V61.0127H196.351L201.75 68.2279V61.0127Z" fill="#0F4067"/>
<path d="M213.802 70L212.797 67.7216H208.152L207.148 70H206.144L210.035 61.0127H210.914L214.806 70H213.802ZM208.403 66.8355H212.295L210.287 62.1519L208.403 66.8355Z" fill="#0F4067"/>
<path d="M224.85 65.3165V69.4937C224.473 69.6203 224.096 69.8735 223.469 70C222.841 70.1266 222.339 70.1266 221.711 70.1266C220.832 70.1266 220.079 70 219.451 69.6203C218.823 69.2405 218.321 68.7342 217.945 67.9747C217.568 67.3418 217.443 66.4557 217.443 65.4431C217.443 64.4304 217.568 63.6709 217.945 63.038C218.321 62.4051 218.823 61.7722 219.451 61.519C220.079 61.1393 220.832 61.0127 221.711 61.0127C222.339 61.0127 222.966 61.1393 223.469 61.2659C223.971 61.3924 224.473 61.7722 224.85 62.1519L224.473 62.9114C224.096 62.5317 223.594 62.2785 223.218 62.1519C222.841 62.0254 222.339 61.8988 221.837 61.8988C220.832 61.8988 220.079 62.2785 219.451 62.9114C218.949 63.5443 218.698 64.4304 218.698 65.6962C218.698 66.9621 218.949 67.8481 219.577 68.481C220.079 69.114 220.958 69.4937 221.962 69.4937C222.715 69.4937 223.469 69.3671 224.096 69.114V66.3292H221.837V65.4431H224.85V65.3165Z" fill="#0F4067"/>
<path d="M228.993 70V61.0127H234.642V61.8988H229.997V65.0633H234.391V65.8228H229.997V69.114H234.642V70H228.993Z" fill="#0F4067"/>
<path d="M246.067 61.0127H246.945V70H245.941V63.2912L243.054 70H242.3L239.413 63.4178V70H238.408V61.0127H239.287L242.677 68.7342L246.067 61.0127Z" fill="#0F4067"/>
<path d="M251.088 70V61.0127H256.738V61.8988H252.093V65.0633H256.487V65.8228H252.093V69.114H256.738V70H251.088Z" fill="#0F4067"/>
<path d="M266.656 61.0127H267.66V70H266.907L261.509 62.7848V70H260.504V61.0127H261.257L266.656 68.2279V61.0127Z" fill="#0F4067"/>
<path d="M274.063 70V61.8988H270.924V61.0127H278.206V61.8988H275.067V70H274.063Z" fill="#0F4067"/>
<path d="M23.9789 80L37.1611 75.5696L43.1872 67.7215L47.5812 57.3418L47.8323 45.1899L40.9274 23.5443L23.9789 0H23.8534L6.90493 23.5443L0 45.1899L0.251088 57.3418L4.64513 67.7215L10.7968 75.5696L23.8534 80" fill="#0F4067"/>
<g opacity="0.9">
<path d="M33.6458 70.6329V63.038L23.9789 68.7342L33.6458 70.6329Z" fill="#5AB1AE"/>
</g>
<g opacity="0.9">
<path d="M33.6459 63.038L40.2997 57.0886L34.9013 44.4304L33.6459 63.038Z" fill="#92C29B"/>
</g>
<g opacity="0.5">
<path d="M33.6459 70.6329V63.038L40.2997 57.0886L43.1872 67.7215L33.6459 70.6329Z" fill="#92C29B"/>
</g>
<g opacity="0.2">
<path d="M43.1872 67.7216L33.6458 70.6329L23.9789 80L37.1611 75.5697L43.1872 67.7216Z" fill="#5AB1AE"/>
</g>
<g opacity="0.4">
<path d="M23.9789 68.7341L33.6458 70.6329L23.9789 80V68.7341Z" fill="#5AB1AE"/>
</g>
<g opacity="0.2">
<path d="M23.9789 80L14.312 70.6329L23.9789 68.7341V80Z" fill="#92C29B"/>
</g>
<g opacity="0.2">
<path d="M14.3121 70.6329L23.979 80H23.8534L10.7968 75.5696L14.3121 70.6329Z" fill="#5AB1AE"/>
</g>
<g opacity="0.3">
<path d="M47.8323 45.1898L40.2997 57.0886L43.1872 67.7215L47.5813 57.3417L47.8323 45.1898Z" fill="#5AB1AE"/>
</g>
<g opacity="0.6">
<path d="M47.8324 45.1899L34.9013 44.4304L40.2997 57.0886L47.8324 45.1899Z" fill="#5AB1AE"/>
</g>
<g opacity="0.4">
<path d="M47.8324 45.1899L44.9448 36.2025L34.9013 44.4304L47.8324 45.1899Z" fill="#5AB1AE"/>
</g>
<g opacity="0.4">
<path d="M14.312 70.6329L4.64514 67.7216L10.7968 75.5697L14.312 70.6329Z" fill="#5AB1AE"/>
</g>
<g opacity="0.3">
<path d="M23.8534 6.45569L15.3164 11.8987L23.8534 21.6456V6.45569Z" fill="#5AB1AE"/>
</g>
<g opacity="0.2">
<path d="M15.3164 11.8987L23.8534 6.4557V0L15.3164 11.8987Z" fill="#5AB1AE"/>
</g>
<g opacity="0.2">
<path d="M6.90491 23.5443L16.6974 22.1518L15.3164 11.8987L6.90491 23.5443Z" fill="#5AB1AE"/>
</g>
<g opacity="0.4">
<path d="M16.6974 22.1519L6.90491 23.5443L9.79242 33.7974L16.6974 22.1519Z" fill="#5AB1AE"/>
</g>
<g opacity="0.4">
<path d="M16.6974 22.1518L15.3164 11.8987L23.8534 21.6455" fill="#5AB1AE"/>
</g>
<g opacity="0.2">
<path d="M6.90493 23.5443L9.79244 33.7975L2.88751 36.2025L6.90493 23.5443Z" fill="#5AB1AE"/>
</g>
</g>
<defs>
<clipPath id="clip0_407_1261">
<rect width="298.795" height="80" fill="white"/>
</clipPath>
</defs>
</svg>
