<svg width="1408" height="217" viewBox="0 0 1408 217" fill="none" xmlns="http://www.w3.org/2000/svg">
<path fill-rule="evenodd" clip-rule="evenodd" d="M86.7454 53.154H50.241V168.269H86.7454C119.493 168.269 146.056 142.507 146.056 110.693C146.056 78.878 119.493 53.1161 86.7454 53.1161V53.154ZM0 4.42969V216.955H86.7075C147.194 216.955 196.221 169.366 196.221 110.693C196.221 52.0191 147.232 4.42969 86.7454 4.42969H0.0379545H0Z" fill="white"/>
<path fill-rule="evenodd" clip-rule="evenodd" d="M542.671 217.065V71.9516C542.671 59.1274 553.409 48.6865 566.615 48.6865C579.82 48.6865 590.559 59.0896 590.559 71.9516V217.065H640.762V71.9516C640.762 59.1274 651.501 48.6865 664.706 48.6865C677.911 48.6865 688.65 59.0896 688.65 71.9516V217.065H738.853V71.9516C738.891 32.2307 705.688 0 664.744 0C645.923 0 628.771 6.8093 615.679 18.0068C602.588 6.8093 585.436 0 566.615 0C525.671 0 492.468 32.2307 492.468 71.9516V217.065H542.671Z" fill="white"/>
<path fill-rule="evenodd" clip-rule="evenodd" d="M1168.06 53.4169H1135.47C1119.08 53.4169 1105.79 66.3168 1105.79 82.2051V144.208C1105.79 186.841 1070.2 221.38 1026.3 221.38H993.967V172.655H1026.3C1042.5 172.655 1055.63 159.907 1055.63 144.208V82.2051C1055.63 39.42 1091.38 4.73047 1135.47 4.73047H1168.06V53.4548V53.4169Z" fill="white"/>
<path fill-rule="evenodd" clip-rule="evenodd" d="M831.139 126.203V4.42969H780.936V126.203C780.936 178.785 824.878 221.419 879.065 221.419C933.253 221.419 977.195 178.785 977.195 126.203V4.42969H926.992V126.203C926.992 151.889 905.552 172.695 879.065 172.695C852.579 172.695 831.139 151.889 831.139 126.203Z" fill="white"/>
<path fill-rule="evenodd" clip-rule="evenodd" d="M277.046 110.689C277.046 144.924 305.658 172.691 340.948 172.691C376.238 172.691 404.85 144.924 404.85 110.689C404.85 76.4532 376.238 48.6865 340.948 48.6865C305.658 48.6865 277.046 76.4532 277.046 110.689ZM340.948 0C277.919 0 226.843 49.5565 226.843 110.689C226.843 171.821 277.919 221.378 340.948 221.378C403.977 221.378 455.053 171.821 455.053 110.689C455.053 49.5565 403.939 0 340.948 0Z" fill="white"/>
<path fill-rule="evenodd" clip-rule="evenodd" d="M1229.99 110.689C1229.99 144.924 1258.61 172.691 1293.9 172.691C1329.19 172.691 1357.8 144.924 1357.8 110.689C1357.8 76.4532 1329.19 48.6865 1293.9 48.6865C1258.61 48.6865 1229.99 76.4532 1229.99 110.689ZM1293.9 0C1230.87 0 1179.79 49.5565 1179.79 110.689C1179.79 171.821 1230.87 221.378 1293.9 221.378C1356.92 221.378 1408 171.821 1408 110.689C1408 49.5565 1356.89 0 1293.9 0Z" fill="white"/>
</svg>
