<svg xmlns="http://www.w3.org/2000/svg" width="133.677" height="48.541" viewBox="0 0 133.677 48.541">
  <g id="baleon-capital-logo" transform="translate(-2372.609 -403.908)">
    <path id="Path_2571" data-name="Path 2571" d="M224.59,47.7a6.822,6.822,0,0,1,1.5,4.348A7,7,0,0,1,225,55.937a7.236,7.236,0,0,1-3.142,2.629,11.525,11.525,0,0,1-4.862.949H205.1V31.925h11.384a11.811,11.811,0,0,1,4.841.91,6.905,6.905,0,0,1,3.083,2.529,6.633,6.633,0,0,1,1.047,3.676,6.289,6.289,0,0,1-1.285,4.032,6.868,6.868,0,0,1-3.418,2.293A6.208,6.208,0,0,1,224.59,47.7m-13.953-4.387H215.7a4.634,4.634,0,0,0,3.044-.889,3.132,3.132,0,0,0,1.066-2.55A3.193,3.193,0,0,0,218.74,37.3a4.567,4.567,0,0,0-3.044-.909h-5.059Zm8.715,10.752a3.32,3.32,0,0,0,1.127-2.688,3.459,3.459,0,0,0-1.186-2.786,4.78,4.78,0,0,0-3.2-1.007h-5.454v7.43h5.573a4.733,4.733,0,0,0,3.142-.948" transform="translate(2167.506 373.642)" fill="#1d4261"/>
    <path id="Path_2572" data-name="Path 2572" d="M259.39,49.041a9.706,9.706,0,0,1,3.6-3.952,9.575,9.575,0,0,1,5.079-1.383,8.93,8.93,0,0,1,4.289.988,8.711,8.711,0,0,1,2.945,2.49V44.061h5.572v21.9H275.3v-3.2a8.235,8.235,0,0,1-2.945,2.55,9.014,9.014,0,0,1-4.328,1.008,9.3,9.3,0,0,1-5.04-1.423,9.948,9.948,0,0,1-3.6-4.011,12.877,12.877,0,0,1-1.324-5.949,12.67,12.67,0,0,1,1.324-5.89m15.118,2.51a5.577,5.577,0,0,0-2.134-2.213,5.707,5.707,0,0,0-2.886-.771,5.558,5.558,0,0,0-4.961,2.945,6.878,6.878,0,0,0-.81,3.418,7.1,7.1,0,0,0,.81,3.459,5.83,5.83,0,0,0,2.135,2.273,5.408,5.408,0,0,0,2.826.791,5.711,5.711,0,0,0,2.886-.771,5.572,5.572,0,0,0,2.134-2.213,7.954,7.954,0,0,0,0-6.917" transform="translate(2138.536 367.199)" fill="#1d4261"/>
    <rect id="Rectangle_1275" data-name="Rectangle 1275" width="5.534" height="29.249" transform="translate(2424.823 403.908)" fill="#1d4261"/>
    <path id="Path_2573" data-name="Path 2573" d="M363.1,56.67H347.09a5.437,5.437,0,0,0,1.66,3.716,5.118,5.118,0,0,0,3.6,1.344,4.518,4.518,0,0,0,4.387-2.648H362.7a9.968,9.968,0,0,1-3.635,5.2,10.616,10.616,0,0,1-6.6,2.036,11.414,11.414,0,0,1-5.672-1.4,9.864,9.864,0,0,1-3.913-3.972,12.17,12.17,0,0,1-1.4-5.929,12.4,12.4,0,0,1,1.383-5.969,9.667,9.667,0,0,1,3.873-3.952,12.436,12.436,0,0,1,11.324-.039,9.457,9.457,0,0,1,3.834,3.814,11.54,11.54,0,0,1,1.364,5.672,13.091,13.091,0,0,1-.158,2.135m-5.574-3.716a4.388,4.388,0,0,0-1.541-3.419,5.466,5.466,0,0,0-3.676-1.284,5.021,5.021,0,0,0-3.459,1.244,5.479,5.479,0,0,0-1.72,3.459Z" transform="translate(2092.911 367.199)" fill="#1d4261"/>
    <path id="Path_2574" data-name="Path 2574" d="M400.814,64.911a10.1,10.1,0,0,1-3.972-3.972,11.9,11.9,0,0,1-1.443-5.929,11.65,11.65,0,0,1,1.482-5.929,10.3,10.3,0,0,1,4.052-3.972,12.408,12.408,0,0,1,11.463,0,10.3,10.3,0,0,1,4.051,3.972,11.65,11.65,0,0,1,1.482,5.929,11.413,11.413,0,0,1-1.521,5.929,10.551,10.551,0,0,1-4.111,3.972,11.954,11.954,0,0,1-5.791,1.4,11.524,11.524,0,0,1-5.692-1.4m8.518-4.15a5.32,5.32,0,0,0,2.115-2.194,7.4,7.4,0,0,0,.79-3.558,6.6,6.6,0,0,0-1.64-4.8,5.393,5.393,0,0,0-4.011-1.68,5.268,5.268,0,0,0-3.972,1.68,6.693,6.693,0,0,0-1.6,4.8,6.8,6.8,0,0,0,1.561,4.8,5.142,5.142,0,0,0,3.934,1.68,5.752,5.752,0,0,0,2.826-.731" transform="translate(2063.417 367.199)" fill="#1d4261"/>
    <path id="Path_2575" data-name="Path 2575" d="M472.578,46.263a9.461,9.461,0,0,1,2.411,6.9V66.007h-5.534V53.912a5.673,5.673,0,0,0-1.305-4.012,4.618,4.618,0,0,0-3.557-1.4,4.735,4.735,0,0,0-3.617,1.4,5.622,5.622,0,0,0-1.324,4.012V66.007H454.12v-21.9h5.534v2.728a7.623,7.623,0,0,1,2.826-2.234,8.752,8.752,0,0,1,3.775-.81,8.439,8.439,0,0,1,6.323,2.47" transform="translate(2031.297 367.15)" fill="#1d4261"/>
    <path id="Path_2576" data-name="Path 2576" d="M205.859,112.45a5.5,5.5,0,0,1,2.062-2.094,5.684,5.684,0,0,1,2.9-.755,5.872,5.872,0,0,1,3.269.9,5.166,5.166,0,0,1,2.036,2.563h-1.79a3.593,3.593,0,0,0-1.371-1.594,3.975,3.975,0,0,0-2.144-.559,4.18,4.18,0,0,0-2.151.559,3.9,3.9,0,0,0-1.495,1.585,5.568,5.568,0,0,0,0,4.8,3.9,3.9,0,0,0,1.495,1.586,4.184,4.184,0,0,0,2.151.558,4.012,4.012,0,0,0,2.144-.551,3.547,3.547,0,0,0,1.371-1.584h1.79a5.126,5.126,0,0,1-2.036,2.536,5.919,5.919,0,0,1-3.269.9,5.733,5.733,0,0,1-2.9-.747,5.435,5.435,0,0,1-2.062-2.078,6.375,6.375,0,0,1,0-6.02" transform="translate(2167.506 331.154)" fill="#1d4261"/>
    <path id="Path_2577" data-name="Path 2577" d="M265.6,118.909H260.6l-.92,2.545h-1.577l4.138-11.383h1.725l4.122,11.383h-1.577Zm-.427-1.216-2.069-5.781-2.069,5.781Z" transform="translate(2138.514 330.897)" fill="#1d4261"/>
    <path id="Path_2578" data-name="Path 2578" d="M316.19,115.652a4.143,4.143,0,0,1-2.981.944h-2.2v4.78h-1.495V109.928h3.695a4.189,4.189,0,0,1,2.948.936,3.382,3.382,0,0,1,.034,4.788m-1.141-.83a1.987,1.987,0,0,0,.591-1.544q0-2.117-2.431-2.118h-2.2v4.2h2.2a2.651,2.651,0,0,0,1.84-.542" transform="translate(2110.395 330.975)" fill="#1d4261"/>
    <rect id="Rectangle_1276" data-name="Rectangle 1276" width="1.495" height="11.448" transform="translate(2440.914 440.904)" fill="#1d4261"/>
    <path id="Path_2579" data-name="Path 2579" d="M396.374,109.928v1.215h-3.121v10.233h-1.495V111.143h-3.136v-1.215Z" transform="translate(2067.124 330.976)" fill="#1d4261"/>
    <path id="Path_2580" data-name="Path 2580" d="M441.063,118.909h-4.992l-.92,2.545h-1.577l4.138-11.383h1.725l4.122,11.383h-1.577Zm-.427-1.216-2.069-5.781-2.069,5.781Z" transform="translate(2042.536 330.897)" fill="#1d4261"/>
    <path id="Path_2581" data-name="Path 2581" d="M486.479,120.16h4.007v1.216h-5.5V109.928h1.495Z" transform="translate(2014.415 330.975)" fill="#1d4261"/>
  </g>
</svg>
