<svg viewBox="0 0 144 20" fill="none" xmlns="http://www.w3.org/2000/svg">
<path fill-rule="evenodd" clip-rule="evenodd" d="M113.615 4.19273e-05C116.758 4.19273e-05 118.661 0.517635 120.656 1.36247V6.08998H120.142L117.785 2.04358C116.818 1.1172 115.7 0.627904 113.857 0.627904C110.23 0.627904 107.42 3.62403 107.42 9.89091C107.42 15.2859 109.535 19.2902 114.038 19.2902C115.519 19.2902 116.848 18.8283 117.815 17.9837L120.172 13.6646H120.656V18.3923C118.148 19.2916 116.395 19.7275 113.222 20C107.239 20 102.071 16.8121 102.071 10.4632C102.071 4.14162 106.453 0.681361 113.615 4.19273e-05ZM90.2279 0C96.4739 0 100.567 3.95081 100.567 9.6458C100.567 15.4221 97.1105 18.6648 89.5609 20C83.3455 20 79.2525 16.0489 79.2525 10.3542C79.2525 4.57762 82.7089 1.33497 90.2279 0ZM130.741 0.46315V0.898985L128.923 1.22749V11.0605L139.29 1.22749L136.668 0.898985V0.46315H143V0.898985L140.243 1.22749L129.953 10.9802L133.75 10.3125L142.606 18.7724L144 19.1009V19.5367H137.426L128.923 11.6338V18.6621L130.741 19.1009V19.5367H122.318V19.1009L124.227 18.7724V1.39268L122.318 0.898985V0.46315H130.741ZM12.7494 0.463192C16.6632 0.463192 18.6814 2.53398 18.6814 4.65928C18.6814 7.35688 16.0518 9.20986 11.618 9.37317C17.3972 9.48239 19.5376 11.6622 19.5376 14.0871C19.5376 17.466 16.541 19.2917 11.6792 19.5366H0V19.1007L1.9264 18.7724V3.03711L5.9124 1.22753H1.9264L0 0.899027V0.463192H12.7494ZM37.5542 0.463045V5.24548H37.0648L34.7408 1.09133H28.7644L26.8336 1.48628V9.1812H31.2856L32.7534 6.28046H33.2732V12.7658H32.7534L31.2856 9.78202H26.8336V18.9088H34.8632L37.0342 14.5636H37.5542V19.5366H20.1676V19.1008L22.094 18.7725V1.22759L20.1676 0.899089V0.463045H37.5542ZM49.6231 0.463003C56.3195 0.463003 59.9889 3.92368 59.9889 9.56396C59.9889 10.4319 59.9113 11.2591 59.7537 12.0396C58.8917 16.3067 55.6319 19.168 49.5313 19.5366H39.5325V19.1007L41.5811 18.7725V1.22755L39.5325 0.899047V0.463003H49.6231ZM71.6018 0.463024C74.843 0.463024 77.8702 3.01032 77.8702 6.33453C77.8702 9.57718 75.3284 11.7088 69.76 12.5479L74.5372 13.3643L79.1544 18.8827L80.4082 19.1008V19.5366H74.2622L69.0334 12.7127L66.8122 13.9261V18.7725L68.5854 19.1008V19.5366H60.1462V19.1008L62.0726 18.7725V1.33784L60.1462 0.899068V0.463024H71.6018ZM89.3183 0.845884C86.1349 0.845884 84.6189 4.79565 84.6189 9.37327C84.6189 15.1771 87.0749 19.1539 90.5009 19.1539C93.6843 19.1539 95.1701 15.2043 95.1701 10.6267C95.1701 4.85015 92.7445 0.845884 89.3183 0.845884ZM48.6445 1.00932L46.3513 1.6225V18.7725L48.8279 18.9905C52.5585 18.9905 54.9435 15.2587 54.9435 9.67297C54.9435 4.63226 53.1087 1.00932 48.6445 1.00932ZM10.447 9.67295H6.66579V18.7724L8.59219 18.9905H9.69459C12.5382 18.9905 15.083 16.9209 15.083 14.1963C15.083 11.1716 12.6178 9.67295 10.447 9.67295ZM69.4002 1.00934L66.8122 1.18124V13.188C66.8122 13.188 72.8288 10.6088 73.1404 6.5798C73.2198 5.55342 73.007 4.48909 72.6974 3.6843C72.0292 1.94641 70.7168 1.0282 69.4002 1.00934ZM10.5082 1.0095H8.77579L6.66579 1.22753V9.07213H10.3552C12.3426 9.07213 14.227 7.30259 14.227 4.68674C14.227 2.39793 12.4956 1.0095 10.5082 1.0095Z" fill="black"/>
</svg>
