<?xml version="1.0" encoding="UTF-8"?><svg id="Layer_1" xmlns="http://www.w3.org/2000/svg" width="164.993" height="55.156" viewBox="0 0 164.99 51.2"><defs><style>.cls-1{fill:#fff;}</style></defs><g id="Group_89111"><g id="Group_89110"><path id="Path_54067" class="cls-1" d="M29.89,32.59v-13.97h6.56c2.49,0,3.94,1.53,3.94,3.56.06,1.51-.96,2.86-2.43,3.21,1.61.36,2.74,1.79,2.71,3.44,0,2.2-1.47,3.77-4.04,3.77h-6.73ZM31.99,24.54h4.07c1.13.1,2.13-.73,2.23-1.86.1-1.13-.73-2.13-1.86-2.23-.12-.01-.25-.01-.37,0h-4.07v4.08ZM31.99,30.74h4.17c1.15.14,2.2-.69,2.33-1.84.01-.12.02-.24.01-.36.02-1.18-.92-2.15-2.1-2.17,0,0,0,0,0,0-.08,0-.17,0-.25.01h-4.17v4.36Z"/><path id="Path_54068" class="cls-1" d="M58.63,32.59l-3.33-5.38h-2.62v5.38h-2.09v-13.97h5.89c2.66,0,4.48,1.72,4.48,4.29.11,2.07-1.42,3.87-3.48,4.09l3.58,5.59h-2.43ZM56.2,20.46h-3.52v4.91h3.52c1.33.1,2.49-.89,2.59-2.22,0-.08,0-.15,0-.23.03-1.33-1.03-2.43-2.37-2.46,0,0,0,0,0,0-.08,0-.15,0-.23,0"/><rect id="Rectangle_8327" class="cls-1" x="71.28" y="18.61" width="2.09" height="13.98"/><path id="Path_54069" class="cls-1" d="M94.43,32.59l-4.19-5.7-4.19,5.7h-2.54l5.36-7.17-5.05-6.81h2.54l3.88,5.36,3.85-5.36h2.54l-5.01,6.79,5.32,7.19h-2.52Z"/><path id="Path_54070" class="cls-1" d="M110.43,32.59v-12.13h-4.34v-1.85h10.75v1.84h-4.32v12.13h-2.1Z"/><path id="Path_54071" class="cls-1" d="M133.83,18.38c4.17,0,7.04,3.08,7.04,7.23s-2.87,7.23-7.04,7.23-7.04-3.08-7.04-7.23,2.87-7.23,7.04-7.23M133.83,20.25c-3,0-4.88,2.28-4.88,5.36s1.89,5.36,4.88,5.36,4.88-2.3,4.88-5.36-1.93-5.36-4.88-5.36"/><path id="Path_54072" class="cls-1" d="M161.08,32.59l-7.73-10.73v10.73h-2.09v-13.98h2.16l7.61,10.48v-10.48h2.09v13.98h-2.03Z"/></g><g id="Group_89105"><path id="Path_54073" class="cls-1" d="M8.48,2.36L1.84,9.98v31.26l6.64,7.63V2.36Z"/><path id="Path_54074" class="cls-1" d="M13.33,17.62v14.2l6.18-7.1-6.18-7.1Z"/><path id="Path_54075" class="cls-1" d="M13.33,32.87h0v15.99l6.64-7.62v-16l-6.64,7.63Z"/></g><g id="Group_89104"><path id="Path_54076" class="cls-1" d="M94.3,44.2c-.09-2.49,1.85-4.58,4.34-4.66.09,0,.17,0,.26,0,1.38-.03,2.69.64,3.46,1.79l-.95.53c-.57-.82-1.51-1.31-2.52-1.31-1.91,0-3.45,1.56-3.44,3.47h0c0,.07,0,.13,0,.19-.11,1.91,1.35,3.55,3.26,3.66.06,0,.12,0,.18,0,1,0,1.95-.48,2.52-1.31l.96.53c-.78,1.14-2.09,1.82-3.48,1.79-2.49.05-4.55-1.92-4.6-4.41,0-.09,0-.17,0-.26"/><path id="Path_54077" class="cls-1" d="M113.42,48.7l-.8-2h-4.57l-.8,2h-1.24l3.62-9.02h1.4l3.63,9.02h-1.24ZM110.33,40.68l-1.96,5.02h3.91l-1.95-5.02Z"/><path id="Path_54078" class="cls-1" d="M118.54,48.7v-9.02h3.63c1.5-.06,2.76,1.12,2.82,2.62.06,1.5-1.12,2.76-2.62,2.82-.07,0-.14,0-.2,0h-2.5v3.58h-1.12ZM122.04,40.68h-2.37v3.44h2.37c.95.04,1.75-.7,1.79-1.65.04-.95-.7-1.75-1.65-1.79h0s-.1,0-.15,0"/><rect id="Rectangle_8328" class="cls-1" x="129.41" y="39.68" width="1.12" height="9.02"/><path id="Path_54079" class="cls-1" d="M137.28,48.71v-8.02h-2.86v-1h6.84v1h-2.86v8.02h-1.12Z"/><path id="Path_54080" class="cls-1" d="M152.71,48.7l-.8-2h-4.57l-.8,2h-1.24l3.63-9.02h1.4l3.64,9.02h-1.24ZM149.63,40.68l-1.96,5.02h3.91l-1.95-5.02Z"/><path id="Path_54081" class="cls-1" d="M157.84,48.71v-9.02h1.12v8.02h4.19v1h-5.32Z"/></g></g></svg>