<svg xmlns="http://www.w3.org/2000/svg" id="Layer_1" viewBox="0 0 286 242"><defs><style>.cls-1{fill:none;}.cls-2{fill:#002f87;}.cls-3{fill:#00953b;}</style></defs><g><path class="cls-2" d="M19.45,223.61c-.35-1.17-1.09-2-2.27-2-1.59,0-2.57,1.65-2.57,4.9-.03,3.25,.83,4.91,2.63,4.91,1.08,0,1.73-.42,2.44-2.06l2.22,.65c-.74,2.4-2.37,3.64-4.66,3.64-3.19,0-5.02-2.6-5.02-7.14s1.84-7.14,5.02-7.14c2.39,0,3.78,1.19,4.37,3.66l-2.17,.58Z"></path><path class="cls-2" d="M31.66,223.45v10h-1.97v-1.08c-.8,.61-1.72,1.27-2.77,1.27-1.8,0-2.67-1.31-2.67-3.35v-6.85h2.15v6.5c0,1.35,.38,1.77,1.11,1.77,.94,0,1.65-.6,2.01-1.06v-7.22h2.15Z"></path><path class="cls-2" d="M34.6,233.46v-10h1.98v1.71h.04c.52-1.19,1.25-1.87,2.53-1.9v2.52c-.11-.02-.23-.02-.38-.02-1.08,0-2.01,1.37-2.01,1.62v6.08h-2.15Z"></path><path class="cls-2" d="M41.22,233.46v-10h1.98v1.71h.03c.52-1.19,1.25-1.87,2.53-1.9v2.52c-.1-.02-.23-.02-.38-.02-1.07,0-2.01,1.37-2.01,1.62v6.08h-2.15Z"></path><path class="cls-2" d="M49.45,228.84c.04,2.08,.87,2.89,1.87,2.89s1.47-.5,2.01-1.19l1.56,1.08c-.83,1.42-2.05,2.04-3.78,2.04-2.34,0-3.81-2.02-3.81-5.19s1.47-5.19,3.92-5.19c2.36-.02,3.68,2.19,3.68,4.6v.98h-5.44Zm3.47-1.62c-.03-1.39-.69-2.19-1.73-2.19s-1.7,.81-1.73,2.19h3.47Z"></path><path class="cls-2" d="M57.51,233.46v-10h1.97v1.08c.8-.61,1.72-1.27,2.77-1.27,1.8,0,2.67,1.31,2.67,3.35v6.85h-2.15v-6.5c0-1.35-.38-1.77-1.11-1.77-.94,0-1.65,.6-2.01,1.06v7.22h-2.15Z"></path><path class="cls-2" d="M68.34,223.45v-3.31h2.15v3.31h1.77v1.93h-1.77v5.65c0,.54,.24,.69,.78,.69,.33,0,.67-.11,.99-.19v1.96c-.59,.08-1.11,.15-1.7,.15-1.6,0-2.22-.88-2.22-2.31v-5.96h-1.25v-1.93h1.25Z"></path><path class="cls-2" d="M84.47,225.07l2.15-5.5h2.49l-3.45,8.35v5.54h-2.39v-5.54l-3.45-8.35h2.49l2.15,5.5Z"></path><path class="cls-2" d="M90.84,221.61v-2.23h2.15v2.23h-2.15Zm2.15,11.85h-2.15v-10h2.15v10Z"></path><path class="cls-2" d="M97.75,228.84c.04,2.08,.87,2.89,1.87,2.89s1.47-.5,2.01-1.19l1.56,1.08c-.83,1.42-2.05,2.04-3.78,2.04-2.34,0-3.81-2.02-3.81-5.19s1.47-5.19,3.92-5.19c2.36-.02,3.68,2.19,3.68,4.6v.98h-5.44Zm3.47-1.62c-.03-1.39-.69-2.19-1.73-2.19s-1.7,.81-1.73,2.19h3.47Z"></path><path class="cls-2" d="M106.05,233.46v-13.89h2.15v13.89h-2.15Z"></path><path class="cls-2" d="M118.91,233.46h-1.82l-.1-1.08c-.76,.83-1.47,1.27-2.44,1.27-2.39,0-3.6-2.35-3.6-5.46,0-2.46,1.28-4.93,3.6-4.93,.73,0,1.75,.48,2.18,1.11h.04v-4.81h2.15v13.89Zm-2.15-7.43c-.43-.44-.97-.85-1.66-.85-1.28,0-2.01,1.15-2.01,3.27s.73,3.27,2.01,3.27c.92,0,1.21-.5,1.66-.89v-4.81Z"></path><path class="cls-2" d="M127.19,223.45h2.05l1.23,6.23h.04l1.3-6.23h1.99l1.25,6.23h.03l1.28-6.23h2.04l-2.32,10h-1.94l-1.33-6.23h-.04l-1.32,6.23h-1.94l-2.32-10Z"></path><path class="cls-2" d="M140.77,221.61v-2.23h2.15v2.23h-2.15Zm2.15,11.85h-2.15v-10h2.15v10Z"></path><path class="cls-2" d="M146.58,223.45v-3.31h2.15v3.31h1.77v1.93h-1.77v5.65c0,.54,.24,.69,.78,.69,.33,0,.67-.11,.99-.19v1.96c-.59,.08-1.11,.15-1.7,.15-1.59,0-2.22-.88-2.22-2.31v-5.96h-1.25v-1.93h1.25Z"></path><path class="cls-2" d="M152.85,233.46v-13.89h2.15v4.96c.66-.61,1.54-1.27,2.6-1.27,1.8,0,2.67,1.31,2.67,3.35v6.85h-2.15v-6.5c0-1.35-.38-1.77-1.11-1.77-.94,0-1.65,.6-2.01,1.06v7.22h-2.15Z"></path><path class="cls-2" d="M169.53,233.46v-13.89h4.58c2.7,0,4.42,1.25,4.42,4.14s-1.71,4.14-4.42,4.14h-2.18v5.62h-2.39Zm2.39-7.77h1.91c1.8,0,2.3-.75,2.3-1.98s-.5-1.98-2.3-1.98h-1.91v3.96Z"></path><path class="cls-2" d="M185.51,233.46l-.14-.87c-.87,.65-1.68,1.06-2.81,1.06-1.63,0-2.44-1.29-2.44-2.65,0-2.27,1.67-3.46,5.17-3.93v-.85c0-.77-.56-1.19-1.32-1.19-1.01,0-1.56,.6-1.98,1.23l-1.39-1.17c.56-1.06,2.05-1.87,3.36-1.83,2.43,.06,3.47,1.04,3.47,4.04v4.71c0,.5,.03,1,.17,1.44h-2.1Zm-.23-4.79c-1.44,.31-3.02,.63-3.02,2.04,0,.75,.43,1.17,1.04,1.17,.68,0,1.53-.64,1.98-1.06v-2.15Z"></path><path class="cls-2" d="M190.29,233.46v-10h1.98v1.71h.04c.52-1.19,1.25-1.87,2.53-1.9v2.52c-.11-.02-.23-.02-.38-.02-1.08,0-2.01,1.37-2.01,1.62v6.08h-2.15Z"></path><path class="cls-2" d="M197.41,223.45v-3.31h2.15v3.31h1.77v1.93h-1.77v5.65c0,.54,.24,.69,.78,.69,.33,0,.68-.11,.99-.19v1.96c-.59,.08-1.11,.15-1.7,.15-1.59,0-2.22-.88-2.22-2.31v-5.96h-1.25v-1.93h1.25Z"></path><path class="cls-2" d="M203.92,221.61v-2.23h2.15v2.23h-2.15Zm2.15,11.85h-2.15v-10h2.15v10Z"></path><path class="cls-2" d="M214.35,226.7c-.35-.85-.73-1.52-1.77-1.52-1.2,0-1.77,1.04-1.77,3.27s.57,3.27,1.83,3.27c.94,0,1.47-.71,1.91-1.6l1.63,1.02c-.87,1.79-1.96,2.52-3.6,2.5-2.44,0-3.92-2.02-3.92-5.19s1.47-5.19,3.92-5.19c1.7,0,3.05,1,3.55,2.67l-1.79,.77Z"></path><path class="cls-2" d="M219.1,221.61v-2.23h2.15v2.23h-2.15Zm2.15,11.85h-2.15v-10h2.15v10Z"></path><path class="cls-2" d="M224.54,223.45h2.06v.92c.62-.67,1.33-1.11,2.3-1.11,2.39,0,3.6,2.35,3.6,5.46,0,2.46-1.28,4.93-3.6,4.93-.73,0-1.75-.48-2.18-1.11h-.03v4.58h-2.15v-13.66Zm2.15,7.43c.43,.44,.97,.85,1.66,.85,1.28,0,2.01-1.15,2.01-3.27s-.73-3.27-2.01-3.27c-.92,0-1.21,.5-1.66,.89v4.81Z"></path><path class="cls-2" d="M239.61,233.46l-.14-.87c-.87,.65-1.68,1.06-2.81,1.06-1.63,0-2.44-1.29-2.44-2.65,0-2.27,1.66-3.46,5.16-3.93v-.85c0-.77-.55-1.19-1.32-1.19-1,0-1.56,.6-1.97,1.23l-1.39-1.17c.55-1.06,2.05-1.87,3.36-1.83,2.43,.06,3.47,1.04,3.47,4.04v4.71c0,.5,.03,1,.17,1.44h-2.1Zm-.23-4.79c-1.44,.31-3.02,.63-3.02,2.04,0,.75,.43,1.17,1.04,1.17,.68,0,1.53-.64,1.98-1.06v-2.15Z"></path><path class="cls-2" d="M244.9,223.45v-3.31h2.15v3.31h1.77v1.93h-1.77v5.65c0,.54,.24,.69,.78,.69,.33,0,.67-.11,.99-.19v1.96c-.59,.08-1.11,.15-1.7,.15-1.6,0-2.22-.88-2.22-2.31v-5.96h-1.25v-1.93h1.25Z"></path><path class="cls-2" d="M251.39,221.61v-2.23h2.15v2.23h-2.15Zm2.15,11.85h-2.15v-10h2.15v10Z"></path><path class="cls-2" d="M260.06,223.26c2.44,0,3.92,2.02,3.92,5.19s-1.47,5.19-3.92,5.19-3.92-2.02-3.92-5.19,1.47-5.19,3.92-5.19Zm0,1.92c-1.2,0-1.77,1.04-1.77,3.27s.57,3.27,1.77,3.27,1.77-1.04,1.77-3.27-.57-3.27-1.77-3.27Z"></path><path class="cls-2" d="M266.36,233.46v-10h1.98v1.08c.8-.61,1.72-1.27,2.77-1.27,1.8,0,2.67,1.31,2.67,3.35v6.85h-2.15v-6.5c0-1.35-.38-1.77-1.11-1.77-.94,0-1.65,.6-2.01,1.06v7.22h-2.15Z"></path></g><g><rect class="cls-2" x="10.88" y="200.36" width="95.15" height="1.95"></rect><rect class="cls-2" x="132.24" y="200.43" width="142.87" height="1.82"></rect></g><g><path class="cls-1" d="M143.12,52.22c-.51,.23-1.16,2.25-.9,2.67,.07,.11,.21,.18,.51,.43,.24-.47,.44-.82,.59-1.18,.18-.44,.34-.88,.49-1.33,.08-.22,.11-.44,.17-.66-.29,.02-.62-.04-.86,.06Z"></path><path class="cls-1" d="M149.16,44.81c.25,.03,.66-.22,.84-.44,.6-.75,.33-1.15-1.28-1.81-.05,.61-.16,1.1-.1,1.57,.03,.26,.32,.65,.54,.68Z"></path><path class="cls-1" d="M147.4,57.58c.07-.76,.29-1.41-.81-1.47-.61-.03-1.07,.1-1,.76,.11,1.12,1.07,.53,1.81,.72Z"></path><path class="cls-1" d="M138.92,51.09c-.09,1.28-.05,2.57-.05,4.1,.48-.33,.86-.46,.93-.66,.36-1.05,.69-2.11,.9-3.19,.04-.21-.49-.66-.83-.72-.29-.05-.95,.28-.96,.47Z"></path><path class="cls-1" d="M138.55,24.39c1.55,.2,2.97,.37,4.37,.55,.19-.65,.29-1.26,.55-1.8,.31-.63-.06-.9-.62-1.03-1.42-.32-3.83,.95-4.32,2.24-.02,.04,.08,.11,.02,.03Z"></path><path class="cls-1" d="M131.27,47.7c.73-.04,1.32-.33,1.26-1.28-1.61,0-3.19-.03-4.77,.02-.32,.01-.64,.33-.95,.51,.34,.25,.66,.7,1.02,.73,1.14,.09,2.29,.08,3.43,.02Z"></path><path class="cls-1" d="M132.44,44.7c-.02-.16-.03-.32-.04-.48-.67,.03-1.35,.07-2.03,.1,.07,.25,.05,.62,.24,.72,.73,.43,1.37,.3,1.83-.34Z"></path><path class="cls-1" d="M135.23,44.02c-.26-.1-.57-.33-.77-.27-.8,.22-.89,.72-.36,1.65,.46-.55,.8-.96,1.14-1.37Z"></path><path class="cls-1" d="M86.01,49.56c.35,.24,.9,.68,.95,.64,.6-.46,1.12-.99,1.66-1.5-.11-.13-.22-.26-.33-.39-.7,.39-1.4,.78-2.28,1.26Z"></path><path class="cls-1" d="M92.76,44.04c.51-.03,.99-.38,1.49-.59-.06-.14-.11-.29-.16-.43h-2.09c-.06,.09-.11,.19-.17,.28,.31,.26,.64,.75,.93,.74Z"></path><path class="cls-1" d="M92.12,55.85c.23,.24,.53,.51,.85,.56,.19,.03,.46-.32,.69-.5-.28-.21-.55-.42-.97-.73-.27,.3-.61,.63-.58,.67Z"></path><path class="cls-1" d="M125.99,46.86c.04-.46,.12-.99-.11-1.35-.18-.3-.78-.4-1.2-.59-.12,.23-.24,.47-.37,.7-.13,.25-.27,.5-.39,.72,.49,.26,.85,.52,1.26,.65,.23,.07,.8-.06,.8-.14Z"></path><path class="cls-1" d="M161.45,43.77c1.52,.07,2.32-.83,3.3-2.18-.94-.18-1.65-.38-2.37-.43-.42-.03-1.12,.08-1.25,.31-.33,.59-.44,1.29-.54,1.96-.02,.08,.55,.33,.86,.34Z"></path><path class="cls-1" d="M93.68,50.65c-.14-.1-.29-.19-.43-.29-.29,.29-.8,.56-.84,.88-.13,.87-.45,1.43-1.58,1.24-.01,1.17,1.18,2.08,2.37,1.85,.24-.05,.53-.25,.62-.44,.28-.57,.47-1.18,.7-1.82-.36-.08-.8-.18-1.29-.29,.17-.45,.3-.79,.44-1.14Z"></path><path class="cls-1" d="M152.97,44.56c.65-.28,1.64-.85,1.62-1.24-.09-1.21-2.15-1.63-3.28-.79,.18,.53,.39,.95,.45,1.39,.1,.71,.7,.87,1.21,.65Z"></path><path class="cls-1" d="M166.43,25.48c.29-.09,.62-.86,.48-1.13-.45-.86-1.23-.55-2-.16,.14,.86,.32,1.67,1.52,1.3Z"></path><path class="cls-1" d="M90.95,56.94c.28,.51,.42,.85,.65,1.13,.12,.14,.42,.27,.61,.24,.18-.02,.48-.32,.44-.38-.21-.4-.43-.83-.8-1.11-.17-.13-.67,.08-.9,.12Z"></path><path class="cls-1" d="M164.21,46.32c-.96,.31-1.36,1.17-.99,1.96,.31,.68,1.74,1.24,2.48,.97,1.7-.62,2.44-2.07,1.82-3.86-1.11,.31-2.23,.59-3.31,.94Z"></path><path class="cls-1" d="M162.56,49.29c-.26-.15-.25-.61-.49-.82-.23-.19-.67-.4-.93-.33-1.17,.31-2.32,.71-3.62,1.13,.8,.28,1.82,.93,2.2,.71,1.31-.74,1.55,.05,1.86,.76,.21,.48,.18,1.03,.35,1.52,.11,.29,.4,.54,.62,.8,.28-.26,.78-.51,.81-.78,.09-1.05,.55-2.2-.79-3Z"></path><path class="cls-1" d="M150.06,48.29c-.2-.04-.55,.25-.71,.45-.21,.25-.22,.65-.47,.85-.95,.78-1.04,1.51,0,2.35-.46-.13-.74-.41-1.09-.52-.33-.1-.77-.09-1.11,0-.13,.04-.23,.5-.14,.7,.42,.93,.88,1.86,2.1,2.21,1.52,.44,2.36-.47,3.33-1.22-.4-.3-.74-.55-1.07-.8,.05-.08,.09-.16,.14-.24,.37,.07,.77,.24,1.11,.18,.36-.06,.89-.3,.96-.54,.17-.64,.13-1.32,.16-1.78,1.03-.07,1.87-.13,2.7-.19,0-.11-.01-.21-.02-.31-1.97-.39-3.93-.8-5.9-1.15Z"></path><path class="cls-1" d="M161.25,45.73c-.54-.97-1.26-1.95-2.19-2.62-.46-.34-1.56,0-2.37,.02-.08,0-.15-.05-.1-.03-.3-.39-.54-.7-.78-1.01-.1,.07-.21,.13-.31,.2,.12,.22,.27,.43,.36,.65,.32,.79-.41,2.22-1.19,2.1-1.88-.29-2.87,.84-4.15,1.7,1.81,1.11,3.89,1.25,5.94,1.3,1.12,.02,2.24-.27,3.36-.38,1.27-.13,1.99-.93,1.44-1.92Z"></path><path class="cls-1" d="M118.58,44.17c-.1-.37-.6-.95-.86-.92-.44,.05-.82,.5-1.23,.78,.31,.34,.63,.67,1.17,1.26,.48-.55,.97-.89,.91-1.12Z"></path><path class="cls-1" d="M189.4,43.79c.52,.25,1.11,.4,1.45,.74,.71,.72,1.43,.62,2.56,.17-1.08-.61-1.96-1.14-2.89-1.61-.81-.4-1.11-.17-1.12,.7Z"></path><path class="cls-1" d="M196.3,44.86c.66,.46,1.16,.81,1.65,1.16,.13-.1,.26-.21,.39-.31-.23-.47-.45-.93-.71-1.49-.46,.22-.79,.38-1.32,.64Z"></path><path class="cls-1" d="M168.86,46.54c0,.14,.42,.45,.58,.42,.37-.08,.7-.31,1.12-.52-.49-.39-.82-.64-1.32-1.03-.17,.46-.36,.8-.38,1.14Z"></path><path class="cls-1" d="M113,51.89c-.41-.12-1.03,.34-1.55,.54,.05,.17,.1,.35,.15,.52,1-.06,2-.11,3.05-.17-.02-1.21-1.13-.74-1.66-.9Z"></path><path class="cls-1" d="M147.22,75.7c.52,.53,.99,.38,1.39-.12,.65-.81,1.43-1.58,1.92-2.46,.39-.7,.72-1.59,.57-2.31-.4-1.86-.83-3.78-2.88-4.98-.29-.17-.44-.7-.42-1.06,.05-.92,.23-1.83,.37-2.81-1.22-.11-2.56-.29-3.71,.77-.55-1.13-1.01-.2-1.54,.12-.66-.77-1.26-1.48-1.94-2.27-.42-.05-1.05-.13-1.68-.21l-.12-.34c.89-.81,1.78-1.63,2.79-2.55,.84,.97,1.64,.36,2.41,.15,.14-.04,.27-.42,.23-.6-.05-.19-.29-.45-.49-.48-.48-.07-.99,.03-1.47-.04-1.36-.2-2.51,.29-2.93,1.29-.33,.79-.96,1.22-1.47,1.81-.93,1.07-1.7,2.29-2.81,3.18-.9,.72-.9,1.55-1.05,2.39-.03,.21,.39,.68,.57,.67,1.74-.08,3.18,.46,4.48,1.4,.42,.31,.92,.56,1.24,.94,1.33,1.59,2.58,3.24,3.93,4.82,.8,.94,1.73,1.8,2.6,2.69Z"></path><path class="cls-1" d="M115.31,49.1c.59-.21,1.19-.42,1.95-.68-1.27-.8-1.67-.68-1.95,.68Z"></path><path class="cls-1" d="M121.29,46.68c-.1-.1-.18-.26-.3-.29-.8-.21-1.74-.07-2.24-.96-.09-.16-1.18-.07-1.65,.16-.57,.28-.96,.82-1.46,1.28,1.87,.92,3.77,1.23,5.66-.18Z"></path><path class="cls-1" d="M120.4,49.01c-.43-.6-1.6-.66-2.42-.21-1.06,.58-2.14,1.13-3.27,1.73,1.31,.9,2.62,1.8,4.08,2.8-.04-.6-.21-1.02-.05-1.26,.41-.59,.92-1.16,1.5-1.63,.59-.48,.52-.94,.17-1.43Z"></path><path class="cls-1" d="M129.79,57.91c-.16-.56-.04-1.18-.04-1.77-.11-.04-.21-.07-.32-.11-.31,.24-.7,.43-.93,.72-.62,.81-1.1,.8-1.83,0-.26-.28-.69-.61-1.07-.63-1.43-.08-2.87-.02-4.31-.04-.82-.01-.99,.31-.77,.94,.29,.81,1.02,1.43,1.41,2.1,1.02,1.77,2.31,3.17,4.17,4.26,1.2,.7,3.37,.69,4.4-.16,.76-.63,1.57-1.21,2.26-1.89,.55-.53,.94-1.18,1.5-1.91-1.41-.19-2.51-.25-3.55-.51-.4-.1-.83-.6-.94-.99Z"></path><path class="cls-1" d="M120.85,55.31c.52-.71,.99-1.45,1.41-2.2,.07-.12-.2-.38-.38-.68-.71,.76-1.31,1.3-1.77,1.93-.17,.22-.04,.64,.03,.94,.02,.05,.64,.1,.71,0Z"></path><path class="cls-3" d="M151.89,80.01c.15,.33,.1,.14,0,0h0Z"></path><path class="cls-3" d="M205.32,54.88c-1.29-.84-1.52-1.52-1.09-2.91,.06-.2-.1-.46-.18-.69-.12-.33-.35-.65-.39-.98-.13-1.01-.11-2.04-.32-3.03-.08-.35-.68-.61-1.05-.91-.32,.32-.7,.6-.96,.95-.2,.28-.24,.64-.36,.97,.38-1.32-.76-2.78,.38-4.12,.37,.42,.62,.71,.93,1.07,.22-.2,.52-.36,.5-.49-.09-.87-.19-1.75-.43-2.59-.09-.31-.53-.65-.89-.78-2.07-.76-2.7-2.1-1.96-4.04,.12-.32-.1-.99-.4-1.15-1.58-.82-3.23-1.53-4.86-2.27-.07-.03-.17-.04-.24-.02-1.2,.37-1.85-.42-2.66-.92-.3-.19-.81-.42-1.06-.32-1.13,.45-1.45-.28-1.88-.87-.23-.33-.35-.73-.62-1.02-1.6-1.74-1.02-3.74-.92-5.68,.03-.63,.04-1.27,.04-1.9,0-.93-.91-.93-1.58-1.21-.35-.15-.61-.45-.9-.69-.35-.28-.64-.66-1.04-.86-3.32-1.67-6.52-1.2-9.11,1.22-.22,.2-.92,.26-1.22,.11-.9-.44-1.66-1.15-2.6-1.48-.83-.3-.97-.59-.87-1.33,.1-.7-.02-1.48-.3-2.15-.14-.36-.88-.82-1.24-.76-1.1,.18-2.13,.66-3.23,.87-.55,.1-1.28,0-1.77-.25-1.2-.6-1.3-1.74-1.43-2.8-.16-1.28-1.46-2.29-2.89-2.19-.2,.01-.4-.03-.6-.07-.95-.19-1.91-.38-2.94-.59v-1.47c-.89,.24-1.65,.45-2.6,.72,.08-.45,.1-.63,.14-.8,.26-1.1,.15-1.2-1.13-1.08-.62,.06-1.28,.19-1.87,.07-.6-.12-1.17-.47-1.67-.8-.28-.18-.41-.53-.61-.8-.42,.24-1,.4-1.22,.74-.3,.48-.54,.66-1.13,.44-.86-.33-1.74-.63-2.52-.91,.12-.55,.23-1.04,.35-1.53-.11-.07-.21-.13-.31-.19-.86,.49-1.71,.97-2.61,1.48-.21-.26-.33-.45-.49-.61-1.3-1.35-2.37-1.34-3.91-.19-.67,.5-1.41,1.51-2.6,.55-.11-.09-.46,0-.66,.06-1.62,.55-3.27,1.04-4.83,1.7-1.17,.5-2.5,.93-2.94,2.24-.06,.18-.59,.34-.91,.35-1.53,.03-3.06-.02-4.59,.03-.49,.02-1.16,.15-1.42,.45-.6,.7-1.14,1.48-1.43,2.31-.2,.55-.3,.89-1.02,1.13-1.38,.46-1.93,1.75-1.44,2.85,.26,.58,.42,1.2,.57,1.61,.39,.52,.67,.91,1.05,1.42-1.14,.16-1.95,.45-2.7,.35-1.07-.14-2.09-.57-3.13-.85-.16-.04-.36,.01-.54,.02-.37,.01-.82,.14-1.1,0-.8-.37-1.38-.08-1.58,.49-.29,.79-.83,1.14-1.66,1.41-.85,.28-1.01,.81-.51,1.55,.48,.69,.8,1.47,1.29,2.39-1.2-.14-2.08-.25-3.13-.37-.12,.42-.26,.84-.37,1.27-.09,.35-.02,.8-.24,1.05-.81,.95-.82,1.24,.31,1.86,.56,.31,1.2,.51,1.93,.8,.04,.19,.12,.56,.22,.99,1.39-.41,2.02,.27,2.72,1.34-.57-.05-.91-.12-1.24-.1-.64,.05-1.38,0-1.87,.26-.8,.44-1.43,1.06-2.11-.09-.05-.08-.44-.01-.67,0-.4,.02-.85,.17-1.2,.06-1.1-.35-2.05,0-2.43,.76-.74,1.49-2.41,1.66-3.73,2.3-.8,.39-1.25,.7-.59,1.43,.46,.52,.24,.85-.34,1.1-.33,.14-.73,.21-.99,.42-1.51,1.25-2.94,2.57-4.48,3.78-.6,.47-1.49,.65-2.17,1.07-.69,.43-1.71,.8-1.5,1.73,.23,.99,.05,1.8-.65,2.59-.18,.21-.36,.58-.27,.8,.28,.74-.1,.98-.82,1.25-.3,.11-.43,.74-.45,1.14,0,.13,.63,.44,.89,.39,.41-.09,.74-.42,1.12-.64,.24-.14,.5-.27,.76-.41,.19,.28,.46,.56,.53,.86,.06,.27-.1,.58-.2,1.01,.39-.12,.57-.21,.76-.23,.35-.05,.71-.06,1.07-.09-.08,.38-.02,.89-.28,1.1-.42,.33-1.08,.44-1.6,.69-.39,.2-.73,.49-1.09,.73,.33,.35,.64,.7,.98,1.04,.12,.11,.31,.17,.47,.25,.12,.14,.24,.27,.36,.41-.42,.21-.83,.5-1.29,.59-.88,.18-1.63,.31-1.08,1.36,.06,.12-.45,.52-.75,.73-.65,.45-1.34,.85-2.01,1.28,.16,.03,.32,.06,.48,.08,.27,.68,.82,1.38,.74,2.02-.09,.63-.82,1.19-1.3,1.83,.74,.05,1.49,.1,2.09,.14-.11,.67-.2,1.25-.27,1.7,.93,.19,1.65,.33,2.64,.53-.08-.92-.18-1.85-.25-2.78-.03-.34-.16-.75,0-1.02,.44-.78,.97-1.53,1.54-2.25,.14-.18,.56-.19,.86-.27,.04,.16,.17,.41,.1,.46-1.46,1.02,.23,1.47,.55,2.14,.06,.13,.69,.21,.94,.11,1.29-.54,.63-1.35,.29-2.08-.51-1.09-.01-1.97,1.54-2.36,.04,.56,0,1.11,.14,1.63,.1,.38,.44,1.04,.64,1.04,1.74-.07,3.49,.86,5.24-.1,.74-.41,1.43-.66,1.19-1.6-.06-.25,.25-.82,.41-.83,1.41-.05,2.75-1.51,4.25-.2,.08,.07,.34,.06,.47,0,.92-.42,1.47-.05,1.79,.64,.35-.07,.62-.14,.9-.16,.32-.03,.71,.08,.97-.04,.62-.27,.93-.1,1.3,.36,.66,.81,1.62,.66,2.28-.19,.35-.45,.85-1.09,1.33-1.13,.91-.08,1.14-.58,1.47-1.1,.23-.36,.38-.85,.74-1.05,.81-.45,1.72-.77,2.54-1.12-.3-.57-.54-1.05-.8-1.53,.11-.09,.22-.18,.34-.28,.27,.11,.64,.16,.79,.34,.61,.71,1.21,1.43,1.68,2.2,.34,.55,.7,1.2,.67,1.79-.05,1.28,.7,2.12,1.55,3.03,.54,.57,.79,1.35,1.21,2,.45,.69,.79,1.6,1.49,1.98,1.55,.84,3.28,1.42,4.95,2.08,.2,.08,.45,.03,.68,.05,.34,.02,.75-.06,1.01,.07,2.62,1.33,5.06,2.89,7.1,4.87,.91,.89,1.69,1.89,2.41,2.91,.63,.88,1.13,1.84,1.64,2.79,.42,.79,1.09,1.6,1.1,2.4,0,2.51-.23,1.66-.42,4.17-.19,2.44-.56-1.82-.63,.62-.04,1.38-.12,2.71-.68,3.96-19.11,.62-35.35,4.06-43.85,8.91,11.55-3.67,29.82-6.04,50.39-6.04s37.2,2.16,48.8,5.55c-8.69-4.57-24.41-7.8-42.8-8.41-.08-.11-.16-.22-.22-.34-.15-.3-.3-.63-.28-.95,.02-.59,.27-1.18,.23-1.76-.12-1.91-.45,2.9-.47,.99-.02-1.38,.34-2.76,.46-4.15,.04-.44-.19-.88-.29-1.33-.05-.2-.13-.4-.12-.59,.04-.62,.2-.54,.3-.4-.02-.06-.05-.12-.09-.21-.87-2.12,.54-3.43,1.5-4.97,.64-1.02,1.65-1.93,1.35-3.23-.35-1.52-.74-3.04-1.06-4.37,1.5-1.7,2.87-.26,4.22-.23,.48,.01,.94,.27,1.41,.4,.36,.1,.72,.21,1.09,.26,.58,.07,1.18,.2,1.75,.13,.95-.12,1.89-.36,2.8-.61,.14-.04,.17-.43,.23-.66,.13-.49,.24-.98,.38-1.55,.92,.38,1.56,.63,2.18,.91,.92,.42,1.74,.56,2.45-.34,.16-.2,.71-.38,.93-.29,1.45,.58,2.1-.61,3.07-1.04,.25-.11,.42-.78,.28-1.06-.39-.8,.16-1.05,.77-1.31,1.39-.58,1.71-1.53,.78-2.63-.33-.39-.84-.86-1.31-.89-.7-.05-1.46,.18-2.14,.41-.8,.27-1.02,.05-1.1-.62-.13-1.2-.9-1.8-2.24-2.02-.42-.07-.84-.35-1.14-.64-.58-.53-1.08-1.08-2.08-.73-.31,.11-.71,.02-1.17,.02,.23-1.8,.71-3.27,2.39-4.51,1.87-1.37,2.3-1.53,3.97,.01-.18,.34-.48,.69-.53,1.06-.05,.33,.03,.89,.27,1.02,.89,.44,1.02,.97,.49,1.67,.67,.32,1.27,.82,1.87,.83,1.64,.04,3.39,.33,4.74-.96,.61-.59,1.05-.39,1.2,.4,.05,.25,.28,.6,.52,.68,.78,.26,2.95-.71,3.08-1.43,.12-.64,.49-.76,1.08-.74,1.05,.03,1.7-.39,1.86-1.36,.35,.26,.64,.47,.9,.65,1.51-.79-.51-1.22-.13-1.87,2.54-1.16,2.63-1.16,3.19,.14-1.02-.14-1.21,.37-1.18,1.08,0,.2-.11,.42-.24,.59-.46,.68-.69,1.48,.12,1.92,.87,.47,1.71,1.43,3.04,.72,.83-.44,1.51-.36,1.9,.58,.31,.73,.61,1.76,1.25,2.02,1.47,.59,3.11,.81,4.51,1.62,.68,.39,1.51,.58,2.19,.82,.56-.18,1.16-.44,1.79-.57,.95-.21,1.68-.5,1.74-1.5,.02-.27,.26-.59,.51-.78,.94-.7,.96-1.34,0-1.97Zm-118.36-4.68c-.05,.04-.6-.4-.95-.64,.88-.48,1.58-.87,2.28-1.26,.11,.13,.22,.26,.33,.39-.54,.51-1.06,1.05-1.66,1.5Zm5.03-7.18h2.09c.05,.14,.11,.29,.16,.43-.49,.21-.98,.55-1.49,.59-.29,.02-.62-.47-.93-.74,.06-.09,.11-.19,.17-.28Zm.22,15.29c-.19,.03-.49-.1-.61-.24-.23-.28-.36-.62-.65-1.13,.23-.04,.73-.24,.9-.12,.37,.27,.59,.71,.8,1.11,.04,.06-.26,.36-.44,.38Zm.76-1.9c-.32-.05-.62-.32-.85-.56-.04-.04,.31-.37,.58-.67,.41,.31,.69,.52,.97,.73-.23,.18-.51,.53-.69,.5Zm.86-2.52c-.09,.19-.38,.39-.62,.44-1.19,.23-2.38-.68-2.37-1.85,1.13,.19,1.45-.37,1.58-1.24,.05-.32,.55-.59,.84-.88,.14,.1,.29,.19,.43,.29-.14,.34-.27,.69-.44,1.14,.48,.11,.93,.21,1.29,.29-.24,.64-.43,1.25-.7,1.82Zm73.08-29.55c.14,.27-.18,1.04-.48,1.13-1.2,.37-1.38-.44-1.52-1.3,.77-.38,1.55-.69,2,.16Zm-5.78,17.13c.13-.23,.83-.34,1.25-.31,.72,.05,1.43,.25,2.37,.43-.98,1.36-1.78,2.25-3.3,2.18-.31-.02-.87-.26-.86-.34,.1-.67,.21-1.36,.54-1.96Zm-6.54,1.85c.03,.4-.97,.96-1.62,1.24-.51,.22-1.11,.07-1.21-.65-.06-.44-.27-.85-.45-1.39,1.12-.83,3.19-.42,3.28,.79Zm-5.87-.76c1.61,.67,1.88,1.06,1.28,1.81-.18,.22-.58,.47-.84,.44-.22-.03-.51-.43-.54-.68-.06-.47,.05-.96,.1-1.57Zm-2.13,13.55c1.1,.06,.88,.71,.81,1.47-.74-.19-1.7,.41-1.81-.72-.07-.66,.39-.79,1-.76Zm-3.74-33.99c.56,.12,.93,.39,.62,1.03-.26,.54-.36,1.14-.55,1.8-1.4-.18-2.82-.35-4.37-.55,.06,.08-.04,0-.02-.03,.49-1.29,2.9-2.56,4.32-2.24Zm1.13,30.05c-.06,.22-.09,.44-.17,.66-.15,.45-.3,.89-.49,1.33-.15,.36-.35,.71-.59,1.18-.3-.25-.44-.33-.51-.43-.26-.42,.39-2.44,.9-2.67,.24-.11,.57-.05,.86-.06Zm-3.27-.82c-.21,1.08-.54,2.14-.9,3.19-.07,.21-.45,.33-.93,.66,0-1.54-.04-2.82,.05-4.1,.01-.19,.68-.52,.96-.47,.33,.06,.86,.51,.83,.72Zm-6.25-7.6c.21-.06,.51,.17,.77,.27-.34,.41-.68,.82-1.14,1.37-.53-.93-.44-1.43,.36-1.65Zm-2.05,.48c.01,.16,.02,.32,.04,.48-.46,.64-1.1,.78-1.83,.34-.18-.11-.16-.47-.24-.72,.67-.03,1.35-.06,2.03-.1Zm-4.64,2.22c1.58-.05,3.15-.02,4.77-.02,.06,.95-.53,1.24-1.26,1.28-1.14,.06-2.3,.07-3.43-.02-.36-.03-.68-.47-1.02-.73,.32-.18,.63-.5,.95-.51Zm-3.46-.81c.13-.23,.25-.47,.37-.7,.41,.19,1.01,.29,1.2,.59,.23,.37,.15,.9,.11,1.35,0,.07-.57,.21-.8,.14-.42-.13-.78-.39-1.26-.65,.12-.22,.26-.47,.39-.72Zm-6.59-2.38c.26-.03,.76,.55,.86,.92,.06,.22-.44,.56-.91,1.12-.55-.59-.86-.92-1.17-1.26,.41-.28,.79-.73,1.23-.78Zm-.62,2.33c.47-.23,1.55-.32,1.65-.16,.5,.89,1.44,.75,2.24,.96,.12,.03,.2,.19,.3,.29-1.89,1.41-3.78,1.11-5.66,.18,.5-.46,.9-1,1.46-1.28Zm.16,2.83c-.76,.27-1.35,.48-1.95,.68,.28-1.36,.67-1.49,1.95-.68Zm-5.65,4.54c-.05-.18-.1-.35-.15-.52,.52-.2,1.14-.66,1.55-.54,.53,.15,1.64-.32,1.66,.9-1.05,.06-2.05,.11-3.05,.17Zm7.13-.88c-.17,.24,.01,.66,.05,1.26-1.46-1-2.77-1.9-4.08-2.8,1.13-.6,2.21-1.15,3.27-1.73,.83-.45,1.99-.39,2.42,.21,.36,.49,.42,.95-.17,1.43-.58,.48-1.09,1.04-1.5,1.63Zm1.37,2.28c.46-.62,1.06-1.17,1.77-1.93,.18,.3,.45,.56,.38,.68-.42,.76-.89,1.49-1.41,2.2-.07,.1-.69,.05-.71,0-.08-.31-.2-.72-.03-.94Zm12.67,6.97c-.69,.68-1.5,1.26-2.26,1.89-1.04,.85-3.2,.87-4.4,.16-1.86-1.09-3.15-2.49-4.17-4.26-.38-.67-1.12-1.28-1.41-2.1-.23-.64-.05-.96,.77-.94,1.44,.02,2.88-.03,4.31,.04,.37,.02,.81,.34,1.07,.63,.73,.8,1.21,.81,1.83,0,.22-.29,.61-.48,.93-.72,.1,.04,.21,.07,.32,.11,0,.59-.12,1.21,.04,1.77,.11,.39,.54,.89,.94,.99,1.03,.26,2.13,.33,3.55,.51-.56,.73-.95,1.38-1.5,1.91Zm7.91,6.87c-.32-.38-.82-.63-1.24-.94-1.3-.94-2.74-1.48-4.48-1.4-.19,0-.61-.47-.57-.67,.14-.85,.14-1.67,1.05-2.39,1.12-.89,1.89-2.11,2.81-3.18,.51-.59,1.14-1.02,1.47-1.81,.42-1.01,1.56-1.49,2.93-1.29,.48,.07,.99-.03,1.47,.04,.2,.03,.44,.3,.49,.48,.04,.19-.08,.56-.23,.6-.77,.21-1.57,.81-2.41-.15-1.01,.93-1.9,1.74-2.79,2.55l.12,.34c.63,.08,1.26,.16,1.68,.21,.67,.79,1.28,1.5,1.94,2.27,.53-.32,.99-1.25,1.54-.12,1.15-1.07,2.5-.88,3.71-.77-.14,.98-.32,1.89-.37,2.81-.02,.36,.13,.89,.42,1.06,2.05,1.2,2.48,3.11,2.88,4.98,.15,.72-.18,1.61-.57,2.31-.49,.88-1.27,1.65-1.92,2.46-.41,.51-.87,.65-1.39,.12-.88-.89-1.8-1.75-2.6-2.69-1.35-1.58-2.59-3.23-3.93-4.82Zm12.6-18.25c-.03,.46,.01,1.14-.16,1.78-.07,.24-.6,.48-.96,.54-.34,.06-.73-.11-1.11-.18-.05,.08-.09,.16-.14,.24,.33,.25,.67,.5,1.07,.8-.97,.76-1.8,1.67-3.33,1.22-1.22-.35-1.68-1.28-2.1-2.21-.09-.2,0-.66,.14-.7,.33-.1,.77-.11,1.11,0,.35,.11,.63,.39,1.09,.52-1.05-.84-.96-1.58,0-2.35,.24-.2,.26-.6,.47-.85,.17-.2,.51-.49,.71-.45,1.97,.35,3.94,.76,5.9,1.15,0,.1,.01,.21,.02,.31-.83,.06-1.66,.12-2.7,.19Zm-2.77-3.21c1.29-.86,2.27-1.99,4.15-1.7,.78,.12,1.52-1.31,1.19-2.1-.09-.23-.24-.44-.36-.65,.1-.07,.21-.13,.31-.2,.24,.31,.48,.62,.78,1.01-.05-.02,.03,.03,.1,.03,.81-.03,1.91-.36,2.37-.02,.92,.68,1.64,1.66,2.19,2.62,.55,.99-.17,1.79-1.44,1.92-1.12,.11-2.24,.41-3.36,.38-2.05-.04-4.13-.19-5.94-1.3Zm12.84,5.54c-.02,.28-.53,.52-.81,.78-.21-.26-.51-.51-.62-.8-.18-.49-.15-1.04-.35-1.52-.31-.71-.55-1.5-1.86-.76-.38,.21-1.4-.44-2.2-.71,1.31-.42,2.45-.82,3.62-1.13,.26-.07,.7,.14,.93,.33,.24,.21,.24,.66,.49,.82,1.35,.8,.88,1.95,.79,3Zm2.35-3.03c-.74,.27-2.17-.29-2.48-.97-.36-.78,.03-1.64,.99-1.96,1.09-.35,2.21-.63,3.31-.94,.62,1.79-.12,3.24-1.82,3.86Zm3.74-2.29c-.16,.03-.58-.28-.58-.42,.01-.34,.21-.68,.38-1.14,.5,.39,.83,.65,1.32,1.03-.42,.21-.75,.45-1.12,.52Zm21.42-2.43c-.34-.34-.93-.49-1.45-.74,0-.87,.31-1.1,1.12-.7,.93,.46,1.81,1,2.89,1.61-1.13,.45-1.85,.55-2.56-.17Zm7.1,1.49c-.49-.35-.99-.69-1.65-1.16,.54-.26,.87-.42,1.32-.64,.27,.56,.49,1.03,.71,1.49-.13,.1-.26,.21-.39,.31Z"></path></g><g><path class="cls-1" d="M204.02,170.22c-1.05,0-3.62,2.04-5.84,5.2-2.51,3.5-2.8,4.79-2.8,5.66,0,.58,.35,.99,.76,.99,.7,0,2.1-.76,3.97-2.57,1.98-1.98,4.55-6.13,4.9-7,.35-.76,.29-1.23,.06-1.63-.17-.35-.58-.64-1.05-.64Z"></path><path class="cls-3" d="M220.48,174.19c-.35-.58-1.05-.47-1.75,.53-1.11,1.63-6.6,7.88-8.4,7.88-.88,0-1.28-1.05-1.11-2.92,.23-2.92,1.52-8.81,3.21-13.48,1.93-5.25,3.38-8,4.2-9.98,.58-1.46,.58-2.22-.23-3.21-.93-1.11-1.52-1.28-2.16-1.28-.41,0-.82,.23-1.28,1.23-.7,1.46-3.33,7.7-5.78,13.77-.12,.35-.23,.35-.52,.29-.47-.12-.93-.17-1.46-.17-3.21,0-6.36,1.34-9.51,4.79-1.35,1.47-2.39,2.93-3.23,4.32-3.34,3.8-7.4,7.88-9.25,7.88-.93,0-1.87-1.17-.99-4.67,.58-2.33,1.69-5.49,2.63-7.53,.53-1.17,1.11-2.16,1.34-2.69,.41-1.11,.53-1.93-.52-2.98-.47-.41-1.11-.64-1.81-.64-.58,0-.99,.35-1.34,.88-.29,.58-.7,.93-.93,1.11-.53,.29-.99,.58-2.57,1.75-1.87,1.28-5.37,4.67-6.42,5.84-.52,.7-.93,.47-.7-.17,.35-.99,.88-3.09,1.63-4.38,.53-.93,1.05-1.52,1.58-1.52,.35,0,.7-.35,.7-.76,0-1.23-1.17-3.09-2.8-3.09-1.05,0-2.39,.58-3.39,2.74-.59,1.21-1.47,3.71-2.39,6.95-3.39,3.66-7.89,7.58-9.75,7.58-.88,0-.99-.76-.88-2.04,.29-2.45,1.46-6.25,2.68-8.76,.58-1.17,.93-1.81,1.17-2.33,.7-1.52-.82-3.33-2.28-3.33-.7,0-1.4,.47-2.33,1.87-1.05,1.63-3.5,5.84-6.25,9.05-2.8,3.04-4.43,4.49-5.08,4.49-.7,0-.99-.64-.41-2.51,.7-2.39,1.17-3.5,1.63-4.38,.41-.76,1.11-1.11,1.69-1.87,.52-.7,1.69-2.68,1.69-3.44,0-1.05-1.75-2.51-3.21-2.51-.35,0-.71,.12-1.06,.34-.17-.07-.43-.08-.8,0-2.51,.58-4.96,1.05-9.34,1.52-.41,.06-.58-.06-.41-.58,2.16-7.53,6.13-10.16,9.05-10.33,.76-.06,1.75-.7,2.63-1.69,.87-.93,.76-1.98,.23-2.57-.58-.53-1.4-.7-2.28-.7-1.52,0-4.09,.88-7.24,3.27-3.5,2.69-5.95,6.54-7.7,12.26-.12,.53-.29,.53-.58,.58-.88,.12-1.87,.29-2.45,.76-.47,.41-.88,.99-.88,1.63,0,.58,.58,1.34,2.16,1.46,.47,0,.58,.17,.47,.88-1.05,5.2-3.09,13.6-4.09,17.16-2.45,8.7-3.74,9.57-7.06,10.74-.7,.23-1.34,.53-2.86,2.92-.7,1.11-.93,2.1-.41,2.68,.35,.35,.82,.53,1.46,.58,.58,.06,1.28,0,1.98-.29,3.39-1.4,6.65-6.01,8.35-9.11,1.63-3.04,3.62-8.11,5.49-16.05,.82-3.33,1.81-7.18,2.16-8.7,.12-.58,.23-.82,.82-.93,1.23-.27,6.06-1.08,9.65-3.21-.87,1.7-2.17,4.44-3.23,7.58-1.64,4.32-1.81,5.78-1.81,6.71,0,1.87,1.23,3.68,2.45,3.68,.88,0,1.81-.23,3.04-.99,3.5-2.22,7.35-5.95,8.29-6.95,.35-.35,.76-.12,.58,.53-.17,.64-.35,1.28-.53,2.22-.7,3.39,.35,5.37,2.16,5.37,.88,0,2.51-.41,4.14-1.23,1.67-.81,4.27-2.4,7.58-6.13-.18,.76-.35,1.54-.52,2.34-.29,1.17-.23,2.45,.17,2.92,.47,.64,.99,1.11,1.75,1.11,.35,0,.93-.17,1.58-1.17,2.63-3.97,5.55-7.7,8.93-11.03,.87-.82,1.17-1.05,1.34-.82,.12,.18,0,.58-.23,1.23-.35,.99-.76,2.51-1.23,4.73-1.23,5.66,.76,8.7,3.68,8.7,2.12,0,5.21-1.25,8.56-4.97-.02,.22-.04,.45-.04,.65,0,2.92,1.34,3.79,2.63,3.79s3.62-.76,6.19-2.51c1.46-.99,4.26-3.44,5.66-5.19,.29-.41,.53-.35,.47,.12-.12,.7-.24,1.46-.29,2.74-.12,2.04,.88,4.49,3.27,4.49,4.55,0,10.39-6.42,12.2-10.16,.52-1.11,.82-2.16,.52-2.68Zm-15.47-1.69c-.35,.88-2.92,5.02-4.9,7-1.87,1.81-3.27,2.57-3.97,2.57-.41,0-.76-.41-.76-.99,0-.88,.29-2.16,2.8-5.66,2.22-3.15,4.79-5.2,5.84-5.2,.47,0,.88,.29,1.05,.64,.23,.41,.29,.88-.06,1.63Z"></path></g><path class="cls-2" d="M15.12,144.89c0,5.77,.66,10.78,1.99,15.04,1.33,4.25,3.08,7.78,5.25,10.59,2.17,2.81,4.63,4.9,7.38,6.26,2.75,1.37,5.54,2.05,8.38,2.05s5.55-.62,7.92-1.88c2.37-1.25,4.44-2.89,6.22-4.93,1.78-2.04,3.25-4.37,4.41-6.98,1.17-2.62,2-5.31,2.5-8.08h12.12c-.79,4.46-2.09,8.65-3.9,12.56-1.81,3.9-4.11,7.3-6.89,10.19-2.78,2.89-6.05,5.16-9.8,6.84-3.75,1.67-7.94,2.51-12.57,2.51-5.35,0-10.18-1-14.49-3-4.31-2-7.99-4.91-11.04-8.72-3.05-3.81-5.41-8.46-7.05-13.94-1.65-5.48-2.48-11.69-2.48-18.61,0-3.58,.35-7.1,1.05-10.56,.7-3.46,1.73-6.75,3.1-9.87,1.36-3.12,3.04-5.98,5.03-8.6,1.99-2.62,4.29-4.89,6.89-6.81,2.6-1.92,5.47-3.42,8.62-4.5,3.14-1.08,6.56-1.61,10.26-1.61,4.7,0,8.9,.69,12.58,2.08,3.68,1.39,6.9,3.3,9.67,5.74,2.76,2.44,5.08,5.36,6.95,8.74,1.87,3.39,3.34,7.1,4.42,11.14h-12.39c-1.94-5.93-4.63-10.33-8.08-13.22-3.45-2.89-7.83-4.33-13.14-4.33-3.37,0-6.46,.87-9.26,2.6-2.8,1.73-5.22,4.05-7.24,6.95-2.03,2.91-3.6,6.29-4.71,10.16-1.11,3.87-1.67,7.94-1.67,12.21Z"></path><path class="cls-2" d="M109.69,142.18l19.55-37.11h13.46l-27.25,48.77v32.9h-12.01v-32.9l-27.3-48.77h13.46l20.09,37.11Z"></path><path class="cls-2" d="M228.66,105.07h29.94c3.91,0,7.38,.71,10.42,2.14,3.03,1.42,5.58,3.27,7.65,5.54,2.06,2.27,3.63,4.82,4.69,7.65,1.06,2.83,1.59,5.67,1.59,8.51,0,3.08-.54,6.05-1.62,8.92-1.08,2.87-2.65,5.42-4.71,7.68-2.07,2.25-4.6,4.05-7.62,5.4-3.01,1.35-6.48,2.02-10.39,2.02h-17.93v33.82h-12.01V105.07Zm12.01,37.63h17.93c1.65,0,3.21-.35,4.68-1.07,1.47-.71,2.77-1.69,3.9-2.94,1.13-1.25,2.03-2.72,2.69-4.42,.66-1.69,1-3.52,1-5.48s-.31-3.64-.94-5.28c-.63-1.63-1.49-3.04-2.58-4.21-1.1-1.17-2.4-2.1-3.9-2.77-1.51-.67-3.12-1.01-4.85-1.01h-17.93v27.19Z"></path><path class="cls-2" d="M201.52,133.31l-9.75-28.24h-12.17c-1.62,4.6-3.28,9.28-4.98,14.04-1.71,4.76-3.38,9.49-5.03,14.2l-9.53-28.24h-12.12l15.83,42.76h11.58l10.34-28.99,10.45,28.99h11.63l15.78-42.76h-11.85l-10.18,28.24Z"></path></svg>