<?xml version="1.0" encoding="UTF-8"?> <svg xmlns="http://www.w3.org/2000/svg" width="198.422" height="84.735" viewBox="0 0 198.422 84.735"><g id="Group_5217" data-name="Group 5217" transform="translate(16996 300.292)"><path id="Path_14822" data-name="Path 14822" d="M253.962,181.073h9.382c.158.022.315.058.473.064,1.235.049,2.472.072,3.706.142,1.2.067,2.394.18,3.591.274.892.071,1.786.128,2.676.22q2.063.214,4.121.471c1.386.172,2.771.359,4.154.553.932.13,1.862.28,2.792.429,1.021.163,2.045.312,3.06.508q2.367.457,4.723.972c2.117.465,4.239.916,6.317,1.539,1.756.527,3.5,1.094,5.244,1.661a2.833,2.833,0,0,1,1.879,1.375,2.315,2.315,0,0,1,.192,2.09,13.141,13.141,0,0,1-.8,1.556c-.423.694-.9,1.354-1.345,2.036a8.988,8.988,0,0,0-.564.967,4.131,4.131,0,0,0-.452,2.169,1.187,1.187,0,0,0,1.076,1.131,1.277,1.277,0,0,0,1.29-1.2c.007-.26-.024-.521-.039-.8a1.453,1.453,0,0,1,.765.752,2.212,2.212,0,0,1,.139,1.149,2.161,2.161,0,0,1-1.623,1.967,1.021,1.021,0,0,0-.143.027.231.231,0,0,0-.084.394,1.016,1.016,0,0,0,.237.164c.393.225.789.444,1.181.671a15.536,15.536,0,0,1,2.492,1.762,1.735,1.735,0,0,1,.458,2.23,7.847,7.847,0,0,1-1.6,2.127,4.627,4.627,0,0,0-1.515,4.03,9.267,9.267,0,0,0,.2,1.1,1.508,1.508,0,0,1-.822,1.748,2.986,2.986,0,0,1-1.533.2c-.718-.123-1.437-.25-2.146-.418a6.905,6.905,0,0,0-3.518-.069,2.225,2.225,0,0,1-.485.037.406.406,0,0,1-.449-.3c-.075-.242.087-.357.274-.449.363-.18.739-.338,1.085-.547a1.06,1.06,0,0,1,.63-.188c.195.01.462.1.52-.2.049-.255-.195-.309-.358-.4a10.751,10.751,0,0,0-2.593-.965,5.463,5.463,0,0,0-2.415-.094,1.852,1.852,0,0,0-.836.371,2.019,2.019,0,0,0,.177,3.14,1.22,1.22,0,0,0,1.794-.406c.071-.12.157-.233.239-.353a1.019,1.019,0,0,1,.59.919,1.753,1.753,0,0,1-1.731,1.893,3.627,3.627,0,0,1-2.8-1.027,2.777,2.777,0,0,1-.514-3.715,3.96,3.96,0,0,1,2.684-1.7,8.061,8.061,0,0,1,3.9.278c.151.043.27.086.3.263a.517.517,0,0,0,.537.414,2.938,2.938,0,0,1,1.17.305c.243.121.415.061.5-.115s.027-.34-.213-.478c-.209-.12-.445-.194-.665-.294-.083-.038-.206-.077-.228-.143-.079-.24-.292-.3-.475-.386a31.138,31.138,0,0,0-4.408-1.806c-1.976-.635-3.963-1.235-5.943-1.857a3.888,3.888,0,0,1-.759-.312.963.963,0,0,1-.461-1.2,3.389,3.389,0,0,1,.248-.631c.28-.513.576-1.017.873-1.52.214-.362.448-.712.659-1.076s.374-.721.586-1.065a1.5,1.5,0,0,0,.193-.84.354.354,0,0,0-.306-.381c-.332-.07-.664-.145-1-.209-1.223-.234-2.444-.477-3.67-.695-1.678-.3-3.357-.6-5.042-.855-1.332-.2-2.671-.364-4.01-.518-1.5-.173-3-.323-4.507-.474-.5-.05-1.005-.069-1.508-.113-.547-.048-1.093-.126-1.641-.159-.844-.052-1.689-.079-2.534-.114-1.512-.063-3.024-.173-4.536-.175-2.586,0-5.175-.106-7.761.074-1.02.071-2.044.08-3.067.118-.065,0-.13.005-.195.011-.642.056-1.284.119-1.927.169-.679.052-1.359.08-2.037.139-.777.068-1.552.151-2.327.242-1.842.216-3.689.4-5.524.67-2.019.294-4.03.649-6.039,1.006-1.5.267-2.985.579-4.477.873-.309.061-.471.226-.44.529a1.68,1.68,0,0,0,.221.628c.35.62.727,1.225,1.085,1.84s.716,1.236,1.056,1.864a3.354,3.354,0,0,1,.3.766,1.066,1.066,0,0,1-.031.516,1.219,1.219,0,0,1-.957.807c-.977.3-1.953.6-2.934.889a49.511,49.511,0,0,0-8.487,3.233c-.189.1-.383.18-.566.287-.269.157-.3.36-.126.665a.351.351,0,0,0,.571.132c.246-.158.468-.352.71-.517a1.882,1.882,0,0,1,.534-.306,18.388,18.388,0,0,1,2.319-.544,5.917,5.917,0,0,1,2.887.253,3.661,3.661,0,0,1,2.28,2.064,2.439,2.439,0,0,1,.182,1.336,3.594,3.594,0,0,1-3.916,2.843,1.729,1.729,0,0,1-1.6-1.915,1,1,0,0,1,.6-.889c.092.144.172.263.245.385a1.221,1.221,0,0,0,1.8.358,2.029,2.029,0,0,0,.425-2.825,1.4,1.4,0,0,0-.865-.594,7.859,7.859,0,0,0-1.543-.151,9.667,9.667,0,0,0-2.04.429,10.748,10.748,0,0,1-2.37.837c-.082,0-.213.174-.219.274a.369.369,0,0,0,.189.3,1.239,1.239,0,0,0,1.084-.035,1.168,1.168,0,0,1,.781-.164,1.11,1.11,0,0,1,1.032,1.143.4.4,0,0,1-.421.433,2.407,2.407,0,0,1-.626-.061,6.13,6.13,0,0,0-2.424-.1c-.655.1-1.3.285-1.951.4a10.637,10.637,0,0,1-1.685.215,1.952,1.952,0,0,1-1.405-.442,1.413,1.413,0,0,1-.438-1.549,5.777,5.777,0,0,0,.127-2.413,4.4,4.4,0,0,0-1.507-2.706,7.721,7.721,0,0,1-1.565-2.1,1.665,1.665,0,0,1,.389-2.16,13.558,13.558,0,0,1,1.863-1.391c.62-.408,1.283-.751,1.925-1.125.14-.082.3-.168.258-.369-.038-.177-.2-.177-.346-.21a1.714,1.714,0,0,1-.955-.553,2.552,2.552,0,0,1-.6-2.184,1.357,1.357,0,0,1,.908-1.116c-.025.169-.055.31-.065.452a2.759,2.759,0,0,0,0,.439,1.3,1.3,0,0,0,1.24,1.1,1.148,1.148,0,0,0,1.107-1.037,4.653,4.653,0,0,0-.055-1.114,5.187,5.187,0,0,0-.889-2.039c-.455-.675-.929-1.337-1.35-2.032a12.967,12.967,0,0,1-.887-1.73,1.979,1.979,0,0,1,.17-1.866,2.986,2.986,0,0,1,1.271-1.176c.42-.2.87-.338,1.308-.5a68.683,68.683,0,0,1,7.214-2.142c1.752-.428,3.51-.838,5.277-1.2,2.057-.416,4.125-.78,6.192-1.139q1.994-.346,4-.608,3.651-.472,7.309-.888c1.159-.132,2.326-.208,3.489-.3.919-.073,1.839-.147,2.76-.191,1.135-.054,2.271-.079,3.407-.114.309-.01.619,0,.928-.016a1.818,1.818,0,0,0,.322-.071" transform="translate(-17148.416 -433.281)" fill="#025486"></path><path id="Path_14823" data-name="Path 14823" d="M262.675,180.337a.717.717,0,0,0,.18.057c1.284.048,2.568.082,3.852.142.761.036,1.52.113,2.28.17.988.074,1.978.128,2.965.221,1.457.137,2.913.3,4.368.454.938.1,1.876.208,2.811.336,1.239.17,2.474.365,3.711.548.723.107,1.448.209,2.17.323.588.093,1.177.191,1.762.3,1.275.243,2.552.479,3.821.749,1.668.356,3.331.735,4.992,1.119a70.238,70.238,0,0,1,7.642,2.234,6.788,6.788,0,0,1,1.724.747c.251.178.527.326.577.679.01.071.09.133.135.2a2.3,2.3,0,0,1,.242,2.274,11.586,11.586,0,0,1-.845,1.643c-.431.708-.912,1.386-1.376,2.074a5.367,5.367,0,0,0-.888,2.042,3.533,3.533,0,0,0-.052.872,1,1,0,0,0,.924.968,1.123,1.123,0,0,0,1.041-1.045,3.5,3.5,0,0,0-.054-.531c-.014-.124-.029-.248-.042-.357a.426.426,0,0,1,.528.026,1.589,1.589,0,0,1,.786,1.072,2.793,2.793,0,0,1-.573,2.431,2.161,2.161,0,0,1-1.311.733c.439.248.859.48,1.273.721a20.26,20.26,0,0,1,2.573,1.8,2.031,2.031,0,0,1,.548,2.65,8.175,8.175,0,0,1-1.54,2.032,4.349,4.349,0,0,0-1.49,2.705,5.709,5.709,0,0,0,.146,2.265,1.568,1.568,0,0,1-.764,1.911,2.618,2.618,0,0,1-1.206.3,11.432,11.432,0,0,1-1.834-.2c-.558-.091-1.109-.231-1.662-.354a5.7,5.7,0,0,0-2.564.042,3.063,3.063,0,0,1-.821.059.532.532,0,0,1-.512-.5.488.488,0,0,1,.381-.591,3.262,3.262,0,0,1,1.641-.046c.986.2,1.957.462,2.938.684a8.775,8.775,0,0,0,2.464.27,1.037,1.037,0,0,0,.938-1.262,7.913,7.913,0,0,1-.154-2.757,2.786,2.786,0,0,1,.71-1.41c.713-.922,1.465-1.813,2.187-2.729a3.645,3.645,0,0,0,.534-.853,1.362,1.362,0,0,0-.2-1.463,9.517,9.517,0,0,0-2.719-2.083c-.569-.3-1.149-.579-1.768-.889-.008.176-.018.285-.017.394a2.673,2.673,0,0,1-2.084,2.757,8.885,8.885,0,0,1-1.546.187c-1.607.113-3.218.182-4.822.325a14.48,14.48,0,0,0-1.955.4c-.284.066-.323.13-.5.492.821,1.145,2.141,1.651,3.208,2.521a2.72,2.72,0,0,1-.442-.1c-1.766-.7-3.534-1.4-5.292-2.121a1.99,1.99,0,0,1-.653-.492.635.635,0,0,1,.017-.923,2.042,2.042,0,0,1,.551-.391,3.61,3.61,0,0,1,1.645-.387q4.153.006,8.307,0a3.987,3.987,0,0,0,1.528-.264,1.431,1.431,0,0,0,1-1.687c-.074-.528-.211-1.047-.316-1.572a2.93,2.93,0,0,1-.067-.471,14.5,14.5,0,0,1-.035-2.824,2.757,2.757,0,0,1,.327-.958c.541-.907,1.125-1.788,1.691-2.68q.77-1.214,1.536-2.431a2.161,2.161,0,0,0-1.072-2.972,26.071,26.071,0,0,0-3.642-1.208q-2.08-.615-4.185-1.142c-1.116-.281-2.246-.5-3.37-.748-1.235-.27-2.467-.551-3.706-.8-2.421-.491-4.852-.933-7.3-1.249-2.541-.327-5.081-.67-7.629-.939-2.184-.23-4.377-.37-6.567-.541-2.256-.177-4.516-.286-6.78-.3-1.987-.017-3.974-.075-5.96-.04-2.083.037-4.166.138-6.247.257-1.949.112-3.9.266-5.842.436-1.374.12-2.743.3-4.114.451-.932.1-1.868.181-2.8.312-2.005.285-4.013.561-6.008.907q-3.213.557-6.4,1.242c-2.47.529-4.942,1.06-7.368,1.774-1.379.405-2.752.83-4.124,1.258a4.256,4.256,0,0,0-.989.4,2.37,2.37,0,0,0-.692.673,1.953,1.953,0,0,0-.179,2.2c.426.729.864,1.453,1.337,2.153a33.18,33.18,0,0,1,1.9,2.953,3.185,3.185,0,0,1,.4,1.639c-.03.812-.066,1.625-.146,2.434-.042.429-.2.845-.269,1.273a4.848,4.848,0,0,0-.063,1.014,1.275,1.275,0,0,0,.781,1.1,3.692,3.692,0,0,0,1.7.357c1.564,0,3.127-.012,4.691-.012,1.238,0,2.476.019,3.713.019a3.589,3.589,0,0,1,1.6.39,1.946,1.946,0,0,1,.483.323.667.667,0,0,1,.033,1.033,2.092,2.092,0,0,1-.668.473c-1.729.707-3.466,1.394-5.2,2.082a1.232,1.232,0,0,1-.478.077c1.062-.836,2.371-1.34,3.208-2.484a.633.633,0,0,0-.559-.516,13.307,13.307,0,0,0-2.347-.42c-1.787-.1-3.572-.242-5.358-.367a2.772,2.772,0,0,1-2.643-2.878c0-.1,0-.191,0-.343-.355.149-.68.267-.989.419a12.907,12.907,0,0,0-2.845,1.83,7.285,7.285,0,0,0-.733.775,1.226,1.226,0,0,0-.123,1.381,9.817,9.817,0,0,0,1.5,2.068,15.979,15.979,0,0,1,1.7,2.238,1.218,1.218,0,0,1,.2.5,7.508,7.508,0,0,1,.028,2.092c-.062.3-.124.6-.181.9a1.088,1.088,0,0,0,.93,1.2,9.787,9.787,0,0,0,2.846-.343c.854-.2,1.7-.436,2.559-.6a9.055,9.055,0,0,1,1.408-.049.216.216,0,0,1,.048.008c.443.093.634.293.6.63-.032.364-.279.555-.724.549a1.976,1.976,0,0,1-.534-.045,6.413,6.413,0,0,0-3.323.067,10.571,10.571,0,0,1-2.83.431,2,2,0,0,1-1.763-.85,1.466,1.466,0,0,1-.237-1.148q.076-.331.138-.666a4.725,4.725,0,0,0-.426-3.254,6.541,6.541,0,0,0-1.234-1.488,5.971,5.971,0,0,1-1.485-2.183,1.886,1.886,0,0,1,.472-2.063,5.784,5.784,0,0,1,.848-.728c.676-.464,1.37-.9,2.064-1.341.366-.23.75-.433,1.189-.684-.139-.032-.235-.05-.328-.077a2.322,2.322,0,0,1-1.6-2.021,4.6,4.6,0,0,1,.085-1.2,1.394,1.394,0,0,1,.743-.924,2.5,2.5,0,0,1,.531-.145c-.039.252-.061.419-.092.584a1.163,1.163,0,0,0,.483,1.283.885.885,0,0,0,1.348-.375,1.938,1.938,0,0,0,.073-1.245,5.56,5.56,0,0,0-.881-2.046c-.472-.7-.964-1.393-1.4-2.115a10.333,10.333,0,0,1-.86-1.689,2.306,2.306,0,0,1,.358-2.345,3.5,3.5,0,0,1,1.62-1.2c1.99-.691,3.993-1.34,6.029-1.892,2.692-.731,5.413-1.329,8.141-1.9,1.28-.267,2.566-.51,3.856-.718q3.435-.555,6.879-1.049c1.239-.177,2.487-.291,3.731-.437.724-.085,1.447-.185,2.172-.267.4-.046.809-.073,1.214-.1.583-.041,1.167-.065,1.749-.114s1.156-.118,1.735-.177c.048-.005.1,0,.146-.006.81-.036,1.62-.076,2.43-.106,1.119-.041,2.239-.072,3.358-.114a3.018,3.018,0,0,0,.421-.073Z" transform="translate(-17147.846 -432.74)" fill="#024565"></path><path id="Path_14824" data-name="Path 14824" d="M306.666,260.17c-.416-.165-.845-.3-1.245-.5a3.349,3.349,0,0,1-1.377-1.279,3.008,3.008,0,0,1,.291-3.629,4.254,4.254,0,0,1,2.539-1.432,8.582,8.582,0,0,1,3.954.253c.5.141.992.31,1.488.466a.3.3,0,0,0,.25-.007c-.276-.149-.55-.3-.829-.445a38.98,38.98,0,0,0-5.879-2.315c-1.5-.478-3.013-.91-4.516-1.375a3.783,3.783,0,0,1-.842-.361,1.163,1.163,0,0,1-.518-1.353,3.512,3.512,0,0,1,.283-.723c.358-.656.733-1.3,1.108-1.948.317-.546.64-1.088.964-1.629a1.206,1.206,0,0,0,.192-.969c-.661-.143-1.335-.309-2.017-.431-2.567-.462-5.132-.937-7.707-1.351-1.619-.261-3.253-.437-4.883-.626-1.469-.171-2.941-.314-4.414-.455-.613-.059-1.23-.077-1.845-.118-1.359-.09-2.717-.2-4.078-.272-3.433-.177-6.87-.127-10.305-.1-.889.008-1.778.11-2.667.167-.114.007-.228,0-.342.006-.81.034-1.621.051-2.43.108-1.194.083-2.389.17-3.579.3q-3.13.339-6.253.735c-1.433.184-2.862.406-4.289.64-.97.159-1.931.368-2.9.555-1.335.258-2.67.514-4,.777-.408.08-.517.285-.312.655.346.621.726,1.224,1.088,1.836.116.2.217.4.33.6.291.507.6,1.007.871,1.522a3.644,3.644,0,0,1,.3.768,1.18,1.18,0,0,1-.494,1.281,3.924,3.924,0,0,1-.883.388c-1.98.626-3.97,1.219-5.945,1.862a29.222,29.222,0,0,0-5.01,2.126.582.582,0,0,0-.237.2,2.672,2.672,0,0,0,.263-.061,13.964,13.964,0,0,1,2.919-.752,5.944,5.944,0,0,1,4.261.794,3.346,3.346,0,0,1,1.458,2.119,3.074,3.074,0,0,1-1.145,3.041,3.535,3.535,0,0,1-1.775.858c-.041.007-.076.052-.114.079h-1.27c-.22-.1-.45-.183-.659-.3a1.826,1.826,0,0,1-.7-2.49.736.736,0,0,1,.722-.429c.1.158.2.319.3.484a.883.883,0,0,0,1.2.433,1.727,1.727,0,0,0,.966-2.062,1.62,1.62,0,0,0-1.424-1.218,6.77,6.77,0,0,0-3.517.535c-.5.175-.971.426-1.456.643l.024.1c.183,0,.365,0,.548,0,.132,0,.294-.032.316.138.024.188-.14.226-.292.253-.369.064-.739.123-1.1.2-.824.179-1.644.373-2.468.552a2.739,2.739,0,0,1-1.53.127,1.3,1.3,0,0,1-.313-.127.4.4,0,0,1-.1-.631,2.582,2.582,0,0,1,.573-.522c.961-.606,1.915-1.228,2.909-1.777a39.646,39.646,0,0,1,7.322-3.135c1.7-.533,3.422-1.01,5.132-1.522a2.3,2.3,0,0,0,.613-.282.727.727,0,0,0,.283-1.013,7.309,7.309,0,0,0-.4-.718c-.395-.666-.8-1.327-1.188-2a3.176,3.176,0,0,1-.219-.506.555.555,0,0,0-.612-.372c-.586.01-1.173.014-1.758-.011a15.631,15.631,0,0,0-4.155.462c-1.283.292-2.555.633-3.834.942a2.438,2.438,0,0,1-.622.059c-.092,0-.247-.081-.259-.147a.386.386,0,0,1,.1-.326,2.757,2.757,0,0,1,.639-.337c1.733-.641,3.514-1.128,5.292-1.619,1.188-.328,2.388-.611,3.583-.909,2.137-.533,4.3-.932,6.463-1.35q1.886-.366,3.784-.671c.972-.158,1.953-.266,2.927-.411,1.764-.263,3.537-.442,5.314-.589,2.318-.193,4.636-.4,6.957-.549,1.754-.11,3.513-.138,5.271-.185,1.042-.027,2.085-.045,3.126-.02,2.148.05,4.3.113,6.443.207,1.348.059,2.7.163,4.041.288,1.747.163,3.489.37,5.235.551,3.293.341,6.556.89,9.806,1.5,3.378.638,6.735,1.375,10.041,2.324,1.508.433,3,.908,4.5,1.377a2.237,2.237,0,0,1,.6.316,1.829,1.829,0,0,1,.3.36,1.151,1.151,0,0,1-1.071.146c-1.152-.28-2.3-.58-3.448-.872a20.548,20.548,0,0,0-5.952-.544c-.274.011-.546.068-.809.1-.275.4-.435.829-.68,1.215-.407.642-.775,1.309-1.157,1.966a2.529,2.529,0,0,0-.145.306.739.739,0,0,0,.286,1.015,2.271,2.271,0,0,0,.613.282c1.68.5,3.37.962,5.042,1.483a41.549,41.549,0,0,1,5.468,2.18,32.747,32.747,0,0,1,4.854,2.767,3,3,0,0,1,.513.446.45.45,0,0,1-.211.8,1.539,1.539,0,0,1-.908.076c-.579-.158-1.162-.3-1.749-.424-.826-.173-1.658-.323-2.487-.483-.064-.012-.144,0-.189-.033-.08-.062-.2-.154-.195-.231,0-.136.139-.146.263-.141.194.007.388,0,.677,0-.163-.106-.254-.178-.355-.23a10.385,10.385,0,0,0-3.607-1.117,3.644,3.644,0,0,0-1.538.192,1.605,1.605,0,0,0-1.011,1.579,1.651,1.651,0,0,0,.979,1.555.88.88,0,0,0,1.239-.41c.1-.165.2-.326.3-.478a1,1,0,0,1,.936.965,1.866,1.866,0,0,1-1.036,2.019c-.172.086-.353.155-.531.231h-1.27" transform="translate(-17161.639 -475.728)" fill="#004565"></path><path id="Path_14825" data-name="Path 14825" d="M533.91,222.632c-.249-.1-.494-.209-.747-.3-.413-.14-.831-.265-1.266-.431.409-.071.485-.328.458-.669a10.466,10.466,0,0,0-.314-2.215,1.312,1.312,0,0,0-.608-.9,2.505,2.505,0,0,0-.133.289q-.336,1.068-.662,2.139c-.139.46-.1.6.265,1.033-.8-.164-1.5-.442-2.221-.656.028-.052.043-.1.058-.1.413-.013.581-.275.691-.631q.87-2.814,1.76-5.622a.808.808,0,0,0-.2-1,1.834,1.834,0,0,1,.255.04c.683.207,1.367.412,2.047.632a4.865,4.865,0,0,1,.671.287,1.817,1.817,0,0,1,.912,1.1c.031.089.073.174.109.261v.586c-.047.134-.1.267-.14.4a1.678,1.678,0,0,1-1.448,1.271c-.205.029-.409.069-.622.1a2.535,2.535,0,0,1,.561,1.451c.073.514.113,1.034.184,1.549.064.462.075.953.544,1.243.03.019.029.089.042.135Zm-1.267-6.215,0,.116a2.046,2.046,0,0,0-.289.161.473.473,0,0,0,.534.781.955.955,0,0,0,.256-.217,2.029,2.029,0,0,0,.487-1.576,1.113,1.113,0,0,0-1.158-1.006L532,216.223l.643.194" transform="translate(-17384.287 -457.15)" fill="#efecea"></path><path id="Path_14826" data-name="Path 14826" d="M448.088,207.017l-.456-.09c-.172-1.43-.341-2.831-.51-4.231l-.084-.011c-.11.285-.224.569-.33.856-.36.975-.715,1.951-1.077,2.925-.1.274-.109.271-.5.207-.055-.356-.12-.722-.167-1.09-.175-1.37-.343-2.741-.515-4.111-.067-.532-.13-1.065-.208-1.6-.061-.412-.157-.812-.624-.915-.006-.062-.013-.081-.007-.093a.057.057,0,0,1,.04-.025.646.646,0,0,1,.143-.01c.671.068,1.341.138,2.048.212-.421.356-.413.355-.339.936.151,1.176.293,2.354.448,3.6a2.341,2.341,0,0,0,.17-.3c.239-.656.472-1.314.706-1.972a.548.548,0,0,0,.069-.23c-.1-.672.042-1.418-.664-2l2.231.194c-.168.167-.341.268-.4.416a1.158,1.158,0,0,0-.005.524c.128,1.146.264,2.291.456,3.449.049-.12.1-.237.145-.359.336-1,.66-2,1.009-3a.609.609,0,0,0-.334-.883,4.429,4.429,0,0,1,.918.008c.271.025.54.07.9.118-.152.073-.229.116-.311.148a.96.96,0,0,0-.51.677c-.272.8-.533,1.6-.8,2.4q-.639,1.917-1.281,3.834c-.041.122-.094.239-.164.415" transform="translate(-17321.809 -446.324)" fill="#efecea"></path><path id="Path_14827" data-name="Path 14827" d="M308.293,210.705l-2.2.306a.548.548,0,0,0,.147-.7,8.869,8.869,0,0,0-1.471-2.172,1.094,1.094,0,0,0-.672-.363c-.129.151-.065.319-.046.47.087.693.187,1.384.285,2.075.064.454.16.574.609.773a9.088,9.088,0,0,1-2.31.336c.515-.238.5-.626.441-1.048-.163-1.109-.309-2.22-.461-3.33q-.165-1.207-.328-2.414c-.048-.362-.161-.669-.628-.722.176-.216.391-.146.562-.172.706-.109,1.414-.21,2.125-.275a2.382,2.382,0,0,1,.914.074,1.856,1.856,0,0,1,1.311,1.66,1.736,1.736,0,0,1-.979,1.9c-.111.06-.216.132-.362.221a2.561,2.561,0,0,1,1.232,1.112c.287.453.561.915.84,1.373a1.374,1.374,0,0,0,.988.8l.006.1m-4.771-6.513a8.624,8.624,0,0,0,.232,1.639c.254-.061.461-.2.7-.017-.051.063-.094.108-.127.158a.484.484,0,1,0,.823.446,1.275,1.275,0,0,0,.052-.136,2.159,2.159,0,0,0-.015-1.249,1.2,1.2,0,0,0-1.666-.841" transform="translate(-17217.551 -449.717)" fill="#efecea"></path><path id="Path_14828" data-name="Path 14828" d="M409.825,199.554a2.057,2.057,0,0,0,.173-.276.582.582,0,0,0-.185-.741,1.138,1.138,0,0,0-1.719.334,4.022,4.022,0,0,0-.374,1.149,8.433,8.433,0,0,0,.078,3.342,3.194,3.194,0,0,0,.325.806,1.052,1.052,0,0,0,.694.5.822.822,0,0,0,1.143-.756c.055-.431.051-.87.072-1.281a1.3,1.3,0,0,0-.939-.171.705.705,0,0,0-.273.1.3.3,0,0,0-.179.358c.05.158.188.157.323.143.062-.007.123-.019.192-.03a.321.321,0,0,1-.018.482.6.6,0,0,1-.683.019.915.915,0,0,1-.329-.867,1.022,1.022,0,0,1,.664-.781,3.049,3.049,0,0,1,1.493-.078,3.393,3.393,0,0,0,.726.025c.422-.045.438-.072.689-.47a.578.578,0,0,1,.145.621.961.961,0,0,1-.834.777c-.022.513-.043,1.029-.068,1.544-.014.294.235.438.4.665a.952.952,0,0,1-.2.139,6.256,6.256,0,0,1-2,.365,2.6,2.6,0,0,1-2.706-2.078,5.858,5.858,0,0,1,.463-4.395,2.328,2.328,0,0,1,2.265-1.322c.481.017.964,0,1.524,0a.678.678,0,0,0-.024.737.941.941,0,0,1-.159,1.045c-.192.209-.316.228-.676.093" transform="translate(-17294.336 -445.473)" fill="#efecea"></path><path id="Path_14829" data-name="Path 14829" d="M329.147,203.9c-.057.146-.125.234-.117.315.072.81.161,1.618.234,2.427a.9.9,0,0,0,.573.9l-2.234.219c.483-.313.462-.751.4-1.22s-.1-.938-.142-1.407c-.13-1.376-.268-2.751-.38-4.129-.034-.417-.1-.77-.595-.9a10.776,10.776,0,0,1,2.28-.208.691.691,0,0,1-.153.132.481.481,0,0,0-.29.467,3.279,3.279,0,0,0,.007.439c.064.663.134,1.325.209,2.049.1-.144.182-.238.246-.342.464-.745.932-1.489,1.386-2.241.189-.313.173-.339-.072-.624a6.256,6.256,0,0,1,1.821-.2,1.678,1.678,0,0,1-.243.159,1.393,1.393,0,0,0-.654.566c-.553.862-1.1,1.728-1.659,2.614.118.169.224.33.338.486q1.022,1.4,2.048,2.8a2.169,2.169,0,0,0,1.233,1.018l-2.3.215c.264-.384.289-.421.085-.714-.648-.933-1.316-1.852-2.011-2.826" transform="translate(-17236.078 -446.876)" fill="#efecea"></path><path id="Path_14830" data-name="Path 14830" d="M388.362,197.655h1.715c-.515.356-.52.356-.519.984q.007,3.076.02,6.153c0,.175,0,.351,0,.518-.524.059-.624.021-.822-.375-.254-.508-.488-1.026-.731-1.54q-.781-1.651-1.563-3.3a1.32,1.32,0,0,0-.32-.454c0,.155,0,.31,0,.465q.008,2.124.015,4.248c0,.394-.035.807.611.9a1.186,1.186,0,0,1-.246.106c-.519,0-1.038,0-1.651,0,.131-.1.181-.158.244-.175a.386.386,0,0,0,.294-.35,4.126,4.126,0,0,0,.065-.626q0-2.295-.023-4.59c0-.309-.025-.617-.03-.927-.011-.654-.008-.654-.529-1.025h2.251l-.32.364c.631,1.421,1.309,2.834,2.047,4.241.006-.111.018-.222.016-.333q-.021-1.708-.045-3.417c0-.357-.035-.7-.507-.782Z" transform="translate(-17278.666 -445.459)" fill="#efecea"></path><path id="Path_14831" data-name="Path 14831" d="M283.969,211.214c.369-.116.649-.237.585-.673.515.428.469.887-.127,1.55.288.53.585,1.07.876,1.613a1.021,1.021,0,0,0,.776.511,22.806,22.806,0,0,1-2.257.5c.386-.479.389-.481.125-.991s-.53-1-.8-1.522a2.98,2.98,0,0,0-1.252.082,1.038,1.038,0,0,0-.335.187.273.273,0,0,0-.029.4.226.226,0,0,0,.342.046c.037-.026.073-.055.114-.086.156.1.26.237.177.409-.141.3-.417.321-.751.285,0,.246,0,.487,0,.728-.009.358-.008.706.513.762a9.347,9.347,0,0,1-1.751.4c.1-.113.134-.165.179-.19a.784.784,0,0,0,.39-.735q.044-1.757.095-3.514.036-1.244.081-2.488a.762.762,0,0,0-.174-.637,2.612,2.612,0,0,0-.5-.279,1.639,1.639,0,0,1,.3-.124c.67-.125,1.341-.249,2.013-.359.372-.061.589.123.692.593a1.528,1.528,0,0,0-.226-.052.469.469,0,0,0-.508.556,1.622,1.622,0,0,0,.15.511c.427.838.867,1.669,1.313,2.523m-1.269.128c-.2-.373-.384-.716-.568-1.058s-.361-.668-.542-1l-.067.028v2.378l1.177-.346" transform="translate(-17201.77 -452.376)" fill="#efecea"></path><path id="Path_14832" data-name="Path 14832" d="M472.457,207.707c.095.59.177,1.152.276,1.71a1,1,0,0,0,.6.851,9.658,9.658,0,0,1-2.237-.3,1.253,1.253,0,0,1,.175-.091.368.368,0,0,0,.253-.463c-.105-.655-.213-1.31-.319-1.962a3.151,3.151,0,0,0-1.125-.337.727.727,0,0,0-.146-.007c-.307.015-.484.148-.49.367-.005.184.105.233.491.216.1.548-.063.658-.787.483-.084.237-.16.482-.258.718-.133.321-.146.6.221.808a5.879,5.879,0,0,1-1.662-.191c.555-.12.715-.544.875-.992.621-1.725,1.257-3.443,1.888-5.164.011-.031.029-.058.04-.089.213-.584.188-.691-.294-1.125a1.9,1.9,0,0,1,.34-.018c.643.09,1.285.186,1.926.283a.578.578,0,0,1,.5.777,1.463,1.463,0,0,0-.168-.076c-.372-.113-.56-.025-.655.346a1.517,1.517,0,0,0-.046.576c.118.819.257,1.635.391,2.451a2.373,2.373,0,0,0,.084.285.61.61,0,0,0,.766-.387.468.468,0,0,1,.137.536,1.065,1.065,0,0,1-.777.8m-1.394-1.2-.4-2.307-.066.005-.823,2.275c.241-.012.431-.033.621-.028s.409.033.664.055" transform="translate(-17339.314 -448.735)" fill="#efecea"></path><path id="Path_14833" data-name="Path 14833" d="M512.051,212.906l-.689,3.109a7.771,7.771,0,0,0,1.117.225,1.353,1.353,0,0,0,1.286-1.338,1.276,1.276,0,0,0-.131-.4c.3-.115.433-.076.58.189a1.489,1.489,0,0,1,.107,1.092,3.9,3.9,0,0,1-.3.717c-.1.227-.221.447-.344.693-1.237-.284-2.516-.578-3.794-.874-.125-.029-.246-.073-.37-.11.012-.036.018-.087.031-.088.4-.047.562-.3.647-.675.373-1.645.762-3.287,1.145-4.931.066-.284.137-.568.194-.854.069-.348.094-.689-.314-.909a5.762,5.762,0,0,1,1.417.25c.476.1.95.214,1.424.323s.946.219,1.433.331a2.676,2.676,0,0,0-.086.4,3.305,3.305,0,0,0,.025.438.96.96,0,0,1-.406.889.477.477,0,0,1-.667-.023.422.422,0,0,1,.06-.13c.414-.389.4-.773-.066-1.067a2.318,2.318,0,0,0-.579-.248c-.294-.087-.6-.143-.948-.225l-.655,2.7a1.2,1.2,0,0,0,1.641-.327,8.522,8.522,0,0,1-.416,1.927c-.2-.263-.192-.648-.515-.794-.248-.112-.515-.182-.832-.291" transform="translate(-17370.211 -453.612)" fill="#efecea"></path><path id="Path_14834" data-name="Path 14834" d="M262.874,218.874a15.024,15.024,0,0,1-2.212.56c.423-.35.329-.762.222-1.194-.44-1.777-.868-3.557-1.3-5.335-.019-.079-.054-.153-.07-.233a.783.783,0,0,0-.686-.693c.117-.038.232-.085.351-.114.724-.178,1.444-.375,2.174-.523a1.948,1.948,0,0,1,2.082.731,1.97,1.97,0,0,1,.256,2.153,2,2,0,0,1-1.878,1.244h-.28c.031.155.051.275.079.393q.257,1.088.518,2.175c.015.063.045.123.057.186a.744.744,0,0,0,.69.65m-1.128-5.269a2.105,2.105,0,0,0-.153.233.508.508,0,0,0,.215.667.465.465,0,0,0,.617-.229,1.07,1.07,0,0,0,.109-.318,2.012,2.012,0,0,0-.2-1.227,1.13,1.13,0,0,0-1.65-.606l.392,1.571c.219-.085.409-.254.675-.09" transform="translate(-17186.094 -455.471)" fill="#efecea"></path><path id="Path_14835" data-name="Path 14835" d="M244.572,221.392c-.674.264-.823.606-.627,1.171a.956.956,0,0,0,1.255.6,1.561,1.561,0,0,0,.737-.613,1,1,0,0,0-.231-1.429,5.467,5.467,0,0,0-1.05-.607c-.4-.181-.821-.3-1.232-.455a5.036,5.036,0,0,1-.675-.276,1.763,1.763,0,0,1-1.022-1.7,1.738,1.738,0,0,1,1.117-1.581c.264-.122.549-.2.825-.293l.954-.335a.655.655,0,0,0,.21.61,1.262,1.262,0,0,1,.324.991.538.538,0,0,1-.635.536,3.521,3.521,0,0,0-.036-.64.64.64,0,0,0-.249-.34,1.139,1.139,0,0,0-1.35.167.728.728,0,0,0-.124.776,1.26,1.26,0,0,0,.779.758c.435.18.878.339,1.317.51.242.094.482.193.723.291a3.176,3.176,0,0,1,1.261.975,1.825,1.825,0,0,1-.073,2.373,2.777,2.777,0,0,1-2.764.942,1.392,1.392,0,0,1-.772-2.177,1.14,1.14,0,0,1,1.079-.437c.072.009.135.094.258.185" transform="translate(-17173.535 -458.84)" fill="#efecea"></path><path id="Path_14836" data-name="Path 14836" d="M496.641,207.134a.767.767,0,0,0,.255-.989c-.161-.46-.6-.417-1.023-.5-.1.564-.21,1.119-.309,1.674-.254,1.422-.5,2.845-.757,4.266a1,1,0,0,0,.385,1.167l-2.307-.405c.031-.048.045-.095.065-.1.389-.059.522-.321.579-.674.075-.464.185-.923.266-1.386q.4-2.278.79-4.557a.8.8,0,0,0,0-.138c-.486-.237-.824-.226-1.082.029a.835.835,0,0,0-.126,1.009c-.391.088-.561,0-.636-.344a1.515,1.515,0,0,1,.092-.908c.1-.249.172-.509.255-.758l4.536.8c-.01.227-.037.442-.025.654a1.766,1.766,0,0,1-.2,1.037c-.18.3-.38.335-.758.126" transform="translate(-17357.869 -450.5)" fill="#efecea"></path><path id="Path_14837" data-name="Path 14837" d="M354.732,205.938a8.557,8.557,0,0,0,1.063-.106,1.113,1.113,0,0,0,.532-.316,1.758,1.758,0,0,0,.165-2.12c.116-.192.288-.228.437-.076a1.872,1.872,0,0,1,.417.582,2.666,2.666,0,0,1,.051,1.815c-.065.21-.2.418.144.669l-4.518.249-.021-.066a.845.845,0,0,0,.212-.149,1.472,1.472,0,0,0,.237-.4,1.1,1.1,0,0,0,.012-.388q-.085-1.682-.175-3.364c-.038-.715-.087-1.429-.116-2.144-.029-.737-.039-.773-.593-1.193a5.881,5.881,0,0,1,.641-.084c.534-.011,1.069,0,1.61,0,0,0,.01.049,0,.052a.693.693,0,0,0-.424.789q.1,1.779.191,3.558c.045.876.087,1.753.134,2.7" transform="translate(-17254.949 -446.328)" fill="#efecea"></path><path id="Path_14838" data-name="Path 14838" d="M372.563,197.722l2.278-.1c-.06.1-.075.163-.107.171-.333.092-.406.344-.4.642.011.8.02,1.595.038,2.392.016.667.042,1.333.069,2,.021.536.049,1.072.075,1.608.028.562.033.57.49.855a5.9,5.9,0,0,1-2.275.088c.567-.266.546-.732.528-1.211q-.1-2.756-.177-5.512a.769.769,0,0,0-.581-.849l.062-.082" transform="translate(-17269.582 -445.434)" fill="#efecea"></path><path id="Path_14844" data-name="Path 14844" d="M60.07,296.19l1.707,1.843.819-1.092-.853-1.775Z" transform="translate(-17040.117 -517.075)" fill="#004565"></path><path id="Path_14849" data-name="Path 14849" d="M202.074,223.039l-.2-.655-2.368-.23-.33.714Z" transform="translate(-17142.281 -463.453)" fill="#004565"></path><path id="Path_14850" data-name="Path 14850" d="M189.916,178.249l1.6,1.809.854-2.526Z" transform="translate(-17135.482 -430.68)" fill="#004565"></path><g id="Group_5217-2" data-name="Group 5217" transform="translate(-16996 -300.292)"><path id="Path_14870" data-name="Path 14870" d="M0,31.47a1.681,1.681,0,0,0,.167-.377,9.688,9.688,0,0,1,2.687-5.05A14.077,14.077,0,0,1,10.169,22a27.057,27.057,0,0,1,3.966-.489,28.657,28.657,0,0,0,7.929-1.465c.67-.248,1.33-.522,1.995-.783.121-.048.241-.1.365-.137.476-.151.784.112.669.6a1.275,1.275,0,0,1-.309.6,2.441,2.441,0,0,0-.641,1.494,16.881,16.881,0,0,0-.06,3.753c.125,1.539.28,3.077.455,4.612.159,1.389.367,2.771.547,4.158.178,1.37.346,2.742.521,4.112.183,1.435.372,2.869.555,4.3.208,1.628.417,3.257.617,4.886.148,1.21.3,2.421.418,3.634.079.776.111,1.558.165,2.337a.3.3,0,0,0,.078.193q.235-.787.469-1.573c1.393-4.65,2.787-9.3,3.985-14,.321-1.258.641-2.518.9-3.79a5.283,5.283,0,0,0,.017-1.458,7.067,7.067,0,0,1,1.058-4.33A8.207,8.207,0,0,1,37,25.562a5.068,5.068,0,0,1,2.47-.652,2.478,2.478,0,0,1,2.42,3.248,5.521,5.521,0,0,1-1.168,2.12,2.019,2.019,0,0,1-1.978.682,1.277,1.277,0,0,1-.531-.224.629.629,0,0,1-.034-1.064,2.026,2.026,0,0,0,.474-.6c.208-.477-.069-.8-.587-.731a1.056,1.056,0,0,0-.926,1.085,6.564,6.564,0,0,0,.257,2.073,79.585,79.585,0,0,0,2.8,8.56c.71,1.849,1.408,3.7,2.111,5.556l.19.5a2.711,2.711,0,0,0,.119-.367c.191-1.384.382-2.769.564-4.155.213-1.628.417-3.257.625-4.885.183-1.435.374-2.869.549-4.305.151-1.243.282-2.488.425-3.731.149-1.292.31-2.583.449-3.876q.184-1.722.329-3.448c.091-1.07.192-2.141.229-3.213.032-.941,0-1.886-.046-2.826a2.481,2.481,0,0,0-.283-.872.571.571,0,0,0-.761-.353,2.228,2.228,0,0,0-1.421.956,3.546,3.546,0,0,1-.337.477.662.662,0,0,1-.758.188.586.586,0,0,1-.372-.628,4.536,4.536,0,0,1,2.914-4.434,20.242,20.242,0,0,1,2.149-.623.554.554,0,0,1,.71.578c0,.081-.018.162-.021.243-.014.378.123.508.49.468a1.72,1.72,0,0,0,1.325-1.55.433.433,0,0,0-.214-.351.577.577,0,0,1-.049-1.01,1.1,1.1,0,0,1,.148-.127,16.919,16.919,0,0,0,3.1-2.954,29.125,29.125,0,0,1,3.714-3.668A7.186,7.186,0,0,1,59.065.068c.025-.005.042-.045.063-.068H60.5a1.925,1.925,0,0,0,.334.154A1.688,1.688,0,0,1,62.205,1.98a3.921,3.921,0,0,1-1.5,3.244,2.132,2.132,0,0,1-1.922.427.882.882,0,0,1-.651-.536c-.149-.358-.056-.61.341-.9.44-.326.484-.417.443-.953a1.325,1.325,0,0,0-.755,0,3.476,3.476,0,0,0-1.351.651,7.7,7.7,0,0,0-1.7,1.874,17.408,17.408,0,0,0-2.254,5c-.451,1.678-.959,3.339-1.4,5.02A25.081,25.081,0,0,0,50.8,19.6c-.126,1.229-.3,2.453-.444,3.68-.148,1.26-.282,2.521-.427,3.781-.113.985-.236,1.97-.349,2.955-.114,1-.22,2-.332,3.006q-.173,1.551-.351,3.1c-.111.986-.22,1.971-.332,2.957q-.212,1.866-.43,3.731c-.111.936-.231,1.872-.347,2.807C47.641,46.809,47.5,48,47.344,49.2a39.369,39.369,0,0,0-.425,7.689,15.393,15.393,0,0,0,.476,3.129,3.672,3.672,0,0,0,1.373,2.128,1.363,1.363,0,0,0,1.289.24,7.642,7.642,0,0,0,1.035-.412.861.861,0,0,0,.488-1.03,1.71,1.71,0,0,1-.255-.1.565.565,0,0,1-.186-.876,3.6,3.6,0,0,1,1.534-1.175,1.473,1.473,0,0,1,1.955,1.1,3.931,3.931,0,0,1-.86,3.382,5.838,5.838,0,0,1-3.294,2.048,3.384,3.384,0,0,1-1.639-.086,6.1,6.1,0,0,1-2.177-1.063c-.6-.468-1.212-.936-1.783-1.443a4.755,4.755,0,0,0-2.026-1.12,1.712,1.712,0,0,1-.189-.047A.418.418,0,0,1,42.4,60.9a2.627,2.627,0,0,1,.34-.472,1.519,1.519,0,0,0,.4-.87A.853.853,0,0,0,43,59.026c-.138-.177-.355-.085-.54-.006a1.694,1.694,0,0,0-1.1,1.334.908.908,0,0,1-.775.814,2.938,2.938,0,0,1-1.682.01,1.743,1.743,0,0,1-1.051-.9,3.124,3.124,0,0,1-.073-2.558c.242-.645.882-.687,1.286-.125a.489.489,0,0,0,.732.192.945.945,0,0,0,.566-.947,6.865,6.865,0,0,0-.263-1.431Q39.136,52.4,38.116,49.4c-.831-2.444-1.687-4.879-2.533-7.317-.042-.122-.093-.241-.166-.43-.063.188-.112.316-.149.448q-2.488,8.939-4.974,17.877c-.1.375-.231.745-.337,1.119a1.932,1.932,0,0,0-.037,1.037.8.8,0,0,0,.615-.335c.237-.325.43-.682.644-1.025a2.3,2.3,0,0,1,.346-.519.591.591,0,0,1,1.021.3,4.766,4.766,0,0,1,.046,1.546,5.206,5.206,0,0,1-2.655,3.78,1.944,1.944,0,0,1-.213.118.56.56,0,0,1-.831-.323c-.211-.456-.375-.516-.811-.3a1.691,1.691,0,0,0-.881,1.893c.139.047.295.088.441.151a.389.389,0,0,1,.226.589,1.6,1.6,0,0,1-.265.4,17.5,17.5,0,0,0-2.013,2.814c-.708,1.188-1.416,2.375-2.139,3.553a18.223,18.223,0,0,1-2.58,3.3,5.72,5.72,0,0,1-2.9,1.615,2.363,2.363,0,0,1-1.437-.059,1.752,1.752,0,0,1-.982-1.623,3.85,3.85,0,0,1,1.127-3.157,2.168,2.168,0,0,1,1.971-.613c.578.079.739.523.39,1a4.762,4.762,0,0,0-.336.417c-.11.191-.243.4,0,.642a4.368,4.368,0,0,0,2.157-1.489,11.244,11.244,0,0,0,2.094-4.572,20.48,20.48,0,0,0,.386-4.9c-.008-.6-.137-1.194-.2-1.792-.058-.517-.124-1.034-.153-1.553-.082-1.43-.126-2.862-.226-4.291-.087-1.233-.219-2.463-.352-3.692-.124-1.147-.26-2.294-.419-3.437a23.687,23.687,0,0,0-1.67-6.489,6.684,6.684,0,0,0-1.373-2.06,1.976,1.976,0,0,0-2.144-.526,4.736,4.736,0,0,1-.515.146c-.479.1-.824-.241-.678-.7a2.208,2.208,0,0,1,.447-.85,12.806,12.806,0,0,1,1.45-1.3,3.5,3.5,0,0,1,2.211-.721,4.181,4.181,0,0,0-.1-1.266c-.134-1.244-.3-2.485-.462-3.726-.107-.839-.219-1.676-.33-2.515-.042-.322-.077-.646-.131-.966a6.494,6.494,0,0,0-2.22-3.851A4.97,4.97,0,0,0,13.584,24.6a12.259,12.259,0,0,0-5.056.51,9.385,9.385,0,0,0-2.1,1.017,4.756,4.756,0,0,0-2.141,3.132,2.6,2.6,0,0,0,.025,1.394,1.313,1.313,0,0,0,2.056.763,2.263,2.263,0,0,0,.851-.983c.163-.335.286-.689.429-1.034.237-.574.562-.7,1.116-.412a1.753,1.753,0,0,1,.9,1.572,4.7,4.7,0,0,1-1.051,3.272,5.864,5.864,0,0,1-4.931,2.418,3.636,3.636,0,0,1-3.5-2.733A2.328,2.328,0,0,0,0,33.132V31.47" fill="#025486"></path><path id="Path_14871" data-name="Path 14871" d="M681.649,133a4.95,4.95,0,0,0-.078.57,18.939,18.939,0,0,1-.719,4.809,4.89,4.89,0,0,1-1.544,2.493,4.241,4.241,0,0,1-3.506.961,9.636,9.636,0,0,1-3.867-1.516,15.836,15.836,0,0,1-6.892-10.084,35.877,35.877,0,0,1-.76-9.8,20.733,20.733,0,0,1,.856-5.427,5.442,5.442,0,0,1,1.671-2.643,4.571,4.571,0,0,1,4.1-1.009,11.016,11.016,0,0,1,5.119,2.793,16.537,16.537,0,0,1,4.721,8.053,24.276,24.276,0,0,1,.694,4.326c.059.713.09,1.428.139,2.142a1.107,1.107,0,0,0,.063.225Zm-11.427-17.226-.108-.016c-.1.372-.226.739-.294,1.116-.149.831-.271,1.667-.4,2.5-.073.481-.153.963-.195,1.447-.061.713-.084,1.429-.135,2.143a33.671,33.671,0,0,0,.111,4.632c.058.874.2,1.742.319,2.611.126.949.229,1.9.4,2.845a7.727,7.727,0,0,0,1.525,3.545A5.167,5.167,0,0,0,674,138.41a1.287,1.287,0,0,0,1.666-.622,3.3,3.3,0,0,0,.416-.926c.166-.693.286-1.4.4-2.1.142-.882.281-1.765.379-2.653a41.991,41.991,0,0,0,.1-4.928,17.98,17.98,0,0,0-.122-2c-.167-1.387-.373-2.769-.56-4.154a4.1,4.1,0,0,0-1.5-2.755,1.959,1.959,0,0,0-.445-.294.451.451,0,0,0-.685.314,2.144,2.144,0,0,0-.057.812,2.46,2.46,0,0,0,.861,1.435.634.634,0,0,1,.207.746.675.675,0,0,1-.724.382.973.973,0,0,1-.378-.077,6.97,6.97,0,0,1-1.15-.625,5.973,5.973,0,0,1-1.987-3.113,5.882,5.882,0,0,1-.2-2.076" transform="translate(-487.845 -81.695)" fill="#025486"></path><path id="Path_14872" data-name="Path 14872" d="M439.939,59.972a12.022,12.022,0,0,1,3.634,5.14c.829,1.925,1.608,3.87,2.447,5.791a19.313,19.313,0,0,0,1.065,1.97,2.236,2.236,0,0,0,1.351,1.056.948.948,0,0,1,.355.154,1.069,1.069,0,0,1,.326.4.491.491,0,0,1-.518.71c-.421-.022-.838-.1-1.256-.164-1.5-.214-2.992-.434-4.488-.643-.789-.11-1.58-.2-2.371-.3-.251-.032-.49-.079-.564-.375a.7.7,0,0,1,.317-.714,1.808,1.808,0,0,1,.456-.154c.136-.035.278-.048.48-.082a5.244,5.244,0,0,0-.1-.942,17.224,17.224,0,0,0-.608-1.7c-.613-1.468-1.208-2.946-1.886-4.385A13.873,13.873,0,0,0,436.04,62a3.74,3.74,0,0,0-1.64-1.068c-.007.166-.019.309-.02.453q0,4.3,0,8.6a3.888,3.888,0,0,0,.234,1.336,1.368,1.368,0,0,0,1,.91c.173.045.35.077.519.134a.7.7,0,0,1,.45.478c.155.472-.051.778-.553.763-.471-.014-.941-.065-1.412-.1-1.476-.116-2.952-.241-4.429-.348-.812-.059-1.626-.088-2.438-.131-.444-.023-.6-.149-.628-.516a.655.655,0,0,1,.5-.735,1.2,1.2,0,0,1,.193-.03,1.234,1.234,0,0,0,1.155-1.076,4.8,4.8,0,0,0,.14-.961q.012-10.9,0-21.794a6.1,6.1,0,0,0-.214-1.391,1.284,1.284,0,0,0-.957-.951,2.646,2.646,0,0,1-.416-.134.745.745,0,0,1-.318-.967.575.575,0,0,1,.3-.223,1.006,1.006,0,0,1,.386-.026q1.876.122,3.751.253c1.039.072,2.078.141,3.116.225.892.072,1.782.164,2.673.25.566.055,1.137.087,1.7.179a7.084,7.084,0,0,1,3.478,1.769,8.4,8.4,0,0,1,2.9,5.268,8.818,8.818,0,0,1-.094,3.3,5.313,5.313,0,0,1-2.62,3.486,8.359,8.359,0,0,1-2.264.878l-.59.146m-5.33-7.013a3.251,3.251,0,0,1,1.761.063,1.124,1.124,0,0,1,.762.631.537.537,0,0,1-.26.739c-.114.059-.243.089-.362.139a.974.974,0,0,0-.644,1.079,2.319,2.319,0,0,0,.085.379,1.52,1.52,0,0,0,2.831.291,6.855,6.855,0,0,0,.6-4.916,4.611,4.611,0,0,0-3.573-3.712,3.015,3.015,0,0,0-1.424-.112c.076,1.8.152,3.584.23,5.419" transform="translate(-313.695 -32.471)" fill="#025486"></path><path id="Path_14873" data-name="Path 14873" d="M605.221,98.339a32.444,32.444,0,0,1-.684,6.63,7.411,7.411,0,0,1-1.245,2.835,5,5,0,0,1-3.406,1.988,7.641,7.641,0,0,1-4.146-.59,13.362,13.362,0,0,1-3.512-2.085,13.785,13.785,0,0,1-4.49-7.43,28.246,28.246,0,0,1-.791-5.984c-.021-1.367-.047-2.737.027-4.1a19.557,19.557,0,0,1,.766-4.8,9.272,9.272,0,0,1,.764-1.839,5.481,5.481,0,0,1,3.852-2.816,7.293,7.293,0,0,1,3.795.4,12.006,12.006,0,0,1,5.755,4.339,15.382,15.382,0,0,1,2.745,6.65,50.24,50.24,0,0,1,.571,6.811m-12.095-13.7-.111-.018c-.1.354-.231.7-.3,1.062-.15.814-.273,1.633-.4,2.451a18.817,18.817,0,0,0-.28,2.026c-.068,1.576-.108,3.155-.1,4.733a26.532,26.532,0,0,0,.212,2.82c.122,1.064.291,2.124.456,3.183a9.85,9.85,0,0,0,.874,3.028,4.875,4.875,0,0,0,3.227,2.692,1.732,1.732,0,0,0,2.2-.87,4.147,4.147,0,0,0,.541-1.4c.158-.862.264-1.734.432-2.593a27.666,27.666,0,0,0,.4-5.391,33.456,33.456,0,0,0-.439-5.489c-.146-.864-.3-1.727-.482-2.584a3.026,3.026,0,0,0-1.647-2.011c-.48-.267-.835-.1-1.018.438a1.548,1.548,0,0,0,.346,1.586,5.317,5.317,0,0,0,.536.5.634.634,0,0,1,.185.711.641.641,0,0,1-.542.438,1.429,1.429,0,0,1-.533-.009,3.84,3.84,0,0,1-2.016-1.116A5.778,5.778,0,0,1,593.5,86.93a5.607,5.607,0,0,1-.374-2.289" transform="translate(-431.064 -58.786)" fill="#025486"></path><path id="Path_14874" data-name="Path 14874" d="M207.175,73.769a4.288,4.288,0,0,0,1.567-.714.873.873,0,0,0,.372-.658,3.018,3.018,0,0,1,.088-.529.549.549,0,0,1,.8-.373,1.547,1.547,0,0,1,.84,1.076,3.115,3.115,0,0,1-.06,1.685,4.76,4.76,0,0,1-2.34,3.149c.064.242.112.492.195.731.568,1.641,1.135,3.283,1.723,4.917a4.879,4.879,0,0,0,.5.943,1.34,1.34,0,0,0,1.05.629c.178.017.357.033.534.056a.649.649,0,0,1,.638.665c.005.317-.185.524-.586.6-.382.075-.77.126-1.153.2-2.363.439-4.727.875-7.087,1.327-.27.052-.48.05-.643-.189a.561.561,0,0,1,.035-.684,2.038,2.038,0,0,1,.457-.425c.17-.124.373-.2.546-.321a.808.808,0,0,0,.371-1.012q-.288-1.031-.623-2.05c-.474-1.433-.964-2.862-1.448-4.292-.026-.075-.053-.149-.089-.253-.479,0-.947-.006-1.415,0a8.632,8.632,0,0,0-3.323.671,4.046,4.046,0,0,0-.764.424,1.1,1.1,0,0,0-.479,1.208.855.855,0,0,0,1.024-.281c.366-.466.727-.424,1.042.073a1.8,1.8,0,0,1-.749,2.687,3.458,3.458,0,0,1-2.084.45,2.773,2.773,0,0,0-.121.35c-.178.859-.362,1.716-.519,2.579a5.968,5.968,0,0,0-.08,1.017c0,.392.082.485.458.563a1.4,1.4,0,0,0,.387.016c.367-.028.607.184.692.611.059.3-.143.55-.526.653-.721.193-1.446.372-2.169.561-1.3.342-2.607.682-3.907,1.036-.276.075-.512.094-.693-.167a.685.685,0,0,1,.089-.814,1.154,1.154,0,0,1,.389-.283,3.366,3.366,0,0,0,1.973-2.4c.256-.989.465-1.991.682-2.99q1.2-5.522,2.391-11.045,1.062-4.878,2.141-9.753a1.707,1.707,0,0,0-.122-1.091.787.787,0,0,0-.8-.523,2.167,2.167,0,0,1-.438-.016.674.674,0,0,1-.6-.617.6.6,0,0,1,.531-.606c1.2-.293,2.4-.583,3.6-.856,1.726-.391,3.464-.731,5.18-1.159a2.293,2.293,0,0,1,2.614,2.122,1.338,1.338,0,0,1-.215.684.594.594,0,0,1-.955.171.659.659,0,0,0-.718-.1,1.834,1.834,0,0,0-1.313,1.54,4.771,4.771,0,0,0,.222,2.355c.787,2.355,1.6,4.7,2.4,7.055.156.458.315.915.477,1.388m-7.689-5.355-.08-.007-1.6,7.42c.631-.235,1.24-.493,1.868-.686.644-.2,1.307-.334,1.99-.5l-2.173-6.222" transform="translate(-139.211 -42.97)" fill="#025486"></path><path id="Path_14875" data-name="Path 14875" d="M359.574,56.159a12.864,12.864,0,0,0,2.207-.09,2.887,2.887,0,0,0,2.164-1.783c.052-.119.09-.245.152-.359a.894.894,0,0,1,1.093-.406.573.573,0,0,1,.265.316,1.475,1.475,0,0,1,.042.482q0,3.078,0,6.155v.049c0,.517-.084.681-.368.755a.988.988,0,0,1-1.011-.429,3.058,3.058,0,0,1-.169-.4,2.627,2.627,0,0,0-2.447-1.782c-.631-.04-1.266-.007-1.933-.007v10.43c.177,0,.335,0,.494,0l2.344-.032a4.493,4.493,0,0,0,4.458-4.855,3.966,3.966,0,0,0-.2-.85.873.873,0,0,0-.469-.531c-.5-.262-.545-.654-.128-1.047a1.672,1.672,0,0,1,1.739-.279,2.324,2.324,0,0,1,1.137.81,5.763,5.763,0,0,1,1.334,3.438,8.441,8.441,0,0,1-.84,4.257c-.071.145-.1.308-.171.455a.514.514,0,0,0,.059.548,1.169,1.169,0,0,1,.224.874c-.055.314-.165.419-.481.454a3.614,3.614,0,0,1-.439.007c-2.149-.021-4.3-.063-6.446-.059-1.823,0-3.647.044-5.469.1-1.155.033-2.308.115-3.462.174-.114.006-.228.009-.342.011-.461.008-.551-.044-.637-.36a.691.691,0,0,1,.348-.828,2.526,2.526,0,0,1,.458-.161,1.243,1.243,0,0,0,.929-.913,5.859,5.859,0,0,0,.243-1.383q.023-10.8.012-21.592a4.156,4.156,0,0,0-.275-1.525,1.03,1.03,0,0,0-.957-.707c-.049,0-.1-.008-.146-.008-.511,0-.721-.262-.669-.842a.408.408,0,0,1,.342-.415,4.365,4.365,0,0,1,.578-.082c1.285-.061,2.569-.12,3.854-.169,3.58-.136,7.162-.159,10.744-.094.44.008.878.037,1.317.063a.528.528,0,0,1,.5.778.722.722,0,0,1-.11.217.958.958,0,0,0-.075,1.093c.172.4.334.811.48,1.224a3.786,3.786,0,0,1-1.2,4.266,2.2,2.2,0,0,1-2.3.261,1.07,1.07,0,0,1-.462-.411.542.542,0,0,1,.178-.832,1.118,1.118,0,0,0,.662-1,1.58,1.58,0,0,0-.712-1.689,4.471,4.471,0,0,0-1.962-.685c-.628-.074-1.265-.088-1.9-.1-.845-.016-1.691,0-2.527,0-.116.378-.161,8.295-.057,9.5" transform="translate(-258.682 -31.906)" fill="#025486"></path><path id="Path_14876" data-name="Path 14876" d="M284.257,48.042v.533q0,10.774,0,21.548a4,4,0,0,0,.21,1.438.841.841,0,0,0,.82.641,1.9,1.9,0,0,1,.432.077.7.7,0,0,1,.543.806.4.4,0,0,1-.382.376c-.434.059-.868.127-1.3.178-1.34.158-2.681.3-4.021.464-.985.117-1.968.25-2.951.374a.585.585,0,0,1-.616-.19.639.639,0,0,1,.123-.722,1.754,1.754,0,0,1,.6-.394,1.466,1.466,0,0,0,1.016-1.088,4.879,4.879,0,0,0,.177-1.051c.091-6.335.151-12.669.062-19-.014-.993-.034-1.986-.052-2.98,0-.095-.01-.189-.018-.345a5.662,5.662,0,0,0-2.59.593,3.157,3.157,0,0,0-1.33,3.049.694.694,0,0,0,.448.579c.553.227.618.668.17,1.077a2.01,2.01,0,0,1-2.905-.245,3.8,3.8,0,0,1-.721-2.04,7.539,7.539,0,0,1,.337-2.452c.063-.235.123-.471.191-.705a1.285,1.285,0,0,0-.128-1.165,1.007,1.007,0,0,1-.027-1.067c.143-.3.336-.432.621-.3a3.237,3.237,0,0,0,1.918.04c1.595-.212,3.186-.452,4.781-.664,1.5-.2,3-.392,4.5-.557,1.2-.131,2.4-.212,3.6-.323a13.018,13.018,0,0,0,1.45-.18,3.642,3.642,0,0,0,.942-.366c.406-.215.63-.156.783.28a1.047,1.047,0,0,1-.116,1.066.9.9,0,0,0-.123.914,17.575,17.575,0,0,1,.461,1.74,4.591,4.591,0,0,1-.354,3,2.435,2.435,0,0,1-1.649,1.408,1.972,1.972,0,0,1-1.286-.124.727.727,0,0,1-.492-.613.582.582,0,0,1,.4-.56.96.96,0,0,0,.534-.96,2.511,2.511,0,0,0-.213-1.139,1.809,1.809,0,0,0-1.591-1.117,10.271,10.271,0,0,0-2.243.17" transform="translate(-199.733 -32.211)" fill="#025486"></path><path id="Path_14877" data-name="Path 14877" d="M524.817,81.508c1.059.239,2.066.5,3.088.686a2.69,2.69,0,0,0,2.812-1.042,5.246,5.246,0,0,0,.978-2.362,6.137,6.137,0,0,0-.082-2.567,1.779,1.779,0,0,0-.685-1.14.409.409,0,0,1-.08-.67,1.343,1.343,0,0,1,1.317-.452,1.734,1.734,0,0,1,.924.515,5.059,5.059,0,0,1,1.273,1.944,11.085,11.085,0,0,1,.167,7.549,6.577,6.577,0,0,1-.351.8,1.013,1.013,0,0,0,.032,1.063,1.3,1.3,0,0,1,.2.587.494.494,0,0,1-.671.531q-1.253-.311-2.5-.651c-3.669-1-7.375-1.831-11.111-2.536q-.934-.176-1.864-.373c-.457-.1-.593-.262-.556-.649a.619.619,0,0,1,.677-.615c.764-.045.947-.159,1.123-.892a6.5,6.5,0,0,0,.159-1.4c.031-1.922.053-3.844.051-5.765q-.01-7.745-.044-15.49A4.806,4.806,0,0,0,519.416,57a1.673,1.673,0,0,0-1.005-1.059,2.8,2.8,0,0,1-.315-.129.772.772,0,0,1-.334-.972c.087-.2.28-.283.579-.23.816.144,1.634.278,2.444.448q2.693.567,5.378,1.171c.465.1.552.214.558.55a.644.644,0,0,1-.642.707.247.247,0,0,1-.049,0c-.883-.1-1.031.443-1.16,1.068a5.371,5.371,0,0,0-.074,1.07q-.006,10.7,0,21.4c0,.144.013.289.023.478" transform="translate(-380.222 -40.098)" fill="#025486"></path><path id="Path_14878" data-name="Path 14878" d="M736.222,106.655a1.985,1.985,0,1,1-1.979-1.932,1.941,1.941,0,0,1,1.979,1.932m-3.474,0a1.5,1.5,0,0,0,1.508,1.543,1.479,1.479,0,0,0,1.472-1.531,1.491,1.491,0,1,0-2.98-.012m1.189,1.013h-.447v-1.932a3.937,3.937,0,0,1,.742-.059,1.2,1.2,0,0,1,.671.141.536.536,0,0,1,.189.424.5.5,0,0,1-.4.447v.024a.57.57,0,0,1,.353.471,1.483,1.483,0,0,0,.141.483H734.7a1.657,1.657,0,0,1-.154-.471c-.035-.212-.153-.306-.4-.306h-.212Zm.012-1.1h.212c.247,0,.447-.082.447-.283,0-.177-.129-.295-.412-.295a1.058,1.058,0,0,0-.247.024Z" transform="translate(-537.8 -76.913)" fill="#004565"></path></g></g></svg> 