<?xml version="1.0" encoding="utf-8"?>
<!-- Generator: Adobe Illustrator 26.3.1, SVG Export Plug-In . SVG Version: 6.00 Build 0)  -->
<svg version="1.1" id="Layer_1" xmlns="http://www.w3.org/2000/svg" xmlns:xlink="http://www.w3.org/1999/xlink" x="0px" y="0px"
	 viewBox="0 0 326.2 70.2" style="enable-background:new 0 0 326.2 70.2;" xml:space="preserve">
<style type="text/css">
	.st0{fill-rule:evenodd;clip-rule:evenodd;fill:#336699;}
	.st1{fill-rule:evenodd;clip-rule:evenodd;fill:#001F45;}
	.st2{fill-rule:evenodd;clip-rule:evenodd;fill:#010101;}
	.st3{fill:#010101;}
</style>
<path class="st0" d="M40.5,70.2l20.2-35.1l1.1-1.9H35.6v28.6L40.5,70.2z"/>
<path class="st1" d="M18.1,31.3l2.2,3.7l7.8,13.5v-23h38.2l5.3-9.1H28.1V8.9h47.8L81,0H0l14.8,25.6L18.1,31.3z"/>
<path class="st2" d="M301,37.9l10.8-22h3L326,38.6h-4.3l-2.9-5.8h-11l-2.8,5.8h-8l-5.4-9.4h-7.3v9.4h-4V15.9h12.9
	c1.9-0.1,3.8,0.5,5.3,1.8c1.4,1.2,2.1,3,2,4.9c0,1.6-0.5,3.2-1.5,4.4c-0.8,1-1.9,1.7-3.1,2.1L301,37.9z M91.8,19.7v5h8.6v3.8h-8.6
	v10.2h-4V15.9H106v3.8L91.8,19.7L91.8,19.7z M119,39.1c-3.1,0.1-6.2-1.1-8.4-3.4c-4.4-4.8-4.4-12.2,0-17c4.7-4.5,12.1-4.5,16.8,0
	c4.7,4.6,4.8,12.1,0.3,16.8C125.4,37.9,122.3,39.2,119,39.1z M151,29l5.5,9.6H152l-5.4-9.4h-7.3v9.4h-4V15.9h12.9
	c1.9-0.1,3.8,0.5,5.4,1.8c1.4,1.2,2.1,3,2,4.9c0,1.6-0.5,3.2-1.5,4.4C153.3,27.9,152.2,28.6,151,29z M172.4,28.5l8.4-12.6h3.4v22.7
	h-3.9V23.4l-7.9,11.7l-7.9-11.7v15.2h-3.9V15.9h3.5L172.4,28.5z M194.5,19.7v5h8.6v3.8h-8.6v6.5h15v3.8h-19V16h18.1v3.8L194.5,19.7
	L194.5,19.7z M228.9,30.8V15.9h4v22.7h-2.3l-13-14.9v14.9h-4V15.9h2.4L228.9,30.8z M243.2,19.7h-9v-3.8h22v3.8h-9v18.9h-4
	L243.2,19.7z M261.4,19.7v5h8.6v3.8h-8.6v6.5h15v3.8h-19V16h18.1v3.8L261.4,19.7L261.4,19.7z M119,35.4c2.1,0.1,4.1-0.8,5.5-2.3
	c2.9-3.3,2.9-8.3,0-11.6c-3-3-8-3-11,0c-2.9,3.3-2.9,8.3,0,11.6C114.9,34.6,116.9,35.4,119,35.4L119,35.4z M139.4,25.4h8.8
	c0.9,0.1,1.9-0.2,2.6-0.7c0.6-0.5,0.9-1.3,0.8-2.1c0-0.8-0.3-1.6-0.8-2.1c-0.7-0.6-1.6-0.8-2.5-0.8h-8.9L139.4,25.4L139.4,25.4z
	 M284.4,25.4h8.8c0.9,0.1,1.9-0.2,2.6-0.7c0.6-0.5,0.9-1.3,0.8-2.1c0-0.8-0.3-1.6-0.8-2.1c-0.7-0.6-1.6-0.8-2.5-0.8h-8.9L284.4,25.4
	L284.4,25.4z M309.6,29h7.4l-3.7-7.4L309.6,29z"/>
<rect x="86.5" y="50.4" class="st3" width="117.2" height="1.2"/>
<g>
	<path d="M215.8,51.8h-4.4v4.3h-1.5V45.9h5.9c1.8,0,3,1.1,3,2.9C218.8,50.6,217.6,51.8,215.8,51.8z M215.8,47.4h-4.4v2.9h4.4
		c1,0,1.5-0.5,1.5-1.4C217.3,47.8,216.8,47.4,215.8,47.4z"/>
	<path d="M232.6,56.1l-1.5-3.3h-4.6l-1.5,3.3h-1.6l4.6-10.2h1.6l4.6,10.2H232.6z M228.9,47.7l-1.6,3.5h3.2L228.9,47.7z"/>
	<path d="M247.1,51.8l2.1,4.3h-1.7l-2-4.2h-3.8v4.2h-1.5V45.9h6c1.9,0,3.2,1.1,3.2,3C249.4,50.5,248.5,51.5,247.1,51.8z M246.2,47.4
		h-4.5v3h4.5c1,0,1.7-0.5,1.7-1.6C247.9,47.8,247.2,47.4,246.2,47.4z"/>
	<path d="M259.7,47.4v8.7h-1.4v-8.7h-3.6v-1.5h8.7v1.5H259.7z"/>
	<path d="M277.4,56.1l-6.1-7.7v7.7h-1.5V45.9h1.4l6.1,7.8v-7.8h1.5v10.2H277.4z"/>
	<path d="M286.5,56.1V45.9h8.4v1.5H288v2.7h3.5v1.5H288v3.1h7.1v1.5H286.5z"/>
	<path d="M308.5,51.8l2.1,4.3h-1.7l-2-4.2h-3.8v4.2h-1.5V45.9h6c1.9,0,3.2,1.1,3.2,3C310.8,50.5,310,51.5,308.5,51.8z M307.6,47.4
		h-4.5v3h4.5c1,0,1.7-0.5,1.7-1.6C309.4,47.8,308.6,47.4,307.6,47.4z"/>
	<path d="M321,56.3c-2.1,0-3.6-0.6-5.1-2.1l1-1c1.3,1.2,2.5,1.6,4.3,1.6c1.1,0,3.2-0.4,3.2-1.8c0-0.5-0.3-0.9-0.7-1.2
		c-0.5-0.3-1-0.4-2.5-0.4l-1.5,0c-1.6,0-3-0.9-3-2.6c0-1.5,1.2-2.5,2.5-2.9c0.6-0.2,1.2-0.3,1.8-0.3c1.5,0,3,0.5,4.2,1.4l-0.8,1.2
		c-1.1-0.7-1.9-1.1-3.2-1.1c-1,0-3,0.3-3,1.6c0,1,0.9,1.2,1.7,1.2h1.5c1.1,0,2.1,0,3.1,0.6c0.9,0.5,1.4,1.5,1.4,2.5
		C325.8,55.6,323,56.3,321,56.3z"/>
</g>
</svg>
