<svg version="1.2" xmlns="http://www.w3.org/2000/svg" viewBox="0 0 278 58" width="278" height="58"><defs><clipPath clipPathUnits="userSpaceOnUse" id="cp1"><path d="m0 0h278v58h-278z"/></clipPath></defs><style>.a{fill:#fff}.b{fill:#8d7032}</style><g clip-path="url(#cp1)"><filter id="f0"><feFlood flood-color="#8d7032" flood-opacity="1" /><feBlend mode="normal" in2="SourceGraphic"/><feComposite in2="SourceAlpha" operator="in" /></filter><g filter="url(#f0)"><path class="a" d="m153.9 49.6c0-0.9 0.8-1.7 1.7-1.7 0.9 0 1.8 0.8 1.8 1.7 0 1-0.9 1.8-1.8 1.8-0.9 0-1.7-0.8-1.7-1.8z"/><path class="a" d="m59 41.5c1.9-0.2 2.6-0.5 2.6-2.3v-17.3c0-1.8-0.7-2.1-2.6-2.3v-0.8c2.6 0.2 5.5 0.2 8.1 0v0.8c-1.9 0.2-2.7 0.5-2.7 2.3v17.2c0 1.8 0.8 2.2 1.9 2.2h1.2c4.2 0 5.5-0.6 7.5-4.6h0.7c-0.5 2.1-0.8 3.7-1 5.6h-15.7v-0.8z"/><path class="a" d="m92.4 38.8h0.9c-0.9 2.2-3.3 3.9-6.6 3.9-4.9 0-8.4-3.7-8.4-9.8 0-6.1 3.1-9.9 8-9.9 3.6 0 7.1 2.1 7.1 6.9 0 1.5-0.4 2.4-1.6 2.4h-10.4c0.2 5.5 2.4 9.3 6.4 9.3 1.6 0 3.7-0.6 4.6-2.8zm-11-7.3h9c0.5-4.9-1.2-7.8-4.5-7.8-2.9 0-4.5 2.6-4.5 7.8z"/><path class="a" d="m95.9 45.2c0-1.4 0.8-2.7 2.1-2.7 0.8 0 1.5 0.3 1.5 1.2 0 0.7-0.5 1.3-0.5 2.2 0 1.9 1.6 3.4 5.3 3.4 4.2 0 6.5-1.8 6.5-4.2 0-2.1-1.7-2.3-6.2-3.1l-4.5-0.8c-2.7-0.4-3.8-1.7-3.8-3.2 0-1.9 1.8-3 4.1-2.7-1.6-0.6-3.4-2.5-3.4-5.6 0-3.4 2.2-6.7 7.1-6.7 3.1 0 4.7 1.4 5.7 2.3 0.1-1.2 1-2.2 2.3-2.2 1 0 1.5 0.6 1.5 1.4 0 0.6-0.3 1.1-0.9 1.1-0.6 0-0.9-0.3-1.5-0.3-0.7 0-0.6 0.7-0.5 1.2 0.5 1 0.7 2 0.7 3.2 0 3.9-2.8 6.7-7.2 6.7-2 0-2.9-0.6-4.1-0.6-1.4 0-1.7 0.6-1.7 1.1 0 0.8 1 1.1 1.5 1.3l7.3 1.3c3.9 0.6 5.8 1.9 5.8 4.8 0 3.8-3.7 5.8-8.7 5.8-4.7 0-8.4-1.7-8.4-4.9m12.4-15.6c0-2.7-0.9-5.9-4.1-5.9-3.3 0-4.1 3.2-4.1 5.9 0 2.7 1 6.1 4.1 6.1 3.1 0 4.1-3.3 4.1-6.1z"/><path class="a" d="m129.5 39.4c0 1.4 0.7 2.2 1.9 2v0.7c-0.5 0.5-1.2 0.6-1.8 0.6-1.8 0-2.5-1.2-2.5-2.8v-0.5h-0.2c-1 1.5-3.1 3.3-6.3 3.3-2.5 0-5.3-1.3-5.3-4.8 0-2.9 2.1-5.5 11.6-6.8v-1.7c0-3.4-0.5-5.6-3.9-5.6-5.6 0-1.8 5.7-5 5.7-1.1 0-1.6-0.7-1.6-1.8-0.1-2.5 2.8-4.7 7.4-4.7 4.7 0 5.7 1.9 5.7 6.2v10.2zm-2.6-2.9v-4.6c-7.5 1-8.4 3.5-8.4 5.3 0 2.9 2 4 3.7 4 2.4 0 4.7-2 4.7-4.7z"/><path class="a" d="m133.4 32.9c0-6.1 3.7-9.9 8.7-9.9 4 0 6.3 2.3 6.3 4.6 0 1.2-0.5 1.9-1.5 1.9-2.9 0-0.5-5.7-5.1-5.7-3.3 0-5.3 3-5.3 8.3 0 6.4 2.8 9.5 6.5 9.5 2 0 3.7-0.8 4.9-2.9h0.9c-0.7 2.1-3.4 4-6.8 4-4.9 0-8.6-3.8-8.6-9.8z"/><path class="a" d="m163.4 23.4h5.6v0.7c-1.8 0.3-2.5 0.9-3 2.4l-8.5 23.3h-1.5l3.5-8.3-6.1-15c-0.6-1.4-1.2-2.2-2.9-2.4v-0.7h7.5v0.7c-2.1 0.2-2 1-1.4 2.4l4.2 11.3 4.1-11.3c0.6-1.5 0.2-2.1-1.5-2.4v-0.7z"/><path class="a" d="m191.7 37.8c2.6 3.2 4.5 4.2 5.5 4.2l-0.4 0.6c-2.9 0.7-5-0.5-7.3-3.5l-5.8-7.6-1.1 1.3v6.4c0 1.8 0.7 2.1 2.7 2.3v0.8c-2.6-0.2-5.5-0.2-8.1 0v-0.8c1.9-0.2 2.6-0.5 2.6-2.3v-17.3c0-1.8-0.7-2.1-2.6-2.3v-0.8c2.6 0.2 5.5 0.2 8.1 0v0.8c-2 0.2-2.7 0.5-2.7 2.3v9.5l8.3-9.5c1.7-1.9 0.6-2.2-1.4-2.3v-0.8c2.3 0.2 4.7 0.2 7 0v0.8c-1.4 0.1-2.9 0.5-4.3 2.2l-6.8 7.8 6.3 8.2z"/><path class="a" d="m199.6 41.5c1.2-0.1 2.1-0.5 2.1-2.2v-12.6c0-1.2-0.7-1.4-2.2-1.3v-0.7c2-0.2 3.6-1 4.4-1.7 0.3 0.1 0.5 0.2 0.6 0.6l-0.7 4h0.2c0.2-1.1 1.7-4.6 6-4.6 2.5 0 5.6 1.3 5.6 6.3v10c0 1.7 1.1 2.1 2.2 2.2v0.8q-3.5-0.2-6.9 0v-0.8c1.1-0.2 2.1-0.5 2.1-2.2v-9.9c0-2.7-1.6-4.8-4.2-4.8-2.7 0-4.4 2.2-4.4 4.8v9.9c0 1.7 1 2 2.1 2.2v0.8q-3.4-0.2-6.9 0z"/><path class="a" d="m220.2 41.5c1.2-0.1 2.3-0.5 2.3-2.2v-11.2c0-1.7-0.8-2.7-2.1-2.7v-0.7c1.8-0.3 3.1-0.9 4.3-1.7 0.3 0.1 0.5 0.3 0.7 0.6-0.3 0.8-0.3 2.2-0.3 4.5v11.2c0 1.7 1.1 2.1 2.3 2.2v0.8c-2.4-0.2-4.8-0.2-7.2 0zm1.6-23.7c0-1 0.8-1.7 1.7-1.7 1 0 1.8 0.7 1.8 1.7 0 1-0.8 1.8-1.8 1.8-0.9 0-1.7-0.8-1.7-1.8z"/><path class="a" d="m229.2 45.2c0-1.4 0.8-2.7 2.1-2.7 0.8 0 1.5 0.3 1.5 1.2 0 0.7-0.4 1.3-0.4 2.2 0 1.9 1.5 3.4 5.3 3.4 4.1 0 6.4-1.8 6.4-4.2 0-2.1-1.7-2.3-6.2-3.1l-4.4-0.8c-2.8-0.4-3.9-1.7-3.9-3.2 0-1.9 1.8-3 4.1-2.7-1.6-0.6-3.4-2.5-3.4-5.6 0-3.4 2.3-6.7 7.1-6.7 3.1 0 4.7 1.4 5.7 2.3 0.1-1.2 1-2.2 2.3-2.2 1 0 1.5 0.6 1.5 1.4 0 0.6-0.3 1.1-0.8 1.1-0.7 0-1-0.3-1.5-0.3-0.8 0-0.7 0.7-0.5 1.2 0.4 1 0.6 2 0.6 3.2 0 3.9-2.8 6.7-7.2 6.7-1.9 0-2.8-0.6-4.1-0.6-1.3 0-1.7 0.6-1.7 1.1 0 0.8 1 1.1 1.6 1.3l7.2 1.3c3.9 0.6 5.9 1.9 5.9 4.8 0 3.8-3.8 5.8-8.8 5.8-4.7 0-8.4-1.7-8.4-4.9m12.5-15.6c0-2.7-0.9-5.9-4.2-5.9-3.2 0-4.1 3.2-4.1 5.9 0 2.7 1 6.1 4.1 6.1 3.1 0 4.2-3.3 4.2-6.1z"/><path class="a" d="m249.1 41.5c1.2-0.1 2.1-0.5 2.1-2.2v-18.5c0-1.6-0.8-2.6-2.1-2.6v-0.7c1.8-0.3 3.1-1 4.3-1.8 0.3 0.1 0.6 0.3 0.7 0.7-0.2 0.7-0.2 2.1-0.2 4.4v4.1l-0.6 2.8h0.1c0.3-1.2 2-4.7 6.2-4.7 2.5 0 5.7 1.3 5.7 6.3v10c0 1.7 1.1 2.1 2.2 2.2v0.8q-3.5-0.2-6.9 0v-0.8c1.2-0.2 2.1-0.5 2.1-2.2v-9.9c0-2.6-1.5-4.8-4.2-4.8-2.7 0-4.3 2.2-4.6 4.8v9.9c0 1.7 1 2 2.1 2.2v0.8q-3.4-0.2-6.9 0v-0.8z"/><path class="a" d="m270.9 38.4v-13.7h-2.5v-0.7c2.1-0.5 3.5-2.2 4.2-5.2h1v4.9h4.4v1h-4.4v13.9c0 1.3 0.7 2.6 2.4 2.6 1 0 1.6-0.5 2-0.8v0.8c-0.7 1-2.2 1.3-3.1 1.3-1.9 0-4-1.1-4-4"/><path class="b" d="m1.8 0h-1.8v42.2h1.8z"/><path class="b" d="m7 0h-1.8v42.2h1.8z"/><path class="b" d="m12.2 0h-1.7v42.2h1.7z"/><path class="b" d="m17.5 0h-1.8v42.2h1.8z"/><path class="b" d="m22.7 0h-1.8v42.2h1.8z"/><path class="b" d="m43.9 40.6h-43.9v1.7h43.9z"/><path class="b" d="m43.9 45.8h-43.9v1.8h43.9z"/><path class="b" d="m43.9 51h-43.9v1.8h43.9z"/><path class="b" d="m43.9 56.2h-43.9v1.8h43.9z"/><path class="b" d="m22.3 26.2l-1.2 1.2 14.8 14.9 1.3-1.3z"/><path class="b" d="m22.3 33.5l-1.3 1.3 7.4 7.3 1.2-1.3z"/><path class="b" d="m43.9 5.1l-10.3 10.3 1.2 1.3 9.1-9.1z"/><path class="b" d="m43.9 12.5l-6.6 6.6 1.2 1.3 5.4-5.4z"/><path class="b" d="m43.9 25.6l-21.4-21.4-1.3 1.2 22.7 22.7z"/><path class="b" d="m43.9 32.9l-21.5-21.4-1.2 1.3 22.7 22.7z"/><path class="b" d="m43.9 40.3l-21.7-21.6-1.2 1.3 22.4 22.3h0.5z"/><path class="b" d="m26.9 0l-4.4 4.4 1.2 1.2 5.7-5.6z"/><path class="b" d="m34.3 0l-8.1 8.1 1.2 1.2 9.4-9.3z"/><path class="b" d="m41.7 0l-11.8 11.8 1.2 1.2 12.8-12.7v-0.3z"/></g></g></svg>