<?xml version="1.0" encoding="UTF-8"?>
<svg xmlns="http://www.w3.org/2000/svg" viewBox="0 0 237.06 42.17">
  <defs>
    <style>.cls-1{fill:#db5b2c;}.cls-2{fill:#045d67;}.cls-3{fill:#65c2b8;}</style>
  </defs>
  <g id="Layer_2" data-name="Layer 2">
    <g id="DESIGN">
      <path class="cls-1" d="M17.5,5.39h0a1.47,1.47,0,0,1,2.05.4l2.3,3.4a.61.61,0,0,0,1,0l3.83-5.16a2.54,2.54,0,0,0-2-4H7.36a.61.61,0,0,0-.49,1l6.22,8.46a1.2,1.2,0,0,1-.25,1.67l-.33.24a1.2,1.2,0,0,1-1.67-.26L2.77.12A.27.27,0,0,0,2.54,0h0a2.53,2.53,0,0,0-2,4.05L11.56,18.92a2.53,2.53,0,0,0,4.07,0l4.57-6.15a.6.6,0,0,0,0-.71L17.1,7.44A1.49,1.49,0,0,1,17.5,5.39Z"></path>
      <path class="cls-2" d="M49.52,4.57a6.93,6.93,0,0,0-2.33-1.42,9.06,9.06,0,0,0-3.39-.6,6.25,6.25,0,0,0-3.53.78,2.48,2.48,0,0,0-1.12,2.16,2.05,2.05,0,0,0,.34,1.21,2.62,2.62,0,0,0,1,.85,7.83,7.83,0,0,0,1.72.63l2.43.58c1.09.24,2.08.5,3,.78a9.33,9.33,0,0,1,2.24,1.05,4.29,4.29,0,0,1,1.42,1.55,4.65,4.65,0,0,1,.5,2.23,5.05,5.05,0,0,1-.61,2.52,4.86,4.86,0,0,1-1.63,1.74,7.4,7.4,0,0,1-2.43,1,13.9,13.9,0,0,1-3,.32,15.26,15.26,0,0,1-4.63-.69,14,14,0,0,1-4-2l1.35-2.42a9.09,9.09,0,0,0,3,1.78,11.68,11.68,0,0,0,4.39.78,6.89,6.89,0,0,0,3.36-.69,2.22,2.22,0,0,0,1.22-2,2.19,2.19,0,0,0-.39-1.32,3.22,3.22,0,0,0-1.17-.92,10.07,10.07,0,0,0-1.9-.69c-.75-.2-1.6-.41-2.58-.63a22,22,0,0,1-2.8-.78,7.14,7.14,0,0,1-2-1,3.88,3.88,0,0,1-1.2-1.45,4.54,4.54,0,0,1-.41-2,5.18,5.18,0,0,1,.58-2.5,5.34,5.34,0,0,1,1.6-1.81A7.26,7.26,0,0,1,40.82.4a11.52,11.52,0,0,1,3-.37,11.81,11.81,0,0,1,3.87.6A11.09,11.09,0,0,1,50.8,2.26Z"></path>
      <path class="cls-2" d="M57.19,19.73V.17h9a6.23,6.23,0,0,1,2.63.55,7,7,0,0,1,2.09,1.45,6.67,6.67,0,0,1,1.37,2,5.74,5.74,0,0,1,.48,2.29A6.37,6.37,0,0,1,71,10.89a6.2,6.2,0,0,1-2,1.42,6.09,6.09,0,0,1-2.59.53H60v6.89ZM60,10.32h6.14a3.41,3.41,0,0,0,2.67-1.1,3.92,3.92,0,0,0,1-2.73A3.73,3.73,0,0,0,69.53,5a3.89,3.89,0,0,0-.83-1.21A4,4,0,0,0,67.47,3,3.81,3.81,0,0,0,66,2.69H60Z"></path>
      <path class="cls-2" d="M78,19.73V.17h9.23a6.2,6.2,0,0,1,2.63.55A6.67,6.67,0,0,1,93.29,4.2a5.74,5.74,0,0,1,.48,2.29,6,6,0,0,1-.32,1.92,6.23,6.23,0,0,1-2.31,3.05,5.61,5.61,0,0,1-1.81.82l5.18,7.45H91.25l-4.83-6.89H80.84v6.89Zm2.84-9.41h6.39a3.65,3.65,0,0,0,1.5-.3,3.53,3.53,0,0,0,1.15-.83A3.85,3.85,0,0,0,90.62,8a4,4,0,0,0,.27-1.47A3.65,3.65,0,0,0,90.59,5a3.56,3.56,0,0,0-.84-1.21A3.91,3.91,0,0,0,88.53,3a3.65,3.65,0,0,0-1.47-.3H80.84Z"></path>
      <path class="cls-2" d="M99.88,19.73V.17h2.84V19.73Z"></path>
      <path class="cls-2" d="M112.59,5.46V19.73h-2.84V.17H112l13.14,14.56V.17h2.84V19.73h-2.38Z"></path>
      <path class="cls-2" d="M149.91,17.21a8.92,8.92,0,0,1-6.39,2.67,9.26,9.26,0,0,1-3.94-.85,10.43,10.43,0,0,1-5.24-5.44,9.5,9.5,0,0,1-.76-3.73A9.74,9.74,0,0,1,136.4,3,10.16,10.16,0,0,1,139.56.82a9.92,9.92,0,0,1,4-.79,10,10,0,0,1,5.08,1.17,7.87,7.87,0,0,1,3.05,3.09l-2.2,1.56A5.86,5.86,0,0,0,147,3.38a7.73,7.73,0,0,0-3.53-.8,6.62,6.62,0,0,0-2.89.62,7,7,0,0,0-2.21,1.64A7.24,7.24,0,0,0,137,7.2a8,8,0,0,0-.5,2.77,7.6,7.6,0,0,0,.55,2.84,7.09,7.09,0,0,0,1.55,2.34,7.41,7.41,0,0,0,2.31,1.58,6.79,6.79,0,0,0,2.87.59,8.42,8.42,0,0,0,6.18-3V12h-4.58V9.9h7v9.83h-2.42Z"></path>
      <path class="cls-2" d="M158.37,19.73V.17h7.49a12.28,12.28,0,0,1,4.53.76A9.41,9.41,0,0,1,173.64,3a8.47,8.47,0,0,1,2,3.09,10.8,10.8,0,0,1,.65,3.8,10.51,10.51,0,0,1-.74,4A8.88,8.88,0,0,1,170.14,19a12.68,12.68,0,0,1-4.28.69Zm15-9.83A8.15,8.15,0,0,0,172.86,7a6.47,6.47,0,0,0-1.46-2.28,6.7,6.7,0,0,0-2.34-1.49,9,9,0,0,0-3.2-.53h-4.65V17.21h4.65a8.82,8.82,0,0,0,3.25-.55,6.46,6.46,0,0,0,2.34-1.52,6.36,6.36,0,0,0,1.42-2.33A8.62,8.62,0,0,0,173.35,9.9Z"></path>
      <path class="cls-2" d="M178.89,19.73,187.7.17H190l8.78,19.56h-3l-2.49-5.5h-8.88L182,19.73Zm10-16-3.8,8.06h7.53Z"></path>
      <path class="cls-2" d="M203.54,19.73V.17h2.84v17h11.26v2.52Z"></path>
      <path class="cls-2" d="M237.06,17.21v2.52H222.43V.17h14.35V2.69H225.27V8.58h10v2.35h-10v6.28Z"></path>
      <path class="cls-3" d="M129.94,31.17l3.57,8.14,3.55-8.14h2.08l-4.81,10.89h-1.66l-4.81-10.89Z"></path>
      <path class="cls-3" d="M151.77,40.33v1.73h-8.26V31.17h8.11v1.72h-6.16v2.83h5.33v1.59h-5.33v3Z"></path>
      <path class="cls-3" d="M158.64,34.8v7.26H156.7V31.17h1.51L165,38.58V31.17h2V42.06h-1.61Z"></path>
      <path class="cls-3" d="M181.46,32.89h-4v9.17h-2V32.89h-4V31.17h9.91Z"></path>
      <path class="cls-3" d="M191,40.39a3.33,3.33,0,0,0,1.53-.32,2.64,2.64,0,0,0,1-.83,3.23,3.23,0,0,0,.52-1.18,6.67,6.67,0,0,0,.14-1.36V31.17h2V36.7a7.58,7.58,0,0,1-.29,2.11,4.68,4.68,0,0,1-.9,1.73,4.21,4.21,0,0,1-1.59,1.16,5.72,5.72,0,0,1-2.34.43,5.59,5.59,0,0,1-2.4-.45,4.28,4.28,0,0,1-1.58-1.2,4.91,4.91,0,0,1-.87-1.74,7.61,7.61,0,0,1-.28-2V31.17h1.95V36.7a6.19,6.19,0,0,0,.15,1.37,3.58,3.58,0,0,0,.53,1.19,2.62,2.62,0,0,0,1,.82A3.26,3.26,0,0,0,191,40.39Z"></path>
      <path class="cls-3" d="M201.59,42.06V31.17h5.24a3.5,3.5,0,0,1,1.5.31,4.12,4.12,0,0,1,1.18.83,3.76,3.76,0,0,1,.77,1.14,3.35,3.35,0,0,1,.28,1.31,3.32,3.32,0,0,1-.17,1,3.48,3.48,0,0,1-.47.92,4,4,0,0,1-.73.75,3.44,3.44,0,0,1-.95.5l2.87,4.1h-2.24l-2.61-3.71h-2.73v3.71Zm1.94-5.42h3.26a1.64,1.64,0,0,0,1.28-.55,1.87,1.87,0,0,0,.5-1.33,1.84,1.84,0,0,0-.14-.74,1.89,1.89,0,0,0-.41-.59,2.27,2.27,0,0,0-.61-.39,1.79,1.79,0,0,0-.72-.15h-3.16Z"></path>
      <path class="cls-3" d="M224.05,40.33v1.73h-8.26V31.17h8.11v1.72h-6.16v2.83h5.33v1.59h-5.33v3Z"></path>
      <path class="cls-3" d="M235.73,33.91a3.75,3.75,0,0,0-.52-.37,5.1,5.1,0,0,0-.74-.36,5.3,5.3,0,0,0-.9-.27,5.55,5.55,0,0,0-1-.09,3.08,3.08,0,0,0-1.68.36,1.13,1.13,0,0,0-.54,1,1,1,0,0,0,.18.59,1.55,1.55,0,0,0,.53.41,4.11,4.11,0,0,0,.89.32c.36.1.78.2,1.27.31s1.12.29,1.59.45a4.49,4.49,0,0,1,1.2.6,2.58,2.58,0,0,1,.78.87,2.67,2.67,0,0,1,.27,1.26,2.75,2.75,0,0,1-1.27,2.46,4.3,4.3,0,0,1-1.38.56,7.36,7.36,0,0,1-1.66.17,9,9,0,0,1-2.61-.37,8,8,0,0,1-2.26-1.06l.88-1.69a3.78,3.78,0,0,0,.65.49,6.69,6.69,0,0,0,.93.44,7.27,7.27,0,0,0,1.14.32,6.13,6.13,0,0,0,1.31.13,3.3,3.3,0,0,0,1.6-.32,1,1,0,0,0,.57-.94,1,1,0,0,0-.21-.63,2,2,0,0,0-.63-.45,6.37,6.37,0,0,0-1-.35c-.39-.1-.84-.22-1.34-.33a14.41,14.41,0,0,1-1.51-.47,3.73,3.73,0,0,1-1.07-.59,2.24,2.24,0,0,1-.65-.83,2.54,2.54,0,0,1-.22-1.12,2.87,2.87,0,0,1,.34-1.42,3,3,0,0,1,.91-1,4.22,4.22,0,0,1,1.35-.64,6.44,6.44,0,0,1,1.68-.21,6.91,6.91,0,0,1,2.23.35,7.34,7.34,0,0,1,1.75.88Z"></path>
    </g>
  </g>
</svg>
