<?xml version="1.0" encoding="utf-8"?>
<!-- Generator: Adobe Illustrator 24.1.3, SVG Export Plug-In . SVG Version: 6.00 Build 0)  -->
<svg version="1.1" id="Layer_1" xmlns="http://www.w3.org/2000/svg" xmlns:xlink="http://www.w3.org/1999/xlink" x="0px" y="0px"
	 viewBox="0 0 236.3 37.9" style="enable-background:new 0 0 236.3 37.9;" xml:space="preserve">
<style type="text/css">
	.st0{fill:#174889;}
	.st1{fill:#5AA3D2;}
</style>
<g>
	<g>
		<g>
			<path class="st0" d="M34.6,37c-1.7,0-4.1,0-6.2,0.2v-0.7c0.6,0,2-0.4,2.7-1.2c0.7-0.8,0.8-2.4,0.8-3.4c0-0.3-0.8-22.1-0.8-22.1
				s-0.3,1.1-0.9,2.6L20,37.3h-1.7l-9.9-25c-0.6-1.5-0.8-2-0.8-2S6.7,30.8,6.7,31.7s0.1,2.8,0.5,3.3c0.4,0.5,1,1.3,2.9,1.5v0.7
				C8.2,37,6.4,37,4.7,37C3,37,2.1,37,0,37.2v-0.7c0.6,0,2-0.4,2.7-1.2c0.8-0.9,0.9-2.1,1.1-6l0.8-16.5C4.7,12,4.8,9.6,4.8,9
				c0-1.3-0.3-1.8-0.6-2.3C3.9,6.3,2.9,5.6,1.3,5.4V4.7c2,0.1,3.4,0.2,5.2,0.2c0.8,0,3,0,3.7-0.1l9.5,24.2c0.4,1.1,0.5,1.5,0.5,1.5
				s0.1-0.5,0.5-1.5l9.8-24.2c0.7,0.1,3.2,0.1,4.1,0.1c1.7,0,2.8,0,4.9-0.2v0.7c-1,0.1-2.1,0.4-2.7,1.1c-0.5,0.6-0.8,1.3-0.8,2.7
				c0,0.7,0,2.1,0.1,3.1l0.7,17.5c0.1,3.1,0.4,4.7,0.9,5.2c0.5,0.5,1,1.1,2.7,1.3v0.7C38.4,37.1,36.3,37,34.6,37z"/>
			<path class="st0" d="M48.2,22.8v0.1c0,1.3,0.1,2.6,0.3,3.8c1.3,7.3,6.4,8,9.2,8c2.2,0,4.2-0.4,6.1-1.4l0.4,0.7
				c-1.8,2.2-5.4,3.5-9,3.5c-8.4,0-11.8-5.3-11.8-12.4c0-4.4,1.9-13.8,11.9-13.8c4,0,6.6,1.8,7.8,3.7c1.4,2.2,1.7,4.5,1.7,6.9v0.9
				H48.2z M59.7,20.5c0-2.2-0.1-7.3-5.7-7.3c-5.4,0-5.7,5.7-5.7,7.7h11.4V20.5z"/>
			<path class="st0" d="M75.2,37.5c-3.7,0-6-0.8-6.6-1.1v-1.1c0-2.6-0.1-3.4-0.3-5h0.9c0.1,1.8,0.9,2.9,1.2,3.3
				c1.3,1.6,2.9,1.9,5,1.9c0.9,0,5,0.1,5-4.2c0-2.3-1.5-3.2-3.6-4.5l-3.8-2.3c-2-1.2-4-2.9-4-6.3c0-1.6,0.3-4.5,3.5-6
				c1.3-0.7,3.3-0.9,5-0.9c3.4,0,6.4,0.6,6.4,0.6c-0.1,0.6-0.2,2.9-0.2,2.9c0.1,1.5,0,2,0.1,2.8H83c-0.1-1.5-0.7-2.3-1.1-2.8
				c-0.3-0.4-1.7-1.7-4.3-1.7c-4.4,0-4.5,3-4.5,3.9c0,2.2,1.8,3.2,3,4l3.5,2.1c2.4,1.4,5.1,3,5.1,6.9C84.8,36.3,79.1,37.5,75.2,37.5
				z"/>
			<path class="st0" d="M136.4,37.7c-8.1,0-12.3-5.2-12.3-12.8c0-6,3.2-13.6,12.8-13.6c8.1,0,12.3,5.2,12.3,12.8
				C149.2,30.2,146.1,37.7,136.4,37.7z M136.7,13.2c-0.6,0-2.5,0-4.1,1.3c-1.7,1.4-3.4,4.2-3.4,10c0,3,0.9,11.2,7.4,11.2
				c0.6,0,2.5,0,4.1-1.3c1.7-1.4,3.4-4.2,3.4-10C144.1,21.4,143.2,13.2,136.7,13.2z"/>
			<path class="st0" d="M187.9,14.4c-0.5,0.8-2.2,5.7-2.3,6l-6.4,16.9l-2.7,0.4l-6-16.7c-0.4-1.2-0.7-2.4-0.7-2.4s-0.3,1.2-0.7,2.4
				l-6,16.3l-2.7,0.3l-6.4-18.2c-1.2-3.5-1.8-5.3-2.7-6.1c-0.5-0.5-1.1-0.7-1.9-0.7v-0.8c1.6,0.2,3.9,0.2,5.5,0.2
				c1.5,0,4-0.1,5.5-0.2v0.8c-0.8,0.1-1.8,0.3-2.3,0.8c-0.3,0.3-0.4,0.7-0.4,1.2c0,0.8,0.3,2,0.8,3.3l3.7,10.9
				c0.4,1.3,0.7,2.5,0.7,2.5s0.3-1.2,0.9-2.7l6.2-16.8h2.1l6.1,17.1c0.6,1.5,0.8,2.8,0.8,2.8l4.5-13.9c0.4-1.3,0.8-2.6,0.8-3.3
				c0-0.5-0.1-0.9-0.4-1.2c-0.6-0.5-1.6-0.8-2.3-0.8v-0.8c1.6,0.1,2.9,0.2,4.5,0.2c1.5,0,3.1-0.1,4.6-0.2v0.8
				C188.9,12.7,188.3,13.8,187.9,14.4z"/>
		</g>
		<g>
			<path class="st1" d="M221.3,17.1l-9.6,12.4l7.3-2.3l-6.3,5.6l20.9-2.8c1.7-2.7,2.6-5.9,2.6-9.3c0-8.4-5.7-15.5-14.7-16.9
				l-11.4,22.5L221.3,17.1z"/>
			<path class="st1" d="M233.7,30L212,36.9c1.9,0.6,4,1,6.3,1C225.2,37.9,230.6,34.7,233.7,30z"/>
			<path class="st1" d="M203.6,23.5l5.8-16l-2.3,15.8l11.5-19.8c-0.1,0-0.2,0-0.3,0c-10.9,0-18.1,7.7-18.1,17.2
				c0,1.4,0.2,2.8,0.5,4.1l1.5-8.2L203.6,23.5z"/>
		</g>
	</g>
	<path class="st0" d="M92.3,37c0,0,0-3.4,0-8.2v-8.6c0-3.5-0.1-4.8-0.6-5.7c-0.8-1.1-2.4-1.1-2.9-1.2v-0.9c0.7,0.1,3.4-0.1,5.7-0.5
		c1-0.2,2.1-0.4,2.7-0.7l0.2,0.2c-0.2,1.9-0.2,6.1-0.2,10.3v7.7c0,3.5,0.1,4.7,0.7,5.6c0.3,0.5,1.3,1.3,3.2,1.4v0.8
		C98.8,37.2,92.3,37,92.3,37z M94.4,5.7c-1.7,0-2.9-1.1-2.9-2.8c0-1.8,1.2-2.9,3.1-2.9c1.7,0,2.9,1.1,2.9,2.8
		C97.5,4.6,96.3,5.7,94.4,5.7z"/>
	<path class="st0" d="M120.8,17.1h-0.4c-0.4-0.6-1.7-2.4-4.7-2.4c-1.4,0-2.6,0.4-3.4,1.1v13.6c0,3.5,0.1,4.7,0.7,5.6
		c0.9,1.3,3.3,1.4,4.1,1.4v0.9c-2.2-0.1-9.6-0.2-9.6-0.2s0-3.4,0-8.2v-8.6c0-3.5-0.1-4.8-0.6-5.7c-0.8-1.1-2.4-1.1-3-1.2v-0.9
		c0.7,0.1,3.1-0.1,5.3-0.5c1-0.2,2.1-0.4,2.7-0.7l0.2,0.2v3.4c0.6-0.8,2.8-3.3,6.7-3.3c2.3,0,3.5,0.8,4.1,1.3v0.4L120.8,17.1z"/>
</g>
</svg>
