<?xml version="1.0" encoding="UTF-8"?> <svg xmlns="http://www.w3.org/2000/svg" id="Layer_1" data-name="Layer 1" viewBox="0 0 190.93 76.91"><path d="M82.75,30.59a11.56,11.56,0,0,1,6.38,1.46,5.92,5.92,0,0,1,2.77,5.32c0,5.14-4.36,7.31-8.16,7.34a7.55,7.55,0,0,1-1.06-.07l-2.06-.53v4.82c0,3,.25,3.12,3.33,3.41v1.31H72.67V52.34c2.66-.32,3-.43,3-3.41V35.38c0-3-.36-3.3-3-3.48V30.59Zm-2.13,12A4.51,4.51,0,0,0,82.5,43c1.63,0,4.29-1,4.29-5.64,0-4-2.16-5.28-4.47-5.28a2.17,2.17,0,0,0-1.38.35,1.37,1.37,0,0,0-.32,1.1Z" fill="#fff"></path><path d="M93.57,53.65v-1.2c1.91-.25,2.13-.4,2.13-2.91V42.62c0-2.38-.18-2.52-1.85-2.73V38.72a38,38,0,0,0,6.42-1.28v12.1c0,2.41.15,2.66,2.2,2.91v1.2Zm4.15-18.38a2.58,2.58,0,0,1-2.56-2.51,2.54,2.54,0,0,1,2.56-2.52h0a2.49,2.49,0,0,1,2.56,2.42v.1a2.54,2.54,0,0,1-2.57,2.51Z" fill="#fff"></path><path d="M113.86,53.65v-1.2c1.49-.22,1.6-.36,1.6-2.81V43.58c0-2.52-1.24-3.3-2.49-3.3a4.35,4.35,0,0,0-2.66,1.06v8.59c0,2.16.15,2.3,1.6,2.52v1.2h-8.23v-1.2c1.84-.32,2.06-.36,2.06-2.67V42.41c0-2.13-.29-2.24-1.85-2.56V38.72a36.87,36.87,0,0,0,6.49-1.35c0,.49-.07,1.74-.07,2.55.71-.49,1.46-1,2.27-1.52a4.85,4.85,0,0,1,2.77-.93c2.88,0,4.68,2.1,4.68,5.72v6.7c0,2.2.22,2.31,1.92,2.56v1.2Z" fill="#fff"></path><path d="M142.17,30.09a11.56,11.56,0,0,1,11.92,11.19v.59c0,7.56-5.39,12.31-12.09,12.31-7.1,0-12.24-5.18-12.24-12C129.76,36.09,134.08,30.09,142.17,30.09Zm-.53,1.57c-3.62,0-6.28,3.54-6.28,9.82,0,6,2.38,11.14,7.17,11.14,3.37,0,6-3.26,6-9.75C148.52,35.84,145.76,31.66,141.64,31.66Z" fill="#fff"></path><path d="M167.75,54.08a3.27,3.27,0,0,1-2.2-.75,3.66,3.66,0,0,1-.92-1.31c-1.35.89-3.09,2.06-3.76,2.06a4.66,4.66,0,0,1-4.82-4.5V49.5c0-1.88.85-2.73,2.73-3.48,2.09-.78,4.89-1.63,5.71-2.34V42.12c0-1.84-.67-2.87-2.2-2.87a1.73,1.73,0,0,0-1.42.71A6.76,6.76,0,0,0,160,42.3a1.39,1.39,0,0,1-1.53,1.2,2.17,2.17,0,0,1-2.09-1.84c0-.64.43-1.1,1.24-1.67a17.67,17.67,0,0,1,5.68-2.52,6.28,6.28,0,0,1,3.65,1,4.82,4.82,0,0,1,2,4.37V49c0,1.71.57,2.13,1.14,2.13a2.63,2.63,0,0,0,1.1-.28l.39,1.2Zm-3.26-8.94-2,1.1a2.55,2.55,0,0,0-1.74,2.41,2.41,2.41,0,0,0,2.11,2.69h.06a2,2,0,0,0,1.56-.57Z" fill="#fff"></path><path d="M190.24,53.65c-2.76,0-5.17,0-6.49.07-.1-.18-4.43-6.81-4.57-7.06-.32-.42-.54-.6-.71-.64a1.71,1.71,0,0,0-.32,0v3.79c0,2.31.17,2.38,2.09,2.67v1.2h-8.73v-1.2c1.88-.29,2.06-.36,2.06-2.67V33.61c0-1.92-.18-2.1-2.06-2.52V30a31.18,31.18,0,0,0,6.64-1.21V45a4.57,4.57,0,0,0,2-1.38,19.63,19.63,0,0,0,2.59-3.16c.43-.78-.14-1.14-1.45-1.35V37.9l7.59-.28v1.13c-2.2.36-3.33.82-4.58,2.13-.56.57-1.34,1.53-2.34,2.66.89,1.38,4.22,5.89,5.22,7.1a4,4,0,0,0,3.08,1.81Z" fill="#fff"></path><path d="M71.94,69.15v-.43c1.18-.13,1.3-.19,1.3-1.44V61.51c0-1.25-.12-1.32-1.3-1.45v-.43h4v.43c-1.19.13-1.32.2-1.32,1.45v5.77c0,1.26.12,1.31,1.32,1.44v.43Z" fill="#fff"></path><path d="M80.72,69.15v-.42c.8-.09.88-.19.88-1.19V65.11c0-1-.39-1.65-1.27-1.65a2.45,2.45,0,0,0-1.53.7v3.45c0,1,.08,1,.9,1.12v.42H76.49v-.42c.93-.11,1-.16,1-1.13v-3c0-.94-.11-1-.87-1.12v-.39a10.14,10.14,0,0,0,2.16-.58v1.14c.29-.21.61-.43,1-.67a2.19,2.19,0,0,1,1.2-.43c1.18,0,1.91.87,1.91,2.3v2.78c0,1,.09,1,.91,1.12v.42Z" fill="#fff"></path><path d="M90.65,63.12c-.79.11-.9.23-1.26,1.08-.49,1.17-1.31,3.09-2.1,5.11h-.46c-.63-1.71-1.34-3.45-2-5.15-.33-.82-.45-.92-1.21-1v-.41H86.7v.41c-.78.11-.82.21-.6.82.37,1,1,2.54,1.35,3.48.47-1.18,1-2.4,1.29-3.35.23-.66.18-.85-.77-1v-.41h2.68Z" fill="#fff"></path><path d="M96.17,67.87a3.32,3.32,0,0,1-2.47,1.46,2.94,2.94,0,0,1-2.92-3c0-.07,0-.13,0-.2a3.84,3.84,0,0,1,1-2.58A3.05,3.05,0,0,1,94,62.53a2.31,2.31,0,0,1,2.27,2.29c0,.29,0,.44-.27.5s-2.2.18-3.89.24c0,1.89,1.12,2.7,2.16,2.7a2.48,2.48,0,0,0,1.7-.74ZM93.63,63.1c-.66,0-1.29.64-1.47,1.82h2.37c.25,0,.34-.06.34-.29a1.34,1.34,0,0,0-1.13-1.52Z" fill="#fff"></path><path d="M100.83,64.48c-.28-.88-.69-1.45-1.54-1.45a.87.87,0,0,0-.89.85V64c0,.61.42.9,1.23,1.28,1.24.58,1.91,1,1.91,2a2.23,2.23,0,0,1-2.37,2.08H99.1a4,4,0,0,1-1.77-.42c-.07-.41-.2-1.25-.26-1.74l.44-.07c.27.93.8,1.71,1.81,1.71a.93.93,0,0,0,1-.85v-.15c0-.63-.36-1-1.16-1.35-1-.5-1.87-1-1.87-2.06a2.06,2.06,0,0,1,2.2-1.93h.13a7.69,7.69,0,0,1,1.43.2,13.2,13.2,0,0,0,.23,1.64Z" fill="#fff"></path><path d="M105.1,69.14a1.5,1.5,0,0,1-.62.19c-1,0-1.51-.57-1.51-1.77V63.33h-1l-.07-.17.4-.45h.7V61.48c.32-.3.8-.7,1.12-1h.22v2.19H106a.48.48,0,0,1-.1.62h-1.54V67c0,1.18.47,1.39.84,1.39a1.92,1.92,0,0,0,.85-.22l.14.4Z" fill="#fff"></path><path d="M114.51,69.15v-.42c.82-.09.92-.15.92-1.15V65.11c0-1.07-.39-1.65-1.22-1.65a2.46,2.46,0,0,0-1.53.71q0,.31,0,.63v2.86c0,.9.11,1,.89,1.07v.42h-3.16v-.42c.86-.09,1-.15,1-1.09V65.09c0-1.08-.35-1.63-1.18-1.63a2.64,2.64,0,0,0-1.52.7v3.48c0,.94.09,1,.88,1.09v.42H106.4v-.42c.94-.1,1-.15,1-1.11v-3c0-.92,0-1-.85-1.13v-.38a8.93,8.93,0,0,0,2.14-.58V63.7a10.23,10.23,0,0,1,1-.73,1.93,1.93,0,0,1,1.18-.4,1.71,1.71,0,0,1,1.6,1.19c.4-.31.77-.56,1.13-.81a2.32,2.32,0,0,1,1.16-.38c1.17,0,1.87.83,1.87,2.28v2.83c0,1,.08,1,.9,1.09v.42Z" fill="#fff"></path><path d="M123.74,67.87a3.34,3.34,0,0,1-2.48,1.46,2.93,2.93,0,0,1-2.91-3,1.48,1.48,0,0,1,0-.21,3.78,3.78,0,0,1,1-2.58,3.11,3.11,0,0,1,2.2-1.06,2.31,2.31,0,0,1,2.28,2.29c0,.29,0,.44-.28.5s-2.2.18-3.88.24c0,1.89,1.11,2.7,2.16,2.7a2.5,2.5,0,0,0,1.69-.74Zm-2.55-4.77c-.65,0-1.28.64-1.47,1.82h2.37c.26,0,.35-.06.35-.29a1.34,1.34,0,0,0-1.13-1.52Z" fill="#fff"></path><path d="M128.72,69.15v-.42c.81-.09.89-.19.89-1.19V65.11c0-1-.39-1.65-1.28-1.65a2.5,2.5,0,0,0-1.53.7v3.45c0,1,.09,1,.9,1.12v.42h-3.2v-.42c.93-.11,1-.16,1-1.13v-3c0-.94-.1-1-.87-1.12v-.39a9.67,9.67,0,0,0,2.17-.58v1.14c.3-.21.62-.43,1-.67a2.19,2.19,0,0,1,1.2-.43c1.18,0,1.91.87,1.91,2.3v2.78c0,1,.09,1,.91,1.12v.42Z" fill="#fff"></path><path d="M135.32,69.14a1.54,1.54,0,0,1-.63.19c-1,0-1.5-.57-1.5-1.77V63.33h-1l-.07-.17.4-.45h.66V61.48c.32-.3.8-.7,1.12-1h.21v2.19h1.63a.48.48,0,0,1-.09.62h-1.54V67c0,1.18.47,1.39.83,1.39a2,2,0,0,0,.86-.22l.14.4Z" fill="#fff"></path><path d="M145.05,69.15v-.43c.95-.12,1-.27.84-.84s-.47-1.27-.76-2.13H142c-.22.62-.44,1.19-.63,1.76-.32.95-.09,1.07,1.1,1.21v.43h-3.42v-.43c.92-.12,1.16-.23,1.67-1.53l3-7.67.51-.1,2.86,7.78c.48,1.29.62,1.4,1.64,1.52v.43Zm-1.43-7.66c-.47,1.22-1,2.49-1.37,3.63h2.66Z" fill="#fff"></path><path d="M156.24,68.78a17.83,17.83,0,0,0-2.38.55V68.4l-.9.53a2.33,2.33,0,0,1-1.08.4,3.07,3.07,0,0,1-2.78-3.23,3.71,3.71,0,0,1,3.84-3.57,3.21,3.21,0,0,1,.92.14V60.6c0-.91-.1-.94-1.11-1v-.4a15.25,15.25,0,0,0,2.4-.49v8.76c0,.76.1.86.65.9h.44Zm-2.38-4.92a1.7,1.7,0,0,0-1.46-.74c-.66,0-1.85.44-1.85,2.55,0,1.8,1.09,2.69,2,2.71a2.37,2.37,0,0,0,1.33-.48Z" fill="#fff"></path><path d="M163.22,63.12c-.79.11-.9.23-1.27,1.08-.49,1.17-1.31,3.09-2.09,5.11h-.46c-.64-1.71-1.35-3.45-2-5.15-.32-.82-.44-.92-1.21-1v-.41h3.11v.41c-.77.11-.81.21-.59.82.37,1,1,2.54,1.34,3.48.48-1.18,1-2.4,1.29-3.35.23-.66.19-.85-.77-1v-.41h2.69Z" fill="#fff"></path><path d="M163.54,69.15v-.42c.9-.1,1-.17,1-1.17v-3c0-.92,0-1-.89-1.11v-.38a10.78,10.78,0,0,0,2.18-.58v5.06c0,1,.09,1.07,1,1.17v.42Zm1.56-8a.85.85,0,0,1-.83-.83.85.85,0,0,1,.83-.85h0a.82.82,0,0,1,.81.83v0a.83.83,0,0,1-.81.85h0Z" fill="#fff"></path><path d="M171.23,64.48c-.28-.88-.69-1.45-1.54-1.45a.87.87,0,0,0-.89.85V64c0,.61.42.9,1.23,1.28,1.24.58,1.9,1,1.9,2a2.23,2.23,0,0,1-2.36,2.08h-.07a4,4,0,0,1-1.77-.42c-.07-.41-.2-1.25-.26-1.74l.44-.07c.27.93.8,1.71,1.81,1.71a.93.93,0,0,0,1-.85v-.15c0-.63-.36-1-1.16-1.35-1-.5-1.87-1-1.87-2.06A2.07,2.07,0,0,1,170,62.53h0a7.69,7.69,0,0,1,1.43.2c0,.36.15,1.28.23,1.64Z" fill="#fff"></path><path d="M176.15,62.53a3.17,3.17,0,0,1,3.23,3.11v.18a3.29,3.29,0,0,1-3.06,3.5h-.17a3.25,3.25,0,0,1-3.3-3.2V66a3.38,3.38,0,0,1,3.25-3.51Zm-.17.52c-.85,0-1.62.82-1.62,2.54s.78,3.21,1.93,3.21c.85,0,1.58-.61,1.58-2.64,0-1.77-.67-3.11-1.87-3.11Z" fill="#fff"></path><path d="M183.62,69.15h-3.46v-.42c.9-.09,1-.17,1-1.11V64.55c0-.93-.06-1-.88-1.09v-.38a8.62,8.62,0,0,0,2.17-.59V64.1c.54-.81,1.14-1.57,1.85-1.57a.79.79,0,0,1,.87.68v.06a1.07,1.07,0,0,1-.54.88.3.3,0,0,1-.4,0,1,1,0,0,0-.66-.38c-.3,0-.81.41-1.12,1.12v2.76c0,1,.08,1,1.19,1.12Z" fill="#fff"></path><path d="M189.34,64.48c-.28-.88-.68-1.45-1.54-1.45a.87.87,0,0,0-.89.85V64c0,.61.42.9,1.23,1.28,1.25.58,1.91,1,1.91,2a2.23,2.23,0,0,1-2.37,2.08h-.07a4,4,0,0,1-1.77-.42c-.07-.41-.2-1.25-.25-1.74l.43-.07c.27.93.8,1.71,1.81,1.71a.93.93,0,0,0,1-.85v-.15c0-.63-.36-1-1.16-1.35-1-.5-1.87-1-1.87-2.06a2.06,2.06,0,0,1,2.2-1.93h.13a7.68,7.68,0,0,1,1.44.2,13.17,13.17,0,0,0,.22,1.64Z" fill="#fff"></path><path d="M66.53,25.4a2.07,2.07,0,0,1-.19-.32c0-.14-.08-.2-.22-.2a.24.24,0,0,1-.12-.07.33.33,0,0,1,0-.14.58.58,0,0,0-.1.11s-.36.32-.52.07a4,4,0,0,1-.21-.36c-.06.09-.12.18-.17.27l-.06.1h0v-.12c0-.08.07-.22,0-.24a.68.68,0,0,0-.36-.15.16.16,0,0,0-.18.14v0s-.1.12-.16.13a1,1,0,0,1-.25,0c-.16,0-.25.06-.2.22a.5.5,0,0,0,.55.36.4.4,0,0,1,.26.14.33.33,0,0,1-.07.21,1.68,1.68,0,0,1-.24.29.28.28,0,0,1-.15.06s0-.05-.07-.09a3.94,3.94,0,0,0-.26-.55c0-.06-.16-.07-.25-.1h-.12v-.15c.17,0,.12-.15.12-.25v-.25c0-.1,0-.2.16-.13s.07-.05.11-.08c-.15-.14-.12-.32-.1-.5h0a1.33,1.33,0,0,0,.26-.21h0v-.05h0a.67.67,0,0,1,.45-.09.79.79,0,0,0,.4-.1v-.16c-.25.15-.31.14-.34-.05s-.11-.15-.23-.12a.89.89,0,0,1,0-.23h0c0,.07-.07.14-.1.22H64.1a.81.81,0,0,1,0-.22.27.27,0,0,0,.17-.06h.81c.07,0,.15.12.2.2s0,.12-.07.17a.15.15,0,0,1-.13,0A.94.94,0,0,1,65,23H64.9a.87.87,0,0,0,.14.27c.13.13.27.1.33-.06a.42.42,0,0,0-.25-.5h-.33c-.11,0,0-.05-.08-.08s.06-.07.1-.08l.51-.09-.23-.55a.32.32,0,0,0,0,.27.14.14,0,0,1,0,.2l-.07,0h-.3a.23.23,0,0,0,.07-.07.39.39,0,0,0,.11-.22h0a.56.56,0,0,1-.09-.17.22.22,0,0,1,0-.16.15.15,0,0,1,.13,0,.16.16,0,0,0,.21,0l0,0,.22-.07.19-.07-.17-.12-.23-.16.15-.19.11-.06.37-.33c-.33-.05-.34-.05-.39-.35a1.06,1.06,0,0,0-.07-.42l.06,0-.1.12c0-.39-.24-.74,0-1.09a.94.94,0,0,0-.26.14l0,0-.06-.1c-.07-.19-.1-.41-.35-.46,0,0-.07-.11,0-.14a.09.09,0,0,0,0-.16h-.17a1,1,0,0,1,0,.25.91.91,0,0,1-.17.34L64,18.68l-.17-.24a1.37,1.37,0,0,0-.23.19c-.08.1-.16.11-.23,0a3.58,3.58,0,0,1-.31-.45c-.08-.14-.05-.26.13-.33a1.83,1.83,0,0,0,.38-.23v-.06h-.19c-.15,0-.22-.08-.26-.22a3.41,3.41,0,0,0-.22-.54,3.58,3.58,0,0,0-.52.51c-.07.12-.25.25-.15.46v.13a.49.49,0,0,1-.35.26v-.11c0-.06-.1-.13-.19-.17h0a.31.31,0,0,1,.19,0c.09,0,.11,0,.09-.1a1.48,1.48,0,0,1,0-.42v-.55l-.08.15V17c0,.22-.16.06-.22,0s-.2,0-.13-.17.1-.28.06-.31a.27.27,0,0,1,0-.3c-.27,0-.27,0-.21-.31a.24.24,0,0,0,0-.12v-.18c0-.06-.09.12-.09.18,0,.31-.12.52-.36.56-.07,0-.19-.05-.24,0a.42.42,0,0,1-.35,0c-.12-.05-.13,0-.15.07a.3.3,0,0,1-.39.16h-.16c0,.07.07.09.09.13a1.47,1.47,0,0,1,.14.4s-.14.13-.22.13a.35.35,0,0,1-.23-.12,1.18,1.18,0,0,1-.11-.19h-.1a2.59,2.59,0,0,0,.09.4.62.62,0,0,0,.15.06.17.17,0,0,0,.08,0s0,.1,0,.11a.82.82,0,0,1-.25.24c-.09,0-.2-.07-.27-.15s-.05-.17-.1-.24a.92.92,0,0,0-.14-.14c-.13.16-.21,0-.31-.05h-.13v.08a.45.45,0,0,1-.09.28.89.89,0,0,0-.15.31c-.05.16,0,.37-.13.49a.44.44,0,0,1-.48,0c-.16-.07-.16,0-.16.14s.17.19.3.25.35.11.43-.14a.13.13,0,0,0,.1,0,.24.24,0,0,1,0,.12c0,.06-.08.11-.11.18a.08.08,0,1,0,.12.12h.35a.44.44,0,0,1-.06.16c-.07.12-.14.23.08.23a.16.16,0,0,1,.13.11s0,.12-.05.13a.28.28,0,0,1-.18,0c-.08-.06-.13-.14-.21-.19s-.14-.05-.15.07.13.26.22.37a.85.85,0,0,1,.15.3c0,.16,0,.23.2.2s.13,0,.14.08a.53.53,0,0,0-.19.44h.09c-.1.1-.22.16-.31.1a.22.22,0,0,0-.29.11c-.06.11-.1.23-.29.09.19-.23.19-.24-.08-.38s-.21-.13-.19-.29-.08-.25-.24-.19-.08,0-.1,0l.1-.24V20H57.1c.1-.26.21-.52.33-.77,0-.08.09-.17.2-.06s.16.05.24.08v-.07a2.71,2.71,0,0,0-.35-.24l-.18.09h0c-.16-.12-.37-.05-.52-.13a.38.38,0,0,1-.13-.52.4.4,0,0,1,.13-.13.1.1,0,0,1,.06-.08c.06,0-.08,0-.1,0-.23.11-.2-.05-.19-.18a1.88,1.88,0,0,0,0-.24.15.15,0,0,0,0-.13h-.11c-.17.13-.18,0-.2-.12s0-.57-.26-.75a.16.16,0,0,1-.05-.09v-.14h.11s.14.07.2,0a.37.37,0,0,1,.14-.1.48.48,0,0,1,.07.2.68.68,0,0,1-.08.24c-.07.18,0,.26.18.26a.22.22,0,0,1,.17.09c.1.13.19.1.27,0s0-.05,0-.08l.2-.11h0s0,.11.05.13.21.12.22.1a1.55,1.55,0,0,0,.2-.32l-.19-.09c-.06,0-.14,0-.17,0h0c.19,0,.36,0,.41.2l.12.1s.05-.07,0-.08.06-.36-.16-.43a0,0,0,0,1,0-.05.75.75,0,0,1,.34-.47c.07,0,.17,0,0-.14s-.07-.11-.1-.16l.16-.08c.14,0,.21-.08.12-.25s-.17-.34,0-.53l-.39-.09.25.65a.08.08,0,0,1,0,.09H58s-.17-.08-.19.07a.1.1,0,0,1-.08.07.15.15,0,0,1-.09-.06.39.39,0,0,1-.08-.14c-.07-.15-.13-.29-.21-.45l.42-.1a1.55,1.55,0,0,0-.24-.27c-.12-.09-.26-.22-.4-.21S57,14.24,57,14h0a.25.25,0,0,1-.1.18s-.16.13-.2.1a1.31,1.31,0,0,1-.24-.23l.16-.13.27-.13c.15-.06.29-.11.43,0a.09.09,0,0,0,.07,0,1.06,1.06,0,0,0,.5-.46h0l-.19.09c-.1,0-.26,0-.25-.15a2.7,2.7,0,0,1,.08-.41v-.14l-.14,0a.18.18,0,0,0-.07.08q-.09.2-.24,0c-.1-.13-.06-.16,0-.24l.16-.16v-.06l-.31.11v-.3a.81.81,0,0,0,0-.22h-.16a2.31,2.31,0,0,0-.35.18l-.16.07a.49.49,0,0,1,0-.17V12a.38.38,0,0,1-.42-.41c0-.2,0-.17,0-.18a.17.17,0,0,0-.19,0,4.16,4.16,0,0,0-.42.42h0a2.28,2.28,0,0,1-.14.28c-.06.09-.1,0-.14,0s-.07,0-.11-.08v.15c0,.11-.06.2-.17.12s-.27,0-.34.18-.27.22-.35.09a.88.88,0,0,1-.09-.5c0-.16.15-.24.33-.26a1.66,1.66,0,0,0,.43-.14V11.5a.81.81,0,0,0-.21-.1l.21-.15.09-.06.1-.15a.44.44,0,0,0-.16-.06h-.21a.7.7,0,0,0-.36-.36c-.2-.09,0-.25,0-.38v-.17a.47.47,0,0,0-.15.06.27.27,0,0,1-.36,0c-.1-.1-.12-.08-.2,0a.19.19,0,0,1-.18,0V10l.23-.46c-.1-.11-.27-.21-.31-.35a1.57,1.57,0,0,1,0-.53h0l.11.21h.06V8.39c-.12.14-.15.34-.37.28a.64.64,0,0,1-.39-.33h0V8.27h.11c.05,0,.12.09.14.07a.8.8,0,0,0,.2-.21c0-.07,0-.25-.07-.25s-.29-.11-.27-.31V7.5c-.18,0-.27-.27-.5-.21-.07,0-.2-.11-.26-.2s.06-.48-.29-.52a1.47,1.47,0,0,1-.06-.19c0-.06,0-.23,0-.34s0-.12,0-.14c-.2-.11-.18-.3-.19-.46s0-.17-.13-.09-.2,0-.2-.14-.08-.15-.15-.21l-.35-.23c-.06,0-.11-.11-.2-.19h.14l-.06-.14-.13-.15h.32a.27.27,0,0,0,.12-.09c.12,0,.21-.11.26-.29a.26.26,0,0,0,0-.24c-.07-.07-.13-.12-.06-.22a.08.08,0,0,0,0-.09.66.66,0,0,1-.14-.49c0-.07-.08-.14-.14-.19a.6.6,0,0,0-.19-.06l.09-.22V2.29c-.19-.12-.39-.23-.59-.34a.89.89,0,0,0,.19-.8.71.71,0,0,0-.53.32,2.09,2.09,0,0,0-.21.54c0,.16-.13.16-.2.1a.26.26,0,0,0-.28,0,1.23,1.23,0,0,0-.24.22c-.08.08,0,.07,0,.08.19.11,0,.28.06.42S48.6,3,48.54,3a.17.17,0,0,1-.17-.08l-.17-.14h0l.06.08s.07.09.06.11a.19.19,0,0,1-.11.07,4.39,4.39,0,0,0-.89.06.12.12,0,0,0-.09.08c0,.2,0,.2-.21.13s-.25,0-.24.19,0,.06,0,.1l-.13-.07-.11-.08a.33.33,0,0,0,0,.14c0,.07.06.13-.06.13h-.37c0-.2-.24-.36-.1-.58V3s-.09.08-.12.11a.67.67,0,0,1-.15.14l-.06-.22V2.85c0-.05-.11-.18,0-.26s.08,0,.09-.08l-.08-.08h0c-.28-.12-.36-.23-.27-.39V2c-.05.07-.06.16-.19.18s-.14.14-.16.23-.09.15-.17.09a.92.92,0,0,1-.19-.25V2.11c-.13.14-.26.29-.4.43s-.12,0-.17,0H44v.12c.07.22-.1.35-.23.44a1.14,1.14,0,0,1-.45,0h-.09v.29l-.15-.13v.07c.06.23-.07.24-.24.25s-.24.07-.25.14a.9.9,0,0,0,0,.46c0,.22,0,.32-.26.29s-.18,0-.1.14a.22.22,0,0,1,0,.31h0c-.11.08-.12.16,0,.25s.15.16.21.25a.29.29,0,0,1,.08.14l-.11.09-.18.1c.33.06.34.07.26.37,0,.08-.1.21-.12.2A.87.87,0,0,1,42,6.16V6a.81.81,0,0,0,0-.22h-.09a.22.22,0,0,1-.07.19.74.74,0,0,1-.14.22A1,1,0,0,1,40.91,6s-.06-.22,0-.25.06-.2.08-.22c.23-.26-.13-.37-.13-.56a.54.54,0,0,1-.06-.13c0-.23-.24-.29-.4-.37a.38.38,0,0,1-.2-.23.66.66,0,0,0-.06-.2L40,4a.93.93,0,0,0-.14.14.82.82,0,0,1-.12-.2V3.81s-.16-.1-.2-.08-.09.14-.14.21l-.19.21L39,4l-.09-.1a.28.28,0,0,0-.08.11c0,.25-.22.28-.42.26l-.18-.09A.17.17,0,0,1,38.31,4a1.27,1.27,0,0,0,.18-.74.56.56,0,0,0-.11.2c-.07.16-.16.18-.26,0L38,3.26l-.24-.18-.19.32v.11c0,.23-.07.28-.3.25h0c0-.15,0-.34-.12-.41a1.56,1.56,0,0,0-.57-.11V3.18a.17.17,0,0,1,.14,0h.54c.07,0,.21,0,.18-.11s-.14-.62-.22-.94a1.09,1.09,0,0,1-.08.15l-.1.15-.2-.31h.08L37,2c.16-.1.2-.25.09-.29a.93.93,0,0,1-.32-.53,2.16,2.16,0,0,1,0-.36c-.07,0-.11,0-.12.08a4.72,4.72,0,0,1-.22.56c-.08.19-.18.21-.3.09L36,1.46a.68.68,0,0,0,0,.14c0,.23-.08.27-.29.16l-.12-.08h-.18a.29.29,0,0,1,0,.13.23.23,0,0,1-.06.19.49.49,0,0,0,0,.17v.14a.53.53,0,0,1-.21.11S35,2.32,35,2.3c.1-.27-.12-.18-.2-.15A.15.15,0,0,1,34.61,2c0-.14-.12-.13-.13-.12a.63.63,0,0,0-.23.23s.07.13.12.2.07,0,.07.06a1.27,1.27,0,0,1-.12.39A.71.71,0,0,1,34,2.71a.2.2,0,0,1,0-.11.1.1,0,0,0-.2,0h0c0,.29-.2.43-.37.6s-.11,0-.16.07l-.27.2v.15c.17-.17.2.09.35.08l-.44.49s-.11.07-.15,0a.24.24,0,0,1-.12-.14V3.73a1.34,1.34,0,0,0-.07-.27H32.5a.74.74,0,0,0,0,.21V4c0,.12,0,.07-.07.11s-.08,0-.09-.06l-.18-.44-.09-.17a1.34,1.34,0,0,0-.07.18,1,1,0,0,1-.1.37c0,.12-.16.14-.24,0s-.05-.12-.1-.16h0a.24.24,0,0,0-.09-.15.49.49,0,0,0-.24,0,.67.67,0,0,0,0,.2h-.17A.39.39,0,0,1,31,4V3.74a.16.16,0,0,1,.09-.18.17.17,0,0,1,.12,0l.24.11c.13.06.24,0,.23-.13s0-.33,0-.49,0-.1-.06-.1-.41-.06-.59.13-.24.35-.5.31a.48.48,0,0,0-.08.12,1.13,1.13,0,0,0,0,.26c0,.1,0,.12-.1.08l-.23-.06c.18.24.15.4-.08.52l-.3.16c-.11,0-.22,0-.18-.14s.11-.16.17-.24h.07L29.7,4c-.12.1-.16,0-.2-.08a3.14,3.14,0,0,0-.3-.43c-.11-.13-.22-.15-.28-.26S28.5,3,28.34,3.2c.08.13.15.24.23.35l-.34.16c-.17.06-.39.08-.26.36a.17.17,0,0,1-.06.13.29.29,0,0,1-.14-.2,1.46,1.46,0,0,0-.05-.2l-.09-.1s0,.1,0,.13a2.07,2.07,0,0,1,.15.34.45.45,0,0,1,0,.23l-.17-.11a1.33,1.33,0,0,1-.14-.19c0,.33-.19.21-.31.23s-.26,0-.2-.25l0-.37a.29.29,0,0,1-.42.07l-.07-.07a3.54,3.54,0,0,1-.35-.51,3.23,3.23,0,0,1,0,.44c0,.07-.06.18-.1.18s-.22,0-.26-.08a1.44,1.44,0,0,1-.19-.5c0-.21-.09-.2-.24-.1a.3.3,0,0,1-.26,0c-.14-.1-.22,0-.29.06s-.06.2-.11.29a.17.17,0,0,0,0,.24.17.17,0,0,0,.12,0c.23,0,.4.24.65.12,0,0,.14.06.16.12a.57.57,0,0,1,0,.26h-.08a.43.43,0,0,0,0-.16.34.34,0,0,0-.2-.13A1.2,1.2,0,0,0,25,4h-.3c0,.14.25.17.09.3a.45.45,0,0,1-.5,0L24.56,4a.93.93,0,0,1-.33,0c-.07,0-.17-.16-.15-.2a1.6,1.6,0,0,1,.29-.44,2.31,2.31,0,0,1,.36-.25l-.29-.26a.58.58,0,0,0-.11-.1.13.13,0,0,1,0-.25c.18-.11,0-.09,0-.14s-.12,0-.15,0a3.88,3.88,0,0,0-.34.32l.3.09L23.8,3c-.05,0-.12.07-.17,0s-.06,0-.08,0l-.06-.22h-.07c-.06.24-.11.49-.17.73a.75.75,0,0,1-.07.12s-.1-.11-.09-.13,0-.2-.1-.25.09-.06.18-.07.11-.06.11-.09A.12.12,0,0,0,23.2,3a.2.2,0,0,0-.15,0l-.18.17A1.42,1.42,0,0,1,22.79,3,.68.68,0,0,1,23,2.84c.06,0,.31,0,.22-.27a.14.14,0,0,1,0-.09.8.8,0,0,1,.3-.09h0l.09.12c.2,0,.48-.28.44-.39A.29.29,0,0,0,23.9,2h0a.22.22,0,0,1,.1-.29h0l.07-.07c.08-.11.14-.23.21-.33A.84.84,0,0,1,24,1.17a.53.53,0,0,0-.7.24c0,.1-.12.23.05.31V1.9a.17.17,0,0,1-.16.09.88.88,0,0,1-.09-.16.38.38,0,0,1,0-.15H23v.05c-.1.15-.19.31-.4.1a.46.46,0,0,0-.23.06l.09.15a2.44,2.44,0,0,0,.1.24l-.23.06h-.17a1.09,1.09,0,0,0,.05.17.58.58,0,0,0,.1.12c.12.14.1.22-.06.31a1.16,1.16,0,0,0-.24.2c-.06.08-.11.16-.16.24.14.17.13.23-.06.28a1.43,1.43,0,0,0-.27.09c-.16.07-.19.06-.2-.12V3.54a.37.37,0,0,1,0-.21s.14-.05.2,0c.24.06.3,0,.24-.23A.31.31,0,0,1,22,2.67H22a.4.4,0,0,0,0-.15h-.12s-.19.14-.3,0c-.25-.31-.25-.31-.59-.16l-.2.14.16.11v.06l.32.18.16.08a.8.8,0,0,1-.15.21.57.57,0,0,1-.21.13h-.22a.29.29,0,0,1-.16-.2,1.43,1.43,0,0,1,.09-.41c-.1,0-.21.07-.24,0s-.19,0-.27,0-.22.13-.35,0a.3.3,0,0,0-.08-.08v.07l-.67.43c.11.13.33.29.3.38a.37.37,0,0,1-.44.28,1.27,1.27,0,0,1,.21.25.41.41,0,0,0,.34.27.44.44,0,0,1-.08.11c0,.06-.12.11-.13.18h0l-.16.21a1.12,1.12,0,0,1-.18-.2V4.39s0,.09,0,.06-.07.1-.06.13c.09.26.16.51-.28.39-.15.15-.28,0-.41,0s-.1-.17,0-.25l.28-.25V4.4a.75.75,0,0,0-.2.1c-.12.11-.21.16-.31,0s-.26-.25-.43,0a.16.16,0,0,1-.09.14.39.39,0,0,1-.1.08.36.36,0,0,0-.07-.1l-.09-.12s-.07.11-.06.16a3.29,3.29,0,0,1,.07.36,1.39,1.39,0,0,0,.17.82.28.28,0,0,1,0,.22,4.91,4.91,0,0,1-.15.51l-.1.11A1.17,1.17,0,0,1,17,6.4V6.07s-.1.07-.1.11a.91.91,0,0,0,0,.33c0,.19,0,.31-.23.28A3.19,3.19,0,0,1,16,6.6a.2.2,0,0,1-.12-.26v0a.81.81,0,0,0,0-.22s0-.1,0-.1l-.5.12c.07.13.15.3.22.46v.13h-.15l-.09-.06c-.09.29-.18.33-.39.13A.61.61,0,0,1,15,7a.35.35,0,0,1-.06.14c-.31.21-.3.33,0,.55A.68.68,0,0,1,15,8v.09c-.09,0-.2.09-.26.05s-.31-.07-.23-.29a.15.15,0,0,0-.07-.12.69.69,0,0,0-.13.11V8c-.05.23-.19.45-.24.67a.67.67,0,0,1-.66.57.33.33,0,0,0-.16.07.69.69,0,0,0,.11.13c.14.09.24.19.17.38a.17.17,0,0,0,0,.14.12.12,0,0,1,.05.1h-.05a.28.28,0,0,0-.1.09l.07.06a.6.6,0,0,0-.06.19s.13.1.14.09l.09-.09h0a1.13,1.13,0,0,0,0,.26.86.86,0,0,0,.23-.06c.06,0,.08-.13.12-.2v.16a.2.2,0,0,0,.05.16h-.35l.08.12L14,11a.34.34,0,0,1-.17.05c-.05,0-.09-.08-.16-.16v.29c0,.08.05.25.07.38s-.18.16-.29.21a.11.11,0,0,0,0,.11,1,1,0,0,1,.07.62,1.31,1.31,0,0,0,0,.28.23.23,0,0,0,.06.12h.09a2.49,2.49,0,0,0,.43.22h.06L14,13.2h-.37l.06.15h-.08l.33.26a.27.27,0,0,0,.07-.08h.26l.11-.09c-.06-.06-.1-.14-.17-.17l.07-.09a.3.3,0,0,0,.18-.06v.14a.49.49,0,0,0,0,.17h.08s0,0,0-.06h.14l.12-.09.13.12h-.1a.49.49,0,0,0,0,.24v.17a3.16,3.16,0,0,1-.16.43c-.21-.07-.16.07-.12.21a1.59,1.59,0,0,1,.07.2.49.49,0,0,1,0,.17H14.6a.38.38,0,0,1,0-.15l-.06-.21h-.08a2.54,2.54,0,0,1,0,.39c0,.06-.06.12-.1.18a1.51,1.51,0,0,1-.21-.23v-.17a.81.81,0,0,0,0-.22l-.17.11c-.12.12-.2.11-.27,0a1.42,1.42,0,0,0-.11-.33c-.07-.1-.18-.24-.28-.24s-.3,0-.31-.27v-.26H12.9l-.06.13a.54.54,0,0,1-.49.43c-.12,0-.12,0-.08.14a3.38,3.38,0,0,1,.18.44l-.27-.2v.05a1.15,1.15,0,0,1,.14.17.24.24,0,0,1,0,.12h-.41a.74.74,0,0,0-.08.29.6.6,0,0,0,.05.35c.1.12.23.11.3-.07h.15l.26,0h0v.35c.08,0,.27,0,.32-.06s-.13-.23-.19-.43l.21.06a1.14,1.14,0,0,0,.37-.05.47.47,0,0,0,.06-.19h.06v-.35a.06.06,0,0,1,0-.06.24.24,0,0,1,.06-.11.27.27,0,0,1,.08.07,1,1,0,0,0,.19.27c.14.11.08.23,0,.32s-.16.06-.25.08a.31.31,0,0,1-.14,0s0,.09,0,.13.11.22.16.33a.15.15,0,0,1,0,.16.25.25,0,0,1-.3.12c-.12-.06-.23-.13-.21-.3s0-.07-.06-.11a.39.39,0,0,0-.08.1.54.54,0,0,1-.1.22c0,.07-.18.23-.19.35s-.16.25-.31.3-.21,0-.18-.2l.06-.26v-.12h-.1a.49.49,0,0,1-.16.1.25.25,0,0,0-.21.27.87.87,0,0,0,.1.42c.09.14,0,.17-.08.25a.74.74,0,0,1-.21-.13,1.18,1.18,0,0,1-.11-.19h-.1V17h.06a.36.36,0,0,1,.05-.21c0-.08.07,0,.07.06,0,.22.09.45.12.68,0,.06-.07.13-.11.2l-.15-.09a.17.17,0,0,0-.14,0c-.08.15-.15.31-.23.48h.23a.41.41,0,0,1-.12.17s-.12.07-.15.05a.28.28,0,0,0-.27.11.65.65,0,0,1-.16.19c-.06.05-.16,0-.17,0a.8.8,0,0,0-.62-.54A.65.65,0,0,0,9.58,18,.54.54,0,0,0,9.36,18c-.12,0-.23.06-.22-.13,0,0-.1-.06-.1,0a.39.39,0,0,1-.36.16.4.4,0,0,0-.09.13v.26a.23.23,0,0,1-.14.15c-.14,0-.12.07-.08.15l.11.15a.31.31,0,0,0,.08.25c.08.08.13-.14.19-.14h0l-.06.09a.81.81,0,0,0-.07.22c-.13,0-.14,0-.11.14a2.36,2.36,0,0,0,.17.46c.07.15,0,.19-.11.15a1,1,0,0,1-.31-.18H8.17v.1s.05.1.06.16,0,.13-.05.13c-.34,0-.43.27-.49.51a.42.42,0,0,1-.34.32h0a2.12,2.12,0,0,0-.11-.21l-.08-.05h.13s.13-.07.19-.08c.22,0,.15-.12.08-.22s-.18-.23-.09-.37,0-.18-.11-.21a.3.3,0,0,0-.39.19.25.25,0,0,0,0,.12.74.74,0,0,1,0,.21,1.12,1.12,0,0,1-.1.31l-.29-.14H6.45a.54.54,0,0,0,0,.18c0,.13.09.27,0,.36a.22.22,0,0,1-.31,0l0,0-.24-.36-.14-.18a.64.64,0,0,1-.06.18,1.73,1.73,0,0,1-.19.28l-.23-.19s-.06-.07,0-.07L5,20.91a.45.45,0,0,0-.1.1s-.11.26-.15.33c.13.12.32.25.31.31a.24.24,0,0,0,0,.12A.38.38,0,0,0,5,21.9a.45.45,0,0,0,0,.23c0,.1.12.18.18.28s0,.11.07.14a.13.13,0,0,0,.12,0,.22.22,0,0,0,0-.16,2.79,2.79,0,0,0-.1-.39v-.06h.19V22a1.11,1.11,0,0,0,.14.3,1.51,1.51,0,0,1-.11.22c-.06.15-.14.21-.3.09s-.15-.05-.26-.09a.24.24,0,0,1,0,.12v.27l-.2-.09H4.62v.8a.14.14,0,0,0,.09.12h.07l.13-.15.14.15a1.08,1.08,0,0,1,.08.19c.09.23.08.24-.17.23H4.85v.08l.26.26h.07v.08a.28.28,0,0,0,.16.12c.13,0,.28,0,.32-.17s-.06-.13-.1-.19h.19c.12,0,.22,0,.22.14H6c-.21,0-.23.18-.24.31s.11.2.24.2a.45.45,0,0,0,.23,0,.43.43,0,0,0,0-.16h.06a.33.33,0,0,0,.14,0v.07c.24,0,.28.21.42.31a.76.76,0,0,0,.41.15l.07-.1a.3.3,0,0,1,0,.26H6.82v.07l.19.07c.17,0,.41-.12.5.16H8l.36.06c0,.07-.07.15-.1.23s0,.08,0,.11.06,0,.1,0h.13l-.06.15-.12.18-.16-.21L8,26.11a.36.36,0,0,1-.2-.06.74.74,0,0,0,0,.21,2.59,2.59,0,0,0,.14.29l-.73-.07a.26.26,0,0,0-.15.07l.09.1a.46.46,0,0,1,0,.64.54.54,0,0,1-.16.1.44.44,0,0,1-.35-.12.24.24,0,0,1,0-.34l0,0c.28-.22.2-.57.33-.85H6.8a.25.25,0,0,1-.35.05.12.12,0,0,1,0-.05c-.13-.11-.29-.21-.24-.46A.75.75,0,0,0,6,25.1a1.2,1.2,0,0,0-.51-.21A4.13,4.13,0,0,0,5,24.82a.54.54,0,0,0-.18,0v.12a.14.14,0,0,1-.06.12.24.24,0,0,1-.34,0,.37.37,0,0,1,0-.11.76.76,0,0,0-.06-.36c-.06-.12,0-.11-.07-.2-.09.29-.16.52-.22.76v.14s.1-.08.12-.13a1.31,1.31,0,0,0,0-.28.33.33,0,0,1,.11.15.32.32,0,0,0,.4.22.24.24,0,0,0,.11-.06.36.36,0,0,1,.11-.06.6.6,0,0,1,.19.06c0,.06,0,.14-.1.17a.31.31,0,0,1-.19,0c-.36-.06-.45,0-.54.32s-.16.14-.25.07a1,1,0,0,1-.15-.2l-.12-.22h-.1s-.08.05-.07.07,0,.06.07.09l.15.17a1.84,1.84,0,0,0,.17.22c.18.14.2.26.06.44a.25.25,0,0,1-.35.06l-.06-.06a.76.76,0,0,1,.11-.14c-.3-.08-.13-.32-.21-.48,0,0-.09.12-.08.17a5,5,0,0,0,.16.84.24.24,0,0,1-.05.18.5.5,0,0,0-.22.6c.13.32,0,.41-.26.49V28l.31,0a.28.28,0,0,1,.18,0v.44a.61.61,0,0,0,0,.19c.08,0,.21,0,.25-.09s0,0,0-.06l.13.05c-.11.26-.2.5-.31.74s0,.16.13.14h.15a1.69,1.69,0,0,0,0,.45A1.76,1.76,0,0,0,4,30.3H3.84c-.2,0-.23-.17-.28-.31s0,0-.07-.08-.06.06-.05.09v.64l.06.64c.08-.1.13-.19.2-.26l.19-.18L4,30.75H4a.49.49,0,0,1,0,.17.38.38,0,0,1,0,.15c-.1.16-.23.3-.33.47a.45.45,0,0,0,0,.23c0,.05.1.12.12.11a1.47,1.47,0,0,0,.28-.14H3.88c.12-.18.21-.33.31-.47a.37.37,0,0,1,.53-.08l0,0c.11.09,0,.17,0,.27s-.29.21-.09.39c0,0,.09.09.08.13s-.07.11-.11.11A.14.14,0,0,1,4.49,32l-.18-.09V32c.22.26.22.26-.1.36a.22.22,0,0,0-.17.25c0,.09,0,0,.06,0s.29-.13.45,0,0,.22,0,.33a.17.17,0,0,1,0,.1c-.08.23,0,.33.23.3H5a1.13,1.13,0,0,1,0,.26.66.66,0,0,1-.12.17l-.08.1.13.08.12,0V34l-.41.2a1.18,1.18,0,0,0-.19.11l.12.12c.1.07.21.12.31.18l.07.06s-.06.08-.07.07c-.2-.08-.46.15-.63-.11h0l.1.24H4.24l-.15-.06v.06a.49.49,0,0,1,.13.11s.3-.06.22.18h.09l.23.1c-.06,0-.13.09-.2.08a1.19,1.19,0,0,1-.41-.11v-.19c0-.07,0,0-.06-.08H4c-.16.16,0,.27,0,.41a.55.55,0,0,1,0,.31c0,.06-.14.08-.21.12a1.31,1.31,0,0,1,.09-.28v-.11s-.07,0-.08.08a.78.78,0,0,1-.6.55H3.14v.07A1.29,1.29,0,0,0,3.68,36a.3.3,0,0,1,.26,0c.2.14.14.4-.14.55s-.26.18-.21.36.1.29.3.29H4l-.17.21a.23.23,0,0,1-.19-.14,1.44,1.44,0,0,1-.25.18l-.33.06.09.37a.5.5,0,0,1,.09.12.2.2,0,0,1,0,.15,1.14,1.14,0,0,1-.16.31c0,.07-.14.15-.21.14-.24,0-.16.06-.09.18a.39.39,0,0,1-.11.53,1.08,1.08,0,0,0-.18.24s0,.11-.08.11-.1,0-.14-.06,0-.08,0-.12.05,0,0-.06a2,2,0,0,0,0-.42c-.09-.22-.09-.27.12-.41a1.43,1.43,0,0,1,.08.22.41.41,0,0,1,.11-.23c0-.06.19-.21.17-.29s.12-.21.22-.28l.09-.1H3a.69.69,0,0,1-.19.1h.11l.1-.12a.31.31,0,0,0-.13-.06,1.41,1.41,0,0,1-.29,0,.51.51,0,0,1,.15-.23c0-.05.17,0,.26,0h.16a.38.38,0,0,0,.16-.14c-.1-.2,0-.3.11-.34-.06-.11-.13-.22-.2-.33v.07A.22.22,0,0,1,3,37a.2.2,0,0,1-.11-.11.23.23,0,0,1,0-.2A.44.44,0,0,1,3,36.58h.45v0l-.6-.62H2.8a.21.21,0,0,0,0,.11,1.22,1.22,0,0,0,0,.27c0,.14-.08.18-.14.26a3.72,3.72,0,0,1-.33.45c-.24.27-.27.36-.08.59a.45.45,0,0,0,.24.14.21.21,0,0,1,.1.06.31.31,0,0,0-.43.07A.35.35,0,0,0,2.1,38h0a.33.33,0,0,0,.33.26v.08s-.22.16-.27.13a.69.69,0,0,1-.31-.32c0-.06.14-.19.21-.29s0,0,0-.08-.14,0-.16,0a3.27,3.27,0,0,0-.28.37c-.17.24-.08.41.21.47A.26.26,0,0,1,2,38.8V39a.53.53,0,0,1-.25,0c-.05,0-.09-.08-.15-.13v.06a.32.32,0,0,1,.06.08c.09.24.28.47.11.76a.2.2,0,0,0,.05.22c.13.08.05.15,0,.22a.77.77,0,0,1-.16.15c.23,0,.23-.15.32-.24l.24-.24v.36h0c0,.18-.14.37,0,.53a.46.46,0,0,0,.5.07.1.1,0,0,0-.06-.09c-.06,0-.16-.18,0-.24s.11-.15.19-.2A1.08,1.08,0,0,0,3.23,40h.24v0a.63.63,0,0,0,.64.2h.08c.08.07.17.07.31,0-.08.2-.08.31.28.36A.41.41,0,0,0,5,40.54a.3.3,0,0,0,.17.24,1.43,1.43,0,0,0,.36,0h.06a.27.27,0,0,1,.12.06v.09H5.39l.17.23v.06H5.17l.1.17.11.18H5c-.5-.15-.91.16-1.35.3h.19l.78-.25s.1,0,.11.08.14.31.4.28h.13v.29l.08.06c.06-.36.38-.41.57-.61H6L5.81,42h0a.6.6,0,0,1,.12-.13c.05,0,.14-.08.18-.06a1.64,1.64,0,0,1,.25.21l-.19.13.11.07h.28a.4.4,0,0,1,.07.28c0,.14-.14.25-.18.39a1.27,1.27,0,0,0,0,.39l.07.08h.06c0-.27.13-.19.27-.13s.07,0,.15,0L6.77,43a.33.33,0,0,1,0-.36c.07-.16.17-.09.28-.06h.24c0-.13-.13-.24-.1-.31A1.34,1.34,0,0,1,7.41,42h.1c.07.13.13.26.19.39v.14a.69.69,0,0,1-.11.13h.29a.2.2,0,0,1,.19.16h0S8,43,7.93,43a.09.09,0,0,0,0,.07H7.82a.76.76,0,0,0-.3,0v.08h.3c.23,0,.31.14.22.34a.33.33,0,0,0,0,.14h.05a.38.38,0,0,0,.09-.13.43.43,0,0,0,0-.16c0-.14.12-.16.21-.1s.12,0,.13-.08,0-.12.05-.15.13-.17.19-.17A.47.47,0,0,1,9.1,43v.14h0v.13L9,43.29a1.46,1.46,0,0,1,.16.19,1.59,1.59,0,0,1,.12.27h0v.08H8.92c.05.11.11.22.17.33h.12l.06-.11h.3a.19.19,0,0,0,.18,0l-.22.24c0,.05-.1.14-.09.15a.92.92,0,0,0,.29.23c.1,0,.19,0,.17-.16H10a.8.8,0,0,0,.5.1.21.21,0,0,0,.15.09.41.41,0,0,0-.28.11.18.18,0,0,1-.25.07s0,0,0,0H10s-.2,0-.26-.07-.15-.16-.27,0a.66.66,0,0,1,.19.09c.08.08.21.18.22.29a3.07,3.07,0,0,1-.07.6h.1a1.27,1.27,0,0,1,.13-.19c.19-.19.46-.1.69-.16l.17.18h0a.23.23,0,0,0-.19-.09.16.16,0,0,0-.19.13H10.3v.09l.09.11c0,.1,0,.19.16.21h.06a2.53,2.53,0,0,0,.53.24h.13a2,2,0,0,1,.35-.07h.17a.18.18,0,0,1-.06.17.4.4,0,0,1-.2.09h-.15a.23.23,0,0,0,0,.2c0,.06.12.09.15.11a2,2,0,0,0,.34,0,.22.22,0,0,0,.08-.13h0c.1,0,.21,0,.21-.08h0v.33a1.7,1.7,0,0,0,.19-.19c.06-.09.11-.19.17-.29h0a.28.28,0,0,1,.35-.18h0l-.14.06a.38.38,0,0,0-.09.09A1.26,1.26,0,0,0,13,47a.46.46,0,0,0,.26-.08h.07a1.27,1.27,0,0,0,0,.39c.07.15.53.21.68.12s.09-.12,0-.17l-.52-.33h.29a1.4,1.4,0,0,0,.42.3h0a.83.83,0,0,0,.45.61.23.23,0,0,0,.2,0,.2.2,0,0,0,0-.21l-.25-.27a.69.69,0,0,0,.28-.11h0a.66.66,0,0,0,.12.19.16.16,0,0,0,.13-.06c0-.25.2-.25.39-.25h.16c.09.08.19.2.29.21.27,0,.26.24.28.4s-.11.19-.19.26a1.56,1.56,0,0,1-.28.16l.41.06h.07c.14,0,.25-.12.16-.3a.25.25,0,0,1,0-.17.84.84,0,0,1,.35-.07c.05,0,.08.17.1.26h0l-.16-.14c-.06.07-.17.18-.16.19a2,2,0,0,0,.31.27l.19-.16L17,47.94a1.27,1.27,0,0,1,.11-.15s.21-.15.25-.12.12,0,.17-.06l.21-.23a.28.28,0,0,0,.08-.11c.07-.22.09-.24.24-.19a.46.46,0,0,1-.18.21c-.21.1-.24.27-.33.43s0,.14,0,.15a.2.2,0,0,0,.18-.06c.05,0,.05-.14.09-.16a.54.54,0,0,0,.37-.52h.14v.11h.49a.19.19,0,0,0,0-.18H19a.55.55,0,0,0,.59.25h.08l-.18.14a1.2,1.2,0,0,0-.16.27,1.59,1.59,0,0,0,.29.15c.07,0,.23-.21.28-.36v.08H20s.05-.12.09-.16a.32.32,0,0,1,.42.09c0-.23.2-.48.34-.39s.23,0,.31-.12a.71.71,0,0,1,.23-.25h0c.08,0,.15.07.3.2h0a.27.27,0,0,0,.12.09.39.39,0,0,0,.21-.14c.05-.06,0-.12-.05-.18a.24.24,0,0,1,0-.12.41.41,0,0,1,.11-.07l.15-.09h0a.63.63,0,0,1,.05-.29c.06.08.09.13.12.14a.39.39,0,0,0,.11,0,1.61,1.61,0,0,0,.21-.3.16.16,0,0,0,.08-.06h.07c.2.13.23,0,.25-.13s.29,0,.42.06a1.32,1.32,0,0,1,.75.2c.16.15.45.15.67.21h0L24.32,46a4.91,4.91,0,0,0-.63-.17,5.77,5.77,0,0,0-.58-.08c0-.09.06-.11.15-.12h.57l.27.07h.08a3.17,3.17,0,0,0,.41.21h.2l-.22-.17.36.07.09.08c.06,0,.15.09.17.15a.29.29,0,0,0,.29.13l-.33-.28c.28.11.53.28.81.36a2,2,0,0,1,.75.3,7.91,7.91,0,0,1,.88.75c.07.08.13.16.2.23-.26-.25-.56-.48-.85-.71h-.21a.86.86,0,0,0,.13.14,6,6,0,0,1,1.35,1.23h0a.09.09,0,0,1,0,.07h0a2.73,2.73,0,0,0-.64-.63l.57.72a.12.12,0,0,0,.06.15h0c-.08.12-.24.25-.21.34a.45.45,0,0,1-.06.32.54.54,0,0,0,0,.18h.2a2.52,2.52,0,0,0,.33-.36l.23.07.24.3h0a.21.21,0,0,0,0,.29l0,0c.08,0,.12,0,.16,0l.35.44a2.62,2.62,0,0,0-.3-.51h0a.45.45,0,0,1,.1-.1l.41.54h0c.13.23.27.45.39.68s.07.26.15.35a.87.87,0,0,1,.16.23l-.69-1h0l.8,1.31h.06c.06,0,.05.25.07.38.08.44.13.89.18,1.35s.14,1,.16,1.5,0,1.14,0,1.71v.14c0,.42.1.83.12,1.24s0,1,0,1.56v.74a3.83,3.83,0,0,0-.08.68A6.19,6.19,0,0,1,31,62.53a10.34,10.34,0,0,1-.35,2c-.15.5-.33,1-.95,1.13a2.93,2.93,0,0,0-.57.13,10.07,10.07,0,0,1-2.26.22h-.82c-.51-.05-1-.15-1.52-.18a7.68,7.68,0,0,0-1.17.09,1.75,1.75,0,0,0-.55.12c-.33.13-.64.3-1,.42s-.55.15-.83.22c-.72.18-1.44.37-2.18.52a5.21,5.21,0,0,1-.79,0,10.37,10.37,0,0,0-1.12.13c-.46.09-.91.19-1.36.32a3.37,3.37,0,0,1-1.4.28.89.89,0,0,0-.23,0L13,68c-.05.17,0,.19.2.15s.27-.14.33.1h.15a1.63,1.63,0,0,0,.54,0c.33-.1.67,0,1-.16a2.15,2.15,0,0,1,.83-.2,8.31,8.31,0,0,0,1-.15l.58-.09a.26.26,0,0,1-.16.13l-.88.43L15.09,69c-.19.1.06.23-.05.32h.17l.86-.41.9-.41A3.62,3.62,0,0,1,18.63,68a2.91,2.91,0,0,0,.88-.16c.49-.14,1-.32,1.46-.46s.89-.2,1.33-.31l1.14-.33a4.45,4.45,0,0,1-.53.62.82.82,0,0,1-.38.25,9.93,9.93,0,0,1-1.09.19,3.54,3.54,0,0,0-1,.1,11.43,11.43,0,0,0-1.82.51,11.12,11.12,0,0,0-1.43.8v.12a.33.33,0,0,0,.14,0l.3-.17a4.23,4.23,0,0,1,.69-.44,13.4,13.4,0,0,1,1.51-.51,11.41,11.41,0,0,1,1.3-.23l.76-.08v.26c.12-.06.26-.09.28-.16a.58.58,0,0,1,.33-.23l.28-.13c.3-.13.43-.49.78-.55h0s.21-.31.44-.22h.09a3.07,3.07,0,0,1,.31-.17l.34-.13v-.07l-.71.12-.78.13a6.74,6.74,0,0,0-.75.17,6.07,6.07,0,0,0-.7.29V67.1c.33-.14.66-.27,1-.38a10.45,10.45,0,0,1,1.12-.18l.12-.09a.38.38,0,0,0-.15,0H24a2.49,2.49,0,0,1,.61-.08c.44.07.88.18,1.31.28h-.2c-.23,0-.46,0-.68.09a9,9,0,0,0-1,.39c-.17.08-.39.16-.47.31-.16.3-.48.38-.66.63h0l.46-.41v-.07l-.2.08a4.77,4.77,0,0,1-.6.51c-.38.21-.79.37-1.18.56a.17.17,0,0,0-.05.12c.09.09,0,.11-.05.12L21,68.7a7,7,0,0,1-1,.35,2.7,2.7,0,0,0-1.26.69c0,.05-.06.12-.1.18s.2,0,.24,0a2.48,2.48,0,0,1,1.39-.59,1.38,1.38,0,0,0,.56-.19l.94-.54L23,67.88c.41-.23.8-.48,1.22-.68A5.25,5.25,0,0,1,25,67a2.82,2.82,0,0,1,1-.15h2.19a7.22,7.22,0,0,1,.8-.08c.69,0,1.37.07,2.06.1h.66a.26.26,0,0,1-.15.12,8.84,8.84,0,0,0-2.12.66,2.25,2.25,0,0,1-1.08.21H26.64a5.23,5.23,0,0,1-.56,0,9.84,9.84,0,0,0-1.33-.15,3.46,3.46,0,0,0-1,.28c-.49.2-.95.44-1.43.66-.18.09-.37.15-.55.24s-.07.1-.11.15h.18l.59-.27v.06L22,69l-.14.12.15.07a2.35,2.35,0,0,0-.32.23.22.22,0,0,1-.07.16.38.38,0,0,0,.15,0l.36-.21c.07.06.13.14.18.13a7.94,7.94,0,0,0,1.07-.26c.34-.11.64-.31,1-.43a10.93,10.93,0,0,1,1.12-.31,1.13,1.13,0,0,1,.26,0,5.22,5.22,0,0,0,1.67.17h.15v.08c-.45.11-.91.24-1.37.34a2.85,2.85,0,0,1-.82.11,3,3,0,0,0-1.22.11c-.48.17-1,.32-1.45.45a6.7,6.7,0,0,1-1.1.06h-.17c-.35.1-.71.17-1.06.3a5.4,5.4,0,0,0-1.85.94.22.22,0,0,1-.06.15h.14a3,3,0,0,1,.45-.35A9.66,9.66,0,0,1,21.3,70a2,2,0,0,1,.35,0h.84c.2,0,.4-.08.6-.14l-.49.27v.07h.15a4.87,4.87,0,0,1,.57-.24h.51a5.36,5.36,0,0,0,.7-.1,5,5,0,0,1-.64.26,4.37,4.37,0,0,0-1.23.37,1.83,1.83,0,0,1-.32.14L21,71c.24.23.23.23.42.08a.51.51,0,0,1,.23-.12c.27-.07.55-.11.82-.18a5.75,5.75,0,0,0,.71-.2c.27-.11.51-.28.78-.39a2.74,2.74,0,0,1,1.82-.3,3,3,0,0,0,1.39,0,2.91,2.91,0,0,0,.7-.19h.29c.18-.08.34-.18.51-.27l1.48-.71c.19-.09.39-.16.59-.24h0c-.13.09-.24.18-.37.26l-1.08.62a2.17,2.17,0,0,1-.35.15,7.38,7.38,0,0,0-2.21,1.1,2.88,2.88,0,0,1-1.77.57H23.74a6.63,6.63,0,0,0-1.4.18,5.47,5.47,0,0,1-1.51.06c-.35,0-.71-.08-1.06-.11a.75.75,0,0,0-.66.26c.31-.06.62-.23,1,0a4,4,0,0,1-.43.29c-.28.14-.57.26-.85.39a.21.21,0,0,0-.08.11h.14a4.13,4.13,0,0,1,.77-.35c.28-.08.45-.33.78-.36a2.46,2.46,0,0,1,1.08,0l-1,.56a3.35,3.35,0,0,0-.45.27.25.25,0,0,1-.05.15.33.33,0,0,0,.14,0c.44-.25.88-.53,1.34-.76a1,1,0,0,1,.57-.14,1.58,1.58,0,0,0,.57-.08c.17,0,.35-.08.53-.1l.88-.09h.52a.24.24,0,0,1-.13.11,6.36,6.36,0,0,0-2.2,1,4.15,4.15,0,0,1-1.17.54,2.6,2.6,0,0,0-.82.48v.16h.07a.91.91,0,0,1,.18-.21,1.66,1.66,0,0,1,.51-.31,3.38,3.38,0,0,0,1-.42c.15-.1.32-.18.47-.27a2.5,2.5,0,0,1-.39.34S22,73,22,73a.22.22,0,0,1-.12.22.32.32,0,0,0-.16.13c0,.05,0,.08-.05.12s.09,0,.12,0a8.31,8.31,0,0,0,1-.77,1.7,1.7,0,0,1,.63-.35c.42-.16.87-.29,1.3-.43.24-.08.47-.18.74-.28a1,1,0,0,1,0,.25,2.08,2.08,0,0,1-.8,1.11c-.27.19-.51.42-.76.63v.12s.11,0,.14,0,.18-.18.29-.26L25,73l.05.06c-.09.15-.19.3-.27.46s0,.1,0,.16l.12-.08c.09-.16.16-.32.25-.47s.12-.1.18-.15h0l-.25.45a.38.38,0,0,0,0,.15h.13a.39.39,0,0,0,.08-.1c.23-.37.45-.75.69-1.11a1.7,1.7,0,0,1,1-.65,3.6,3.6,0,0,0,.78-.27,7,7,0,0,0,.59-.49,5.6,5.6,0,0,1,.61-.38,1.43,1.43,0,0,1,.27-.09,4.9,4.9,0,0,1,.84-.29,1.84,1.84,0,0,0,1.2-.7.46.46,0,0,1,.72,0c.11.2.25.37.35.57a2.28,2.28,0,0,1,.21.51,2.7,2.7,0,0,0,.14.56c.06.12.18.21.08.36s0,.07,0,.11l.09-.06a.16.16,0,0,0,.06-.08l.06.17H33l.13-.29a1.13,1.13,0,0,1,0,.26.68.68,0,0,0,.08.24s.1-.09.11-.14a1.31,1.31,0,0,0,0-.28v-.35c0-.11.08-.08.09-.08a6.29,6.29,0,0,1,.67.37c.26.18.49.39.76.61v-.18a2.3,2.3,0,0,0-.46-.42c-.27-.18-.57-.33-.87-.49a.5.5,0,0,0-.24-.09s-.08.13-.12.18a2.56,2.56,0,0,0-.15-.55l.27.17a2.48,2.48,0,0,0,.88.46.87.87,0,0,1,.31.1c.24.15.46.33.68.5h.09v-.11s0-.13-.06-.15a3.71,3.71,0,0,0-.82-.47,4.26,4.26,0,0,1-.85-.36,2.3,2.3,0,0,1-.8-1A4.08,4.08,0,0,1,33,70a1.53,1.53,0,0,0,.26.31,10.11,10.11,0,0,0,1.48.72c.22.13.52.1.68.36h.24a.54.54,0,0,0-.3-.31c-.53-.22-1.07-.42-1.6-.65a1.7,1.7,0,0,1-.5-.38c-.16-.16-.29-.34-.43-.51l-.12-.14v-.07c.31.08.62.14.92.25a6.89,6.89,0,0,1,.73.34l1,.37a1,1,0,0,1,.12.16.12.12,0,0,1,0,.11h.14a.17.17,0,0,0,0-.14,1.07,1.07,0,0,0-.18-.19,1.71,1.71,0,0,0-.23-.13c.26,0,.56,0,.63.38h.1s0-.2,0-.24a1.18,1.18,0,0,0-.39-.23l-1.1-.38c-.36-.13-.7-.29-1.06-.4s-.34-.16-.14-.41a.41.41,0,0,1,.13-.1q.36-.16.72-.3a1,1,0,0,0,.39-.14,1.39,1.39,0,0,0,.27-.21V68h-.08c-.09.2-.29.17-.45.23-.4.16-.79.34-1.2.52.08-.07.14-.17.23-.21l1.36-.6A.37.37,0,0,1,35,68a2,2,0,0,0,1.07.56,1.79,1.79,0,0,1,.67.27,1.91,1.91,0,0,0,.76.36,3,3,0,0,1,1.34.65,2,2,0,0,0,.58.37c.38.15.79.25,1.18.37s.78.22,1.16.35a1,1,0,0,1,.45.25,1.69,1.69,0,0,1,.27,1.16.76.76,0,0,0,.06.47,6.55,6.55,0,0,0,.45.59.92.92,0,0,0,.24.28.3.3,0,0,1,.18.34,1,1,0,0,0,.35.73c.22.26.49.48.47.87a.19.19,0,0,0,.07.14c.07,0,.08-.09.09-.14a.86.86,0,0,0-.27-.66c-.4-.52-.52-.41-.58-1.23.08.14.15.28.22.43a.24.24,0,0,0,.12.17c.25.09.5.16.75.24l.47.15v.06H45l-.7-.2h-.21c0,.06,0,.14.06.18a5.74,5.74,0,0,0,.5.36c.2.14.42.26.63.39l.16.06c0-.06,0-.14,0-.16-.21-.15-.44-.28-.66-.41l-.4-.25h0a.64.64,0,0,0,.19.08l1.11.28h.1v-.07a.83.83,0,0,0-.25-.26,7.46,7.46,0,0,0-.89-.35c-.37-.11-.73-.19-.79-.68,0-.18-.21-.35-.3-.53s-.46-.52-.4-.9a2.47,2.47,0,0,1,.13-.52h.06c0,.13.11.26.15.4a3.48,3.48,0,0,0,.29.82,4.56,4.56,0,0,0,1.54,1.32,14.45,14.45,0,0,1,1.39.77c.42.31.89.55,1.33.82h.1l.12-.06a.08.08,0,0,0-.07-.08l-.44-.23a4.31,4.31,0,0,1-1.17-.77,3.67,3.67,0,0,0-.6-.36L45.3,74a4.6,4.6,0,0,1,1.09.34,3.93,3.93,0,0,0,1.12.34,6.59,6.59,0,0,1,1.08.28L49,75v-.08a6.5,6.5,0,0,0-1.78-.47v-.78c0-.08-.08-.15-.13-.23l-.15.11h-.07l-.66-1-.09.19-.35-.38H46a.71.71,0,0,0,.28.09h.06c.06,0,.11.14.17.19a7.47,7.47,0,0,0,.85.63c.35.19.75.28,1.11.47a10.9,10.9,0,0,0,1.58.54h.12a.21.21,0,0,0-.08-.11h-.18c-.59-.23-1.17-.49-1.78-.69A4,4,0,0,1,47,72.92c-.24-.17-.43-.41-.67-.58-.42-.31-.86-.59-1.28-.88l-.54-.41h.4l.67.11a1,1,0,0,1,.23.11l.65.32a.58.58,0,0,1,.26.11c.55.43,1.09.88,1.65,1.31a9.91,9.91,0,0,0,.85.59,2.73,2.73,0,0,0,.54.27,2.11,2.11,0,0,0,.5.1.15.15,0,0,0,.12-.07v-.07c-.34.09-.58-.11-.85-.23a3.59,3.59,0,0,1-.88-.54c-.51-.45-1-.85-1.58-1.28v-.14c.16,0,.42,0,.46.15a1.83,1.83,0,0,0,.42.5,4.4,4.4,0,0,0,1.32.74h.16c-.3-.19-.61-.32-.9-.47a1.33,1.33,0,0,1-.72-.62c.24.06.49.14.75.18a.38.38,0,0,1,.21.07l1,.78a.66.66,0,0,0,.28,0,.11.11,0,0,0,.07-.06v-.06c-.22,0-.31-.16-.46-.26s-.51-.33-.76-.51a.45.45,0,0,1-.2-.27c0-.3-.28-.4-.44-.58L48,71a.7.7,0,0,0-.17-.13c-.18-.07-.37-.12-.56-.18v-.08l.88.34c.08,0,.2.12.18-.09h.09a6,6,0,0,0,1.27.09,2.48,2.48,0,0,1,.94,0c.3.07.65,0,.91.29-.07,0-.15.1-.2.09a2,2,0,0,1-.4-.16s-.07-.06-.11-.06l-.62.08c-.16,0-.21.1-.16.25h0c-.11-.08-.32-.09-.19-.31,0,0-.08-.07-.09-.06a.79.79,0,0,0-.15.12v-.13a3.38,3.38,0,0,0-.42-.13c-.12,0-.21.08-.36.08-.3,0-.35.22-.16.47a.71.71,0,0,1,.1.14,2.16,2.16,0,0,0,1.33,1.13l.36.09a.18.18,0,0,1-.07,0h-.2l.17.08a4.24,4.24,0,0,0,.5.18c.24.07.48.1.71.15v-.11l-.48-.14.17-.07s-.05-.08-.08-.09a8.78,8.78,0,0,0-1-.29,2.2,2.2,0,0,1-1.47-1.35,2.25,2.25,0,0,1,.36.06,2.66,2.66,0,0,1,.82.28,5.68,5.68,0,0,1,.77.78,1.25,1.25,0,0,0,.23.23,2.75,2.75,0,0,0,1,.41h.18a.24.24,0,0,0-.11-.09,1.8,1.8,0,0,1-1.2-.68,2,2,0,0,0-.24-.26L50,71.43h.07a1,1,0,0,1,1,0,6.71,6.71,0,0,0,1.58.8c.3.1.61.17.91.24a.19.19,0,0,0,.15-.08.31.31,0,0,0-.11-.09c-.34-.08-.69-.16-1-.26a3.28,3.28,0,0,1-.59-.23c-.19-.09-.37-.21-.56-.31v-.06a4.59,4.59,0,0,1,.51.1c.3.07.59.16.88.24a.25.25,0,0,0,.15,0s-.06-.09-.1-.11l-.3-.09-1-.25h.14l.88.17.63.17a.09.09,0,0,0,.1,0v-.09a1.42,1.42,0,0,0-.29-.1,5.34,5.34,0,0,1-1.57-.4,2.85,2.85,0,0,0-.39-.11,5.47,5.47,0,0,1-.58-.15,1.42,1.42,0,0,1-.3-.25l-.39-.4c.34.09.61.16.88.25a4.11,4.11,0,0,1,.44.18c.15.06.28.2.5.08a1.37,1.37,0,0,1-.32-.16c-.07-.07-.24-.1-.15-.28l.24.12,1,.55a.45.45,0,0,0,.23,0h0a.09.09,0,0,0,0-.07,4.24,4.24,0,0,1-.5-.18c-.29-.16-.57-.34-.85-.5a1.75,1.75,0,0,1,.56,0,8.18,8.18,0,0,1,1.56.16.11.11,0,0,0,.08,0c.08-.12.15-.08.24,0s.09,0,.13,0,0-.11,0-.12a2.58,2.58,0,0,0-.54-.23c-.46-.1-.93-.19-1.4-.25a2.89,2.89,0,0,0-.72,0,4.21,4.21,0,0,1-1.89-.31c-.45-.15-.89-.3-1.33-.47-.18-.07-.41-.09-.52-.31l.92-.07a1.87,1.87,0,0,1,.66.15,4,4,0,0,0,.84.1c.63.07,1.25.16,1.88.21a3.11,3.11,0,0,1,1.22.38,4.12,4.12,0,0,0,.66.34,10.4,10.4,0,0,0,1.08.23h.16l-.14-.08-1-.2V69.5h1a.17.17,0,0,1,.06-.13h0l.16-.13h-.42a5.81,5.81,0,0,1-.59,0,2.32,2.32,0,0,1-.59-.07,4.42,4.42,0,0,1-.6-.34.8.8,0,0,1,.16-.08,3.7,3.7,0,0,1,1.58-.19.79.79,0,0,0,.16-.12s-.07-.14-.1-.14H53.22c-.44,0-.59.13-.89.13a13.55,13.55,0,0,1-1.43-.08,4.22,4.22,0,0,1-.87-.19c-.35-.11-.69-.27-1.05-.39a2.34,2.34,0,0,0-.45-.07,1.22,1.22,0,0,0-.27,0,2.76,2.76,0,0,1-.57.06,4.17,4.17,0,0,0-1.32,0,2.3,2.3,0,0,1-.74,0,6.8,6.8,0,0,1-.89-.22c-.49-.13-1-.27-1.47-.43-.16-.06-.27-.24-.42-.31-.39-.16-.79-.29-1.19-.43a.77.77,0,0,0-.37,0,3.23,3.23,0,0,1-1.24,0c-.6-.15-1.22-.23-1.83-.36a.61.61,0,0,1-.46-.19,2.81,2.81,0,0,1-.44-1c-.12-.73-.16-1.46-.22-2.2v-1c0-.31-.07-1-.09-1.5,0-.27,0-.53,0-.8a4.57,4.57,0,0,0,0-.74V55c0-1,0-2,.1-3a6,6,0,0,1,.16-1.12c.07-.32.17-.62.27-.93s.15-.41.23-.63c.35.31.45.31.62,0a.26.26,0,0,0,0-.37l0,0a.43.43,0,0,1-.1-.29l.14-.18c.23-.07.29-.13.27-.32V48.1c.11-.16.23-.29.35-.44a.49.49,0,0,0,.47-.51s0,0,0-.07c.4-.45.81-.88,1.25-1.29l.11-.1c.24-.2.49-.39.74-.57h.06a.23.23,0,0,1,.1.07l.06-.13a.29.29,0,0,1,.15-.2,3.49,3.49,0,0,0,.4-.18c.13-.06.26-.17.18-.35h0a1.84,1.84,0,0,0,.17.22l-1.21,1v.06h.19c.15-.09.29-.19.43-.29h.06c.17.06.15,0,.12-.14a.29.29,0,0,1,.25-.33h.11l.09-.17c0,.09,0,.2-.08.22a.22.22,0,0,0-.2.24.09.09,0,0,0,0,0,.34.34,0,0,1-.13.28.3.3,0,0,0,.08.48h.26a.17.17,0,0,1,0,.1,2,2,0,0,1,0,.35v.08l.18.23.11-.19v-.18c0-.16.17-.15.29-.16s0,.21,0,.26v.23a.28.28,0,0,0,.39.06l.06-.06a1.29,1.29,0,0,0,.22-.3c.09-.17.06-.29-.14-.38a1.28,1.28,0,0,1-.29-.28.17.17,0,0,1,0-.14c.11-.11,0-.17,0-.24l-.2-.15h0l.83-.34v-.11l-.61-.38a.24.24,0,0,1-.06-.11.15.15,0,0,1,0-.13l.4-.22a.27.27,0,0,1-.06.17c-.1.19-.06.25.17.25a.51.51,0,0,1,.12.09s.13.19.22,0h.12s0,.12,0,.15a.58.58,0,0,1-.17.14l-.15.11v.06c.14-.1.34-.1.4-.31v-.12l.07.09c.18.17.4.1.6.08,0,0,.15-.19.12-.23a.12.12,0,0,1,.09-.19c.15,0,.06-.06.09-.1h.11c-.07.2,0,.25.27.25h.11s0,0,0-.06H46a.42.42,0,0,1-.27.16.43.43,0,0,1-.26-.06c-.09-.06-.14,0-.14,0s-.06.24.11.3.27.14.42.19.22,0,.24-.16,0-.43.27-.49c-.1-.1-.17-.14-.22-.14a1.42,1.42,0,0,0,.07-.22c0-.24.1-.31.27-.29h0l.1.14s.1-.1.09-.15h.17a1.21,1.21,0,0,0,0,.38,1.31,1.31,0,0,0,.12.27c.12-.07.2-.1.23-.15s0-.11,0-.17a2,2,0,0,0-.1-.35h.07a2.64,2.64,0,0,1,.38-.18v-.07a.57.57,0,0,1-.26-.76.5.5,0,0,1,.08-.12s.11-.06.17-.07h.6a.57.57,0,0,1-.18.12,1.93,1.93,0,0,1-.34.11l-.08-.15-.11.19v.09s0,.2.07.23a.41.41,0,0,0,.45,0v-.21h.59s.09-.12.08-.17a1.39,1.39,0,0,0-.12-.28h.2a.53.53,0,0,0,0,.25.1.1,0,0,0,.07.09l.06-.07a1,1,0,0,1,.24-.23h.09s.33.2.44-.1a1.11,1.11,0,0,1,.07.76c-.06.21-.15.28-.36.23h-.09l-.15.38c.2.08.39.14.58.23s.06.12.08.19-.14,0-.2,0-.15-.08-.23-.08-.39-.21-.61-.11h0l-.26,0a2.68,2.68,0,0,0,.07.27l.1.15.15-.11-.15-.14h.31L49,44l-.16.11h-.08l.07.09c.24.23.43.2.61-.08a.23.23,0,0,1,.22-.06.13.13,0,0,1,.09.14v.09a1,1,0,0,0,0,.35c0,.06.08.1.13.15l.12-.15v-.13h0a.17.17,0,0,0,.14,0h.13l-.09-.07a.14.14,0,0,1,0-.09h0a.16.16,0,0,0,.23,0h0c.1,0,.23.15.26-.09h.16s.08.09.15.17a2.47,2.47,0,0,1,.1-.29s.07-.13.11-.12.21,0,.23.08a1.13,1.13,0,0,1,0,.26,2.17,2.17,0,0,1-.07.24c.12,0,.24.16.37,0s.2-.18.28-.16a.2.2,0,0,0,.24-.13,1.18,1.18,0,0,1,.11-.19v.17l.08-.07h.22a.22.22,0,0,0,0-.16s-.08-.07-.11-.06a.3.3,0,0,1-.21-.16,1,1,0,0,1-.08-.29.32.32,0,0,1,.06-.23h.07a.23.23,0,0,0,.22.06v-.05H53s.09-.11.08-.13a.62.62,0,0,1-.11-.44h0s.11-.07.12-.11a.67.67,0,0,0,0-.2c0-.15-.06-.31.13-.39h0l.11-.07.08.09h-.17a.58.58,0,0,0,.12.15l.37.13c.14.07.19,0,.18-.12s0-.23,0-.35l.33.11a.2.2,0,0,0,.15,0v-.07h0a.69.69,0,0,1,.1.19h0v.13c-.19.08-.4.15-.6.22l-.4.1.14.1a1,1,0,0,0,.87-.11v.08s.1.11.16.16,0-.12,0-.18v-.15h0v.07l.14.18L55,42.5l-.13-.16a.38.38,0,0,1,.26.09,2.5,2.5,0,0,0,.35.21h.14a.39.39,0,0,0-.1-.08,1.08,1.08,0,0,1-.24-.18h0a1,1,0,0,1,0-.24c0-.13-.11-.23-.18-.34h.36v-.2c-.08-.26,0-.3.23-.32a.88.88,0,0,0,.22-.1v-.06h-.4c-.25,0-.32-.09-.26-.34a.67.67,0,0,0,0-.2.17.17,0,0,0-.05-.12.13.13,0,0,0-.12,0c-.12.11-.23.21-.28-.06l-.1-.09h0v-.07l-.48.12v.06h0s0-.18.08-.22a2.91,2.91,0,0,1,.39-.12.44.44,0,0,0,.48-.39c0-.12.08-.16-.08-.13s-.08-.05-.08-.07a1.74,1.74,0,0,1,.12-.5c0-.16.09-.15.18,0a2.3,2.3,0,0,0,.35.41h.06l-.18.13a4.28,4.28,0,0,1,1.36,2.19h0a2.57,2.57,0,0,0,.12.55c0,.13.12.24.17.36h0a1.69,1.69,0,0,0,.13.31c.08.12.15.25.24.38a3.66,3.66,0,0,1,.28.62l-.09-.07V44c.07.21.15.42.23.63a2.29,2.29,0,0,1,0,.37,1.81,1.81,0,0,1-.06.56l-.06.21a.3.3,0,0,1-.21-.12.57.57,0,0,1,0-.26v-.2a.7.7,0,0,0-.2.08c-.09.09-.16.11-.22,0S57,45,56.91,45a.38.38,0,0,1,0,.15.29.29,0,0,1-.17.24c-.08,0-.12-.11-.12-.2v-.1s0-.06-.06-.09a.16.16,0,0,0-.06.08.21.21,0,0,0,0,.11c.07.16,0,.21-.15.26a.3.3,0,0,0-.22.36v0a.64.64,0,0,1,0,.43v.19h.2a2.39,2.39,0,0,0,.34-.21v.25a.25.25,0,0,0-.2.07c-.1.17-.17.35-.27.54a.71.71,0,0,0,.48-.27c.06.21.25.31.42.42v.06a1.86,1.86,0,0,0,.1.39h-.08a1.36,1.36,0,0,0-.19-.47c-.17.27,0,.68.26.69a.2.2,0,0,0,.16-.07,3.38,3.38,0,0,0-.09-.54c.07,0,.14,0,.14-.12v-.9a.25.25,0,0,1,.17,0c.08.05.12.14.21.25s.1,0,.12.05a.54.54,0,0,1,0,.18.11.11,0,0,0,0,.08H58a.29.29,0,0,0,.06.27c.06-.18.15-.21.3-.15a1,1,0,0,0,.34,0,.11.11,0,0,0,.08,0,1.12,1.12,0,0,0-.11-.25h0s.14-.09.15-.08a.26.26,0,0,1,.09.17.89.89,0,0,1,0,.23h.06c0-.19.1-.16.19-.1l.23.14c.12.1.15,0,.16-.08s0-.3,0-.49a1.37,1.37,0,0,0,.2.13h.18v-.12l-.16-.36c-.07-.18-.18-.21-.35-.14a.2.2,0,0,1-.26.12A.19.19,0,0,1,59,45.9a.61.61,0,0,1,0-.19h.51a.46.46,0,0,1-.23.12h.6l.15-.07-.14-.1h-.13c.09,0,.14,0,.17-.07s.08-.12.07-.13-.19-.17-.25-.15-.26.19-.24.24h0l-.16-.09a.27.27,0,0,0-.22-.16c-.18,0-.23.13-.28.25h0v.24a.11.11,0,0,1,0,.11.15.15,0,0,1-.13,0c-.15,0-.1-.15-.06-.25a1.72,1.72,0,0,0,.07-.21.15.15,0,0,0,.12-.16h0s.15-.11.17-.09.32,0,.48,0,.53-.06.79-.07l.15.1a3.37,3.37,0,0,1,.32.19.81.81,0,0,1,.07-.22c0-.07,0-.09.07-.09s0,0,0,.08,0,.09-.08.14v.14h.12c.12,0,.17,0,.18-.16v-.23h.18c.12.17.25.09.36,0a1.33,1.33,0,0,0,.23-.3v-.11a.55.55,0,0,0,0-.31.09.09,0,0,1,0-.07h0c-.09.22,0,.24.29.23h.09s0,0,.07-.07,0,0-.06,0-.11,0-.1-.1a.71.71,0,0,0,0-.15.39.39,0,0,1,.32.13.15.15,0,0,1,0,.13c-.09.15-.07.31,0,.37a.94.94,0,0,0,.47,0,.44.44,0,0,0,.08-.17c0-.24.06-.34.28-.27l.2,0a.18.18,0,0,0,.22-.13.14.14,0,0,0,0-.09.77.77,0,0,0-.17-.38.53.53,0,0,0-.32-.1l-.11.16s-.1.08-.11.07a1.29,1.29,0,0,1-.17-.16.12.12,0,0,0,.08-.13.49.49,0,0,1,0-.17h.3a1.47,1.47,0,0,0-.1-.22h0v-.14l.06.07v.09h0v.12a.52.52,0,0,0,.11-.1h0l.37-.21a.06.06,0,0,0,0-.06v-.17c0-.05-.12-.23-.26-.1a1.43,1.43,0,0,0-.16.24l-.07-.15v-.06h0v-.09a2.21,2.21,0,0,1,.34-.18l.5-.18S64,42.3,64,42.3s0-.22,0-.3a.24.24,0,0,1,.22-.2c.13,0,.2,0,.13-.21s0-.2.11-.29.14,0,.21,0H65c.06,0,.25-.1.34.07s.08.07.13.1.1-.1.11-.16a.68.68,0,0,0-.1-.46.38.38,0,0,0,.14-.38h-.09l-.12.08-.13.1a.34.34,0,0,0-.2,0,1,1,0,0,0-.26.19h-.1a.16.16,0,0,0-.12.06V41h0l-.12.13a.48.48,0,0,1-.08-.16.81.81,0,0,1,0-.22v-.23h0a1.56,1.56,0,0,1,.2-.16,1,1,0,0,1,0,.25c0,.14.08.17.14.14a2.91,2.91,0,0,0,.37-.33l-.08-.06h.65a.6.6,0,0,1,.12-.74s-.12-.09-.12-.13c0-.33-.23-.51-.43-.71l-.16-.1a.49.49,0,0,1-.06.17c0,.06-.09.14-.14.15a1,1,0,0,1-.34,0,.38.38,0,0,1-.17-.08.61.61,0,0,0-.65-.16c-.1,0-.17,0-.19-.07a1.11,1.11,0,0,1,0-.26.51.51,0,0,1,.3,0H64v-.08c-.11-.17-.16-.4-.42-.41a.16.16,0,0,1-.13-.08c-.06-.09.08-.49.17-.56l.07-.09a.17.17,0,0,0-.1,0c-.22.07-.36-.09-.54-.18s-.21-.35-.46-.27c0,0,0-.09,0-.1a6.12,6.12,0,0,1,.39-.5s.18,0,.19.08,0,.25.24.17a.13.13,0,0,1,.1.05.7.7,0,0,0,.64.11.57.57,0,0,1,.26,0,.76.76,0,0,0,.07.29c0-.18.16-.35.11-.42a2.06,2.06,0,0,0-.45-.48.79.79,0,0,1,.14-.23c.08-.1,0-.16,0-.19h-.17l.3-.43h0a1,1,0,0,0,.07.45h.06l.06,0V36a.26.26,0,0,0,.21,0l.79-.22a3.69,3.69,0,0,1-.29-.4,1.38,1.38,0,0,1-.08-.29.81.81,0,0,0,.37-.12h-.08c.1,0,.19-.06.13-.19-.15-.4-.08-.53.35-.62h.09a.27.27,0,0,0-.08-.07,1.64,1.64,0,0,1-.25-.21.74.74,0,0,1-.14-.22,1.13,1.13,0,0,1,0,.26,1.89,1.89,0,0,1-.11.25c-.08-.07-.21-.14-.23-.22s-.06-.46.22-.58l-.11-.06a.58.58,0,0,0,0-.32l-.22.18h-.08l.21-.18a.81.81,0,0,0-.29.12L64.94,33a.7.7,0,0,0,.58-.58A.81.81,0,0,1,65.6,32s-.08.06-.13.05a.66.66,0,0,0-.58.25h0a.16.16,0,0,0-.13-.17h0a.58.58,0,0,1,.33-.14h.3c-.13-.12-.22-.19-.29-.27a.21.21,0,0,1,0-.19c.12-.24.12-.24-.15-.24h-.09c-.16,0-.23-.07-.19-.24s0-.08,0-.12a.21.21,0,0,0-.13,0c-.16.18-.32.36-.47.55s-.18.15-.3,0a.42.42,0,0,0-.14-.09c-.12-.06-.23-.12-.29.08a3,3,0,0,1-.17.41c-.25-.28-.25-.38-.06-.67A1.45,1.45,0,0,0,63.2,31a1.26,1.26,0,0,1,.16-.33h.2a.55.55,0,0,0-.2.17v.12s.09,0,.12,0a.52.52,0,0,1,.38.15,4.43,4.43,0,0,0,.29-.42.12.12,0,0,0,0-.14.36.36,0,0,0-.25,0v-.14l.45-.54c-.18.09,0-.16-.11-.18H64a3.16,3.16,0,0,0-.52.17c-.07,0-.1.14-.16.15-.26.08-.11.2,0,.31s.07.07.06.09a3.55,3.55,0,0,1-.21.44.48.48,0,0,1-.14.06s-.06-.08-.06-.12v-1a.36.36,0,0,0-.09-.24.62.62,0,0,0-.14-.28h0a.69.69,0,0,0,.13-.11h0s.16,0,.21.11a.5.5,0,0,0,.71,0l0,0h-.14c-.29,0-.44-.14-.47-.31a.89.89,0,0,1,.23,0,.81.81,0,0,0,.31,0l.26-.06c.2,0,.28.06.25.26a.21.21,0,0,0,0,.11.27.27,0,0,1,.08-.07s.06-.1.07-.09a.2.2,0,0,1,.12.08l.08.11-.09.19c0,.05.09.15.15.22l.32-.29-.14-.22.42-.59a.37.37,0,0,0,0-.11,4.51,4.51,0,0,1,0-.52c0-.16,0-.41.26-.43a.06.06,0,0,0,.06-.07c0-.07,0-.05-.07-.06s-.26-.23-.31-.4.14-.31.25-.44.19-.08.3,0a.25.25,0,0,0,.17,0,.17.17,0,0,0,0-.1.15.15,0,0,0-.11-.13s-.13,0-.15-.07h.13c.06,0,.11-.07.23-.14a.83.83,0,0,0-.22-.08l-.14.05a.23.23,0,0,1,.28-.22c.15,0,.22,0,.14-.15s0-.11,0-.16a.36.36,0,0,1,.17.07s0,.11.06.15a.18.18,0,0,0,.1.11s.12,0,.12-.05a.21.21,0,0,0,.21-.23.21.21,0,0,0-.22-.21Zm-1.94-3.48h.16a.33.33,0,0,1-.12.29h-.08a.13.13,0,0,1-.09-.07v0C64.52,22.08,64.56,22,64.59,21.92ZM14.53,10.43a.43.43,0,0,1-.22-.06l-.24-.11a.28.28,0,0,0-.18-.21.51.51,0,0,1,.18-.09c.13,0,.27-.09.12-.27V9.57h.1v.08s0,.08.05.09a.35.35,0,0,1,.16.18h-.06s-.18.16-.16.18a1,1,0,0,0,.23.24S14.55,10.42,14.53,10.43Zm-1.94,4.74h0v-.24h0ZM5.74,40.05h0c0-.15-.12-.19-.31-.19,0,0-.09.07-.09.11a.34.34,0,0,0,.12.26v.19a.15.15,0,0,1-.25.09H5.14L5,40.37H5l-.06-.1h.29V40c0-.08.29-.08.21-.3h.11c.22,0,.27.15.34.3Zm3.2-20.74c0-.09.09-.17.12-.25S9,18.93,9,18.87H9v-.06c0-.06.06-.1.11-.19a1.89,1.89,0,0,0,.05.23C9.17,19.09,9.1,19.24,8.94,19.31Zm1.25,25.23H9.85v-.17h.06c0,.06.08.14.14.17a.34.34,0,0,0,.17.05Zm-.28-.42.25-.15c.12-.07.14,0,.16.1A.3.3,0,0,1,9.91,44.12Zm1.42,1.1a.19.19,0,0,1-.25.06.2.2,0,0,1-.08-.12.43.43,0,0,0-.31-.23l.15-.08-.08-.17a.34.34,0,0,0,.12-.12A.14.14,0,0,1,11,44.5c.12.06.28.1.35.2h0v.1A.4.4,0,0,1,11.33,45.22Zm4.39-31.57c-.18.17-.37,0-.6,0l.21-.15.14-.13h-.22a.36.36,0,0,0-.47-.23h0c.07-.06.17-.05.34,0a.38.38,0,0,0,.45-.07.85.85,0,0,1-.11-.26c0-.06.08-.12.13-.17h.07a.61.61,0,0,0,.11.54,1.13,1.13,0,0,1,0,.26S15.76,13.61,15.72,13.65ZM19,46.85v.06l-.14-.21a.56.56,0,0,1,.31.19ZM20.18,4.72c0,.23-.13.25-.3.24h0l-.16.12L19.62,5V4.8l.55-.48A1.54,1.54,0,0,1,20,4.13h0V4h.16v.24C20.18,4.42,20.17,4.57,20.18,4.72ZM22.3,46.31l-.2.14H22v-.06a.53.53,0,0,0,.22-.4h0a.47.47,0,0,0,.23-.05C22.41,46.12,22.16,46.13,22.3,46.31Zm17.45-.1c-.11.13-.24.25-.36.37l.36-.47h0a.27.27,0,0,1,.08-.07Zm.16-.16a.21.21,0,0,1,0-.11h0v-.13a4.81,4.81,0,0,1,.9-.79l-.39.34v0l.71-.55a.11.11,0,0,1,.08.08h0A9.78,9.78,0,0,0,39.91,46.05Zm4.18-2.86h0Zm-.16.65.17-.07v.06h.14a.88.88,0,0,1-.12.32c-.12,0-.12-.15-.21-.15s-.21,0-.13-.22,0-.18-.05-.27l-.2.05h-.08c-.14-.25,0-.37.23-.48L43.46,43c-.09-.06-.2-.12,0-.22s.19-.1.26,0a.79.79,0,0,1,.13.33v.09c-.11,0-.14.15,0,.26s.2.17.33,0a.44.44,0,0,0,.08-.11h.06l-.09.21h0l-.24.1Zm.61.09h-.06v-.11l.18-.07h.19Zm5.2-39.81A.5.5,0,0,1,50.08,4c.08,0,0,.07,0,.1h.09l.08.06h0a.36.36,0,0,1-.42.06.22.22,0,0,0-.16,0l-.13.06A.45.45,0,0,1,49.74,4.12Zm.51.86L50,5.12V4.84a.09.09,0,0,0,0-.07V4.62l-.14.07c-.09.07-.18.1-.24,0h0A2.67,2.67,0,0,0,50,4.38a1.67,1.67,0,0,0,.28.25h0v.15s.11.12,0,.22Zm4.14,35.48c.1,0,.17-.15.24-.24v.05a1.41,1.41,0,0,1,0,.29c0,.06-.11.14-.17.13s-.09,0-.13-.1h0l-.11-.22S54.32,40.48,54.39,40.46Zm7.47-11h0a.27.27,0,0,1-.18-.11.56.56,0,0,0,.17-.36h-.23c0-.11.08-.15.17-.06h.05a.63.63,0,0,0,.27.1c-.11.13-.11.25-.25.38Zm2.87,5.35h0a.15.15,0,0,1,0,.16h0a.17.17,0,0,1,0-.21Zm-.81.72.18.09h0l-.21-.08Zm-.71-11.61A.46.46,0,0,1,63,23.3a.44.44,0,0,1,.08-.11c.12.06.26.17.34.14h0c-.17.06-.19.21-.23.35a.22.22,0,0,0,.15.26.33.33,0,0,1-.13-.07Z" fill="#fff"></path><path d="M58.93,47.15c-.06.05-.11.23-.08.26a3,3,0,0,0,.4.3v-.06a1.47,1.47,0,0,0-.1-.4.17.17,0,0,0-.2-.11Z" fill="#fff"></path><path d="M65.15,41.41c-.14,0-.3.11-.45.33a.64.64,0,0,0-.06.18.53.53,0,0,0,.25,0,.46.46,0,0,0,.18-.13c.11-.13.18-.07.24,0s0,.07,0,.11,0,.06.07,0,0,0,.07-.06S65.32,41.42,65.15,41.41Z" fill="#fff"></path><path d="M3.4,40.19a2.07,2.07,0,0,0-.15.34l.17.18.29-.19Z" fill="#fff"></path><path d="M10.86,46.76a.32.32,0,0,0-.14.14.49.49,0,0,0,.11.14l.27.13c.12,0,.18,0,.16-.1S11,46.71,10.86,46.76Z" fill="#fff"></path><path d="M13.11,47.18a2.16,2.16,0,0,1-.33-.27c-.11-.11-.19-.09-.27,0a2,2,0,0,0-.14.25.11.11,0,0,0,0,.11.13.13,0,0,0,.12,0,1.28,1.28,0,0,0,.15-.25C12.86,47.23,13,47.26,13.11,47.18Z" fill="#fff"></path><path d="M21.56,47a1.24,1.24,0,0,0-.18.22c.1.13.21.24.32.36.06-.1.19-.22.17-.29S21.69,47.09,21.56,47Z" fill="#fff"></path><path d="M28.24,49.57s-.06,0-.06.08l.06.23a1.64,1.64,0,0,1,.14-.22c.05-.06.13-.13.19-.13s.09.11.14.17.1-.18,0-.29-.14-.17-.22-.25-.07,0-.11,0,0,.07,0,.1S28.42,49.52,28.24,49.57Z" fill="#fff"></path><path d="M51.94,44.83h-.19a.34.34,0,0,0-.14.15v.14a.49.49,0,0,0,.17,0,1.31,1.31,0,0,0,.27-.12.72.72,0,0,0,.32-.25.41.41,0,0,0-.1-.3.11.11,0,0,0-.11,0,.2.2,0,0,0-.11.11.13.13,0,0,0,0,.12l.16.1v.08Z" fill="#fff"></path><path d="M52.47,43.64c0,.2.15.22.32.26l.1-.09c-.08-.13,0-.36-.2-.39a.19.19,0,0,0-.22.15Z" fill="#fff"></path><path d="M62.55,45.34c0,.06.12.2.19.2a1.35,1.35,0,0,0,.32-.14v-.08a1.15,1.15,0,0,0-.33-.21S62.56,45.26,62.55,45.34Z" fill="#fff"></path><path d="M63.75,36.68s-.14,0-.14.07a.29.29,0,0,0,.07.18h.15c.23.08.4-.12.64-.1a.81.81,0,0,0-.66-.48v.07l.24.13a.69.69,0,0,1,.13.11.49.49,0,0,1-.17,0Z" fill="#fff"></path><path d="M64.88,35.68a5,5,0,0,0-.16.55s.09.11.12.1l.37-.13.11-.05c-.11-.21-.18-.35-.27-.49A.25.25,0,0,0,64.88,35.68Z" fill="#fff"></path><path d="M20.13,68.75a3.86,3.86,0,0,0,1.39-.57l.1-.12h-.16a1.77,1.77,0,0,0-.5.06,5.7,5.7,0,0,0-1.16.17c-.38.08-.67.23-1,.29a2.65,2.65,0,0,0-1,.58v.13s.11,0,.14,0a3,3,0,0,1,1.18-.64,7,7,0,0,1,1.43-.29,3.75,3.75,0,0,0,.57-.09v0a1.63,1.63,0,0,1-.45.24,6.17,6.17,0,0,0-1.44.51,4.44,4.44,0,0,0-1,.77.24.24,0,0,1-.06.16h.06l.16-.15a2.54,2.54,0,0,1,.88-.68A6.84,6.84,0,0,1,20.13,68.75Z" fill="#fff"></path><path d="M20.77,70.91a.2.2,0,0,1-.07.15h.15c.17-.1.34-.19.5-.3l1-.65.08-.14s-.09,0-.13,0c-.48.08-1,.14-1.44.24a6.7,6.7,0,0,0-1.06.3,2.44,2.44,0,0,0-1.11.59.34.34,0,0,0-.06.12h.15s.28-.22.43-.29a6,6,0,0,1,1.94-.6,7.6,7.6,0,0,0,.83-.16v.08l-.37.25C21.38,70.57,21.07,70.73,20.77,70.91Z" fill="#fff"></path><path d="M47.68,74.89l-.77-.23c.1.23.3.25.46.29a2.63,2.63,0,0,1,1.07.43h.06v-.09a.37.37,0,0,0-.15-.13C48.16,75.07,47.92,75,47.68,74.89Z" fill="#fff"></path></svg> 