<svg width="278" height="58" viewBox="0 0 278 58" fill="none" xmlns="http://www.w3.org/2000/svg">
<g clip-path="url(#clip0_2015_5597)">
<path d="M153.867 49.6464C153.867 48.6636 154.658 47.9144 155.602 47.9144C156.547 47.9144 157.379 48.6717 157.379 49.6464C157.379 50.6211 156.547 51.4186 155.602 51.4186C154.658 51.4186 153.867 50.6292 153.867 49.6464Z" fill="white"/>
<path d="M58.9988 41.5344C60.9283 41.3089 61.6387 41.0028 61.6387 39.1581V21.9353C61.6387 20.0906 60.9202 19.7844 58.9988 19.5589V18.8419C61.6064 18.9547 64.4724 18.9547 67.08 18.8419V19.5589C65.1505 19.7844 64.4401 20.0906 64.4401 21.9353V39.0856C64.4401 40.9303 65.199 41.3492 66.3292 41.3492H67.4998C71.6898 41.3492 73.0138 40.7128 75.016 36.7172H75.7345C75.1694 38.7875 74.9433 40.4147 74.6769 42.2594H58.9988V41.5425V41.5344Z" fill="white"/>
<path d="M92.4056 38.7794H93.2775C92.4056 40.9625 90.0321 42.6622 86.7059 42.6622C81.7974 42.6622 78.3179 39.0453 78.3179 32.8989C78.3179 26.7525 81.3776 23.0228 86.2538 23.0228C89.919 23.0228 93.3905 25.1333 93.3905 29.8781C93.3905 31.4247 93.0111 32.2544 91.8001 32.2544H81.3776C81.5633 37.8289 83.8319 41.6392 87.7958 41.6392C89.4185 41.6392 91.4933 40.9625 92.4056 38.7714M81.3776 31.4731H90.4438C90.8959 26.6478 89.2005 23.7478 85.947 23.7478C82.9599 23.7478 81.418 26.3094 81.3776 31.4731Z" fill="white"/>
<path d="M95.9175 45.2239C95.9175 43.7578 96.7087 42.5092 97.9924 42.5092C98.7512 42.5092 99.4617 42.8153 99.4617 43.6772C99.4617 44.3942 99.0499 44.9983 99.0499 45.9408C99.0499 47.8258 100.6 49.2919 104.338 49.2919C108.528 49.2919 110.756 47.5197 110.756 45.1111C110.756 42.9603 109.053 42.775 104.596 41.9856L100.14 41.2283C97.4192 40.7772 96.2889 39.4561 96.2889 37.99C96.2889 36.1453 98.1054 35.0497 100.366 35.2753C98.7755 34.7436 96.9671 32.7539 96.9671 29.7008C96.9671 26.3497 99.2356 23.0308 104.104 23.0308C107.163 23.0308 108.786 24.4244 109.803 25.2944C109.916 24.0861 110.821 23.1114 112.072 23.1114C113.089 23.1114 113.622 23.7156 113.622 24.4647C113.622 25.1092 113.323 25.6328 112.75 25.6328C112.072 25.6328 111.806 25.2944 111.24 25.2944C110.482 25.2944 110.562 25.9711 110.748 26.4625C111.16 27.4775 111.386 28.4603 111.386 29.7411C111.386 33.5514 108.625 36.4111 104.209 36.4111C102.247 36.4111 101.335 35.8472 100.091 35.8472C98.7351 35.8472 98.3879 36.4111 98.3879 36.9025C98.3879 37.7322 99.4052 38.0303 99.938 38.1833L107.188 39.4642C111.079 40.1006 113.041 41.4217 113.041 44.2894C113.041 48.0594 109.263 50.0975 104.273 50.0975C99.5505 50.0975 95.8853 48.3978 95.8853 45.2319M108.35 29.6203C108.35 26.9458 107.446 23.6994 104.193 23.6994C100.939 23.6994 100.075 26.9378 100.075 29.6203C100.075 32.3028 101.06 35.7264 104.193 35.7264C107.325 35.7264 108.35 32.3753 108.35 29.6203Z" fill="white"/>
<path d="M129.502 39.3836C129.502 40.7772 130.22 41.5667 131.431 41.3814V42.0581C130.866 42.5897 130.188 42.6622 129.615 42.6622C127.798 42.6622 127.12 41.4942 127.12 39.9153V39.3514H126.854C125.909 40.8578 123.754 42.6703 120.621 42.6703C118.095 42.6703 115.333 41.4297 115.333 37.9256C115.333 35.0256 117.408 32.3833 126.854 31.0622V29.3625C126.854 25.9711 126.442 23.8203 123.003 23.8203C117.376 23.8203 121.227 29.4753 117.981 29.4753C116.884 29.4753 116.399 28.7986 116.399 27.7433C116.326 25.1817 119.233 23.0308 123.843 23.0308C128.452 23.0308 129.51 24.8756 129.51 29.2497V39.3917L129.502 39.3836ZM126.854 36.5239V31.8517C119.378 32.8667 118.466 35.3558 118.466 37.2408C118.466 40.1408 120.468 41.2364 122.163 41.2364C124.585 41.2364 126.846 39.2386 126.846 36.5239" fill="white"/>
<path d="M133.417 32.8989C133.417 26.7606 137.082 23.0228 142.104 23.0228C146.068 23.0228 148.45 25.3186 148.45 27.6225C148.45 28.7906 147.884 29.5478 146.859 29.5478C144.025 29.5478 146.367 23.78 141.797 23.78C138.471 23.78 136.469 26.7928 136.469 32.1094C136.469 38.5136 139.343 41.6069 143.04 41.6069C144.97 41.6069 146.665 40.7772 147.876 38.7392H148.781C148.062 40.8094 145.422 42.6622 141.983 42.6622C137.074 42.6622 133.409 38.9325 133.409 32.8989" fill="white"/>
<path d="M163.401 23.3692H169.028V24.0861C167.212 24.4244 166.501 24.9883 165.968 26.4625L157.467 49.7914H156.03L159.469 41.5022L153.423 26.5028C152.817 25.0689 152.179 24.2794 150.549 24.0861V23.3692H158.024V24.0861C155.869 24.2714 156.022 25.0689 156.555 26.5028L160.826 37.7725L164.943 26.5028C165.476 24.9964 165.056 24.3519 163.393 24.0861V23.3692H163.401Z" fill="white"/>
<path d="M191.69 37.8047C194.257 41.0431 196.219 41.9856 197.244 41.9856L196.792 42.6219C193.886 43.2986 191.803 42.0903 189.502 39.1178L183.681 31.5456L182.623 32.7861V39.1581C182.623 41.0028 183.342 41.3089 185.263 41.5344V42.2514C182.656 42.1386 179.79 42.1386 177.182 42.2514V41.5344C179.112 41.3089 179.822 41.0028 179.822 39.1581V21.9353C179.822 20.0906 179.104 19.7844 177.182 19.5589V18.8419C179.79 18.9547 182.656 18.9547 185.263 18.8419V19.5589C183.334 19.7844 182.623 20.0825 182.623 21.9353V31.3925L190.931 21.8547C192.553 20.01 191.536 19.7442 189.461 19.5589V18.8419C191.762 18.9547 194.225 18.9547 196.525 18.8419V19.5589C195.129 19.6717 193.619 20.1228 192.182 21.7822L185.384 29.6203L191.69 37.7967V37.8047Z" fill="white"/>
<path d="M199.617 41.5344C200.788 41.3814 201.733 41.0028 201.733 39.3111V26.7203C201.733 25.5119 201.014 25.3267 199.504 25.4394V24.7225C201.466 24.4567 203.057 23.6672 203.92 22.9503C204.219 23.0631 204.413 23.2483 204.526 23.5867L203.807 27.6225H203.961C204.187 26.4867 205.737 23.0228 209.967 23.0228C212.494 23.0228 215.635 24.2633 215.635 29.2819V39.3111C215.635 41.0108 216.652 41.3814 217.79 41.5344V42.2514C215.489 42.1386 213.18 42.1386 210.912 42.2514V41.5344C212.042 41.3089 212.987 41.0028 212.987 39.3111V29.3947C212.987 26.68 211.437 24.6419 208.756 24.6419C206.076 24.6419 204.373 26.7928 204.373 29.3947V39.3111C204.373 41.0108 205.39 41.3089 206.528 41.5344V42.2514C204.227 42.1386 201.918 42.1386 199.617 42.2514V41.5344Z" fill="white"/>
<path d="M220.228 41.5344C221.439 41.3814 222.497 41.0028 222.497 39.3111V28.0817C222.497 26.4222 221.706 25.4475 220.382 25.4475V24.7306C222.198 24.4325 223.482 23.7881 224.725 22.9583C225.024 23.0711 225.217 23.2564 225.363 23.5947C225.137 24.3519 225.137 25.7778 225.137 28.0817V39.3111C225.137 41.0108 226.194 41.3814 227.365 41.5344V42.2514C225.024 42.0661 222.569 42.0661 220.228 42.2514V41.5344ZM221.811 17.8994C221.811 16.9167 222.602 16.1675 223.546 16.1675C224.491 16.1675 225.322 16.9167 225.322 17.8994C225.322 18.8822 224.491 19.6717 223.546 19.6717C222.602 19.6717 221.811 18.8822 221.811 17.8994Z" fill="white"/>
<path d="M229.238 45.2239C229.238 43.7578 230.029 42.5092 231.313 42.5092C232.072 42.5092 232.782 42.8153 232.782 43.6772C232.782 44.3942 232.37 44.9983 232.37 45.9408C232.37 47.8258 233.92 49.2919 237.658 49.2919C241.848 49.2919 244.076 47.5197 244.076 45.1111C244.076 42.9603 242.373 42.775 237.917 41.9856L233.46 41.2283C230.739 40.7772 229.609 39.4561 229.609 37.99C229.609 36.1453 231.426 35.0497 233.686 35.2753C232.096 34.7436 230.287 32.7539 230.287 29.7008C230.287 26.3497 232.556 23.0308 237.424 23.0308C240.484 23.0308 242.107 24.4244 243.124 25.2944C243.237 24.0861 244.141 23.1114 245.392 23.1114C246.41 23.1114 246.942 23.7156 246.942 24.4647C246.942 25.1092 246.644 25.6328 246.07 25.6328C245.392 25.6328 245.126 25.2944 244.561 25.2944C243.802 25.2944 243.883 25.9711 244.068 26.4625C244.48 27.4775 244.706 28.4603 244.706 29.7411C244.706 33.5514 241.945 36.4111 237.529 36.4111C235.567 36.4111 234.655 35.8472 233.412 35.8472C232.055 35.8472 231.708 36.4111 231.708 36.9025C231.708 37.7322 232.725 38.0303 233.258 38.1833L240.508 39.4642C244.399 40.1006 246.361 41.4217 246.361 44.2894C246.361 48.0594 242.583 50.0975 237.594 50.0975C232.871 50.0975 229.206 48.3978 229.206 45.2319M241.662 29.6203C241.662 26.9458 240.758 23.6994 237.505 23.6994C234.251 23.6994 233.387 26.9378 233.387 29.6203C233.387 32.3028 234.372 35.7264 237.505 35.7264C240.637 35.7264 241.662 32.3753 241.662 29.6203Z" fill="white"/>
<path d="M249.106 41.5344C250.277 41.3814 251.221 41.0028 251.221 39.3111V20.8397C251.221 19.1803 250.43 18.2056 249.106 18.2056V17.4886C250.922 17.1906 252.206 16.5461 253.449 15.7164C253.748 15.8292 253.982 16.0144 254.095 16.3528C253.869 17.11 253.869 18.5358 253.869 20.8397V24.8756L253.336 27.6628H253.449C253.716 26.4947 255.411 22.9503 259.569 22.9503C262.063 22.9503 265.349 24.2714 265.349 29.2819V39.3111C265.349 41.0108 266.366 41.3814 267.505 41.5344V42.2514C265.204 42.1386 262.895 42.1386 260.626 42.2514V41.5344C261.757 41.3089 262.701 41.0028 262.701 39.3111V29.3947C262.701 26.8331 261.232 24.5694 258.511 24.5694C255.791 24.5694 254.208 26.7525 253.869 29.3947V39.3111C253.869 41.0108 254.886 41.3089 256.025 41.5344V42.2514C253.724 42.1386 251.415 42.1386 249.114 42.2514V41.5344H249.106Z" fill="white"/>
<path d="M270.936 38.4411V24.6822H268.369V24.0458C270.524 23.5222 271.921 21.8225 272.559 18.8419H273.576V23.7075H277.992V24.6903H273.576V38.6022C273.576 39.9233 274.294 41.2042 276.03 41.2042C277.047 41.2042 277.62 40.7128 277.96 40.4147V41.1719C277.281 42.1547 275.844 42.5253 274.859 42.5253C273.011 42.5253 270.928 41.3975 270.928 38.4572" fill="white"/>
<path d="M1.7761 0H0V42.2353H1.7761V0Z" fill="#8D7032"/>
<path d="M7.00755 0H5.23145V42.2353H7.00755V0Z" fill="#8D7032"/>
<path d="M12.239 0H10.4629V42.2353H12.239V0Z" fill="#8D7032"/>
<path d="M17.4704 0H15.6943V42.2353H17.4704V0Z" fill="#8D7032"/>
<path d="M22.6938 0H20.9177V42.2353H22.6938V0Z" fill="#8D7032"/>
<path d="M43.91 40.5758H0V42.3481H43.91V40.5758Z" fill="#8D7032"/>
<path d="M43.91 45.7958H0V47.5681H43.91V45.7958Z" fill="#8D7032"/>
<path d="M43.91 51.0158H0V52.7881H43.91V51.0158Z" fill="#8D7032"/>
<path d="M43.91 56.2278H0V58H43.91V56.2278Z" fill="#8D7032"/>
<path d="M22.3408 26.1952L21.0906 27.4427L35.9329 42.2526L37.1831 41.0052L22.3408 26.1952Z" fill="#8D7032"/>
<path d="M22.2768 33.5062L21.0266 34.7537L28.3736 42.0846L29.6238 40.8371L22.2768 33.5062Z" fill="#8D7032"/>
<path d="M43.9101 5.13945L33.5845 15.4425L34.8358 16.6911L43.9101 7.64472V5.13945Z" fill="#8D7032"/>
<path d="M43.9101 12.5183L37.282 19.1319L38.5333 20.3806L43.9101 15.0236V12.5183Z" fill="#8D7032"/>
<path d="M43.91 25.5683L22.4677 4.18083L21.2163 5.42944L43.91 28.0736V25.5683Z" fill="#8D7032"/>
<path d="M43.9101 32.9472L22.4354 11.5194L21.176 12.7681L43.9101 35.4525V32.9472Z" fill="#8D7032"/>
<path d="M43.91 40.3261L22.2416 18.7131L20.9902 19.9617L43.4175 42.34L43.91 42.3481V40.3261Z" fill="#8D7032"/>
<path d="M26.8757 0L22.4919 4.37417L23.7433 5.62278L29.3864 0H26.8757Z" fill="#8D7032"/>
<path d="M34.2707 0L26.1895 8.06361L27.4408 9.31222L36.7815 0H34.2707Z" fill="#8D7032"/>
<path d="M41.6657 0L29.887 11.7531L31.1383 13.0017L43.9101 0.265833V0H41.6657Z" fill="#8D7032"/>
</g>
<defs>
<clipPath id="clip0_2015_5597">
<rect width="278" height="58" fill="white"/>
</clipPath>
</defs>
</svg>
