<?xml version="1.0" encoding="utf-8"?>
<!-- Generator: Adobe Illustrator 25.0.1, SVG Export Plug-In . SVG Version: 6.00 Build 0)  -->
<svg version="1.1" id="Layer_1" xmlns="http://www.w3.org/2000/svg" xmlns:xlink="http://www.w3.org/1999/xlink" x="0px" y="0px"
	 viewBox="0 0 1144.64 212.91" style="enable-background:new 0 0 1144.64 212.91;" xml:space="preserve">
<style type="text/css">
	.st0{fill:#003A70;}
	.st1{fill:#FFFFFF;}
	.st2{fill:url(#SVGID_1_);}
	.st3{fill:url(#SVGID_2_);}
	.st4{fill:url(#SVGID_3_);}
	.st5{fill:url(#SVGID_4_);}
	.st6{fill:url(#SVGID_5_);}
	.st7{fill:url(#SVGID_6_);}
	.st8{fill:url(#SVGID_7_);}
	.st9{fill:url(#SVGID_8_);}
	.st10{fill:url(#SVGID_9_);}
	.st11{fill:url(#SVGID_10_);}
	.st12{fill:url(#SVGID_11_);}
	.st13{fill:url(#SVGID_12_);}
	.st14{fill:url(#SVGID_13_);}
	.st15{fill:url(#SVGID_14_);}
	.st16{fill:url(#SVGID_15_);}
	.st17{fill:url(#SVGID_16_);}
	.st18{fill:url(#SVGID_17_);}
	.st19{fill:url(#SVGID_18_);}
	.st20{fill:url(#SVGID_19_);}
	.st21{fill:#C9A968;}
	.st22{fill:url(#SVGID_20_);}
	.st23{fill:url(#SVGID_21_);}
	.st24{fill:url(#SVGID_22_);}
	.st25{fill:url(#SVGID_23_);}
	.st26{fill:url(#SVGID_24_);}
	.st27{fill:url(#SVGID_25_);}
	.st28{fill:url(#SVGID_26_);}
	.st29{fill:url(#SVGID_27_);}
	.st30{fill:url(#SVGID_28_);}
	.st31{fill:url(#SVGID_29_);}
	.st32{fill:url(#SVGID_30_);}
	.st33{fill:url(#SVGID_31_);}
	.st34{fill:url(#SVGID_32_);}
	.st35{fill:url(#SVGID_33_);}
	.st36{fill:url(#SVGID_34_);}
	.st37{fill:url(#SVGID_35_);}
	.st38{fill:url(#SVGID_36_);}
	.st39{fill:url(#SVGID_37_);}
	.st40{fill:url(#SVGID_38_);}
</style>
<g>
	<g>
		<g>
			<path class="st0" d="M254.51,164.27v-0.94c0.19,0,0.64-0.06,1.36-0.19c0.72-0.13,1.47-0.34,2.26-0.66
				c0.78-0.31,1.47-0.75,2.07-1.32c0.59-0.56,0.89-1.28,0.89-2.16c0-0.56-0.17-1.49-0.52-2.77c-0.35-1.28-0.83-2.85-1.46-4.7
				c-0.63-1.85-1.35-3.9-2.16-6.16c-0.82-2.26-1.69-4.61-2.63-7.05h-25.01c-0.94,2.38-1.85,4.65-2.73,6.82
				c-0.88,2.16-1.76,4.34-2.63,6.54c-1.32,3.39-1.97,5.77-1.97,7.15c0,0.82,0.25,1.49,0.75,2.02c0.5,0.53,1.14,0.97,1.93,1.32
				c0.78,0.34,1.63,0.6,2.54,0.75c0.91,0.16,1.77,0.3,2.59,0.42v0.94h-20.03v-1.03c1.63-0.19,3.02-0.63,4.18-1.32
				c1.16-0.69,1.83-1.16,2.02-1.41c0.44-0.44,1.16-1.47,2.16-3.1c1-1.63,2.23-4.04,3.67-7.24c1.32-2.95,2.79-6.3,4.42-10.06
				c1.63-3.76,3.31-7.63,5.03-11.61c1.72-3.98,3.43-7.99,5.13-12.04c1.69-4.04,3.29-7.82,4.8-11.33l-0.94-2.07
				c1.13-0.5,2.15-1.1,3.06-1.79c0.91-0.69,1.71-1.41,2.4-2.16c0.69-0.75,1.27-1.47,1.74-2.16c0.47-0.69,0.83-1.25,1.08-1.69h0.75
				c1.94,5.2,3.79,10.14,5.55,14.81c1.75,4.67,3.43,9.17,5.03,13.5c1.6,4.33,3.15,8.51,4.66,12.55c1.5,4.04,3.01,8.04,4.51,11.99
				c0.69,1.94,1.33,3.56,1.93,4.84c0.59,1.29,1.27,2.74,2.02,4.37c0.13,0.25,0.41,0.69,0.85,1.32c0.44,0.63,1.02,1.27,1.74,1.93
				c0.72,0.66,1.61,1.24,2.68,1.74c1.06,0.5,2.32,0.78,3.76,0.85v1.13H254.51z M242.19,107.28c-0.38,0.82-0.93,2.1-1.65,3.86
				c-0.72,1.76-1.61,3.89-2.68,6.39c-1.07,2.51-2.24,5.35-3.53,8.51c-1.29,3.17-2.68,6.6-4.18,10.3h23.42
				c-1.07-2.82-2.15-5.64-3.24-8.46c-1.1-2.82-2.16-5.53-3.2-8.14c-1.03-2.6-1.97-4.98-2.82-7.15
				C243.46,110.43,242.75,108.66,242.19,107.28z"/>
			<path class="st0" d="M282.07,164.36h-27.65v-1.13h0.1c0.13,0,0.46-0.03,1.35-0.19c0.71-0.12,1.46-0.34,2.24-0.65
				c0.77-0.31,1.45-0.74,2.04-1.3c0.57-0.54,0.86-1.25,0.86-2.09c0-0.55-0.17-1.47-0.51-2.75c-0.34-1.26-0.83-2.84-1.46-4.7
				c-0.63-1.85-1.36-3.92-2.16-6.16c-0.81-2.25-1.69-4.6-2.61-6.99h-24.88c-0.91,2.32-1.82,4.59-2.7,6.76
				c-0.9,2.22-1.79,4.42-2.63,6.54c-1.3,3.36-1.97,5.75-1.97,7.11c0,0.79,0.24,1.45,0.73,1.96c0.49,0.52,1.13,0.96,1.9,1.29
				c0.78,0.34,1.62,0.59,2.52,0.75c0.84,0.15,1.71,0.29,2.58,0.42l0.08,0.01v1.12h-20.23v-1.22l0.09-0.01c1.61-0.19,3-0.62,4.15-1.3
				c1.14-0.68,1.82-1.15,1.99-1.38c0.44-0.44,1.16-1.48,2.16-3.1c0.99-1.61,2.23-4.05,3.66-7.23c1.3-2.91,2.79-6.3,4.42-10.06
				c1.63-3.76,3.31-7.63,5.03-11.61c1.68-3.88,3.4-7.92,5.13-12.04c1.61-3.85,3.22-7.65,4.78-11.29l-0.96-2.12l0.09-0.04
				c1.12-0.5,2.14-1.09,3.04-1.78c0.89-0.68,1.7-1.4,2.39-2.15c0.68-0.75,1.27-1.47,1.73-2.15c0.48-0.7,0.83-1.25,1.08-1.69
				l0.03-0.05h0.88l0.02,0.06c2.03,5.44,3.84,10.28,5.55,14.81c1.85,4.93,3.5,9.34,5.03,13.49c1.57,4.24,3.13,8.46,4.66,12.56
				c1.47,3.94,2.98,7.97,4.51,11.99c0.69,1.94,1.33,3.56,1.92,4.84l0.48,1.03c0.47,1.02,0.99,2.13,1.55,3.34
				c0.12,0.25,0.41,0.69,0.84,1.3c0.43,0.62,1.01,1.26,1.72,1.91c0.71,0.65,1.61,1.23,2.66,1.72c1.05,0.49,2.3,0.78,3.72,0.84
				l0.09,0V164.36z M254.61,164.17h27.27v-0.94c-1.41-0.07-2.66-0.36-3.71-0.85c-1.07-0.5-1.98-1.09-2.7-1.76
				c-0.73-0.66-1.32-1.32-1.76-1.94c-0.44-0.62-0.72-1.07-0.85-1.33c-0.56-1.21-1.08-2.33-1.55-3.35l-0.48-1.03
				c-0.59-1.28-1.24-2.91-1.93-4.85c-1.53-4.01-3.05-8.05-4.51-11.99c-1.52-4.09-3.09-8.32-4.66-12.56
				c-1.53-4.15-3.18-8.57-5.03-13.49c-1.7-4.51-3.51-9.34-5.53-14.75h-0.63c-0.25,0.43-0.59,0.97-1.06,1.65
				c-0.47,0.69-1.06,1.42-1.75,2.17c-0.7,0.76-1.51,1.49-2.41,2.17c-0.89,0.67-1.89,1.27-2.99,1.76l0.92,2.02l-0.02,0.04
				c-1.56,3.65-3.18,7.46-4.8,11.33c-1.72,4.11-3.45,8.16-5.13,12.04c-1.73,3.98-3.4,7.85-5.03,11.61
				c-1.63,3.76-3.12,7.15-4.42,10.06c-1.44,3.19-2.68,5.63-3.67,7.25c-1.02,1.65-1.73,2.67-2.18,3.12
				c-0.19,0.25-0.86,0.72-2.04,1.42c-1.14,0.68-2.53,1.13-4.14,1.32v0.85h19.84v-0.76c-0.84-0.13-1.69-0.27-2.51-0.41
				c-0.91-0.16-1.77-0.41-2.56-0.76c-0.79-0.35-1.45-0.8-1.96-1.34c-0.52-0.55-0.78-1.25-0.78-2.09c0-1.38,0.67-3.8,1.98-7.18
				c0.85-2.12,1.73-4.32,2.64-6.54c0.89-2.19,1.8-4.48,2.73-6.82l0.02-0.06h25.15l0.02,0.06c0.93,2.41,1.81,4.79,2.63,7.05
				c0.81,2.24,1.54,4.31,2.17,6.16c0.63,1.86,1.12,3.44,1.46,4.71c0.35,1.31,0.52,2.23,0.52,2.8c0,0.9-0.31,1.65-0.92,2.23
				c-0.6,0.57-1.31,1.02-2.1,1.34c-0.79,0.31-1.55,0.54-2.28,0.66c-0.62,0.11-1.05,0.17-1.28,0.19V164.17z M253.71,136.44h-23.7
				l0.06-0.13c1.1-2.71,2.15-5.28,3.13-7.71l1.05-2.59c1.27-3.13,2.45-5.99,3.53-8.51c1-2.34,1.9-4.5,2.68-6.39
				c0.72-1.75,1.27-3.05,1.65-3.86l0.09-0.2l0.08,0.21c0.55,1.34,1.24,3.08,2.12,5.31c0.86,2.2,1.81,4.6,2.82,7.15
				c1,2.52,2.08,5.26,3.2,8.14c1.1,2.83,2.19,5.68,3.25,8.46L253.71,136.44z M230.3,136.24h23.13c-1.04-2.75-2.11-5.55-3.2-8.33
				c-1.12-2.88-2.19-5.61-3.2-8.13c-1.01-2.54-1.96-4.95-2.82-7.15c-0.83-2.12-1.5-3.8-2.03-5.1c-0.37,0.81-0.89,2.04-1.55,3.65
				c-0.78,1.9-1.68,4.05-2.68,6.4c-1.07,2.52-2.26,5.39-3.53,8.51l-1.05,2.59C232.4,131.05,231.38,133.58,230.3,136.24z"/>
		</g>
		<g>
			<path class="st0" d="M348.41,153.83c-1.22,2.38-2.92,4.42-5.08,6.11c-2.16,1.69-4.75,2.95-7.76,3.76
				c-3.01,0.81-6.3,1.22-9.87,1.22c-3.07,0-5.71-0.19-7.9-0.56c-2.2-0.38-4.01-0.83-5.45-1.36c-1.44-0.53-2.52-1.02-3.24-1.46
				c-0.72-0.44-1.18-0.66-1.36-0.66s-0.6,0.38-1.22,1.13c-0.63,0.75-1.19,1.47-1.69,2.16h-0.85l-0.28-18.71h0.94
				c0.56,1.69,1.28,3.34,2.16,4.94c0.88,1.6,1.83,3.1,2.87,4.51c1.03,1.41,2.13,2.65,3.29,3.71c1.16,1.07,2.27,1.88,3.34,2.44
				c1.07,0.56,2.48,1.13,4.23,1.69c1.75,0.56,3.45,0.85,5.08,0.85c4.64,0,8.4-1.27,11.29-3.81c2.88-2.54,4.33-5.97,4.33-10.3
				c0-1.75-0.28-3.29-0.85-4.61c-0.56-1.32-1.33-2.46-2.3-3.43c-0.97-0.97-2.12-1.8-3.43-2.49c-1.32-0.69-2.73-1.32-4.23-1.88
				c-1.5-0.56-2.82-1.03-3.95-1.41c-1.13-0.38-2.18-0.74-3.15-1.08c-0.97-0.34-1.97-0.69-3.01-1.03c-1.03-0.34-2.27-0.8-3.71-1.36
				c-1.63-0.63-3.2-1.49-4.7-2.59c-1.5-1.1-2.82-2.38-3.95-3.86c-1.13-1.47-2.04-3.1-2.73-4.89c-0.69-1.79-1.03-3.68-1.03-5.69
				c0-3.39,0.62-6.3,1.85-8.75c1.24-2.45,2.9-4.48,4.98-6.11c2.09-1.63,4.49-2.84,7.22-3.62c2.73-0.78,5.6-1.18,8.61-1.18
				c2.82,0,5.23,0.23,7.24,0.71c2.01,0.47,3.65,0.99,4.94,1.55c1.28,0.56,2.26,1.08,2.92,1.55c0.66,0.47,1.02,0.71,1.08,0.71
				c0.19,0,0.58-0.38,1.18-1.13c0.59-0.75,1.14-1.5,1.65-2.26h1.03v17.4h-1.03c-0.75-2.07-1.72-4.12-2.92-6.16
				c-1.19-2.04-2.57-3.86-4.14-5.45c-1.57-1.6-3.35-2.9-5.36-3.9c-2.01-1-4.23-1.51-6.68-1.51c-1.94,0-3.78,0.28-5.5,0.85
				c-1.72,0.56-3.23,1.41-4.51,2.54c-1.29,1.13-2.29,2.52-3.01,4.18c-0.72,1.66-1.08,3.56-1.08,5.69c0,3.32,1,5.99,3,7.99
				c2,2.01,4.6,3.61,7.79,4.8c1.25,0.5,2.42,0.94,3.52,1.32c1.1,0.38,2.17,0.74,3.24,1.08c1.06,0.35,2.14,0.71,3.24,1.08
				c1.09,0.38,2.24,0.78,3.42,1.22c4.25,1.57,7.55,3.84,9.9,6.82c2.34,2.98,3.52,6.69,3.52,11.14
				C350.24,148.75,349.63,151.45,348.41,153.83z"/>
			<path class="st0" d="M325.7,165.02c-3.07,0-5.73-0.19-7.92-0.57c-2.19-0.38-4.03-0.84-5.47-1.37c-1.44-0.53-2.53-1.02-3.26-1.47
				c-0.88-0.53-1.2-0.64-1.31-0.64c-0.06,0-0.31,0.08-1.15,1.09c-0.62,0.75-1.19,1.47-1.69,2.16l-0.03,0.04h-0.99l0-0.1l-0.28-18.81
				h1.11l0.02,0.07c0.56,1.69,1.29,3.34,2.16,4.92c0.87,1.59,1.84,3.11,2.86,4.5c1.03,1.4,2.13,2.65,3.28,3.7
				c1.14,1.05,2.26,1.87,3.32,2.43c1.05,0.56,2.47,1.12,4.22,1.69c1.74,0.56,3.44,0.84,5.05,0.84c4.59,0,8.37-1.27,11.22-3.78
				c2.85-2.51,4.29-5.95,4.29-10.22c0-1.73-0.28-3.27-0.84-4.57c-0.55-1.3-1.32-2.44-2.28-3.4c-0.96-0.96-2.11-1.79-3.41-2.47
				c-1.31-0.69-2.73-1.32-4.22-1.88c-1.5-0.56-2.83-1.04-3.95-1.41c-1.18-0.39-2.21-0.75-3.15-1.08c-1.07-0.38-2.05-0.72-3.01-1.03
				c-1.01-0.34-2.23-0.78-3.72-1.37c-1.63-0.62-3.22-1.5-4.72-2.6c-1.51-1.1-2.84-2.4-3.97-3.88c-1.13-1.47-2.05-3.13-2.74-4.91
				c-0.69-1.79-1.04-3.72-1.04-5.72c0-3.39,0.63-6.34,1.87-8.79c1.23-2.44,2.92-4.51,5.01-6.14c2.09-1.63,4.53-2.85,7.26-3.64
				c2.72-0.78,5.63-1.18,8.63-1.18c2.81,0,5.26,0.24,7.26,0.71c2,0.47,3.67,0.99,4.95,1.56c1.29,0.57,2.27,1.09,2.93,1.56
				c0.83,0.59,1,0.68,1.04,0.69c0.06,0,0.31-0.11,1.09-1.09c0.58-0.73,1.13-1.49,1.64-2.25l0.03-0.04h1.18v17.59h-1.2l-0.02-0.06
				c-0.75-2.05-1.72-4.12-2.91-6.14c-1.18-2.02-2.57-3.85-4.12-5.44c-1.55-1.58-3.35-2.89-5.33-3.88c-1.99-0.99-4.22-1.5-6.63-1.5
				c-1.92,0-3.76,0.28-5.47,0.84c-1.71,0.56-3.21,1.41-4.48,2.52c-1.27,1.11-2.27,2.51-2.98,4.15c-0.71,1.64-1.07,3.54-1.07,5.65
				c0,3.28,1,5.95,2.97,7.92c1.98,1.99,4.59,3.59,7.75,4.77c1.22,0.49,2.4,0.93,3.51,1.32c1.16,0.4,2.21,0.75,3.23,1.08
				c1.06,0.34,2.15,0.71,3.24,1.08c1.06,0.36,2.21,0.78,3.43,1.22c4.25,1.57,7.59,3.87,9.94,6.85c2.35,2.98,3.54,6.75,3.54,11.2
				c0,3.01-0.62,5.75-1.85,8.13l0,0c-1.22,2.38-2.94,4.45-5.1,6.14c-2.16,1.7-4.79,2.97-7.79,3.78
				C332.59,164.61,329.26,165.02,325.7,165.02z M307.74,160.79c0.13,0,0.42,0.07,1.41,0.67c0.72,0.44,1.8,0.92,3.23,1.45
				c1.43,0.53,3.26,0.99,5.44,1.36c2.17,0.37,4.83,0.56,7.88,0.56c3.55,0,6.86-0.41,9.85-1.22c2.98-0.81,5.58-2.07,7.72-3.74
				c2.14-1.68,3.84-3.72,5.05-6.08v0c1.21-2.36,1.82-5.06,1.82-8.04c0-4.41-1.18-8.13-3.5-11.08c-2.32-2.95-5.64-5.23-9.85-6.79
				c-1.21-0.45-2.37-0.86-3.42-1.22c-1.09-0.37-2.18-0.74-3.23-1.08c-1.02-0.33-2.08-0.68-3.24-1.08c-1.12-0.38-2.3-0.83-3.52-1.32
				c-3.19-1.19-5.82-2.81-7.82-4.82c-2.01-2.01-3.03-4.73-3.03-8.06c0-2.14,0.37-4.06,1.09-5.73c0.72-1.67,1.74-3.09,3.04-4.22
				c1.29-1.13,2.82-1.99,4.55-2.56c1.73-0.56,3.59-0.85,5.53-0.85c2.44,0,4.71,0.51,6.72,1.52c2.01,1,3.82,2.32,5.39,3.92
				c1.56,1.6,2.96,3.44,4.15,5.47c1.18,2.02,2.15,4.07,2.9,6.11h0.87v-17.2h-0.88c-0.5,0.75-1.05,1.49-1.62,2.22
				c-0.82,1.03-1.1,1.17-1.25,1.17c-0.05,0-0.12,0-1.14-0.72c-0.65-0.46-1.62-0.98-2.9-1.54c-1.28-0.56-2.93-1.08-4.92-1.55
				c-1.99-0.47-4.42-0.7-7.22-0.7c-2.98,0-5.87,0.39-8.58,1.17c-2.7,0.78-5.12,1.99-7.19,3.6c-2.07,1.62-3.74,3.66-4.96,6.08
				c-1.22,2.42-1.84,5.35-1.84,8.7c0,1.98,0.35,3.89,1.03,5.65c0.68,1.77,1.59,3.4,2.71,4.86c1.12,1.46,2.44,2.75,3.93,3.84
				c1.49,1.09,3.07,1.96,4.68,2.57c1.49,0.58,2.7,1.03,3.71,1.36c0.96,0.32,1.94,0.66,3.01,1.03c0.94,0.33,1.97,0.69,3.15,1.08
				c1.12,0.37,2.45,0.85,3.95,1.41c1.5,0.56,2.92,1.2,4.24,1.89c1.32,0.69,2.48,1.53,3.46,2.51c0.98,0.98,1.76,2.15,2.33,3.46
				c0.57,1.32,0.85,2.89,0.85,4.65c0,4.33-1.47,7.82-4.36,10.37c-2.89,2.54-6.71,3.83-11.35,3.83c-1.63,0-3.35-0.29-5.11-0.85
				c-1.76-0.57-3.19-1.14-4.25-1.7c-1.07-0.57-2.2-1.39-3.36-2.46c-1.16-1.06-2.27-2.32-3.3-3.73c-1.03-1.4-2-2.93-2.87-4.52
				c-0.86-1.57-1.59-3.22-2.15-4.89h-0.77l0.28,18.52h0.7c0.49-0.68,1.05-1.39,1.67-2.13C307.3,160.92,307.58,160.79,307.74,160.79z
				"/>
		</g>
		<g>
			<path class="st0" d="M432.15,122.42c-0.75,1.88-1.74,3.54-2.96,4.98c-1.22,1.44-2.65,2.68-4.28,3.71
				c-1.63,1.03-3.29,1.87-4.98,2.49c-1.76,0.63-3.64,1.1-5.64,1.41c-2.01,0.31-4.03,0.55-6.07,0.71c-2.04,0.16-4.03,0.23-5.97,0.23
				c-1.88,0-3.57,0-5.08,0c0,2.01,0,3.73,0,5.17c0,1.38,0,2.6,0,3.67c0,1.07,0.01,2.05,0.05,2.96c0.03,0.91,0.05,1.9,0.05,2.96
				c0.06,2.01,0.13,3.73,0.19,5.17c0.06,1.44,0.41,2.63,1.03,3.57c0.5,0.82,1.47,1.63,2.92,2.44c1.44,0.82,3.45,1.29,6.02,1.41v0.94
				h-30.09v-0.94c1.57-0.25,3.07-0.63,4.51-1.13c1.44-0.5,2.57-1.25,3.39-2.26c0.31-0.38,0.56-0.94,0.75-1.69
				c0.19-0.75,0.33-1.6,0.42-2.54c0.09-0.94,0.17-1.94,0.23-3.01c0.06-1.07,0.09-2.1,0.09-3.1c0-0.88,0.02-2.07,0.05-3.57
				c0.03-1.51,0.06-3.15,0.09-4.94c0.03-1.79,0.05-3.62,0.05-5.5c0-1.94,0-3.76,0-5.45v-18.34c0-1.13-0.02-2.27-0.05-3.43
				c-0.03-1.16-0.09-2.26-0.19-3.29c-0.09-1.03-0.25-1.97-0.47-2.82c-0.22-0.85-0.52-1.46-0.89-1.83c-0.94-1-2.15-1.68-3.62-2.02
				c-1.47-0.34-3.06-0.64-4.75-0.89v-0.94c0.38,0,1.13,0,2.26,0c1.19,0,2.59-0.01,4.18-0.05c1.6-0.03,3.34-0.05,5.22-0.05
				s3.75-0.01,5.6-0.05c1.85-0.03,3.59-0.05,5.22-0.05c1.69,0,3.1,0,4.23,0c4.14,0,7.81,0.2,11,0.61c3.2,0.41,6.21,1.4,9.03,2.96
				c2.76,1.51,5.05,3.64,6.87,6.4c1.82,2.76,2.73,6.02,2.73,9.78C433.28,118.44,432.9,120.54,432.15,122.42z M420.35,105.96
				c-1.85-2.82-4.28-4.95-7.29-6.39c-1.5-0.69-3.1-1.16-4.8-1.41c-1.69-0.25-3.45-0.38-5.27-0.38c-1.32,0-2.34,0.05-3.06,0.14
				c-0.72,0.09-1.3,0.17-1.74,0.23c-0.06,0.38-0.14,0.71-0.24,0.99c-0.09,0.28-0.17,0.64-0.23,1.08c-0.06,0.44-0.13,1.05-0.19,1.83
				c-0.06,0.78-0.13,1.9-0.19,3.34c-0.06,2.2-0.11,4.86-0.14,7.99c-0.03,3.14-0.05,6.21-0.05,9.22s0,5.64,0,7.9
				c0,2.26,0,3.64,0,4.14c2.57,0,4.98-0.08,7.24-0.24c2.26-0.16,4.36-0.58,6.3-1.27c4.01-1.38,7.08-3.65,9.22-6.82
				c2.13-3.17,3.2-6.72,3.2-10.67C423.12,112.01,422.2,108.78,420.35,105.96z"/>
			<path class="st0" d="M407.52,164.36h-30.29v-1.12l0.08-0.01c1.56-0.25,3.07-0.63,4.5-1.12c1.42-0.49,2.54-1.24,3.34-2.23
				c0.3-0.36,0.55-0.92,0.73-1.66c0.19-0.74,0.33-1.59,0.42-2.53c0.1-0.95,0.17-1.96,0.23-3c0.06-1.07,0.1-2.11,0.1-3.1
				c0-0.93,0.02-2.17,0.05-3.58c0.03-1.5,0.06-3.15,0.09-4.94c0.03-1.84,0.05-3.69,0.05-5.5v-23.79c0-1.08-0.02-2.24-0.05-3.43
				c-0.03-1.17-0.1-2.27-0.19-3.29c-0.09-1.02-0.25-1.96-0.47-2.81c-0.22-0.83-0.51-1.43-0.87-1.79c-0.93-0.99-2.13-1.66-3.57-2
				c-1.47-0.34-3.07-0.64-4.74-0.89l-0.08-0.01v-1.12h2.35c1.25,0,2.65-0.02,4.18-0.05c1.62-0.03,3.38-0.05,5.22-0.05
				c2,0,3.83-0.02,5.59-0.05c1.95-0.03,3.66-0.05,5.22-0.05h4.23c4.12,0,7.83,0.21,11.02,0.61c3.19,0.41,6.24,1.41,9.06,2.97
				c2.76,1.5,5.08,3.67,6.9,6.43c1.82,2.76,2.74,6.07,2.74,9.83c0,2.32-0.38,4.45-1.14,6.34l0,0c-0.75,1.88-1.76,3.57-2.98,5.01
				c-1.22,1.44-2.67,2.7-4.3,3.73c-1.63,1.03-3.31,1.88-5,2.5c-1.76,0.63-3.66,1.1-5.66,1.42c-2,0.31-4.04,0.55-6.07,0.71
				c-2.02,0.16-4.04,0.24-5.98,0.24h-4.98v8.74c0,1.12,0.02,2.09,0.05,2.96c0.03,0.91,0.05,1.9,0.05,2.97
				c0.06,1.99,0.13,3.73,0.19,5.17c0.06,1.42,0.4,2.6,1.02,3.52c0.49,0.8,1.46,1.61,2.88,2.41c1.42,0.8,3.43,1.28,5.97,1.4l0.09,0
				V164.36z M377.42,164.17h29.9v-0.75c-2.53-0.13-4.54-0.61-5.97-1.42c-1.45-0.82-2.44-1.65-2.95-2.48
				c-0.63-0.95-0.99-2.17-1.05-3.62c-0.06-1.44-0.13-3.18-0.19-5.17c0-1.06-0.02-2.06-0.05-2.96c-0.03-0.87-0.05-1.84-0.05-2.97
				v-8.94h5.17c1.94,0,3.94-0.08,5.96-0.24c2.02-0.15,4.06-0.39,6.06-0.7c1.99-0.31,3.88-0.78,5.63-1.41
				c1.68-0.62,3.35-1.46,4.96-2.48c1.62-1.03,3.05-2.27,4.26-3.7c1.21-1.43,2.2-3.1,2.95-4.96l0,0c0.74-1.86,1.12-3.97,1.12-6.26
				c0-3.72-0.91-6.99-2.71-9.73c-1.8-2.73-4.1-4.87-6.83-6.36c-2.8-1.55-5.82-2.55-8.99-2.95c-3.18-0.41-6.88-0.61-10.99-0.61h-4.23
				c-1.57,0-3.27,0.02-5.22,0.05c-1.77,0.03-3.6,0.05-5.6,0.05c-1.84,0-3.6,0.02-5.22,0.05c-1.53,0.03-2.94,0.05-4.19,0.05h-2.16
				v0.76c1.65,0.25,3.22,0.54,4.67,0.88c1.49,0.35,2.72,1.04,3.67,2.05c0.38,0.38,0.69,1.01,0.92,1.87
				c0.22,0.85,0.38,1.81,0.47,2.84c0.09,1.01,0.16,2.12,0.19,3.3c0.03,1.2,0.05,2.35,0.05,3.44v23.79c0,1.81-0.02,3.66-0.05,5.5
				c-0.03,1.79-0.06,3.43-0.09,4.94c-0.03,1.41-0.05,2.64-0.05,3.57c0,0.99-0.03,2.04-0.1,3.11c-0.06,1.05-0.14,2.06-0.23,3.01
				c-0.1,0.95-0.24,1.81-0.43,2.55c-0.19,0.76-0.45,1.35-0.77,1.73c-0.82,1.01-1.98,1.78-3.43,2.29c-1.41,0.49-2.91,0.87-4.45,1.12
				V164.17z M397.17,134.74h-0.1v-12.13c0-3.14,0.02-6.24,0.05-9.22c0.03-3.09,0.08-5.78,0.14-7.99c0.06-1.42,0.12-2.55,0.19-3.34
				c0.06-0.77,0.12-1.39,0.19-1.84c0.06-0.44,0.14-0.81,0.24-1.1c0.09-0.28,0.17-0.6,0.23-0.97l0.01-0.07l0.07-0.01
				c0.44-0.06,1.02-0.14,1.74-0.24c0.72-0.09,1.75-0.14,3.07-0.14c1.81,0,3.58,0.13,5.28,0.38c1.69,0.25,3.32,0.73,4.82,1.42
				c3.01,1.44,5.48,3.61,7.33,6.43l0,0c1.85,2.83,2.79,6.1,2.79,9.74c0,3.95-1.08,7.56-3.21,10.73c-2.14,3.17-5.25,5.48-9.26,6.86
				c-1.94,0.69-4.07,1.12-6.33,1.27C402.17,134.66,399.73,134.74,397.17,134.74z M398.29,98.24c-0.06,0.35-0.14,0.66-0.23,0.93
				c-0.09,0.28-0.17,0.63-0.23,1.06c-0.06,0.44-0.13,1.06-0.19,1.83c-0.06,0.79-0.13,1.92-0.19,3.33c-0.06,2.21-0.11,4.9-0.14,7.99
				c-0.03,2.97-0.05,6.07-0.05,9.22v11.94c2.52,0,4.92-0.08,7.14-0.24c2.23-0.15,4.34-0.58,6.27-1.26c3.97-1.37,7.06-3.65,9.17-6.78
				c2.11-3.14,3.18-6.71,3.18-10.62c0-3.6-0.93-6.84-2.76-9.63l0,0c-1.83-2.79-4.27-4.93-7.25-6.36c-1.49-0.68-3.09-1.15-4.77-1.4
				c-1.69-0.25-3.45-0.38-5.25-0.38c-1.31,0-2.33,0.05-3.04,0.14C399.27,98.11,398.72,98.18,398.29,98.24z"/>
		</g>
		<g>
			<path class="st0" d="M515.38,164.27h-57.55v-0.94c1.57-0.25,3.02-0.66,4.37-1.22c1.35-0.56,2.46-1.35,3.34-2.35
				c0.31-0.38,0.56-0.92,0.75-1.65c0.19-0.72,0.36-1.55,0.52-2.49c0.16-0.94,0.27-1.93,0.33-2.96c0.06-1.03,0.09-2.05,0.09-3.06
				c0-0.88,0.02-2.07,0.05-3.57c0.03-1.51,0.06-3.15,0.09-4.94c0.03-1.79,0.05-3.62,0.05-5.5c0-1.94,0-3.76,0-5.45v-18.34
				c0-1.13-0.02-2.29-0.05-3.48c-0.03-1.19-0.09-2.32-0.19-3.39c-0.09-1.07-0.25-2.02-0.47-2.87c-0.22-0.85-0.52-1.46-0.89-1.83
				c-0.94-1-1.94-1.65-3.01-1.93c-1.07-0.28-2.45-0.55-4.14-0.8v-0.94h51.91l6.39,15.52l-0.94,0.47
				c-5.08-6.33-9.84-10.59-14.29-12.79c-1.07-0.5-3.04-0.94-5.92-1.32c-2.88-0.38-6.4-0.56-10.53-0.56c-1.32,0-2.68,0.05-4.09,0.14
				c-1.41,0.09-2.43,0.2-3.06,0.33c-0.13,1-0.23,3.07-0.33,6.21c-0.09,3.14-0.14,6.77-0.14,10.91c0,2.38,0,4.39,0,6.02
				c0,1.63,0.01,2.96,0.05,4c0.03,1.03,0.05,1.83,0.05,2.4c0,0.5,0,0.85,0,1.03c0.31,0,0.94,0,1.88,0s2.02-0.03,3.24-0.09
				c1.22-0.06,2.44-0.14,3.67-0.24c1.22-0.09,2.24-0.23,3.06-0.42c1.88-0.44,3.45-1.03,4.7-1.79c1.25-0.75,2.27-1.66,3.06-2.73
				c0.78-1.07,1.41-2.3,1.88-3.71c0.47-1.41,0.89-2.99,1.27-4.75h1.13v29.62h-1.13c-0.5-2.01-1.27-4.07-2.3-6.21
				c-1.03-2.13-2.12-3.73-3.24-4.8c-1-0.88-2.21-1.6-3.62-2.16c-1.41-0.56-3.06-0.91-4.94-1.03c-0.94-0.06-1.73-0.11-2.35-0.14
				c-0.63-0.03-1.25-0.05-1.88-0.05c-0.56,0-1.19,0-1.88,0c-0.63,0-1.44,0-2.45,0c-0.13,0.88-0.19,2.16-0.19,3.86s0,3.45,0,5.27
				c0,0.82,0,1.76,0,2.82c0,1.07,0,2.13,0,3.2c0,1,0.01,1.96,0.05,2.87c0.03,0.91,0.05,1.68,0.05,2.3c0.06,2.01,0.17,3.9,0.33,5.69
				c0.16,1.79,0.52,3.12,1.08,4c0.56,0.88,1.91,1.5,4.04,1.88c2.13,0.38,4.45,0.56,6.96,0.56c1.06,0,2.43-0.03,4.09-0.09
				c1.66-0.06,3.4-0.22,5.22-0.47c2.01-0.25,3.86-0.74,5.55-1.46c1.69-0.72,3.32-1.74,4.89-3.06c1.57-1.32,3.09-2.93,4.56-4.84
				c1.47-1.91,2.99-4.22,4.56-6.91l1.03,0.28L515.38,164.27z"/>
			<path class="st0" d="M515.46,164.36h-57.73v-1.12l0.08-0.01c1.55-0.25,3.02-0.66,4.35-1.22c1.33-0.56,2.44-1.34,3.3-2.33
				c0.3-0.36,0.55-0.9,0.73-1.61c0.18-0.7,0.36-1.54,0.51-2.48c0.16-0.93,0.27-1.92,0.33-2.95c0.06-1.04,0.09-2.07,0.09-3.05
				c0-0.9,0.02-2.1,0.05-3.58c0.03-1.5,0.06-3.15,0.09-4.94c0.03-1.78,0.05-3.63,0.05-5.5v-23.79c0-1.12-0.02-2.29-0.05-3.48
				c-0.03-1.2-0.1-2.34-0.19-3.38c-0.09-1.06-0.25-2.01-0.47-2.85c-0.22-0.83-0.51-1.43-0.87-1.79c-0.93-0.99-1.92-1.63-2.96-1.9
				c-1.05-0.28-2.44-0.55-4.13-0.8l-0.08-0.01v-1.12h52.07l0.02,0.06l6.43,15.6l-1.09,0.55l-0.05-0.06
				c-5.05-6.29-9.85-10.59-14.26-12.76c-1.05-0.5-3.04-0.94-5.89-1.31c-2.86-0.37-6.4-0.56-10.52-0.56c-1.31,0-2.68,0.05-4.09,0.14
				c-1.35,0.09-2.35,0.19-2.97,0.31c-0.12,1.02-0.23,3.02-0.32,6.13c-0.09,3.14-0.14,6.81-0.14,10.91v6.02
				c0,1.66,0.02,2.97,0.05,3.99c0.03,1.03,0.05,1.84,0.05,2.4v0.94h1.78c0.95,0,2.04-0.03,3.24-0.09c1.19-0.06,2.42-0.14,3.66-0.24
				c1.21-0.09,2.23-0.23,3.04-0.42c1.86-0.43,3.43-1.03,4.68-1.78c1.24-0.74,2.25-1.65,3.03-2.7c0.77-1.05,1.4-2.29,1.87-3.69
				c0.47-1.4,0.89-2.99,1.27-4.74l0.02-0.08h1.31v29.82h-1.3l-0.02-0.07c-0.5-2-1.27-4.08-2.3-6.19c-1.02-2.11-2.11-3.71-3.22-4.77
				c-0.99-0.86-2.2-1.59-3.59-2.14c-1.39-0.56-3.04-0.9-4.91-1.03c-0.94-0.06-1.73-0.11-2.35-0.14c-0.63-0.03-1.27-0.05-1.88-0.05
				h-4.24c-0.12,0.86-0.18,2.13-0.18,3.76v11.28c0,1.01,0.02,1.98,0.05,2.87c0.03,0.91,0.05,1.68,0.05,2.31
				c0.06,1.97,0.17,3.88,0.33,5.68c0.15,1.76,0.51,3.09,1.06,3.95c0.55,0.85,1.88,1.47,3.98,1.84c2.11,0.37,4.45,0.56,6.94,0.56
				c1.09,0,2.46-0.03,4.09-0.09c1.65-0.06,3.4-0.22,5.21-0.47c1.99-0.25,3.84-0.74,5.52-1.45c1.67-0.71,3.31-1.73,4.87-3.04
				c1.56-1.31,3.09-2.94,4.55-4.83c1.47-1.9,3-4.23,4.56-6.9l0.04-0.06l1.2,0.33l-0.02,0.09L515.46,164.36z M457.92,164.17h57.38
				l4.66-17.8l-0.87-0.24c-1.55,2.66-3.07,4.96-4.53,6.86c-1.47,1.9-3.01,3.54-4.58,4.86c-1.57,1.32-3.22,2.35-4.91,3.07
				c-1.7,0.72-3.57,1.22-5.58,1.46c-1.82,0.25-3.57,0.41-5.23,0.47c-1.63,0.06-3,0.09-4.09,0.09c-2.51,0-4.86-0.19-6.98-0.57
				c-2.15-0.38-3.53-1.03-4.11-1.92c-0.57-0.89-0.94-2.25-1.1-4.04c-0.16-1.8-0.27-3.72-0.33-5.69c0-0.63-0.02-1.4-0.05-2.3
				c-0.03-0.89-0.05-1.86-0.05-2.87v-11.28c0-1.72,0.06-2.99,0.19-3.87l0.01-0.08h4.41c0.61,0,1.25,0.02,1.89,0.05
				c0.63,0.03,1.41,0.08,2.35,0.14c1.89,0.13,3.56,0.48,4.97,1.04c1.41,0.56,2.64,1.3,3.65,2.18c1.14,1.07,2.23,2.7,3.27,4.83
				c1.02,2.09,1.79,4.16,2.29,6.15h0.96v-29.43h-0.95c-0.37,1.72-0.79,3.3-1.25,4.68c-0.47,1.41-1.11,2.67-1.9,3.74
				c-0.79,1.07-1.83,2-3.09,2.75c-1.26,0.76-2.86,1.36-4.73,1.8c-0.82,0.19-1.85,0.33-3.07,0.43c-1.25,0.1-2.48,0.17-3.67,0.24
				c-1.2,0.06-2.29,0.09-3.25,0.09h-1.98v-1.13c0-0.56-0.02-1.37-0.05-2.4c-0.03-1.03-0.05-2.34-0.05-4v-6.02
				c0-4.1,0.05-7.77,0.14-10.91c0.1-3.18,0.2-5.22,0.33-6.22l0.01-0.07l0.07-0.01c0.63-0.13,1.66-0.24,3.07-0.33
				c1.41-0.09,2.79-0.14,4.1-0.14c4.12,0,7.67,0.19,10.55,0.57c2.88,0.37,4.88,0.82,5.95,1.32c4.43,2.19,9.23,6.48,14.28,12.76
				l0.79-0.39l-6.34-15.37h-51.75v0.76c1.66,0.25,3.02,0.51,4.07,0.79c1.08,0.29,2.11,0.94,3.06,1.96c0.39,0.39,0.69,1,0.92,1.88
				c0.22,0.85,0.38,1.82,0.47,2.88c0.09,1.05,0.16,2.19,0.19,3.39c0.03,1.19,0.05,2.36,0.05,3.48v23.79c0,1.87-0.02,3.72-0.05,5.5
				c-0.03,1.79-0.06,3.43-0.09,4.94c-0.03,1.47-0.05,2.67-0.05,3.57c0,0.98-0.03,2.01-0.09,3.06c-0.06,1.04-0.18,2.04-0.33,2.97
				c-0.16,0.95-0.33,1.79-0.52,2.5c-0.19,0.73-0.45,1.3-0.77,1.68c-0.89,1.01-2.02,1.81-3.38,2.38c-1.33,0.56-2.78,0.96-4.31,1.22
				V164.17z"/>
		</g>
		<g>
			<path class="st0" d="M613.61,99.29c-1.41,0.88-2.49,2.23-3.24,4.04c-0.44,0.94-0.72,2.68-0.85,5.22
				c-0.13,2.54-0.25,5.25-0.38,8.13c-0.13,2.7-0.23,5.88-0.33,9.55c-0.09,3.67-0.14,7.6-0.14,11.8c0,1.76,0,3.76,0,6.02
				c0,2.2,0.01,4.44,0.05,6.72c0.03,2.29,0.05,4.56,0.05,6.82s0,4.3,0,6.11c0,0.25-0.08,0.46-0.24,0.61
				c-0.16,0.16-0.39,0.24-0.7,0.24c-0.5,0-1.07-0.31-1.69-0.94c-5.33-6.14-10.19-11.79-14.58-16.93
				c-4.39-5.14-8.57-10.05-12.55-14.72c-3.98-4.67-7.89-9.23-11.71-13.68c-3.83-4.45-7.87-9.06-12.13-13.82v39.69
				c0,3.2,0.08,6.08,0.23,8.65c0.16,2.57,0.55,4.48,1.18,5.74c0.69,1.44,1.77,2.52,3.24,3.24c1.47,0.72,3.49,1.24,6.07,1.55v0.94
				h-23.13v-0.94c1.5-0.19,3.01-0.58,4.51-1.18c1.51-0.6,2.69-1.58,3.57-2.96c0.88-1.32,1.44-3.26,1.69-5.83
				c0.25-2.57,0.44-5.64,0.56-9.22c0.13-2.69,0.22-5.88,0.28-9.55c0.06-3.67,0.09-7.6,0.09-11.8c0-1.82,0-3.32,0-4.51
				c0-1.19,0-2.35,0-3.48c0-1.13,0-2.29,0-3.48c0-1.25-0.03-2.79-0.09-4.61c-0.19-1.82-0.63-3.31-1.32-4.47
				c-0.69-1.16-1.5-2.07-2.44-2.73c-0.94-0.66-1.96-1.13-3.06-1.41c-1.1-0.28-2.15-0.49-3.15-0.61v-0.94h19.09l44.58,52.1v-31.97
				c0-2.51-0.03-4.9-0.09-7.19c-0.06-2.29-0.35-4.09-0.85-5.41c-0.63-1.75-1.74-3.18-3.34-4.28c-1.6-1.1-3.9-1.87-6.91-2.3v-0.94
				h23.32v0.94C616.88,97.81,615.02,98.41,613.61,99.29z"/>
			<path class="st0" d="M607.82,164.65c-0.53,0-1.12-0.33-1.76-0.97c-5.49-6.33-10.26-11.87-14.58-16.93
				c-4.39-5.14-8.57-10.05-12.55-14.72c-3.92-4.6-7.86-9.2-11.71-13.68c-3.77-4.38-7.79-8.97-11.96-13.63v39.43
				c0,3.2,0.08,6.11,0.23,8.65c0.16,2.55,0.55,4.46,1.16,5.7c0.68,1.42,1.76,2.49,3.2,3.2c1.45,0.71,3.48,1.23,6.03,1.54l0.08,0.01
				v1.12h-23.33v-1.12l0.08-0.01c1.49-0.19,3-0.58,4.49-1.17c1.48-0.58,2.66-1.57,3.53-2.92c0.87-1.3,1.43-3.24,1.68-5.79
				c0.25-2.55,0.44-5.65,0.56-9.21c0.12-2.68,0.22-5.89,0.28-9.54c0.06-3.62,0.09-7.59,0.09-11.8v-11.47c0-1.26-0.03-2.81-0.09-4.61
				c-0.18-1.79-0.62-3.28-1.3-4.42c-0.68-1.14-1.49-2.05-2.42-2.7c-0.93-0.65-1.94-1.12-3.02-1.4c-1.08-0.28-2.14-0.48-3.14-0.61
				l-0.08-0.01v-1.12h19.23l0.03,0.03l44.4,51.9v-31.71c0-2.46-0.03-4.88-0.09-7.19c-0.06-2.27-0.35-4.07-0.84-5.38
				c-0.62-1.73-1.73-3.15-3.3-4.23c-1.58-1.08-3.89-1.85-6.87-2.29l-0.08-0.01v-1.12h23.52v1.12l-0.08,0.01
				c-2.3,0.31-4.17,0.91-5.56,1.77l0,0c-1.39,0.86-2.47,2.21-3.21,4c-0.43,0.93-0.72,2.67-0.84,5.19c-0.12,2.47-0.25,5.13-0.38,8.13
				c-0.12,2.66-0.24,5.87-0.33,9.54c-0.09,3.63-0.14,7.6-0.14,11.8v6.02c0,2.29,0.02,4.55,0.05,6.72c0.03,2.36,0.05,4.65,0.05,6.82
				v6.11c0,0.28-0.09,0.5-0.26,0.68C608.42,164.56,608.16,164.65,607.82,164.65z M555.06,104.2l0.17,0.19
				c4.23,4.73,8.31,9.38,12.13,13.83c3.85,4.48,7.79,9.09,11.71,13.68c3.98,4.67,8.17,9.58,12.55,14.72
				c4.32,5.06,9.09,10.6,14.58,16.93c0.6,0.6,1.14,0.91,1.62,0.91c0.28,0,0.5-0.07,0.64-0.21c0.14-0.14,0.21-0.32,0.21-0.54v-6.11
				c0-2.17-0.02-4.46-0.05-6.82c-0.03-2.17-0.05-4.43-0.05-6.72v-6.02c0-4.2,0.05-8.17,0.14-11.8c0.09-3.67,0.2-6.89,0.33-9.55
				c0.13-3,0.25-5.66,0.38-8.13c0.12-2.54,0.41-4.31,0.86-5.26c0.76-1.82,1.86-3.2,3.28-4.09l0,0c1.4-0.87,3.26-1.47,5.55-1.79
				v-0.76h-23.13v0.76c2.97,0.44,5.28,1.22,6.87,2.31c1.61,1.1,2.74,2.56,3.37,4.33c0.5,1.32,0.79,3.15,0.85,5.44
				c0.06,2.32,0.09,4.74,0.09,7.2v32.24l-0.17-0.2l-44.55-52.06H543.5v0.76c0.98,0.13,2.02,0.33,3.08,0.6
				c1.1,0.28,2.14,0.76,3.09,1.43c0.95,0.66,1.78,1.59,2.47,2.76c0.69,1.17,1.14,2.69,1.33,4.51c0.06,1.8,0.09,3.36,0.09,4.62v11.47
				c0,4.21-0.03,8.18-0.09,11.8c-0.06,3.65-0.16,6.87-0.28,9.55c-0.13,3.56-0.32,6.66-0.56,9.22c-0.25,2.58-0.83,4.55-1.71,5.88
				c-0.88,1.39-2.1,2.4-3.62,3c-1.47,0.58-2.97,0.98-4.45,1.17v0.76h22.94v-0.76c-2.53-0.31-4.55-0.84-6.01-1.55
				c-1.49-0.73-2.59-1.83-3.29-3.29c-0.63-1.26-1.03-3.2-1.18-5.77c-0.16-2.54-0.23-5.46-0.23-8.66V104.2z"/>
		</g>
		<g>
			<path class="st0" d="M741.74,112.83c-2.57-3.2-5.02-5.92-7.34-8.18c-2.32-2.26-4.58-3.92-6.77-4.98
				c-1.07-0.5-2.99-0.92-5.78-1.27c-2.79-0.34-6.04-0.52-9.73-0.52c-0.63,0-1.35,0.02-2.16,0.05c-0.82,0.03-1.6,0.06-2.35,0.09
				c-0.75,0.03-1.46,0.06-2.12,0.09c-0.66,0.03-1.15,0.05-1.46,0.05c-0.06,0.38-0.14,0.75-0.24,1.13c-0.09,0.38-0.17,0.82-0.23,1.32
				c-0.06,0.5-0.13,1.14-0.19,1.93c-0.06,0.79-0.13,1.74-0.19,2.87c-0.06,2.2-0.11,4.59-0.14,7.19c-0.03,2.6-0.05,5.06-0.05,7.38
				c0,2.32,0,4.33,0,6.02c0,1.63,0,2.6,0,2.92c0.19,0,0.75,0,1.69,0c1,0,2.12-0.03,3.34-0.09c1.22-0.06,2.49-0.14,3.81-0.24
				c1.32-0.09,2.41-0.23,3.29-0.42c2.26-0.5,4.04-1.16,5.36-1.97c1.32-0.81,2.35-1.79,3.1-2.92c0.75-1.13,1.28-2.37,1.6-3.71
				c0.31-1.35,0.59-2.81,0.85-4.37h1.13v30.28h-1.13c-0.5-2.01-1.22-4.12-2.16-6.35c-0.94-2.22-2.07-3.93-3.39-5.13
				c-1.19-1.07-2.46-1.86-3.81-2.4c-1.35-0.53-2.93-0.86-4.75-0.99c-0.94-0.06-1.76-0.11-2.44-0.14c-0.69-0.03-1.35-0.05-1.97-0.05
				c-0.63,0-1.29,0-1.97,0c-0.69,0-1.54,0-2.54,0c0,2.01,0,4.01,0,6.02c0,1.94,0,3.82,0,5.64c0,1.76,0.01,3.37,0.05,4.84
				c0.03,1.47,0.05,2.74,0.05,3.81c0.06,2.01,0.17,3.9,0.33,5.69c0.16,1.79,0.52,3.12,1.08,4c0.56,0.88,1.52,1.55,2.87,2.02
				c1.35,0.47,3.31,0.77,5.88,0.89v0.94h-30.09v-0.94c1.57-0.25,3.02-0.66,4.37-1.22c1.35-0.56,2.46-1.35,3.34-2.35
				c0.31-0.38,0.56-0.92,0.75-1.65c0.19-0.72,0.36-1.55,0.52-2.49c0.16-0.94,0.27-1.93,0.33-2.96c0.06-1.03,0.09-2.05,0.09-3.06
				c0-0.88,0.02-2.07,0.05-3.57c0.03-1.51,0.06-3.15,0.09-4.94c0.03-1.79,0.05-3.62,0.05-5.5c0-1.94,0-3.76,0-5.45v-18.34
				c0-1.13-0.02-2.29-0.05-3.48c-0.03-1.19-0.09-2.32-0.19-3.39c-0.09-1.07-0.25-2.02-0.47-2.87c-0.22-0.85-0.52-1.46-0.89-1.83
				c-0.94-1-1.94-1.65-3.01-1.93c-1.07-0.28-2.45-0.55-4.14-0.8v-0.94h52.29l6.4,15.8L741.74,112.83z"/>
			<path class="st0" d="M713.34,164.36h-30.29v-1.12l0.08-0.01c1.55-0.25,3.01-0.66,4.35-1.22c1.33-0.56,2.44-1.34,3.3-2.33
				c0.3-0.36,0.55-0.9,0.73-1.61c0.19-0.71,0.36-1.55,0.52-2.48c0.16-0.94,0.27-1.93,0.33-2.95c0.06-1.04,0.09-2.07,0.09-3.05
				c0-0.93,0.02-2.17,0.05-3.58c0.03-1.5,0.06-3.15,0.09-4.94c0.03-1.84,0.05-3.69,0.05-5.5v-23.79c0-1.1-0.02-2.23-0.05-3.48
				c-0.03-1.2-0.1-2.34-0.19-3.38c-0.09-1.05-0.25-2.01-0.47-2.85c-0.21-0.83-0.51-1.43-0.87-1.79c-0.93-0.99-1.92-1.63-2.96-1.9
				c-1.06-0.28-2.45-0.55-4.13-0.8l-0.08-0.01v-1.12h52.45l6.45,15.94l-1.09,0.54l-0.05-0.06c-2.55-3.18-5.02-5.93-7.33-8.17
				c-2.3-2.24-4.57-3.91-6.75-4.97c-1.05-0.49-2.99-0.92-5.75-1.26c-2.78-0.34-6.05-0.52-9.72-0.52c-0.62,0-1.33,0.02-2.16,0.05
				l-0.42,0.02c-0.66,0.03-1.31,0.05-1.93,0.08c-0.75,0.03-1.46,0.06-2.12,0.09c-0.58,0.03-1.05,0.04-1.38,0.05
				c-0.06,0.35-0.14,0.7-0.22,1.05c-0.09,0.37-0.17,0.81-0.23,1.31c-0.06,0.51-0.13,1.16-0.19,1.92c-0.06,0.8-0.13,1.77-0.19,2.87
				c-0.06,2.21-0.11,4.63-0.14,7.19c-0.03,2.47-0.05,4.95-0.05,7.38v8.84h1.59c1.02,0,2.14-0.03,3.33-0.09
				c1.18-0.06,2.46-0.14,3.81-0.24c1.31-0.09,2.41-0.23,3.28-0.42c2.23-0.5,4.03-1.16,5.33-1.96c1.3-0.8,2.33-1.77,3.07-2.89
				c0.74-1.11,1.27-2.35,1.59-3.68c0.31-1.34,0.59-2.81,0.84-4.37l0.01-0.08h1.31v30.47h-1.3l-0.02-0.07c-0.5-2-1.23-4.13-2.16-6.33
				c-0.93-2.2-2.06-3.91-3.36-5.09c-1.18-1.05-2.45-1.85-3.78-2.38c-1.33-0.53-2.92-0.86-4.72-0.98c-0.88-0.06-1.7-0.11-2.44-0.14
				c-0.7-0.03-1.36-0.05-1.97-0.05h-4.42v11.56c0,1.84,0.02,3.43,0.05,4.84c0.03,1.47,0.05,2.75,0.05,3.81
				c0.06,2,0.17,3.91,0.33,5.68c0.15,1.76,0.51,3.09,1.07,3.95c0.55,0.86,1.5,1.52,2.82,1.98c1.33,0.47,3.3,0.76,5.85,0.89l0.09,0
				V164.36z M683.25,164.17h29.9v-0.75c-2.52-0.13-4.48-0.43-5.81-0.89c-1.36-0.47-2.35-1.17-2.92-2.06
				c-0.57-0.89-0.94-2.25-1.1-4.04c-0.16-1.77-0.27-3.69-0.33-5.69c0-1.06-0.02-2.34-0.05-3.81c-0.03-1.42-0.05-3-0.05-4.84v-11.76
				h4.61c0.61,0,1.28,0.02,1.98,0.05c0.74,0.04,1.57,0.08,2.45,0.14c1.82,0.13,3.43,0.46,4.78,0.99c1.35,0.53,2.64,1.35,3.84,2.42
				c1.32,1.2,2.47,2.93,3.41,5.16c0.92,2.18,1.65,4.3,2.15,6.29h0.96v-30.09h-0.95c-0.25,1.53-0.53,2.98-0.84,4.3
				c-0.32,1.36-0.86,2.62-1.61,3.75c-0.76,1.14-1.81,2.13-3.13,2.94c-1.32,0.82-3.13,1.49-5.39,1.99c-0.88,0.19-1.99,0.33-3.31,0.43
				c-1.35,0.1-2.63,0.17-3.81,0.24c-1.2,0.06-2.32,0.09-3.34,0.09h-1.79v-9.03c0-2.43,0.02-4.92,0.05-7.38
				c0.03-2.56,0.08-4.98,0.14-7.19c0.06-1.1,0.12-2.07,0.19-2.87c0.06-0.77,0.12-1.42,0.19-1.93c0.06-0.5,0.14-0.95,0.24-1.33
				c0.09-0.37,0.17-0.75,0.23-1.12l0.01-0.08h0.08c0.33,0,0.83-0.02,1.45-0.05c0.66-0.03,1.36-0.06,2.12-0.09
				c0.62-0.03,1.26-0.05,1.93-0.08l0.42-0.02c0.84-0.03,1.55-0.05,2.17-0.05c3.68,0,6.95,0.17,9.75,0.52
				c2.78,0.34,4.74,0.78,5.81,1.28c2.2,1.07,4.48,2.75,6.8,5c2.3,2.24,4.75,4.97,7.3,8.13l0.79-0.39l-6.34-15.66h-52.13v0.76
				c1.65,0.25,3.02,0.51,4.07,0.79c1.08,0.29,2.1,0.94,3.05,1.96c0.38,0.38,0.69,1.02,0.92,1.88c0.22,0.85,0.38,1.82,0.47,2.88
				c0.09,1.05,0.16,2.19,0.19,3.39c0.03,1.24,0.05,2.38,0.05,3.48v23.79c0,1.81-0.02,3.66-0.05,5.5c-0.03,1.79-0.06,3.43-0.09,4.94
				c-0.03,1.41-0.05,2.64-0.05,3.57c0,0.98-0.03,2.01-0.09,3.06c-0.06,1.02-0.17,2.02-0.33,2.97c-0.16,0.94-0.33,1.78-0.52,2.5
				c-0.19,0.73-0.45,1.3-0.77,1.68c-0.88,1.01-2.02,1.81-3.37,2.38c-1.33,0.56-2.78,0.96-4.31,1.22V164.17z"/>
		</g>
		<g>
			<path class="st0" d="M831.78,99.29c-1.35,0.88-2.4,2.23-3.15,4.04c-0.19,0.44-0.36,1.16-0.52,2.16c-0.16,1-0.3,2.16-0.42,3.48
				c-0.13,1.32-0.22,2.71-0.28,4.18c-0.06,1.47-0.09,2.93-0.09,4.37c-0.06,2.7-0.14,5.71-0.23,9.03c-0.09,3.32-0.2,7.09-0.33,11.28
				c-0.06,1.19-0.14,2.7-0.23,4.51c-0.09,1.82-0.39,3.75-0.89,5.78c-0.5,2.04-1.3,4.08-2.4,6.11c-1.1,2.04-2.65,3.89-4.66,5.55
				c-2.01,1.66-4.58,2.98-7.71,3.95c-3.14,0.97-6.99,1.46-11.57,1.46c-4.51,0-8.32-0.47-11.43-1.41c-3.1-0.94-5.66-2.21-7.66-3.81
				c-2.01-1.6-3.56-3.35-4.66-5.27c-1.1-1.91-1.91-3.79-2.44-5.64c-0.53-1.85-0.85-3.54-0.94-5.08c-0.09-1.54-0.14-2.68-0.14-3.43
				c0-1.75,0.02-4.04,0.05-6.86c0.03-2.82,0.05-5.96,0.05-9.4v-12.51c0-1.13,0-2.26,0-3.39c0-1.13-0.05-2.18-0.14-3.15
				c-0.09-0.97-0.23-1.85-0.42-2.63c-0.19-0.78-0.47-1.39-0.85-1.83c-0.88-1.06-1.96-1.83-3.24-2.3c-1.29-0.47-2.74-0.8-4.37-0.99
				v-0.94h28.02v0.94c-0.88,0.13-1.82,0.31-2.82,0.56c-1,0.25-1.91,0.64-2.73,1.18c-0.82,0.53-1.5,1.27-2.07,2.21
				c-0.56,0.94-0.88,2.13-0.94,3.57c-0.06,1.63-0.11,3.07-0.14,4.33c-0.03,1.25-0.05,2.48-0.05,3.67c0,1.19,0,2.44,0,3.76
				c0,1.25,0,2.73,0,4.42c0,2.13,0,4.04,0,5.74c0,1.69,0,3.29,0,4.8c0,1.44,0.01,2.84,0.05,4.18c0.03,1.35,0.05,2.77,0.05,4.28
				c0.06,3.32,0.56,6.35,1.5,9.07c0.94,2.73,2.26,5.05,3.95,6.96c1.69,1.91,3.76,3.39,6.21,4.42c2.44,1.03,5.23,1.55,8.37,1.55
				c3.57,0,6.6-0.41,9.07-1.22c2.48-0.81,4.54-1.94,6.21-3.39c1.66-1.44,2.98-3.1,3.95-4.98c0.97-1.88,1.69-3.89,2.16-6.02
				c0.47-2.13,0.78-4.31,0.94-6.54c0.16-2.22,0.24-4.4,0.24-6.54c0-1.69,0-3.23,0-4.61c0-1.38,0-2.66,0-3.86c0-1.25,0-2.48,0-3.67
				c0-1.25,0-2.54,0-3.86c0-1.25-0.02-2.54-0.05-3.86c-0.03-1.32-0.08-2.57-0.14-3.76c-0.06-1.19-0.16-2.3-0.28-3.34
				c-0.13-1.03-0.31-1.86-0.56-2.49c-0.63-1.75-1.71-3.18-3.24-4.28c-1.54-1.1-3.81-1.87-6.82-2.3v-0.94h23.32v0.94
				C834.96,97.81,833.13,98.41,831.78,99.29z"/>
			<path class="st0" d="M799.29,165.31c-4.5,0-8.36-0.48-11.45-1.42c-3.1-0.94-5.69-2.23-7.7-3.82c-2.01-1.6-3.58-3.38-4.68-5.29
				c-1.1-1.91-1.92-3.82-2.45-5.66c-0.53-1.84-0.85-3.55-0.94-5.1c-0.09-1.51-0.14-2.67-0.14-3.44c0-1.75,0.02-4.06,0.05-6.87
				c0.03-2.76,0.05-5.93,0.05-9.4v-15.89c0-1.11-0.05-2.17-0.14-3.14c-0.09-0.96-0.23-1.85-0.42-2.62
				c-0.18-0.76-0.46-1.37-0.83-1.79c-0.87-1.05-1.94-1.81-3.21-2.28c-1.27-0.46-2.74-0.8-4.35-0.98l-0.09-0.01v-1.12h28.22v1.12
				l-0.08,0.01c-0.87,0.12-1.82,0.31-2.81,0.56c-0.99,0.25-1.9,0.64-2.7,1.16c-0.8,0.52-1.48,1.26-2.04,2.18
				c-0.55,0.92-0.87,2.11-0.93,3.53c-0.06,1.68-0.11,3.1-0.14,4.32c-0.03,1.19-0.05,2.42-0.05,3.67v18.71
				c0,1.52,0.02,2.89,0.05,4.18c0.03,1.39,0.05,2.83,0.05,4.28c0.06,3.29,0.57,6.34,1.5,9.04c0.93,2.7,2.25,5.03,3.93,6.93
				c1.68,1.89,3.75,3.37,6.17,4.39c2.42,1.02,5.22,1.54,8.33,1.54c3.55,0,6.59-0.41,9.04-1.22c2.45-0.81,4.53-1.94,6.17-3.37
				c1.64-1.43,2.96-3.09,3.93-4.96c0.96-1.86,1.69-3.88,2.16-6c0.47-2.11,0.78-4.31,0.94-6.52c0.16-2.23,0.24-4.43,0.24-6.53v-15.99
				c0-1.2-0.02-2.5-0.05-3.85c-0.03-1.33-0.08-2.59-0.14-3.76c-0.06-1.19-0.16-2.31-0.28-3.33c-0.12-1.02-0.31-1.85-0.56-2.47
				c-0.62-1.73-1.7-3.15-3.21-4.24c-1.52-1.08-3.8-1.85-6.77-2.29l-0.08-0.01v-1.12h23.52v1.12l-0.08,0.01
				c-2.29,0.31-4.13,0.91-5.46,1.77v0c-1.32,0.86-2.37,2.21-3.11,4c-0.19,0.44-0.36,1.16-0.51,2.14c-0.16,1-0.29,2.13-0.42,3.47
				c-0.13,1.31-0.22,2.71-0.28,4.18c-0.06,1.45-0.09,2.92-0.09,4.37c-0.07,2.89-0.15,5.93-0.23,9.03c-0.09,3.32-0.2,7.09-0.33,11.28
				c-0.05,0.88-0.1,1.93-0.16,3.15l-0.07,1.37c-0.09,1.81-0.4,3.76-0.9,5.8c-0.5,2.03-1.31,4.1-2.41,6.14
				c-1.1,2.04-2.67,3.92-4.68,5.58c-2.01,1.66-4.61,3-7.74,3.97C807.75,164.81,803.85,165.31,799.29,165.31z M763.18,97.41
				c1.59,0.19,3.04,0.52,4.31,0.98c1.29,0.47,2.4,1.26,3.29,2.33c0.38,0.45,0.67,1.08,0.86,1.87c0.19,0.78,0.33,1.67,0.43,2.65
				c0.09,0.98,0.14,2.04,0.14,3.16v15.89c0,3.48-0.02,6.64-0.05,9.4c-0.03,2.81-0.05,5.12-0.05,6.86c0,0.76,0.05,1.92,0.14,3.43
				c0.09,1.53,0.41,3.23,0.94,5.06c0.53,1.83,1.35,3.72,2.44,5.62c1.08,1.89,2.64,3.65,4.63,5.24c1.99,1.58,4.56,2.86,7.63,3.79
				c3.08,0.93,6.91,1.41,11.4,1.41c4.54,0,8.42-0.49,11.54-1.45c3.11-0.96,5.69-2.29,7.68-3.93c1.98-1.64,3.54-3.5,4.63-5.52
				c1.09-2.02,1.89-4.07,2.39-6.09c0.5-2.03,0.8-3.97,0.89-5.76l0.07-1.37c0.06-1.22,0.12-2.27,0.16-3.15
				c0.12-4.2,0.24-7.96,0.33-11.28c0.09-3.1,0.17-6.14,0.23-9.03c0-1.45,0.03-2.92,0.09-4.37c0.06-1.47,0.16-2.88,0.28-4.19
				c0.13-1.35,0.27-2.49,0.43-3.48c0.16-1,0.33-1.74,0.52-2.19c0.76-1.83,1.83-3.2,3.19-4.09v0c1.34-0.87,3.17-1.47,5.46-1.79v-0.76
				h-23.13v0.76c2.97,0.44,5.25,1.22,6.78,2.31c1.54,1.1,2.65,2.56,3.28,4.32c0.25,0.63,0.44,1.48,0.57,2.51
				c0.13,1.02,0.22,2.15,0.29,3.34c0.06,1.17,0.11,2.43,0.14,3.76c0.03,1.36,0.05,2.65,0.05,3.86v15.99c0,2.1-0.08,4.3-0.24,6.54
				c-0.16,2.22-0.47,4.43-0.94,6.55c-0.47,2.13-1.2,4.16-2.17,6.04c-0.97,1.88-2.31,3.57-3.97,5.01c-1.66,1.44-3.76,2.59-6.24,3.4
				c-2.47,0.81-5.54,1.23-9.11,1.23c-3.13,0-5.96-0.52-8.41-1.56c-2.45-1.04-4.55-2.53-6.24-4.45c-1.69-1.91-3.03-4.27-3.97-6.99
				c-0.94-2.73-1.45-5.79-1.51-9.11c0-1.45-0.02-2.89-0.05-4.28c-0.03-1.3-0.05-2.67-0.05-4.19v-18.71c0-1.25,0.02-2.48,0.05-3.67
				c0.03-1.23,0.08-2.64,0.14-4.33c0.06-1.45,0.38-2.67,0.95-3.62c0.57-0.95,1.28-1.7,2.1-2.24c0.82-0.54,1.75-0.94,2.76-1.19
				c0.97-0.24,1.89-0.43,2.75-0.55v-0.76h-27.83V97.41z"/>
		</g>
		<g>
			<path class="st0" d="M930.99,99.29c-1.41,0.88-2.49,2.23-3.24,4.04c-0.44,0.94-0.72,2.68-0.85,5.22
				c-0.13,2.54-0.25,5.25-0.38,8.13c-0.13,2.7-0.23,5.88-0.33,9.55c-0.09,3.67-0.14,7.6-0.14,11.8c0,1.76,0,3.76,0,6.02
				c0,2.2,0.01,4.44,0.05,6.72c0.03,2.29,0.05,4.56,0.05,6.82s0,4.3,0,6.11c0,0.25-0.08,0.46-0.24,0.61
				c-0.16,0.16-0.39,0.24-0.7,0.24c-0.5,0-1.07-0.31-1.69-0.94c-5.33-6.14-10.19-11.79-14.58-16.93
				c-4.39-5.14-8.57-10.05-12.55-14.72c-3.98-4.67-7.89-9.23-11.71-13.68c-3.83-4.45-7.87-9.06-12.13-13.82v39.69
				c0,3.2,0.08,6.08,0.23,8.65c0.16,2.57,0.55,4.48,1.18,5.74c0.69,1.44,1.77,2.52,3.24,3.24c1.47,0.72,3.49,1.24,6.07,1.55v0.94
				h-23.13v-0.94c1.5-0.19,3.01-0.58,4.51-1.18c1.51-0.6,2.69-1.58,3.57-2.96c0.88-1.32,1.44-3.26,1.69-5.83
				c0.25-2.57,0.44-5.64,0.56-9.22c0.13-2.69,0.22-5.88,0.28-9.55c0.06-3.67,0.09-7.6,0.09-11.8c0-1.82,0-3.32,0-4.51
				c0-1.19,0-2.35,0-3.48c0-1.13,0-2.29,0-3.48c0-1.25-0.03-2.79-0.09-4.61c-0.19-1.82-0.63-3.31-1.32-4.47
				c-0.69-1.16-1.5-2.07-2.44-2.73c-0.94-0.66-1.96-1.13-3.06-1.41c-1.1-0.28-2.15-0.49-3.15-0.61v-0.94h19.09l44.58,52.1v-31.97
				c0-2.51-0.03-4.9-0.09-7.19c-0.06-2.29-0.35-4.09-0.85-5.41c-0.63-1.75-1.74-3.18-3.34-4.28c-1.6-1.1-3.9-1.87-6.91-2.3v-0.94
				h23.32v0.94C934.27,97.81,932.41,98.41,930.99,99.29z"/>
			<path class="st0" d="M925.21,164.65c-0.53,0-1.12-0.33-1.76-0.97c-5.32-6.14-10.23-11.83-14.58-16.93
				c-4.39-5.14-8.57-10.05-12.55-14.72c-3.84-4.5-7.78-9.1-11.71-13.68c-3.78-4.4-7.8-8.98-11.96-13.63v39.43
				c0,3.2,0.08,6.11,0.23,8.65c0.16,2.55,0.55,4.47,1.17,5.7c0.68,1.42,1.75,2.49,3.2,3.2c1.45,0.71,3.48,1.23,6.03,1.54l0.08,0.01
				v1.12h-23.33v-1.12l0.08-0.01c1.49-0.19,3.01-0.58,4.49-1.17c1.48-0.59,2.66-1.57,3.53-2.92c0.86-1.3,1.43-3.24,1.68-5.79
				c0.25-2.55,0.44-5.65,0.56-9.21c0.12-2.66,0.22-5.88,0.28-9.54c0.06-3.71,0.09-7.68,0.09-11.8v-11.47c0-1.23-0.03-2.74-0.09-4.61
				c-0.19-1.79-0.63-3.28-1.3-4.42c-0.68-1.14-1.49-2.05-2.42-2.7c-0.93-0.65-1.95-1.12-3.03-1.4c-1.08-0.28-2.13-0.48-3.14-0.61
				l-0.08-0.01v-1.12h19.23l0.03,0.03l44.4,51.9v-31.71c0-2.44-0.03-4.86-0.09-7.19c-0.06-2.26-0.35-4.07-0.84-5.38
				c-0.62-1.73-1.73-3.15-3.3-4.23c-1.58-1.08-3.89-1.85-6.87-2.29l-0.08-0.01v-1.12h23.52v1.12l-0.08,0.01
				c-2.3,0.31-4.17,0.91-5.56,1.77l0,0c-1.39,0.86-2.46,2.21-3.21,4c-0.43,0.93-0.72,2.67-0.84,5.19c-0.12,2.47-0.25,5.13-0.38,8.13
				c-0.12,2.66-0.24,5.87-0.33,9.54c-0.09,3.63-0.14,7.6-0.14,11.8v6.02c0,2.29,0.02,4.55,0.05,6.72c0.03,2.36,0.05,4.65,0.05,6.82
				v6.11c0,0.28-0.09,0.5-0.26,0.68C925.81,164.56,925.55,164.65,925.21,164.65z M872.45,104.2l0.17,0.19
				c4.22,4.72,8.3,9.37,12.13,13.83c3.93,4.58,7.87,9.18,11.71,13.68c3.98,4.67,8.17,9.58,12.55,14.72
				c4.35,5.1,9.26,10.8,14.58,16.93c0.6,0.6,1.15,0.91,1.62,0.91c0.28,0,0.5-0.07,0.63-0.21c0.14-0.14,0.21-0.32,0.21-0.54v-6.11
				c0-2.17-0.02-4.46-0.05-6.82c-0.03-2.17-0.05-4.43-0.05-6.72v-6.02c0-4.2,0.05-8.17,0.14-11.8c0.09-3.67,0.2-6.89,0.33-9.55
				c0.13-3,0.25-5.66,0.38-8.13c0.12-2.54,0.41-4.31,0.86-5.26c0.76-1.82,1.86-3.2,3.28-4.09l0,0c1.4-0.87,3.26-1.47,5.55-1.79
				v-0.76h-23.13v0.76c2.97,0.44,5.28,1.22,6.87,2.31c1.61,1.1,2.74,2.56,3.37,4.33c0.5,1.32,0.79,3.15,0.85,5.44
				c0.06,2.34,0.09,4.76,0.09,7.2v32.24l-0.17-0.2l-44.55-52.06h-18.95v0.76c0.98,0.13,2.02,0.33,3.08,0.6
				c1.1,0.28,2.14,0.76,3.09,1.43c0.94,0.66,1.78,1.59,2.47,2.76c0.69,1.17,1.14,2.68,1.33,4.51c0.06,1.87,0.09,3.38,0.09,4.62
				v11.47c0,4.12-0.03,8.09-0.09,11.8c-0.06,3.67-0.16,6.88-0.28,9.55c-0.13,3.56-0.32,6.66-0.56,9.22
				c-0.25,2.58-0.83,4.55-1.71,5.88c-0.88,1.39-2.1,2.4-3.62,3c-1.47,0.58-2.97,0.98-4.45,1.17v0.76h22.94v-0.76
				c-2.53-0.31-4.55-0.84-6.01-1.55c-1.49-0.73-2.59-1.83-3.29-3.29c-0.63-1.26-1.03-3.2-1.19-5.77c-0.16-2.54-0.23-5.46-0.23-8.66
				V104.2z"/>
		</g>
		<g>
			<path class="st0" d="M1033.73,141.89c-1.13,3.57-2.67,6.65-4.61,9.22c-1.94,2.57-4.2,4.7-6.77,6.39
				c-2.57,1.69-5.3,3.04-8.18,4.04c-2.88,1-5.86,1.71-8.93,2.12c-3.07,0.41-6.05,0.61-8.93,0.61h-34.33v-0.94
				c1.57-0.19,3.09-0.59,4.56-1.22c1.47-0.63,2.59-1.38,3.34-2.26c0.31-0.31,0.55-0.85,0.71-1.6c0.16-0.75,0.3-1.6,0.42-2.54
				c0.12-0.94,0.22-1.94,0.28-3.01c0.06-1.07,0.09-2.1,0.09-3.1c0-0.88,0.02-2.07,0.05-3.57c0.03-1.51,0.06-3.15,0.09-4.94
				c0.03-1.79,0.05-3.62,0.05-5.5c0-1.94,0-3.76,0-5.45v-18.34c0-1.13,0-2.26,0-3.39c0-1.13-0.05-2.18-0.14-3.15
				c-0.09-0.97-0.23-1.85-0.42-2.63c-0.19-0.78-0.47-1.39-0.85-1.83c-0.94-1.13-2.07-1.91-3.39-2.35c-1.32-0.44-2.79-0.75-4.42-0.94
				v-0.94c2.63,0,6.43-0.01,11.38-0.05c4.95-0.03,10.94-0.05,17.96-0.05c2.01,0,4.01,0,6.02,0c2.07,0,4.14,0.09,6.21,0.28
				c2.07,0.19,4.14,0.5,6.21,0.94c2.07,0.44,4.11,1.1,6.11,1.97c2.63,1.13,5.11,2.57,7.43,4.33c2.32,1.76,4.34,3.84,6.07,6.25
				c1.72,2.41,3.1,5.2,4.14,8.37c1.03,3.17,1.55,6.79,1.55,10.86C1035.43,134.17,1034.86,138.31,1033.73,141.89z M1022.17,119.03
				c-1.13-3.45-2.7-6.57-4.7-9.36c-2.01-2.79-4.39-5.16-7.15-7.1c-2.76-1.94-5.77-3.2-9.03-3.76c-1.25-0.25-2.63-0.45-4.14-0.61
				c-1.51-0.16-3.35-0.24-5.55-0.24c-0.75,0-1.57,0.02-2.44,0.05c-0.88,0.03-1.74,0.09-2.59,0.19c-0.85,0.09-1.63,0.17-2.35,0.23
				c-0.72,0.06-1.3,0.16-1.74,0.28c-0.31,3.07-0.5,7.3-0.56,12.7c-0.06,5.39-0.09,11.82-0.09,19.28c0,4.01,0,7.68,0,11
				c0,3.26,0.03,5.92,0.09,7.99c0,0.88,0.05,1.83,0.14,2.87s0.2,2.04,0.33,3.01c0.13,0.97,0.33,1.85,0.61,2.63
				c0.28,0.78,0.61,1.36,0.99,1.74c1.25,1.25,2.84,2.05,4.75,2.4c1.91,0.35,3.71,0.52,5.41,0.52c1.57,0,3.18-0.08,4.84-0.23
				c1.66-0.16,3.21-0.45,4.66-0.89c6.77-1.94,11.83-5.72,15.19-11.33c3.35-5.61,5.03-12.52,5.03-20.74
				C1023.86,126.03,1023.3,122.48,1022.17,119.03z"/>
			<path class="st0" d="M996.31,164.36h-34.42v-1.12l0.08-0.01c1.55-0.19,3.08-0.6,4.54-1.22c1.45-0.62,2.57-1.37,3.3-2.23
				c0.3-0.3,0.53-0.83,0.68-1.56c0.15-0.74,0.3-1.59,0.42-2.53c0.12-0.93,0.22-1.94,0.28-3c0.06-1.08,0.09-2.12,0.09-3.1
				c0-0.9,0.02-2.1,0.05-3.58c0.03-1.5,0.06-3.15,0.09-4.94c0.03-1.78,0.05-3.63,0.05-5.5v-27.18c0-1.12-0.05-2.18-0.14-3.14
				c-0.09-0.96-0.23-1.84-0.42-2.62c-0.18-0.76-0.46-1.37-0.83-1.79c-0.92-1.11-2.05-1.89-3.34-2.32c-1.31-0.44-2.79-0.75-4.4-0.94
				l-0.09-0.01v-1.12h0.1c2.77,0,6.71-0.02,11.38-0.05c5.01-0.03,11.06-0.05,17.96-0.05h6.02c2.06,0,4.15,0.1,6.21,0.28
				c2.06,0.19,4.15,0.5,6.22,0.94c2.06,0.44,4.12,1.1,6.13,1.98c2.62,1.12,5.13,2.58,7.45,4.34c2.31,1.75,4.36,3.86,6.09,6.27
				c1.72,2.41,3.12,5.23,4.15,8.4c1.03,3.16,1.56,6.83,1.56,10.89c0,4.69-0.57,8.88-1.7,12.44l0,0c-1.13,3.57-2.68,6.68-4.62,9.25
				c-1.94,2.57-4.23,4.72-6.79,6.42c-2.57,1.69-5.33,3.06-8.2,4.06c-2.88,1-5.89,1.72-8.95,2.12
				C1002.2,164.16,999.19,164.36,996.31,164.36z M962.08,164.17h34.23c2.87,0,5.88-0.2,8.92-0.61c3.05-0.4,6.05-1.11,8.91-2.11
				c2.86-0.99,5.6-2.35,8.16-4.03c2.55-1.68,4.82-3.82,6.75-6.37s3.47-5.64,4.59-9.19l0,0c1.12-3.55,1.69-7.71,1.69-12.38
				c0-4.04-0.52-7.69-1.55-10.83c-1.03-3.14-2.41-5.95-4.12-8.34c-1.71-2.4-3.75-4.49-6.05-6.23c-2.31-1.74-4.8-3.2-7.41-4.31
				c-2-0.87-4.05-1.53-6.09-1.97c-2.06-0.44-4.15-0.75-6.2-0.94c-2.06-0.19-4.15-0.28-6.2-0.28h-6.02c-6.91,0-12.95,0.02-17.96,0.05
				c-4.62,0.03-8.52,0.05-11.28,0.05v0.76c1.59,0.19,3.06,0.5,4.35,0.94c1.33,0.44,2.48,1.24,3.43,2.38
				c0.38,0.45,0.68,1.08,0.87,1.87c0.19,0.79,0.33,1.68,0.43,2.65c0.09,0.97,0.14,2.03,0.14,3.16v27.18c0,1.87-0.02,3.72-0.05,5.5
				c-0.03,1.79-0.06,3.43-0.09,4.94c-0.03,1.47-0.05,2.67-0.05,3.57c0,0.98-0.03,2.03-0.09,3.11c-0.06,1.06-0.16,2.08-0.28,3.02
				c-0.13,0.94-0.27,1.8-0.42,2.55c-0.16,0.77-0.41,1.32-0.73,1.65c-0.75,0.88-1.89,1.65-3.37,2.28c-1.45,0.61-2.96,1.03-4.5,1.22
				V164.17z M994.14,162.95c-1.7,0-3.52-0.17-5.42-0.52c-1.92-0.35-3.54-1.16-4.8-2.43c-0.39-0.38-0.72-0.98-1.01-1.77
				c-0.28-0.78-0.49-1.68-0.62-2.65c-0.12-0.94-0.23-1.93-0.33-3.01c-0.09-1.04-0.14-2.01-0.14-2.88c-0.06-2.04-0.09-4.73-0.09-7.99
				v-11c0-7.47,0.03-13.96,0.09-19.28c0.06-5.37,0.25-9.64,0.56-12.7l0.01-0.07l0.06-0.02c0.45-0.13,1.04-0.22,1.76-0.29
				c0.69-0.06,1.45-0.14,2.35-0.24c0.83-0.09,1.7-0.16,2.59-0.19c0.89-0.03,1.71-0.05,2.45-0.05c2.18,0,4.05,0.08,5.56,0.24
				c1.5,0.16,2.89,0.36,4.15,0.61c3.25,0.56,6.3,1.83,9.06,3.78c2.75,1.94,5.17,4.34,7.17,7.12c2,2.78,3.59,5.94,4.72,9.38l0,0
				c1.13,3.44,1.7,7.03,1.7,10.66c0,8.19-1.7,15.19-5.05,20.79c-3.35,5.61-8.48,9.43-15.25,11.37c-1.44,0.44-3.02,0.74-4.67,0.9
				C997.34,162.87,995.71,162.95,994.14,162.95z M982.57,98.8c-0.31,3.05-0.5,7.3-0.56,12.62c-0.06,5.32-0.09,11.81-0.09,19.28v11
				c0,3.26,0.03,5.95,0.09,7.99c0,0.87,0.05,1.83,0.14,2.86c0.1,1.08,0.2,2.07,0.33,3c0.13,0.96,0.33,1.84,0.61,2.61
				c0.28,0.77,0.6,1.34,0.96,1.7c1.23,1.24,2.81,2.03,4.7,2.37c1.89,0.34,3.71,0.52,5.39,0.52c1.56,0,3.19-0.08,4.83-0.23
				c1.64-0.15,3.21-0.45,4.64-0.89c6.71-1.93,11.81-5.72,15.13-11.29c3.33-5.57,5.02-12.53,5.02-20.69c0-3.61-0.57-7.17-1.69-10.6
				l0,0c-1.12-3.42-2.7-6.56-4.69-9.33c-1.99-2.77-4.39-5.15-7.12-7.08c-2.74-1.93-5.76-3.19-8.99-3.75
				c-1.25-0.25-2.64-0.45-4.13-0.61c-1.5-0.16-3.37-0.24-5.54-0.24c-0.73,0-1.55,0.02-2.44,0.05c-0.89,0.03-1.76,0.1-2.58,0.19
				c-0.9,0.1-1.66,0.18-2.35,0.24C983.56,98.59,983,98.68,982.57,98.8z"/>
		</g>
		<g>
			<path class="st0" d="M1107.7,153.83c-1.22,2.38-2.92,4.42-5.08,6.11c-2.16,1.69-4.75,2.95-7.76,3.76s-6.3,1.22-9.87,1.22
				c-3.07,0-5.71-0.19-7.9-0.56c-2.2-0.38-4.01-0.83-5.45-1.36c-1.44-0.53-2.52-1.02-3.24-1.46c-0.72-0.44-1.18-0.66-1.36-0.66
				s-0.6,0.38-1.22,1.13c-0.63,0.75-1.19,1.47-1.69,2.16h-0.85l-0.28-18.71h0.94c0.56,1.69,1.28,3.34,2.16,4.94
				c0.88,1.6,1.83,3.1,2.87,4.51c1.03,1.41,2.13,2.65,3.29,3.71c1.16,1.07,2.27,1.88,3.34,2.44c1.07,0.56,2.48,1.13,4.23,1.69
				c1.75,0.56,3.45,0.85,5.08,0.85c4.64,0,8.4-1.27,11.29-3.81c2.88-2.54,4.33-5.97,4.33-10.3c0-1.75-0.28-3.29-0.85-4.61
				c-0.56-1.32-1.33-2.46-2.3-3.43c-0.97-0.97-2.12-1.8-3.43-2.49c-1.32-0.69-2.73-1.32-4.23-1.88c-1.5-0.56-2.82-1.03-3.95-1.41
				c-1.13-0.38-2.18-0.74-3.15-1.08c-0.97-0.34-1.97-0.69-3.01-1.03c-1.03-0.34-2.27-0.8-3.71-1.36c-1.63-0.63-3.2-1.49-4.7-2.59
				c-1.5-1.1-2.82-2.38-3.95-3.86c-1.13-1.47-2.04-3.1-2.73-4.89c-0.69-1.79-1.03-3.68-1.03-5.69c0-3.39,0.62-6.3,1.85-8.75
				c1.24-2.45,2.9-4.48,4.98-6.11c2.09-1.63,4.49-2.84,7.22-3.62c2.73-0.78,5.6-1.18,8.6-1.18c2.82,0,5.23,0.23,7.24,0.71
				c2.01,0.47,3.65,0.99,4.94,1.55c1.28,0.56,2.26,1.08,2.92,1.55c0.66,0.47,1.02,0.71,1.08,0.71c0.19,0,0.58-0.38,1.18-1.13
				c0.59-0.75,1.14-1.5,1.65-2.26h1.03v17.4h-1.03c-0.75-2.07-1.72-4.12-2.92-6.16c-1.19-2.04-2.57-3.86-4.14-5.45
				c-1.57-1.6-3.35-2.9-5.36-3.9c-2.01-1-4.23-1.51-6.68-1.51c-1.94,0-3.78,0.28-5.5,0.85c-1.72,0.56-3.23,1.41-4.51,2.54
				c-1.29,1.13-2.29,2.52-3.01,4.18c-0.72,1.66-1.08,3.56-1.08,5.69c0,3.32,1,5.99,3,7.99c2,2.01,4.6,3.61,7.79,4.8
				c1.25,0.5,2.42,0.94,3.52,1.32c1.1,0.38,2.17,0.74,3.24,1.08c1.06,0.35,2.14,0.71,3.24,1.08c1.09,0.38,2.24,0.78,3.42,1.22
				c4.25,1.57,7.55,3.84,9.9,6.82c2.34,2.98,3.52,6.69,3.52,11.14C1109.53,148.75,1108.92,151.45,1107.7,153.83z"/>
			<path class="st0" d="M1084.99,165.02c-3.07,0-5.73-0.19-7.92-0.57c-2.19-0.37-4.03-0.83-5.47-1.37
				c-1.43-0.53-2.53-1.02-3.26-1.47c-0.88-0.53-1.2-0.64-1.31-0.64c-0.07,0-0.33,0.11-1.15,1.09c-0.62,0.75-1.19,1.47-1.69,2.16
				l-0.03,0.04h-0.99l0-0.1l-0.28-18.81h1.11l0.02,0.07c0.56,1.68,1.29,3.34,2.15,4.92c0.88,1.59,1.84,3.11,2.86,4.5
				c1.03,1.4,2.13,2.65,3.28,3.7c1.14,1.05,2.26,1.87,3.32,2.43c1.05,0.56,2.47,1.13,4.22,1.69c1.74,0.56,3.44,0.84,5.05,0.84
				c4.59,0,8.37-1.27,11.22-3.78c2.85-2.51,4.29-5.95,4.29-10.22c0-1.74-0.28-3.27-0.84-4.57c-0.55-1.3-1.32-2.44-2.28-3.4
				c-0.96-0.96-2.11-1.79-3.41-2.47c-1.32-0.69-2.74-1.32-4.22-1.88c-1.54-0.58-2.83-1.04-3.95-1.41c-1.19-0.4-2.22-0.75-3.15-1.08
				c-1.08-0.38-2.06-0.72-3.01-1.03c-1.03-0.34-2.24-0.79-3.72-1.37c-1.62-0.62-3.21-1.5-4.72-2.6c-1.51-1.1-2.84-2.4-3.97-3.88
				c-1.13-1.47-2.05-3.12-2.74-4.91c-0.69-1.79-1.04-3.72-1.04-5.72c0-3.39,0.63-6.34,1.87-8.79c1.24-2.44,2.92-4.51,5.01-6.14
				c2.09-1.63,4.53-2.85,7.26-3.64c2.72-0.78,5.63-1.18,8.63-1.18c2.81,0,5.26,0.24,7.26,0.71c2,0.47,3.67,0.99,4.95,1.56
				c1.29,0.56,2.27,1.09,2.93,1.56c0.83,0.59,1,0.68,1.04,0.69c0.06,0,0.31-0.11,1.09-1.09c0.59-0.75,1.14-1.5,1.64-2.25l0.03-0.04
				h1.18v17.59h-1.2l-0.02-0.06c-0.75-2.05-1.72-4.12-2.91-6.14c-1.18-2.02-2.57-3.85-4.12-5.44c-1.55-1.58-3.35-2.89-5.33-3.88
				c-1.99-0.99-4.22-1.5-6.63-1.5c-1.92,0-3.76,0.28-5.47,0.84c-1.71,0.56-3.21,1.41-4.48,2.52c-1.27,1.11-2.27,2.51-2.98,4.15
				c-0.71,1.64-1.07,3.54-1.07,5.65c0,3.28,1,5.95,2.97,7.92c1.98,1.99,4.59,3.59,7.75,4.77c1.22,0.49,2.4,0.93,3.51,1.32
				c1.17,0.4,2.23,0.75,3.24,1.08c1.06,0.34,2.15,0.71,3.24,1.08c1.07,0.37,2.22,0.78,3.43,1.22c4.25,1.57,7.59,3.87,9.94,6.85
				c2.35,2.98,3.54,6.75,3.54,11.2c0,3.01-0.62,5.75-1.84,8.13l0,0c-1.22,2.38-2.94,4.45-5.1,6.14c-2.17,1.7-4.79,2.97-7.79,3.78
				C1091.88,164.61,1088.55,165.02,1084.99,165.02z M1067.03,160.79c0.13,0,0.42,0.07,1.41,0.67c0.72,0.44,1.8,0.93,3.23,1.45
				c1.43,0.53,3.26,0.99,5.44,1.36c2.17,0.37,4.83,0.56,7.88,0.56c3.55,0,6.86-0.41,9.85-1.22c2.98-0.81,5.58-2.07,7.72-3.74
				c2.14-1.68,3.84-3.72,5.05-6.08v0c1.21-2.35,1.82-5.06,1.82-8.04c0-4.41-1.18-8.14-3.5-11.08c-2.32-2.95-5.64-5.23-9.85-6.79
				c-1.21-0.44-2.36-0.86-3.42-1.22c-1.09-0.37-2.18-0.74-3.23-1.08c-1.01-0.33-2.07-0.68-3.24-1.08c-1.12-0.39-2.31-0.83-3.52-1.32
				c-3.19-1.19-5.82-2.81-7.82-4.82c-2.01-2.01-3.03-4.73-3.03-8.06c0-2.14,0.37-4.07,1.09-5.73c0.72-1.67,1.74-3.09,3.03-4.22
				c1.29-1.13,2.82-1.99,4.55-2.56c1.73-0.56,3.59-0.85,5.53-0.85c2.45,0,4.71,0.51,6.72,1.52c2.01,1,3.82,2.32,5.39,3.92
				c1.56,1.6,2.96,3.44,4.15,5.47c1.18,2.02,2.15,4.07,2.9,6.11h0.87v-17.2h-0.88c-0.49,0.74-1.04,1.48-1.62,2.22
				c-0.82,1.03-1.1,1.17-1.25,1.17c-0.05,0-0.13,0-1.14-0.72c-0.65-0.46-1.62-0.98-2.9-1.54c-1.28-0.56-2.93-1.08-4.92-1.55
				c-1.99-0.47-4.42-0.7-7.22-0.7c-2.98,0-5.87,0.39-8.58,1.17c-2.7,0.78-5.12,1.99-7.19,3.6c-2.07,1.61-3.73,3.66-4.96,6.08
				c-1.22,2.42-1.84,5.35-1.84,8.7c0,1.98,0.35,3.89,1.03,5.65c0.68,1.77,1.6,3.41,2.71,4.86c1.12,1.46,2.44,2.75,3.93,3.84
				c1.5,1.09,3.07,1.96,4.68,2.57c1.47,0.58,2.69,1.02,3.71,1.36c0.95,0.32,1.94,0.65,3.01,1.03c0.93,0.33,1.96,0.69,3.15,1.08
				c1.12,0.37,2.41,0.83,3.95,1.41c1.49,0.56,2.92,1.19,4.24,1.89c1.32,0.69,2.48,1.54,3.45,2.51c0.98,0.98,1.76,2.14,2.33,3.46
				c0.57,1.32,0.86,2.89,0.86,4.65c0,4.33-1.47,7.82-4.36,10.37c-2.89,2.54-6.71,3.83-11.35,3.83c-1.63,0-3.35-0.29-5.11-0.85
				c-1.76-0.56-3.19-1.14-4.25-1.7c-1.07-0.57-2.2-1.39-3.36-2.46c-1.15-1.06-2.27-2.32-3.3-3.73c-1.03-1.4-2-2.93-2.87-4.52
				c-0.86-1.57-1.59-3.22-2.15-4.89h-0.77l0.28,18.52h0.7c0.49-0.68,1.05-1.39,1.67-2.13
				C1066.59,160.92,1066.87,160.79,1067.03,160.79z"/>
		</g>
	</g>
	<g>
		<g>
			<path class="st0" d="M1115.24,94.47c0-1.43,0.27-2.78,0.82-4.04c0.54-1.26,1.28-2.35,2.2-3.27c0.92-0.92,2.01-1.66,3.28-2.2
				c1.26-0.55,2.61-0.82,4.04-0.82c1.43,0,2.78,0.27,4.04,0.82c1.26,0.55,2.36,1.28,3.3,2.2c0.94,0.92,1.68,2.01,2.23,3.27
				c0.55,1.26,0.82,2.61,0.82,4.04c0,1.43-0.27,2.78-0.82,4.04c-0.55,1.26-1.29,2.36-2.23,3.3c-0.94,0.94-2.04,1.68-3.3,2.23
				c-1.26,0.55-2.61,0.82-4.04,0.82c-1.43,0-2.78-0.27-4.04-0.82c-1.26-0.55-2.35-1.29-3.28-2.23c-0.92-0.94-1.66-2.04-2.2-3.3
				C1115.52,97.24,1115.24,95.9,1115.24,94.47z M1125.63,103.22c1.17,0,2.25-0.23,3.25-0.71c1-0.47,1.87-1.1,2.63-1.89
				c0.75-0.79,1.35-1.7,1.78-2.74c0.43-1.03,0.65-2.14,0.65-3.3c0-1.2-0.23-2.34-0.68-3.42c-0.45-1.07-1.05-2-1.81-2.8
				c-0.75-0.79-1.64-1.42-2.65-1.89c-1.02-0.47-2.11-0.71-3.28-0.71c-1.17,0-2.25,0.23-3.25,0.68c-1,0.45-1.86,1.07-2.6,1.86
				c-0.73,0.79-1.32,1.71-1.75,2.77c-0.43,1.05-0.65,2.17-0.65,3.33c0,1.13,0.21,2.22,0.62,3.27c0.41,1.05,0.99,2,1.72,2.82
				c0.73,0.83,1.62,1.49,2.65,1.98C1123.31,102.97,1124.43,103.22,1125.63,103.22z M1131.45,99.72c-0.08,0.15-0.19,0.31-0.34,0.48
				c-0.15,0.17-0.28,0.31-0.39,0.42h-0.51c-0.53,0-1-0.12-1.41-0.37c-0.42-0.24-0.73-0.52-0.96-0.82l-2.82-4.07h-0.45v3.39
				c0,0.11,0.04,0.24,0.11,0.37c0.08,0.13,0.32,0.24,0.73,0.31c0.15,0,0.23,0.11,0.23,0.34c0,0.08,0,0.19,0,0.34
				c0,0.15-0.02,0.26-0.06,0.34c-0.34,0-0.71-0.01-1.1-0.03c-0.39-0.02-0.8-0.03-1.21-0.03c-0.3,0-0.68,0.01-1.13,0.03
				c-0.45,0.02-0.87,0.03-1.24,0.03c-0.04-0.08-0.06-0.19-0.06-0.34c0-0.15,0-0.26,0-0.34c0-0.23,0.07-0.34,0.23-0.34
				c0.38-0.08,0.61-0.18,0.71-0.31c0.09-0.13,0.14-0.25,0.14-0.37v-8.92c0-0.15-0.06-0.25-0.17-0.31c-0.11-0.06-0.34-0.12-0.68-0.2
				c-0.15-0.04-0.23-0.17-0.23-0.4c0-0.04,0-0.14,0-0.31c0-0.17,0.02-0.29,0.06-0.37c0.38,0.08,0.81,0.11,1.3,0.11
				c0.49,0,0.92,0,1.3,0h2.09c1.32,0,2.42,0.26,3.3,0.79c0.88,0.53,1.33,1.39,1.33,2.6c0,0.75-0.23,1.4-0.68,1.95
				c-0.45,0.55-1.02,0.95-1.69,1.21l2.99,4.29C1130.94,99.4,1131.15,99.57,1131.45,99.72z M1125.07,93.79
				c0.64,0,1.18-0.15,1.61-0.45c0.43-0.3,0.65-0.83,0.65-1.58c0-1.39-0.77-2.09-2.32-2.09h-0.45v4.12H1125.07z"/>
		</g>
	</g>
</g>
<linearGradient id="SVGID_1_" gradientUnits="userSpaceOnUse" x1="130.5871" y1="158.9734" x2="23.3189" y2="69.5833">
	<stop  offset="0" style="stop-color:#EAD792"/>
	<stop  offset="0.387" style="stop-color:#BB9442"/>
	<stop  offset="0.9944" style="stop-color:#F3CB4E"/>
</linearGradient>
<path class="st2" d="M147.67,60.9c-4.88-19-16.86-36.96-30.39-51.19c-0.76-0.8-4.12-3.93-4.32-3.77
	c-3.22,2.64-28.61,16.58-37.57,21.05c-19.54,9.74-40.95,18.24-54.28,35.53C9.7,77.35,5.9,97.26,9.9,115.43
	c0.81,3.69,1.9,7.37,3.36,10.88l-0.01,0c0,0,0.37,0.97,1.13,2.52c0.01,0.02,0.02,0.05,0.04,0.07c0.16,0.33,0.34,0.69,0.54,1.07
	c0.41,0.8,0.85,1.58,1.31,2.35c3.89,6.59,11.7,16.59,24.43,19.36l-3.53,5.83c-8.54,15.55-13.81,32.25-13.19,51.11
	c2.63-3.12,5.53-6.18,8.83-9.15c0.47-14.78,4.29-28.28,10.03-41.04c4.47-9.92,10.1-19.4,16.22-28.69
	c18.86-28.6,41.24-55.41,49.93-87.9c0.25-0.94,1.2-1.48,2.12-1.21c0.86,0.25,1.41,1.13,1.26,2.04
	c-3.82,22.21-14.56,40.45-26.17,59.39c-2.83,4.39-5.48,8.45-7.97,12.26c0,0.01-5.88,8.37-11.75,18.35
	c-3.74,6.12-6.51,11.23-8.14,15.52c-1.65,3.74-2.86,7.23-3.33,10.09c-0.1,0.64,0.13,1.27,0.59,1.72c1.38,1.35,4.68,4.25,9.66,6.43
	c2.82,1.24,5.79,2.09,8.79,2.76c6.81,1.69,15.34,2.27,25.45,0.03c0.72-0.15,1.44-0.33,2.15-0.5c0.05-0.01,0.1-0.02,0.15-0.04
	c2.25-0.57,4.47-1.25,6.63-2.06c0.03-0.01,0.06-0.02,0.09-0.03c0.65-0.23,1.25-0.48,1.82-0.74c0.23-0.1,0.47-0.18,0.7-0.28
	c23.09-9.92,37.76-34.15,40.61-58.56C153.44,91.58,151.52,75.88,147.67,60.9z"/>
</svg>
