<?xml version="1.0" encoding="UTF-8"?> <svg xmlns="http://www.w3.org/2000/svg" viewBox="0 0 90.02 45.5"><defs><style>.cls-1,.cls-2{fill:#6fc;}.cls-1{opacity:0.5;}</style></defs><g id="Layer_2" data-name="Layer 2"><g id="Header"><g id="Logo"><path class="cls-1" d="M0,19H19a6,6,0,0,0,4.41-1.85,6.09,6.09,0,0,0,1.9-4.46,6,6,0,0,0-1.9-4.47A6,6,0,0,0,19,6.36H6.31L0,0H19a12.17,12.17,0,0,1,8.92,3.7,12.39,12.39,0,0,1,3.71,9,12.11,12.11,0,0,1-3.71,9A12.17,12.17,0,0,1,19,25.35H6.31m0,0V39.2L0,32.16V19"></path><path class="cls-2" d="M0,19H19a6,6,0,0,0,4.41-1.85,6.09,6.09,0,0,0,1.9-4.46,6,6,0,0,0-1.9-4.47A6,6,0,0,0,19,6.36H6.31L0,0H19a12.17,12.17,0,0,1,8.92,3.7,12.39,12.39,0,0,1,3.71,9,12.11,12.11,0,0,1-3.71,9A12.17,12.17,0,0,1,19,25.35H6.31m0,0L0,19"></path><path class="cls-2" d="M84,1.47a18.86,18.86,0,0,0-14.72.05A19.18,19.18,0,0,0,63.15,5.6a20.4,20.4,0,0,0-2.52,3.11h0L60.45,9l-.15.25-1.54,2.45L42,39.33l3.69,6.17L64.91,14.05a12.34,12.34,0,0,1,2.75-4,12.31,12.31,0,0,1,4-2.76,13.4,13.4,0,0,1,4.94-.95h0A12.27,12.27,0,0,1,85.51,10L90,5.6A19.86,19.86,0,0,0,84,1.47Z"></path><path class="cls-1" d="M76.59,31.62h0a13.2,13.2,0,0,1-4.94-.95,12.28,12.28,0,0,1-4-2.75,12.57,12.57,0,0,1-2.75-13.87L58.42,24.66c.19.59.41,1.17.65,1.74a19.41,19.41,0,0,0,4.08,6,18.85,18.85,0,0,0,6.08,4.08,18.86,18.86,0,0,0,14.72,0A19.68,19.68,0,0,0,90,32.38L85.51,28A12.27,12.27,0,0,1,76.59,31.62Z"></path><path class="cls-1" d="M30.11,6.62h0a12.37,12.37,0,0,1,1.51,6.05,12.28,12.28,0,0,1-1.78,6.56L42,39.33l3.76-6.19Z"></path></g></g></g></svg> 