<svg width="89" height="24" viewBox="0 0 89 24" fill="none" xmlns="http://www.w3.org/2000/svg">
<path d="M36.4247 9.8155V19.768H32.395V9.84187C32.395 7.60175 34.211 5.78577 36.4511 5.78577H37.1358C39.376 5.78577 41.1919 7.60175 41.1919 9.84187V19.768H37.1622V9.8155L36.4247 9.8155Z" fill="#D6FF01"/>
<path d="M70.5325 9.84187C70.5325 7.60175 72.3485 5.78577 74.5886 5.78577L84.8078 5.78577C87.0391 5.78577 88.8496 7.58751 88.8638 9.8155L74.5623 9.8155L74.5623 15.0008L70.5325 15.0008V9.84187Z" fill="#D6FF01"/>
<path d="M84.8342 10.553H88.8639V15.7119C88.8639 17.952 87.0479 19.768 84.8078 19.768L74.5886 19.768C72.3573 19.768 70.5468 17.9663 70.5326 15.7383H84.8342V10.553Z" fill="#D6FF01"/>
<path fill-rule="evenodd" clip-rule="evenodd" d="M69.7951 15.7119C69.7951 17.952 67.9791 19.768 65.739 19.768H55.5199C53.2797 19.768 51.4638 17.952 51.4638 15.7119V15.0272C51.4638 14.1947 51.7146 13.4208 52.1447 12.7769C51.7146 12.133 51.4638 11.3591 51.4638 10.5266V9.84187C51.4638 7.60175 53.2797 5.78577 55.5199 5.78577H65.739C67.9791 5.78577 69.7951 7.60175 69.7951 9.84187V10.5266C69.7951 11.3591 69.5443 12.133 69.1142 12.7769C69.5443 13.4208 69.7951 14.1947 69.7951 15.0272V15.7119ZM55.4935 15.0008V15.7382H65.7654V15.0008L55.4935 15.0008ZM55.4935 10.5529V9.8155L65.7654 9.8155V10.5529L55.4935 10.5529Z" fill="#D6FF01"/>
<path d="M45.9593 19.768V9.8155L46.6968 9.8155V19.768H50.7265V9.84187C50.7265 7.60175 48.9105 5.78577 46.6704 5.78577H45.9856C43.7455 5.78577 41.9295 7.60175 41.9295 9.84187V19.768H45.9593Z" fill="#D6FF01"/>
<path fill-rule="evenodd" clip-rule="evenodd" d="M13.3778 0.00240152C13.6036 0.012858 13.828 0.0291789 14.0506 0.0512154C15.4231 0.189872 16.7664 0.549417 18.0246 1.1149C18.4103 1.28919 18.791 1.4842 19.1653 1.70031C19.2658 1.75831 19.3652 1.81748 19.4634 1.87777L18.5442 3.46996C20.0623 4.41193 21.341 5.72034 22.2505 7.29578C23.1601 8.87123 23.6539 10.6328 23.7106 12.4185H25.5492C25.5522 12.5338 25.5538 12.6494 25.5538 12.7654C25.5538 13.1939 25.5327 13.6174 25.4915 14.035C25.3532 15.4082 24.9939 16.7521 24.4284 18.0109C24.335 18.2176 24.2357 18.4229 24.1304 18.6265L20.234 16.3769C18.4898 15.3689 17.021 14.0099 15.896 12.4185C15.4104 11.7317 14.9889 11.0016 14.6369 10.2377C13.8207 8.46664 13.3782 6.51401 13.3778 4.49837V0.00240152ZM22.1954 12.4185C22.1393 10.8964 21.7146 9.39617 20.9391 8.05293C20.1636 6.7097 19.0767 5.59177 17.7866 4.78215L15.9998 7.87705C14.8356 9.89587 16.2926 12.4185 18.6234 12.4185H22.1954Z" fill="#D6FF01"/>
<path fill-rule="evenodd" clip-rule="evenodd" d="M12.176 0.00240246C11.9497 0.0128805 11.7249 0.0292468 11.5018 0.0513516C10.1293 0.190151 8.7861 0.549831 7.52793 1.11544C7.14263 1.28959 6.76234 1.48443 6.38843 1.70031C6.28797 1.75831 6.18859 1.81747 6.09031 1.87776L7.00955 3.46994C5.49141 4.41191 4.21276 5.72034 3.30317 7.2958C2.39359 8.87123 1.89979 10.6328 1.84307 12.4185H0.00461907C0.00154628 12.5337 0 12.6494 0 12.7654C0 13.2016 0.0218568 13.6327 0.0645352 14.0576C0.204425 15.4226 0.562796 16.7583 1.12493 18.01C1.21841 18.217 1.31786 18.4226 1.42334 18.6265L5.31696 16.3785C7.06234 15.3703 8.53211 14.0108 9.6578 12.4185C10.1433 11.7317 10.5649 11.0016 10.9169 10.2377C11.7326 8.46758 12.1751 6.51611 12.176 4.50162V0.00240246ZM4.61459 8.05295C5.39011 6.7097 6.47703 5.59175 7.76715 4.78213L9.55315 7.87558C10.7186 9.89416 9.26242 12.4173 6.93198 12.4185L3.35826 12.4185C3.41437 10.8964 3.83908 9.39617 4.61459 8.05295Z" fill="#D6FF01"/>
<path fill-rule="evenodd" clip-rule="evenodd" d="M20.2419 23.1359C21.3572 22.3317 22.3376 21.3519 23.1426 20.2371C23.2759 20.0516 23.4049 19.8617 23.5295 19.6673L19.6359 17.4193C17.8901 16.4119 15.9778 15.8188 14.036 15.6401C13.1984 15.563 12.3553 15.563 11.5178 15.6401C9.577 15.8187 7.66573 16.4113 5.92067 17.4177L2.02423 19.6673C2.14542 19.8564 2.27086 20.0414 2.40036 20.222C3.21005 21.3468 4.19811 22.3346 5.32311 23.144C5.66325 23.3877 6.01847 23.6169 6.38842 23.8305C6.48889 23.8885 6.58982 23.945 6.69118 24L7.61043 22.4078C9.18526 23.2515 10.9577 23.7047 12.7768 23.7047C14.596 23.7047 16.3685 23.2515 17.9433 22.4078L18.8626 24C18.9639 23.945 19.0648 23.8885 19.1653 23.8305C19.5393 23.6146 19.8983 23.3826 20.2419 23.1359ZM17.1857 21.0956L15.3989 18.0007C14.2326 15.9831 11.3195 15.9836 10.154 18.0022L8.36803 21.0956C9.71422 21.8081 11.2258 22.1904 12.7768 22.1904C14.3279 22.1904 15.8395 21.808 17.1857 21.0956Z" fill="#D6FF01"/>
</svg>
