<svg width="706" height="218" viewBox="0 0 706 218" fill="none" xmlns="http://www.w3.org/2000/svg">
<g clip-path="url(#clip0_15_711)">
<path d="M108.988 218C169.18 218 217.975 169.199 217.975 109C217.975 48.801 169.18 0 108.988 0C48.7954 0 0 48.801 0 109C0 169.199 48.7954 218 108.988 218Z" fill="#B4E5FC"/>
<path d="M153.105 186.039C158.834 180.308 163.481 173.942 167.237 167.256C135.725 184.893 95.5551 181.072 67.8626 155.796C66.844 154.968 65.8254 154.077 64.8705 153.122C63.9156 152.167 63.0244 151.148 62.1968 150.13C36.9234 122.37 33.1037 82.2594 50.7378 50.7436C43.9897 54.5 37.6236 59.1478 31.9578 64.8779C-1.52785 98.3674 -1.52785 152.613 31.9578 186.039C65.3798 219.528 119.619 219.528 153.105 186.039Z" fill="#4FC3F7"/>
<path d="M64.8705 31.8978C59.141 37.6279 54.4938 43.9947 50.7378 50.6799C82.25 33.1075 122.356 36.9276 150.113 62.2039C151.131 63.0315 152.15 63.9229 153.105 64.8779C154.06 65.8329 154.951 66.8516 155.778 67.8703C180.988 95.566 184.871 135.741 167.237 167.256C173.985 163.5 180.352 158.852 186.017 153.122C219.503 119.633 219.503 65.3873 186.017 31.9614C152.595 -1.52804 98.3562 -1.52804 64.8705 31.8978Z" fill="#4FC3F7"/>
<path d="M64.8705 97.4761C70.982 91.3639 78.5576 87.7348 86.4516 86.4614C87.7248 78.5666 91.3535 70.9264 97.465 64.8779C111.852 50.4889 134.643 49.5975 150.113 62.2038C122.356 36.9276 82.25 33.1075 50.7378 50.7436C33.1037 82.2593 36.9234 122.37 62.1968 150.13C49.5919 134.658 50.4832 111.865 64.8705 97.4761Z" fill="#507DE7"/>
<path d="M155.778 67.8703C168.383 83.3417 167.492 106.135 153.105 120.524C146.993 126.636 139.418 130.265 131.524 131.539C130.25 139.433 126.622 147.074 120.51 153.122C106.123 167.511 83.3322 168.402 67.8626 155.796C95.5551 181.009 135.725 184.893 167.237 167.256C184.871 135.741 180.988 95.566 155.778 67.8703Z" fill="#507DE7"/>
<path d="M131.497 131.501C137.861 125.136 132.944 109.898 120.513 97.4664C108.083 85.0345 92.8466 80.1165 86.4822 86.4816C80.1178 92.8467 85.0353 108.085 97.4658 120.517C109.896 132.948 125.132 137.867 131.497 131.501Z" fill="#322B92"/>
<path d="M120.51 153.122C126.622 147.01 130.25 139.433 131.524 131.539C119.492 133.449 106.759 129.819 97.5286 120.524C88.2341 111.228 84.6054 98.4947 86.5153 86.5251C78.6213 87.7984 70.982 91.4275 64.9342 97.5397C50.5468 111.929 49.6556 134.722 62.2604 150.193C63.1517 151.212 63.9793 152.231 64.9342 153.186C65.8891 154.141 66.9077 154.968 67.9263 155.86C83.3322 168.402 106.123 167.511 120.51 153.122Z" fill="#5048DB"/>
<path d="M97.4649 64.8779C91.3535 70.9901 87.7248 78.5666 86.4516 86.4614C98.4835 84.5514 111.216 88.1805 120.447 97.4761C129.677 106.772 133.37 119.505 131.46 131.475C139.354 130.202 146.993 126.572 153.041 120.46C167.428 106.071 168.32 83.278 155.715 67.8067C154.823 66.788 153.996 65.7693 153.041 64.8143C152.086 63.8592 151.067 63.0315 150.049 62.1402C134.643 49.5975 111.852 50.4889 97.4649 64.8779Z" fill="#5048DB"/>
<path d="M280.108 102.888H310.602V115.431H280.108V128.737H314.485V141.343H266.23V76.1472H314.485C314.485 83.0871 308.883 88.6899 301.944 88.6899H280.108V102.888Z" fill="#09183D"/>
<path d="M383.876 114.985H389.159C386.486 131.666 373.944 142.681 357.074 142.681C338.103 142.681 323.079 128.482 323.079 108.745C323.079 89.0082 338.103 74.8102 357.074 74.8102C373.944 74.8102 386.486 85.8248 389.159 102.506H374.963C372.671 93.2103 366.432 88.0532 357.074 88.0532C345.488 88.0532 337.085 96.3937 337.085 108.745C337.085 121.097 345.488 129.438 357.074 129.438C363.886 129.438 369.043 126.7 372.226 121.67C374.772 117.595 379.101 114.985 383.876 114.985Z" fill="#09183D"/>
<path d="M449.255 141.343H402.146V76.1472H416.024V128.928H436.905C443.717 128.928 449.255 134.467 449.255 141.343Z" fill="#09183D"/>
<path d="M474.019 141.343H460.141V90.0906C460.141 82.4504 466.38 76.2109 474.019 76.2109V141.343Z" fill="#09183D"/>
<path d="M513.362 76.1472C529.277 76.1472 539.718 85.2518 539.718 99.2588C539.718 113.902 528.577 123.516 511.579 123.516H501.839V128.674C501.839 135.677 496.173 141.343 489.171 141.343H487.898V76.1472H513.362ZM512.853 110.974C520.683 110.974 525.967 106.262 525.967 99.2588C525.967 92.9556 520.683 88.8172 512.853 88.8172H501.712V110.974H512.853Z" fill="#09183D"/>
<path d="M581.606 88.8172V141.343H567.728V88.8172H545.956V76.1472H603.315C603.315 83.1507 597.649 88.8172 590.646 88.8172H581.606Z" fill="#09183D"/>
<path d="M614.265 141.343H612.991V76.1472H626.869V128.674C626.933 135.677 621.267 141.343 614.265 141.343Z" fill="#09183D"/>
<path d="M700.716 114.985H706C703.326 131.666 690.785 142.681 673.915 142.681C654.944 142.681 639.92 128.482 639.92 108.745C639.92 89.0082 654.944 74.8102 673.915 74.8102C690.785 74.8102 703.326 85.8248 706 102.506H691.804C689.512 93.2103 683.273 88.0532 673.915 88.0532C662.329 88.0532 653.925 96.3937 653.925 108.745C653.925 121.097 662.329 129.438 673.915 129.438C680.727 129.438 685.883 126.7 689.066 121.606C691.676 117.595 695.941 114.985 700.716 114.985Z" fill="#09183D"/>
</g>
<defs>
<clipPath id="clip0_15_711">
<rect width="706" height="218" fill="white"/>
</clipPath>
</defs>
</svg>
