<?xml version="1.0" encoding="utf-8"?>
<!-- Generator: Adobe Illustrator 21.1.0, SVG Export Plug-In . SVG Version: 6.00 Build 0)  -->
<svg version="1.1" id="Layer_1" xmlns="http://www.w3.org/2000/svg" xmlns:xlink="http://www.w3.org/1999/xlink" x="0px" y="0px"
	 viewBox="0 0 259 74.5" style="enable-background:new 0 0 259 74.5;" xml:space="preserve">
<style type="text/css">
	.st0{fill:#346094;}
	.st1{fill:#FFFFFF;}
</style>
<g>
	<g>
		<path class="st0" d="M37.3,73.4c-19.9,0-36.1-16.2-36.1-36.1c0-19.9,16.2-36.1,36.1-36.1c19.9,0,36.1,16.2,36.1,36.1
			C73.4,57.2,57.2,73.4,37.3,73.4"/>
		<path class="st1" d="M60.9,26.8l-7.2,0c-4.4,3-9.2,7.6-12.1,14.1c0,0.1-0.8-2.4-2.9-5.4c2.4-2.9,5.4-5.9,9.1-8.7h-7.3
			c-1.8,1.2-3.7,2.8-5.4,4.6c-2.1-2-4.9-3.8-8.5-5.1c0,0,3,1.5,6.6,7.2c-1.8,2.1-3.5,4.6-4.8,7.5c-0.1,0.1-3.1-10.2-14.7-14.5v0
			c1.8,1.2,10,7.8,15.1,30.2c0,0.1,0.8-8.2,7.3-17.7c2.1,4.4,4.2,10.1,5.9,17.7C42.1,56.7,43.7,39.9,60.9,26.8"/>
	</g>
	<g>
		<path class="st0" d="M92.6,49.7l-5.3-22.3h5.4l1.7,9.2c0.5,2.6,1,5.5,1.3,7.8h0.1c0.4-2.4,0.9-5.1,1.5-7.8l1.9-9.1h5.4l1.8,9.4
			c0.5,2.6,0.9,5,1.2,7.5h0.1c0.3-2.5,0.8-5.1,1.3-7.7l1.8-9.1h5.1L110,49.7h-5.5l-1.9-9.6c-0.4-2.2-0.8-4.3-1.1-6.9h-0.1
			c-0.4,2.5-0.8,4.6-1.3,6.9l-2.1,9.6H92.6z"/>
	</g>
	<g>
		<path class="st0" d="M120.7,43.2c0.2,2.1,2.2,3.1,4.6,3.1c1.7,0,3.1-0.2,4.5-0.7l0.7,3.4c-1.7,0.7-3.7,1-5.9,1
			c-5.5,0-8.6-3.2-8.6-8.2c0-4.1,2.5-8.6,8.2-8.6c5.2,0,7.2,4.1,7.2,8.1c0,0.9-0.1,1.6-0.2,2H120.7z M126.6,39.8
			c0-1.2-0.5-3.3-2.8-3.3c-2.1,0-3,1.9-3.1,3.3H126.6z"/>
		<path class="st0" d="M134.2,45.3c0.9,0.6,2.8,1.2,4.3,1.2c1.5,0,2.1-0.5,2.1-1.4s-0.5-1.2-2.4-1.9c-3.3-1.1-4.6-2.9-4.6-4.9
			c0-3,2.6-5.3,6.6-5.3c1.9,0,3.6,0.4,4.6,0.9l-0.9,3.5c-0.7-0.4-2.1-0.9-3.5-0.9c-1.2,0-1.9,0.5-1.9,1.3c0,0.8,0.6,1.2,2.6,1.9
			c3.1,1.1,4.4,2.6,4.4,5c0,3-2.4,5.2-7,5.2c-2.1,0-4-0.5-5.2-1.1L134.2,45.3z"/>
	</g>
	<g>
		<path class="st0" d="M154.2,28.9v4.6h3.6v3.7h-3.6v5.9c0,2,0.5,2.8,2,2.8c0.6,0,1.1-0.1,1.5-0.1l0,3.8c-0.7,0.3-1.9,0.4-3.3,0.4
			c-1.6,0-3-0.6-3.8-1.4c-0.9-1-1.4-2.5-1.4-4.8v-6.6h-2.1v-3.7h2.1V30L154.2,28.9z"/>
	</g>
	<g>
		<path class="st0" d="M164.4,33.5l1.3,6.6c0.3,1.7,0.7,3.5,0.9,5.3h0.1c0.3-1.9,0.8-3.7,1.2-5.3l1.7-6.6h4l1.6,6.4
			c0.4,1.8,0.9,3.6,1.2,5.5h0.1c0.2-1.9,0.6-3.7,0.9-5.5l1.4-6.4h4.9l-5,16.2H174l-1.5-5.7c-0.4-1.6-0.7-3-1-5h-0.1
			c-0.3,2-0.6,3.5-1.1,5l-1.6,5.7h-4.7l-4.7-16.2H164.4z"/>
	</g>
	<g>
		<path class="st0" d="M201.5,41.4c0,5.9-4.2,8.6-8.5,8.6c-4.7,0-8.4-3.1-8.4-8.3c0-5.2,3.4-8.6,8.6-8.6
			C198.1,33.2,201.5,36.6,201.5,41.4z M189.8,41.6c0,2.8,1.2,4.9,3.3,4.9c1.9,0,3.2-1.9,3.2-4.9c0-2.4-0.9-4.9-3.2-4.9
			C190.6,36.7,189.8,39.2,189.8,41.6z"/>
		<path class="st0" d="M220.5,41.4c0,5.9-4.2,8.6-8.5,8.6c-4.7,0-8.4-3.1-8.4-8.3c0-5.2,3.4-8.6,8.6-8.6
			C217.2,33.2,220.5,36.6,220.5,41.4z M208.8,41.6c0,2.8,1.2,4.9,3.3,4.9c1.9,0,3.2-1.9,3.2-4.9c0-2.4-0.9-4.9-3.2-4.9
			C209.7,36.7,208.8,39.2,208.8,41.6z"/>
		<path class="st0" d="M239.3,26.2v18.6c0,1.8,0.1,3.7,0.1,4.8H235l-0.2-2.4h-0.1c-1,1.8-3,2.7-5.1,2.7c-3.8,0-6.9-3.3-6.9-8.3
			c0-5.5,3.4-8.6,7.2-8.6c2,0,3.5,0.7,4.3,1.8h0.1v-8.8H239.3z M234.3,40.4c0-0.3,0-0.6-0.1-0.9c-0.3-1.4-1.4-2.5-2.9-2.5
			c-2.3,0-3.5,2-3.5,4.6c0,2.7,1.4,4.5,3.4,4.5c1.5,0,2.6-1,2.9-2.4c0.1-0.4,0.1-0.7,0.1-1.2V40.4z"/>
	</g>
	<g>
		<path class="st0" d="M251.6,31.1c0,2.4-2,4.4-4.5,4.4s-4.5-1.9-4.5-4.4c0-2.4,2-4.3,4.5-4.3S251.6,28.7,251.6,31.1z M244,31.1
			c0,1.8,1.3,3.2,3.1,3.2s3.1-1.4,3.1-3.3c0-1.8-1.3-3.2-3.2-3.2C245.3,27.8,244,29.3,244,31.1z M246.6,33.1h-1.2v-4
			c0.3-0.1,0.9-0.1,1.8-0.1c0.9,0,1.3,0.1,1.6,0.3c0.3,0.2,0.4,0.5,0.4,0.9c0,0.4-0.4,0.8-0.9,0.9v0.1c0.5,0.2,0.7,0.5,0.8,1
			s0.2,0.8,0.3,1h-1.4c-0.1-0.2-0.2-0.5-0.3-0.9c-0.1-0.4-0.3-0.6-0.7-0.6h-0.4V33.1z M246.6,30.8h0.4c0.5,0,0.8-0.2,0.8-0.5
			c0-0.3-0.3-0.5-0.7-0.5c-0.2,0-0.3,0-0.4,0V30.8z"/>
	</g>
</g>
</svg>
