<svg xmlns="http://www.w3.org/2000/svg" xmlns:xlink="http://www.w3.org/1999/xlink" width="1179.396" height="355.509" viewBox="0 0 1179.396 355.509">
  <defs>
    <clipPath id="clip-path">
      <path id="Path_212" data-name="Path 212" d="M0,307.4H1179.4V-48.112H0Z" transform="translate(0 48.112)" fill="none"/>
    </clipPath>
  </defs>
  <g id="Group_333" data-name="Group 333" transform="translate(0 58.112)">
    <g id="Group_273" data-name="Group 273" transform="translate(0 -58.112)" clip-path="url(#clip-path)">
      <g id="Group_261" data-name="Group 261" transform="translate(291.142 0.001)">
        <path id="Path_200" data-name="Path 200" d="M446.291,47.67l.48-16.744,4.958,11.512,4.722,11.091,32.911-60.99-65.83,30.739,15.658,6.68L429.54,39.2c-7.722,7.434-15.155,14.6-22.67,21.7a4.666,4.666,0,0,1-1.589.968L387.5,51.882,337.537,91.089l-.414.421-41.7-27.783-57.2-37.966a2.551,2.551,0,0,1-.473.273c-3.1,1.929-6.214,3.924-9.384,5.926Q200.453,49.639,172.47,67.31L140.911,87.231l-10.271,6.48-14.062,9.022,4-9.3c-6.273-4-12.539-7.988-18.82-12.059l-9.51-6.059c-.613-.414-1.234-.761-1.714-1.108L79.152,79.51l-.547.273L-69.851,156.7,84.672,97.776l-15.377,50.66,7.862-5.039Q145.91,99.161,214.515,54.978c5.786-3.791,11.645-7.515,17.505-11.305a8.242,8.242,0,0,1,1.382-.828h.133l4.485-2.9,5.3,4.419L257.387,56c13.781,11.446,27.488,22.818,41.343,34.123l.281.207,21.569,16.6-11.712-2.682a11.962,11.962,0,0,1-.828,2.342c-6.547,14.062-13.168,28.19-19.722,42.251q42.706-34.016,85.33-67.958l9.3-7.448,4.759-3.791L410.868,82.34C419.062,74.2,427.2,66.209,435.4,58.288Z" transform="translate(69.851 7.461)" fill="#fff"/>
      </g>
      <g id="Group_262" data-name="Group 262" transform="translate(-0.001 272.851)">
        <path id="Path_201" data-name="Path 201" d="M43.146,15.762c-.805-1.234-1.877-2.956-2.682-4.19A22.557,22.557,0,0,0,27.053,1.715c.133-.244-5.5-.739-5.5-.739-10.589,0-17.7,6.406-17.7,15.894,0,5.911,9.392,12.687,23.475,16.751,13.951,4.071,23.2,13.434,23.2,23.283,0,13.921-11.535,23.283-28.973,23.283-10.456,0-21.724-2.335-28.3-5.786V62.085h1.744c.539.857,1.2,1.847,1.744,2.7,3.621,5.793,11,10.227,18.776,11.461a49.746,49.746,0,0,0,5.9.369c11,0,18.377-5.668,18.377-14.165,0-6.776-9.658-14.172-24.14-18.362C2.232,40.154-6.613,31.405-6.613,22.169c0-14.786,11.535-24.636,28.7-24.636a53.152,53.152,0,0,1,22.67,5.786V15.637Z" transform="translate(6.753 2.467)" fill="#fff"/>
      </g>
      <g id="Group_263" data-name="Group 263" transform="translate(82.673 271.614)">
        <path id="Path_202" data-name="Path 202" d="M48.481,70.517h.938c3.214,0,3.887-3.207,1.744-8.01-2.682-6.155-5.631-12.562-8.32-18.842H12.8L6.1,61.4c-1.877,5.424-.805,8.993,2.815,8.993H9.983v1.847H-7.588V70.392c3.621,0,6.31-2.461,8.453-7.389l29.106-74.04h3.754L67.8,62.759c2.409,4.921,5.232,7.515,8.579,7.515v1.847H48.747ZM26.617,7.2,14.144,40.214H41.373Z" transform="translate(7.588 11.037)" fill="#fff"/>
      </g>
      <g id="Group_264" data-name="Group 264" transform="translate(192.439 273.465)">
        <path id="Path_203" data-name="Path 203" d="M22.151,1.6c-3.488,0-5.365,2.586-5.365,8.01v68H38.112c7.249,0,14.357-3.443,17.7-8.5L56.9,67.627s.805.244,2.01.5a.443.443,0,0,0,.532,0c-.665,3.325-1.6,7.884-2.143,11.209l-.4,1.722H-3.467V79.206C.021,79.206,1.9,76.62,1.9,71.2V9.607C1.9,4.184.021,1.6-3.467,1.6V-.25H22.151Z" transform="translate(3.467 0.25)" fill="#fff"/>
      </g>
      <g id="Group_265" data-name="Group 265" transform="translate(285.981 273.342)">
        <path id="Path_204" data-name="Path 204" d="M65.758,1.6h-.938c-3.089,0-5.232,3.695-5.232,9.236V58.021c0,14.165-8.852,23.653-31.655,23.653-23.608,0-32.86-10.966-32.86-27.355V9.607c0-5.424-1.877-8.01-5.365-8.01V-.25H15.326V1.6c-3.488,0-5.365,2.586-5.365,8.01V57.031c0,11.948,5.631,19.833,20.246,19.833,17.845,0,24.82-8.128,24.82-20.2l.133-46.811c-.273-4.929-2.416-8.128-5.5-8.128h-.946V-.124H65.758Z" transform="translate(10.292 0.25)" fill="#fff"/>
      </g>
      <g id="Group_266" data-name="Group 266" transform="translate(396.278 273.464)">
        <path id="Path_205" data-name="Path 205" d="M0,0H34.6C63.717,0,83.025,16.264,83.025,40.655S65.586,81.3,39.436,81.3H0V79.456c3.488,0,5.365-2.586,5.365-8V9.857c0-5.424-1.877-8.01-5.365-8.01ZM39.436,77.853c17.165,0,28.7-14.9,28.7-37.2S54.724,3.451,34.6,3.451H20.254v74.4Z" fill="#fff"/>
      </g>
      <g id="Group_267" data-name="Group 267" transform="translate(505.513 271.614)">
        <path id="Path_206" data-name="Path 206" d="M48.475,70.517h.938c3.222,0,3.894-3.207,1.744-8.01-2.682-6.155-5.631-12.562-8.313-18.842H12.8L6.09,61.4c-1.877,5.424-.805,8.993,2.815,8.993H9.984v1.847H-7.587V70.392c3.621,0,6.3-2.461,8.446-7.389l29.106-74.04h3.754l34.072,73.8c2.416,4.921,5.232,7.515,8.586,7.515v1.847H48.748ZM26.618,7.2,14.137,40.214H41.366Z" transform="translate(7.587 11.037)" fill="#fff"/>
      </g>
      <g id="Group_268" data-name="Group 268" transform="translate(668.843 272.851)">
        <path id="Path_207" data-name="Path 207" d="M67.15,16.082c-.539-.865-1.212-1.847-1.744-2.712C60.175,5.116,49.845.926,36.434.926,18.2.926,5.99,16.082,5.99,38.752S18.2,76.57,36.434,76.57a82.672,82.672,0,0,0,19.714-2.586V51.069c0-5.424-1.877-8.01-5.365-8.01V41.212H74.931V43.06c-3.488,0-5.365,2.586-5.365,8.01v21.68C61.379,77.057,48.1,80.02,36.434,80.02,8.266,80.02-10.51,63.513-10.51,38.752S8.266-2.517,36.434-2.517C47.7-2.517,60.707.439,68.894,4.747l-.938,1.478.938-1.478V16.082Z" transform="translate(10.51 2.517)" fill="#fff"/>
      </g>
      <g id="Group_269" data-name="Group 269" transform="translate(790.95 273.464)">
        <path id="Path_208" data-name="Path 208" d="M0,0H36.214C55.123,0,67.737,8.379,67.737,20.941c0,9.983-8.047,17.372-21.059,20.328,3.488,4.19,12.074,14.786,23.475,29.564,6.037,7.64,6.3,7.759,12.207,7.759V81.3H77.128c-16.367,0-17.438-.488-27.237-13.057-9.118-11.7-16.227-20.815-19.847-25.5H20.387V71.453c0,5.416,1.877,8,5.365,8V81.3H.133V79.456c3.488,0,5.365-2.586,5.365-8V9.857c0-5.424-1.877-8.01-5.365-8.01ZM52.042,20.941c0-10.47-6.3-17.49-15.828-17.49H20.254V39.3H32.993c11.4,0,19.049-7.389,19.049-18.355" fill="#fff"/>
      </g>
      <g id="Group_270" data-name="Group 270" transform="translate(892.803 271.614)">
        <path id="Path_209" data-name="Path 209" d="M48.475,70.517h.938c3.222,0,3.894-3.207,1.744-8.01-2.682-6.155-5.631-12.562-8.313-18.842H12.8L6.09,61.4c-1.877,5.424-.805,8.993,2.815,8.993H9.984v1.847H-7.587V70.392c3.621,0,6.3-2.461,8.446-7.389l29.106-74.04h3.754l34.072,73.8c2.416,4.921,5.232,7.515,8.586,7.515v1.847H48.748ZM26.618,7.2,14.137,40.214H41.366Z" transform="translate(7.587 11.037)" fill="#fff"/>
      </g>
      <g id="Group_271" data-name="Group 271" transform="translate(1002.299 273.464)">
        <path id="Path_210" data-name="Path 210" d="M0,0H34.6C63.71,0,83.025,16.264,83.025,40.655S65.586,81.3,39.436,81.3H0V79.456c3.488,0,5.365-2.586,5.365-8V9.857c0-5.424-1.877-8.01-5.365-8.01ZM39.436,77.853c17.165,0,28.7-14.9,28.7-37.2S54.724,3.451,34.6,3.451H20.254v74.4Z" fill="#fff"/>
      </g>
      <g id="Group_272" data-name="Group 272" transform="translate(1116.629 273.465)">
        <path id="Path_211" data-name="Path 211" d="M42.795,39.2l-.532-.865c-1.618-2.83-7.116-4.8-13.951-4.8H13.556V71.718H33.544c8.047,0,15.828-3.074,19.847-7.633l1.212-1.36h1.47c-.665,3.207-1.47,7.515-2.01,10.722l-.4,1.722H-6.7V73.321c3.488,0,5.365-2.586,5.365-8.01V3.722c0-5.424-1.877-8.01-5.365-8.01V-6.135H53.524V6.308H52.046l-.938-1.36C48.026.39,40.785-2.684,32.738-2.684H13.556V30.079H28.312c6.835,0,12.473-1.722,13.951-4.19l.532-.739h1.611V39.2Z" transform="translate(6.698 6.135)" fill="#fff"/>
      </g>
    </g>
  </g>
</svg>
